# Blender v2.92.0 OBJ File: ''
# www.blender.org
mtllib 3d_star.mtl
o 3DStar_Cube
v 1.111831 1.321103 -1.316387
v 1.111831 -1.133568 -1.316387
v 1.111831 1.321102 1.344722
v 1.111831 -1.133568 1.344722
v -1.041633 1.321102 -1.316387
v -1.041633 -1.133568 -1.316387
v -1.041633 1.321102 1.344722
v -1.041633 -1.133568 1.344722
v -0.500000 -0.500000 5.343954
v -0.500000 0.500000 5.343953
v 0.500000 0.500000 5.343953
v 0.500000 -0.500000 5.343954
v 0.500000 -0.500000 -5.110194
v -0.500000 -0.500000 -5.110194
v 0.500000 0.500000 -5.110194
v -0.500000 0.500000 -5.110194
v 0.500000 5.149095 0.500000
v -0.500000 5.149095 0.500000
v 0.500000 5.149096 -0.500000
v -0.500000 5.149095 -0.500000
v 3.422607 0.500000 -0.500000
v 3.422607 -0.500000 -0.500000
v 3.422607 0.500000 0.500000
v 3.422607 -0.500000 0.500000
v -2.843474 -0.500000 -0.500000
v -2.843474 -0.500000 0.500000
v -2.843474 0.500000 0.500000
v -2.843474 0.500000 -0.500000
v -0.500000 -3.601936 -0.500000
v -0.500000 -3.601935 0.500000
v 0.500000 -3.601936 -0.500000
v 0.500000 -3.601935 0.500000
v -1.272377 -1.412841 -0.539189
v -1.333149 -1.486090 0.001924
v -1.272378 -1.412842 0.546699
v 0.489277 -1.412841 -1.692165
v 0.004767 -1.486090 -1.790224
v -0.470670 -1.412842 -1.692165
v 1.379631 0.542191 -1.692165
v 1.449929 0.012734 -1.790224
v 1.379630 -0.492482 -1.692165
v -1.272377 -0.492482 1.735456
v -1.333149 0.012734 1.837361
v -1.272377 0.542191 1.735456
v 1.379630 0.542191 1.735456
v 1.449929 0.012734 1.837361
v 1.379631 -0.492482 1.735456
v -1.272377 0.542191 -1.692165
v -1.333149 0.012734 -1.790224
v -1.272377 -0.492482 -1.692165
v 0.489277 1.699369 1.735456
v 0.004767 1.798069 1.837361
v -0.470670 1.699369 1.735456
v 1.379630 1.699369 -0.539189
v 1.449929 1.798069 0.001924
v 1.379631 1.699369 0.546699
v -0.470670 -1.412841 1.735456
v 0.004767 -1.486090 1.837361
v 0.489277 -1.412842 1.735456
v -1.272377 1.699369 0.546699
v -1.333149 1.798069 0.001924
v -1.272377 1.699369 -0.539189
v -0.470670 1.699369 -1.692165
v 0.004767 1.798069 -1.790224
v 0.489277 1.699369 -1.692165
v 1.379630 -1.412841 0.546699
v 1.449929 -1.486090 0.001924
v 1.379630 -1.412842 -0.539189
v -0.572933 -0.296650 5.555165
v -0.609568 -0.000000 5.661258
v -0.572933 0.296650 5.555165
v 0.572933 0.296650 5.555165
v 0.609568 0.000000 5.661259
v 0.572933 -0.296650 5.555164
v 0.296650 0.572933 5.555165
v 0.000000 0.609568 5.661259
v -0.296650 0.572933 5.555164
v -0.296650 -0.572933 5.555164
v -0.000000 -0.609568 5.661259
v 0.296650 -0.572933 5.555165
v 0.824297 -0.832261 2.631679
v 0.684704 -0.687011 3.776365
v 0.582325 -0.582613 4.740108
v -0.581394 -0.582613 4.740108
v -0.677257 -0.687010 3.776366
v -0.798577 -0.832261 2.631679
v -0.798577 0.900970 2.631679
v -0.677257 0.706907 3.776365
v -0.581394 0.585100 4.740108
v 0.582325 0.585100 4.740108
v 0.684704 0.706907 3.776366
v 0.824297 0.900970 2.631679
v 0.296650 -0.572933 -5.310039
v 0.000000 -0.609568 -5.410424
v -0.296650 -0.572933 -5.310039
v 0.572933 0.296650 -5.310039
v 0.609568 -0.000000 -5.410423
v 0.572933 -0.296650 -5.310039
v -0.572933 0.296650 -5.310040
v -0.609568 -0.000000 -5.410424
v -0.572933 -0.296650 -5.310039
v -0.296650 0.572933 -5.310039
v -0.000000 0.609568 -5.410424
v 0.296650 0.572933 -5.310040
v 0.824297 0.900970 -2.541364
v 0.684704 0.706907 -3.626298
v 0.582325 0.585100 -4.538760
v -0.581394 0.585100 -4.538760
v -0.677257 0.706907 -3.626297
v -0.798577 0.900970 -2.541364
v 0.824297 -0.832261 -2.541364
v 0.684704 -0.687011 -3.626298
v 0.582325 -0.582613 -4.538760
v -0.581394 -0.582613 -4.538760
v -0.677257 -0.687011 -3.626298
v -0.798577 -0.832261 -2.541364
v 0.296650 5.350832 0.572933
v 0.000000 5.452167 0.609568
v -0.296650 5.350832 0.572933
v 0.572933 5.350832 -0.296650
v 0.609568 5.452167 0.000000
v 0.572933 5.350832 0.296650
v -0.572933 5.350832 0.296650
v -0.609568 5.452167 0.000000
v -0.572933 5.350832 -0.296650
v -0.296650 5.350832 -0.572933
v 0.000000 5.452167 -0.609568
v 0.296650 5.350832 -0.572933
v -0.798577 2.556393 -0.899243
v -0.677257 3.651271 -0.706407
v -0.581394 4.572267 -0.585038
v 0.582325 4.572267 -0.585038
v 0.684704 3.651271 -0.706407
v 0.824297 2.556393 -0.899243
v 0.824297 2.556393 0.909624
v 0.684704 3.651271 0.709413
v 0.582325 4.572267 0.585413
v -0.581394 4.572267 0.585413
v -0.677257 3.651271 0.709413
v -0.798577 2.556393 0.909624
v 3.540399 0.296650 -0.572933
v 3.599567 -0.000000 -0.609568
v 3.540399 -0.296650 -0.572933
v 3.540399 0.296650 0.572933
v 3.599567 0.000000 0.609568
v 3.540399 -0.296650 0.572933
v 3.540399 0.572933 -0.296650
v 3.599567 0.609568 0.000000
v 3.540399 0.572933 0.296650
v 3.540399 -0.572933 0.296650
v 3.599567 -0.609568 0.000000
v 3.540399 -0.572933 -0.296650
v 1.889348 -0.832261 0.909624
v 2.542908 -0.687011 0.709413
v 3.085162 -0.582613 0.585413
v 3.085162 0.585100 0.585413
v 2.542908 0.706907 0.709413
v 1.889348 0.900970 0.909624
v 1.889348 0.900970 -0.899243
v 2.542908 0.706907 -0.706407
v 3.085162 0.585100 -0.585038
v 3.085162 -0.582613 -0.585038
v 2.542908 -0.687011 -0.706407
v 1.889348 -0.832261 -0.899243
v -2.933107 -0.572933 -0.296650
v -2.978132 -0.609568 -0.000000
v -2.933107 -0.572933 0.296650
v -2.933107 -0.296650 0.572933
v -2.978132 0.000000 0.609568
v -2.933107 0.296650 0.572933
v -2.933107 0.296650 -0.572933
v -2.978132 -0.000000 -0.609568
v -2.933108 -0.296650 -0.572933
v -2.933107 0.572933 0.296650
v -2.978132 0.609568 0.000000
v -2.933107 0.572933 -0.296650
v -1.665594 -0.832261 0.909624
v -2.171119 -0.687011 0.709413
v -2.586327 -0.582613 0.585413
v -2.586327 -0.582613 -0.585038
v -2.171119 -0.687010 -0.706407
v -1.665594 -0.832261 -0.899243
v -1.665594 0.900970 -0.899243
v -2.171119 0.706907 -0.706407
v -2.586327 0.585100 -0.585038
v -2.586327 0.585100 0.585413
v -2.171119 0.706907 0.709413
v -1.665594 0.900970 0.909624
v -0.572933 -3.728446 -0.296650
v -0.609568 -3.791995 0.000000
v -0.572933 -3.728446 0.296650
v 0.296650 -3.728446 -0.572933
v 0.000000 -3.791994 -0.609568
v -0.296650 -3.728446 -0.572933
v -0.296650 -3.728446 0.572933
v 0.000000 -3.791994 0.609568
v 0.296650 -3.728446 0.572933
v 0.572933 -3.728446 0.296650
v 0.609568 -3.791994 0.000000
v 0.572933 -3.728446 -0.296650
v -0.798577 -1.958633 0.909624
v -0.677257 -2.658032 0.709413
v -0.581394 -3.239626 0.585413
v 0.582325 -3.239626 0.585413
v 0.684704 -2.658032 0.709413
v 0.824297 -1.958633 0.909624
v -0.798577 -1.958633 -0.899243
v -0.677257 -2.658032 -0.706407
v -0.581394 -3.239626 -0.585038
v 0.582325 -3.239626 -0.585038
v 0.684704 -2.658032 -0.706407
v 0.824297 -1.958633 -0.899243
v 0.442295 2.622721 -1.170139
v 0.003426 2.673024 -1.260309
v -0.430312 2.622722 -1.170139
v 0.374731 3.679969 -0.909651
v 0.001192 3.708668 -0.978832
v -0.370821 3.679970 -0.909651
v 0.321356 4.629813 -0.744968
v 0.000149 4.680377 -0.799245
v -0.320867 4.629812 -0.744968
v -0.430312 -1.066268 2.700393
v 0.003426 -1.141215 2.752511
v 0.442295 -1.066268 2.700394
v -0.370821 -0.880265 3.806266
v 0.001192 -0.944694 3.836168
v 0.374731 -0.880265 3.806266
v -0.320867 -0.741295 4.800337
v 0.000149 -0.794977 4.853259
v 0.321356 -0.741295 4.800337
v -1.703680 -1.066268 -0.474117
v -1.732510 -1.141215 0.001383
v -1.703680 -1.066268 0.478954
v -2.185585 -0.880265 -0.385047
v -2.200051 -0.944694 0.000481
v -2.185585 -0.880265 0.386625
v -2.612110 -0.741295 -0.322645
v -2.634790 -0.794977 0.000060
v -2.612110 -0.741295 0.322843
v 0.442295 -2.006009 1.186238
v 0.003426 -2.041903 1.278767
v -0.430312 -2.006009 1.186238
v 0.374731 -2.677180 0.914205
v 0.001192 -2.696328 0.984122
v -0.370821 -2.677181 0.914205
v 0.321356 -3.275857 0.745537
v 0.000149 -3.307710 0.799906
v -0.320867 -3.275857 0.745537
v 1.934528 0.476181 1.186238
v 1.968751 0.009152 1.278767
v 1.934528 -0.444168 1.186238
v 2.560949 0.385748 0.914205
v 2.578990 0.003183 0.984122
v 2.560949 -0.375302 0.914205
v 3.118923 0.322733 0.745537
v 3.148607 0.000398 0.799906
v 3.118923 -0.321427 0.745537
v -0.430312 1.172818 -2.607215
v 0.003426 1.263380 -2.657155
v 0.442295 1.172818 -2.607215
v -0.370821 0.910409 -3.654755
v 0.001192 0.979712 -3.683214
v 0.374731 0.910409 -3.654755
v -0.320867 0.745062 -4.595769
v 0.000149 0.799355 -4.645863
v 0.321356 0.745062 -4.595768
v 0.316157 -0.316157 6.007101
v 0.333140 -0.000000 6.160120
v 0.316157 0.316157 6.007102
v -0.000000 -0.333140 6.160120
v -0.000000 0.000000 6.327154
v 0.000000 0.333140 6.160120
v -0.316157 -0.316157 6.007101
v -0.333140 0.000000 6.160120
v -0.316157 0.316157 6.007101
v 0.442295 1.172818 2.700393
v 0.003426 1.263380 2.752510
v -0.430312 1.172818 2.700394
v 0.374731 0.910409 3.806266
v 0.001192 0.979712 3.836168
v -0.370821 0.910409 3.806266
v 0.321356 0.745062 4.800337
v 0.000149 0.799355 4.853258
v -0.320867 0.745062 4.800337
v 1.053918 -0.444168 2.700393
v 1.127055 0.009152 2.752510
v 1.053918 0.476181 2.700393
v 0.876772 -0.375302 3.806266
v 0.940635 0.003183 3.836168
v 0.876772 0.385748 3.806266
v 0.740858 -0.321427 4.800337
v 0.794470 0.000398 4.853258
v 0.740858 0.322733 4.800337
v -1.014034 0.476181 2.700393
v -1.081326 0.009152 2.752510
v -1.014034 -0.444168 2.700394
v -0.865488 0.385748 3.806266
v -0.927527 0.003183 3.836168
v -0.865488 -0.375302 3.806266
v -0.739447 0.322733 4.800337
v -0.792831 0.000398 4.853258
v -0.739447 -0.321427 4.800337
v -0.316157 -0.316157 -5.737656
v -0.333140 -0.000000 -5.882441
v -0.316157 0.316157 -5.737656
v 0.000000 -0.333140 -5.882441
v -0.000000 0.000000 -6.040485
v -0.000000 0.333140 -5.882441
v 0.316157 -0.316157 -5.737655
v 0.333140 0.000000 -5.882441
v 0.316157 0.316157 -5.737656
v 1.053918 0.476181 -2.607215
v 1.127055 0.009152 -2.657155
v 1.053918 -0.444168 -2.607215
v 0.876772 0.385748 -3.654755
v 0.940635 0.003183 -3.683214
v 0.876772 -0.375302 -3.654755
v 0.740858 0.322733 -4.595769
v 0.794470 0.000398 -4.645863
v 0.740858 -0.321427 -4.595768
v -1.014034 -0.444168 -2.607215
v -1.081326 0.009152 -2.657155
v -1.014034 0.476181 -2.607215
v -0.865488 -0.375302 -3.654755
v -0.927527 0.003183 -3.683214
v -0.865488 0.385748 -3.654755
v -0.739447 -0.321427 -4.595769
v -0.792831 0.000398 -4.645863
v -0.739447 0.322733 -4.595769
v 0.442295 -1.066268 -2.607215
v 0.003426 -1.141215 -2.657155
v -0.430312 -1.066268 -2.607215
v 0.374731 -0.880266 -3.654755
v 0.001192 -0.944694 -3.683214
v -0.370821 -0.880265 -3.654755
v 0.321356 -0.741295 -4.595769
v 0.000149 -0.794977 -4.645863
v -0.320867 -0.741295 -4.595769
v 0.316157 5.782496 -0.316157
v 0.000000 5.928651 -0.333140
v -0.316157 5.782496 -0.316157
v 0.333140 5.928651 0.000000
v -0.000000 6.088191 0.000000
v -0.333140 5.928651 -0.000000
v 0.316157 5.782496 0.316157
v -0.000000 5.928651 0.333140
v -0.316157 5.782496 0.316157
v -0.430312 2.622721 1.186238
v 0.003426 2.673024 1.278767
v 0.442295 2.622722 1.186238
v -0.370821 3.679969 0.914205
v 0.001192 3.708668 0.984122
v 0.374731 3.679970 0.914205
v -0.320867 4.629813 0.745537
v 0.000149 4.680377 0.799906
v 0.321356 4.629812 0.745537
v -1.014034 2.622721 -0.474117
v -1.081326 2.673024 0.001383
v -1.014034 2.622722 0.478954
v -0.865488 3.679969 -0.385047
v -0.927527 3.708668 0.000481
v -0.865488 3.679970 0.386625
v -0.739447 4.629812 -0.322645
v -0.792831 4.680377 0.000060
v -0.739447 4.629812 0.322843
v 1.053918 2.622721 0.478954
v 1.127055 2.673024 0.001383
v 1.053918 2.622722 -0.474117
v 0.876772 3.679969 0.386625
v 0.940635 3.708668 0.000481
v 0.876772 3.679970 -0.385047
v 0.740858 4.629813 0.322843
v 0.794470 4.680377 0.000060
v 0.740858 4.629812 -0.322645
v 3.792442 -0.316157 -0.316157
v 3.877781 -0.000000 -0.333140
v 3.792443 0.316157 -0.316157
v 3.877781 -0.333140 0.000000
v 3.970934 0.000000 -0.000000
v 3.877781 0.333140 -0.000000
v 3.792442 -0.316157 0.316157
v 3.877781 0.000000 0.333140
v 3.792442 0.316157 0.316157
v 1.934527 -0.444168 -1.170139
v 1.968751 0.009152 -1.260309
v 1.934528 0.476181 -1.170139
v 2.560949 -0.375302 -0.909651
v 2.578990 0.003183 -0.978832
v 2.560949 0.385748 -0.909651
v 3.118923 -0.321427 -0.744968
v 3.148607 0.000398 -0.799245
v 3.118923 0.322733 -0.744968
v 1.934527 -1.066268 0.478954
v 1.968751 -1.141215 0.001383
v 1.934528 -1.066268 -0.474117
v 2.560949 -0.880266 0.386625
v 2.578990 -0.944694 0.000481
v 2.560949 -0.880265 -0.385047
v 3.118923 -0.741295 0.322843
v 3.148607 -0.794977 0.000060
v 3.118923 -0.741295 -0.322645
v 1.934527 1.172818 -0.474117
v 1.968751 1.263380 0.001383
v 1.934528 1.172818 0.478954
v 2.560949 0.910409 -0.385047
v 2.578990 0.979712 0.000481
v 2.560949 0.910409 0.386625
v 3.118923 0.745062 -0.322645
v 3.148607 0.799355 0.000060
v 3.118923 0.745062 0.322843
v -3.124899 -0.316157 0.316157
v -3.189837 -0.000000 0.333140
v -3.124899 0.316157 0.316157
v -3.189837 -0.333140 -0.000000
v -3.260721 0.000000 -0.000000
v -3.189837 0.333140 0.000000
v -3.124899 -0.316157 -0.316157
v -3.189837 0.000000 -0.333140
v -3.124899 0.316157 -0.316157
v -1.703680 1.172818 0.478954
v -1.732510 1.263380 0.001383
v -1.703680 1.172818 -0.474117
v -2.185585 0.910409 0.386625
v -2.200051 0.979712 0.000481
v -2.185585 0.910409 -0.385047
v -2.612110 0.745062 0.322843
v -2.634790 0.799355 0.000060
v -2.612110 0.745062 -0.322645
v -1.703680 0.476181 -1.170139
v -1.732510 0.009152 -1.260309
v -1.703680 -0.444168 -1.170139
v -2.185585 0.385748 -0.909651
v -2.200051 0.003183 -0.978832
v -2.185585 -0.375302 -0.909651
v -2.612110 0.322733 -0.744968
v -2.634790 0.000398 -0.799245
v -2.612110 -0.321427 -0.744968
v -1.703680 -0.444168 1.186238
v -1.732510 0.009152 1.278767
v -1.703680 0.476181 1.186238
v -2.185585 -0.375302 0.914205
v -2.200051 0.003183 0.984122
v -2.185585 0.385748 0.914205
v -2.612110 -0.321427 0.745537
v -2.634790 0.000398 0.799906
v -2.612110 0.322733 0.745537
v -0.316157 -3.999147 -0.316157
v -0.000000 -4.090802 -0.333140
v 0.316157 -3.999147 -0.316157
v -0.333140 -4.090802 0.000000
v 0.000000 -4.190851 -0.000000
v 0.333140 -4.090803 -0.000000
v -0.316157 -3.999147 0.316157
v 0.000000 -4.090802 0.333140
v 0.316157 -3.999146 0.316157
v -1.014034 -2.006009 0.478954
v -1.081326 -2.041903 0.001383
v -1.014034 -2.006009 -0.474117
v -0.865488 -2.677180 0.386625
v -0.927527 -2.696328 0.000481
v -0.865488 -2.677181 -0.385047
v -0.739447 -3.275857 0.322843
v -0.792831 -3.307710 0.000060
v -0.739447 -3.275857 -0.322645
v 1.053918 -2.006009 -0.474117
v 1.127055 -2.041903 0.001383
v 1.053918 -2.006009 0.478954
v 0.876772 -2.677180 -0.385047
v 0.940635 -2.696328 0.000481
v 0.876772 -2.677181 0.386625
v 0.740858 -3.275857 -0.322645
v 0.794470 -3.307710 0.000060
v 0.740858 -3.275857 0.322843
v -0.430312 -2.006009 -1.170139
v 0.003426 -2.041903 -1.260309
v 0.442295 -2.006009 -1.170139
v -0.370821 -2.677180 -0.909651
v 0.001192 -2.696328 -0.978832
v 0.374731 -2.677181 -0.909651
v -0.320867 -3.275857 -0.744968
v 0.000149 -3.307710 -0.799245
v 0.321356 -3.275857 -0.744968
vt 0.697332 0.513654
vt 0.752689 0.504340
vt 0.755016 0.509742
vt 0.704632 0.520737
vt 0.812836 0.501112
vt 0.813127 0.505775
vt 0.757041 0.522063
vt 0.710817 0.532570
vt 0.813380 0.518139
vt 0.625000 0.522727
vt 0.690104 0.508327
vt 0.654580 0.535411
vt 0.750868 0.502411
vt 0.812608 0.500301
vt 0.875000 0.500000
vt 0.875000 0.500651
vt 0.875000 0.505208
vt 0.875000 0.517578
vt 0.875000 0.541667
vt 0.813489 0.542113
vt 0.757909 0.545235
vt 0.713907 0.552937
vt 0.677503 0.552696
vt 0.687500 0.562500
vt 0.666763 0.543306
vt 0.187703 0.749631
vt 0.249892 0.748782
vt 0.249132 0.750482
vt 0.187392 0.750060
vt 0.311971 0.746571
vt 0.310004 0.751495
vt 0.247287 0.752664
vt 0.187161 0.750333
vt 0.304267 0.758325
vt 0.125000 0.750000
vt 0.189996 0.747094
vt 0.125000 0.750000
vt 0.250000 0.746721
vt 0.310004 0.741565
vt 0.375000 0.727273
vt 0.374566 0.744711
vt 0.371528 0.752797
vt 0.362522 0.764890
vt 0.333333 0.791667
vt 0.294922 0.767578
vt 0.244792 0.755208
vt 0.186849 0.750651
vt 0.125000 0.750000
vt 0.125000 0.750000
vt 0.125000 0.750000
vt 0.125244 0.562717
vt 0.125217 0.625000
vt 0.125000 0.625000
vt 0.125000 0.562500
vt 0.125244 0.687283
vt 0.125000 0.687500
vt 0.125000 0.625000
vt 0.125000 0.562500
vt 0.125000 0.687500
vt 0.125000 0.500000
vt 0.127713 0.564996
vt 0.125000 0.500000
vt 0.126736 0.625000
vt 0.127713 0.685004
vt 0.125000 0.750000
vt 0.125000 0.750000
vt 0.125000 0.750000
vt 0.125000 0.750000
vt 0.125000 0.687500
vt 0.125000 0.625000
vt 0.125000 0.562500
vt 0.125000 0.500000
vt 0.125000 0.500000
vt 0.125000 0.500000
vt 0.303004 0.736023
vt 0.250000 0.743080
vt 0.250000 0.736111
vt 0.295995 0.728745
vt 0.196996 0.739395
vt 0.204005 0.729806
vt 0.250000 0.723500
vt 0.290064 0.716876
vt 0.209936 0.717008
vt 0.345420 0.714589
vt 0.154634 0.720366
vt 0.166763 0.708237
vt 0.177503 0.697497
vt 0.187500 0.687500
vt 0.212919 0.696617
vt 0.250000 0.701196
vt 0.287081 0.696617
vt 0.322497 0.697304
vt 0.312500 0.687500
vt 0.333237 0.706694
vt 0.553004 0.735885
vt 0.500000 0.741970
vt 0.500000 0.735725
vt 0.545995 0.728696
vt 0.446996 0.735885
vt 0.454005 0.728696
vt 0.500000 0.723452
vt 0.540064 0.716870
vt 0.459936 0.716870
vt 0.625000 0.727273
vt 0.560004 0.741372
vt 0.595420 0.714589
vt 0.500000 0.745177
vt 0.439996 0.741372
vt 0.404580 0.714589
vt 0.416763 0.706694
vt 0.427503 0.697304
vt 0.437500 0.687500
vt 0.462919 0.696617
vt 0.500000 0.701196
vt 0.537081 0.696617
vt 0.572497 0.697304
vt 0.562500 0.687500
vt 0.583237 0.706694
vt 0.812527 0.500139
vt 0.750217 0.501109
vt 0.750868 0.499518
vt 0.812609 0.499940
vt 0.688043 0.503416
vt 0.689996 0.498505
vt 0.752713 0.497336
vt 0.812839 0.499667
vt 0.695733 0.491675
vt 0.875000 0.500000
vt 0.625434 0.505289
vt 0.628472 0.497203
vt 0.637478 0.485110
vt 0.666667 0.458333
vt 0.705078 0.482422
vt 0.755208 0.494792
vt 0.813151 0.499349
vt 0.875000 0.500000
vt 0.875000 0.500000
vt 0.875000 0.500000
vt 0.429579 0.830078
vt 0.500000 0.830078
vt 0.500000 0.880208
vt 0.434896 0.880208
vt 0.570421 0.830078
vt 0.565104 0.880208
vt 0.500000 0.938151
vt 0.437174 0.938151
vt 0.562826 0.938151
vt 0.425456 0.791612
vt 0.357422 0.830078
vt 0.500000 0.791667
vt 0.574544 0.791613
vt 0.666667 0.791667
vt 0.642578 0.830078
vt 0.630208 0.880208
vt 0.625651 0.938151
vt 0.625000 1.000000
vt 0.562500 1.000000
vt 0.500000 1.000000
vt 0.437500 1.000000
vt 0.374349 0.938151
vt 0.375000 1.000000
vt 0.369792 0.880208
vt 0.688043 0.746585
vt 0.750217 0.748891
vt 0.750868 0.750482
vt 0.689996 0.751495
vt 0.812527 0.749861
vt 0.812609 0.750060
vt 0.752713 0.752665
vt 0.695733 0.758325
vt 0.812839 0.750333
vt 0.690104 0.741673
vt 0.625434 0.744711
vt 0.750868 0.747589
vt 0.812609 0.749699
vt 0.875000 0.750000
vt 0.875000 0.750000
vt 0.875000 0.750000
vt 0.875000 0.750000
vt 0.875000 0.750000
vt 0.813151 0.750651
vt 0.755208 0.755208
vt 0.705078 0.767578
vt 0.637478 0.764890
vt 0.628472 0.752797
vt 0.437419 0.746744
vt 0.500000 0.748216
vt 0.500000 0.754437
vt 0.435113 0.753942
vt 0.562581 0.746744
vt 0.564887 0.753942
vt 0.500000 0.767482
vt 0.430040 0.767203
vt 0.569960 0.767203
vt 0.562269 0.000231
vt 0.499892 0.000109
vt 0.500000 0.000000
vt 0.562500 0.000000
vt 0.437486 0.000014
vt 0.437500 0.000000
vt 0.500000 0.000000
vt 0.562500 0.000000
vt 0.437500 0.000000
vt 0.625000 0.000000
vt 0.559896 0.002604
vt 0.625000 0.000000
vt 0.499132 0.000868
vt 0.437392 0.000109
vt 0.375000 0.000000
vt 0.375000 0.000000
vt 0.375000 0.000000
vt 0.375000 0.000000
vt 0.375000 0.000000
vt 0.437500 0.000000
vt 0.500000 0.000000
vt 0.562500 0.000000
vt 0.625000 0.000000
vt 0.625000 0.000000
vt 0.625000 0.000000
vt 0.437174 0.329427
vt 0.500000 0.329427
vt 0.500000 0.375000
vt 0.434896 0.375000
vt 0.562826 0.329427
vt 0.565104 0.375000
vt 0.500000 0.420573
vt 0.429579 0.420573
vt 0.570421 0.420573
vt 0.375000 0.291667
vt 0.437500 0.291667
vt 0.374349 0.329427
vt 0.500000 0.291667
vt 0.562500 0.291667
vt 0.625000 0.291667
vt 0.625651 0.329427
vt 0.630208 0.375000
vt 0.642578 0.420573
vt 0.574544 0.458388
vt 0.500000 0.458333
vt 0.425456 0.458388
vt 0.357422 0.420573
vt 0.333333 0.458333
vt 0.369792 0.375000
vt 0.562581 0.503256
vt 0.500000 0.501784
vt 0.500000 0.495563
vt 0.564887 0.496058
vt 0.437419 0.503256
vt 0.435113 0.496058
vt 0.500000 0.482518
vt 0.569960 0.482797
vt 0.430040 0.482797
vt 0.560004 0.508628
vt 0.500000 0.504823
vt 0.439996 0.508628
vt 0.375000 0.522727
vt 0.374566 0.505289
vt 0.371528 0.497203
vt 0.362522 0.485110
vt 0.437486 0.250638
vt 0.499892 0.250543
vt 0.500000 0.255208
vt 0.437500 0.255208
vt 0.562270 0.250420
vt 0.562500 0.255208
vt 0.500000 0.267578
vt 0.437500 0.267578
vt 0.562500 0.267578
vt 0.375000 0.250000
vt 0.437392 0.249892
vt 0.375000 0.250651
vt 0.499132 0.249132
vt 0.559896 0.247396
vt 0.625000 0.250000
vt 0.625000 0.250651
vt 0.625000 0.255208
vt 0.625000 0.267578
vt 0.375000 0.267578
vt 0.375000 0.255208
vt 0.311971 0.503429
vt 0.249891 0.501218
vt 0.249132 0.499518
vt 0.310004 0.498505
vt 0.187703 0.500369
vt 0.187392 0.499940
vt 0.247287 0.497336
vt 0.304267 0.491675
vt 0.187161 0.499667
vt 0.310004 0.508435
vt 0.250000 0.503279
vt 0.189996 0.502906
vt 0.125000 0.500000
vt 0.125000 0.500000
vt 0.125000 0.500000
vt 0.125000 0.500000
vt 0.186849 0.499349
vt 0.244792 0.494792
vt 0.294922 0.482422
vt 0.711385 0.585235
vt 0.757234 0.581392
vt 0.756559 0.625000
vt 0.709177 0.625000
vt 0.813404 0.579673
vt 0.813320 0.625000
vt 0.757234 0.668608
vt 0.711385 0.664765
vt 0.813404 0.670327
vt 0.678383 0.587919
vt 0.875000 0.579427
vt 0.875000 0.625000
vt 0.875000 0.670573
vt 0.875000 0.708333
vt 0.813489 0.707887
vt 0.757909 0.704765
vt 0.713907 0.697063
vt 0.678383 0.662081
vt 0.687500 0.687500
vt 0.673804 0.625000
vt 0.812836 0.748888
vt 0.752689 0.745660
vt 0.755015 0.740259
vt 0.813127 0.744225
vt 0.697332 0.736346
vt 0.704632 0.729263
vt 0.757041 0.727937
vt 0.813380 0.731861
vt 0.710817 0.717430
vt 0.875000 0.749349
vt 0.654580 0.714589
vt 0.666763 0.706694
vt 0.677503 0.697304
vt 0.875000 0.732422
vt 0.875000 0.744792
vt 0.624756 0.187283
vt 0.624783 0.125000
vt 0.625000 0.125000
vt 0.625000 0.187500
vt 0.624756 0.062717
vt 0.625000 0.062500
vt 0.625000 0.125000
vt 0.625000 0.187500
vt 0.625000 0.062500
vt 0.622287 0.185004
vt 0.625000 0.250000
vt 0.623264 0.125000
vt 0.622287 0.064996
vt 0.625000 0.000000
vt 0.625000 0.000000
vt 0.625000 0.000000
vt 0.625000 0.000000
vt 0.625000 0.062500
vt 0.625000 0.125000
vt 0.625000 0.187500
vt 0.625000 0.250000
vt 0.625000 0.250000
vt 0.625000 0.250000
vt 0.635222 0.674415
vt 0.630594 0.625000
vt 0.638503 0.625000
vt 0.645146 0.669934
vt 0.635222 0.575585
vt 0.645146 0.580066
vt 0.651452 0.625000
vt 0.657986 0.664931
vt 0.657986 0.585069
vt 0.625000 0.676979
vt 0.625000 0.625000
vt 0.625000 0.573021
vt 0.460480 0.585480
vt 0.500000 0.583357
vt 0.500000 0.625000
vt 0.458357 0.625000
vt 0.539520 0.585480
vt 0.541643 0.625000
vt 0.500000 0.666643
vt 0.460480 0.664520
vt 0.539520 0.664520
vt 0.437500 0.562500
vt 0.462919 0.553383
vt 0.428383 0.587919
vt 0.500000 0.548804
vt 0.537081 0.553383
vt 0.562500 0.562500
vt 0.571617 0.587919
vt 0.576196 0.625000
vt 0.571617 0.662081
vt 0.428383 0.662081
vt 0.423804 0.625000
vt 0.446996 0.514116
vt 0.500000 0.508030
vt 0.500000 0.514275
vt 0.454005 0.521304
vt 0.553004 0.514115
vt 0.545995 0.521303
vt 0.500000 0.526548
vt 0.459936 0.533130
vt 0.540064 0.533130
vt 0.404580 0.535411
vt 0.595420 0.535411
vt 0.583237 0.543306
vt 0.572497 0.552696
vt 0.427503 0.552696
vt 0.416763 0.543306
vt 0.385222 0.674415
vt 0.380594 0.625000
vt 0.388503 0.625000
vt 0.395146 0.669934
vt 0.385222 0.575585
vt 0.395146 0.580066
vt 0.401452 0.625000
vt 0.407986 0.664931
vt 0.407986 0.585069
vt 0.375000 0.676979
vt 0.375000 0.625000
vt 0.375000 0.573021
vt 0.614778 0.575585
vt 0.619406 0.625000
vt 0.611497 0.625000
vt 0.604854 0.580066
vt 0.614778 0.674415
vt 0.604854 0.669934
vt 0.598549 0.625000
vt 0.592014 0.585069
vt 0.592014 0.664931
vt 0.436596 0.079673
vt 0.492766 0.081392
vt 0.493441 0.125000
vt 0.436680 0.125000
vt 0.538616 0.085235
vt 0.540823 0.125000
vt 0.492766 0.168608
vt 0.436596 0.170327
vt 0.538615 0.164765
vt 0.375000 0.041667
vt 0.436511 0.042113
vt 0.375000 0.079427
vt 0.492091 0.045235
vt 0.536093 0.052937
vt 0.562500 0.062500
vt 0.571617 0.087919
vt 0.576196 0.125000
vt 0.571617 0.162081
vt 0.562500 0.187500
vt 0.536093 0.197063
vt 0.492091 0.204765
vt 0.436511 0.207887
vt 0.375000 0.170573
vt 0.375000 0.208333
vt 0.375000 0.125000
vt 0.614534 0.071996
vt 0.619189 0.125000
vt 0.611497 0.125000
vt 0.604854 0.079005
vt 0.614534 0.178004
vt 0.604854 0.170995
vt 0.598549 0.125000
vt 0.592014 0.084936
vt 0.592014 0.165064
vt 0.595366 0.029634
vt 0.595366 0.220366
vt 0.583237 0.208237
vt 0.572497 0.197497
vt 0.572497 0.052503
vt 0.583237 0.041763
vt 0.552668 0.239856
vt 0.497311 0.246769
vt 0.494985 0.240644
vt 0.545368 0.230372
vt 0.437164 0.249026
vt 0.436873 0.244273
vt 0.492959 0.227985
vt 0.539184 0.217569
vt 0.436620 0.231867
vt 0.375000 0.249349
vt 0.375000 0.244792
vt 0.375000 0.232422
vt 0.437164 0.000974
vt 0.497311 0.003231
vt 0.494985 0.009356
vt 0.436873 0.005727
vt 0.552668 0.010144
vt 0.545368 0.019628
vt 0.492959 0.022015
vt 0.436620 0.018133
vt 0.539184 0.032431
vt 0.375000 0.000651
vt 0.375000 0.017578
vt 0.375000 0.005208
vt 0.210480 0.585480
vt 0.250000 0.583357
vt 0.250000 0.625000
vt 0.208357 0.625000
vt 0.289520 0.585480
vt 0.291643 0.625000
vt 0.250000 0.666643
vt 0.210480 0.664520
vt 0.289520 0.664520
vt 0.187500 0.562500
vt 0.212919 0.553383
vt 0.178383 0.587919
vt 0.250000 0.548804
vt 0.287081 0.553383
vt 0.312500 0.562500
vt 0.321617 0.587919
vt 0.326196 0.625000
vt 0.321617 0.662081
vt 0.178383 0.662081
vt 0.173804 0.625000
vt 0.135466 0.678004
vt 0.130811 0.625000
vt 0.138503 0.625000
vt 0.145146 0.670995
vt 0.135466 0.571996
vt 0.145146 0.579005
vt 0.151452 0.625000
vt 0.157986 0.665064
vt 0.157986 0.584936
vt 0.154634 0.529635
vt 0.166763 0.541763
vt 0.177503 0.552503
vt 0.364778 0.575585
vt 0.369406 0.625000
vt 0.361497 0.625000
vt 0.354854 0.580066
vt 0.364778 0.674415
vt 0.354854 0.669934
vt 0.348548 0.625000
vt 0.342014 0.585069
vt 0.342014 0.664931
vt 0.345420 0.535411
vt 0.322497 0.552696
vt 0.333237 0.543306
vt 0.196996 0.510605
vt 0.250000 0.506920
vt 0.250000 0.513889
vt 0.204005 0.520194
vt 0.303004 0.513977
vt 0.295995 0.521255
vt 0.250000 0.526500
vt 0.209936 0.532992
vt 0.290064 0.533124
vn 0.2098 0.2517 -0.9448
vn -0.2114 0.2504 -0.9448
vn 0.1918 0.1783 -0.9651
vn -0.1923 0.1778 -0.9651
vn 0.6144 0.3929 -0.6842
vn 0.2495 0.4939 -0.8329
vn -0.2531 0.4926 -0.8327
vn -0.6396 0.3757 -0.6706
vn -0.5816 0.2142 -0.7847
vn -0.5497 0.1680 -0.8183
vn -0.5286 0.2061 -0.8235
vn -0.1976 0.2339 -0.9520
vn 0.1976 0.2340 -0.9520
vn 0.5284 0.2067 -0.8235
vn 0.5471 0.1708 -0.8195
vn 0.5717 0.2214 -0.7900
vn -0.1850 -0.9672 0.1738
vn 0.1836 -0.9673 0.1749
vn -0.1830 -0.9725 0.1440
vn 0.1826 -0.9725 0.1445
vn -0.5649 -0.7714 0.2930
vn -0.2073 -0.9168 0.3415
vn 0.2043 -0.9170 0.3425
vn 0.5404 -0.7839 0.3058
vn 0.5352 -0.8273 0.1710
vn 0.5357 -0.8317 0.1460
vn 0.5265 -0.8277 0.1944
vn 0.1962 -0.9557 0.2195
vn -0.1962 -0.9557 0.2194
vn -0.5267 -0.8277 0.1938
vn -0.5383 -0.8305 0.1433
vn -0.5448 -0.8222 0.1648
vn -0.3817 -0.9092 -0.1664
vn -0.3825 -0.9090 0.1658
vn -0.3242 -0.9302 -0.1721
vn -0.3246 -0.9301 0.1720
vn -0.6066 -0.6732 -0.4230
vn -0.6385 -0.7516 -0.1658
vn -0.6390 -0.7513 0.1649
vn -0.6114 -0.6736 0.4152
vn -0.4029 -0.7838 0.4726
vn -0.3417 -0.7949 0.5014
vn -0.4253 -0.7640 0.4852
vn -0.4680 -0.8657 0.1774
vn -0.4680 -0.8658 -0.1774
vn -0.4249 -0.7641 -0.4853
vn -0.3396 -0.7950 -0.5027
vn -0.3989 -0.7835 -0.4765
vn 0.2058 -0.3938 0.8959
vn -0.2075 -0.3921 0.8962
vn 0.1890 -0.2827 0.9404
vn -0.1894 -0.2819 0.9405
vn 0.5783 -0.5528 0.6000
vn 0.2271 -0.6809 0.6963
vn -0.2305 -0.6794 0.6966
vn -0.6056 -0.5319 0.5920
vn -0.5691 -0.3340 0.7514
vn -0.5401 -0.2648 0.7989
vn -0.5124 -0.3189 0.7973
vn -0.1901 -0.3589 0.9138
vn 0.1900 -0.3590 0.9138
vn 0.5122 -0.3197 0.7972
vn 0.5371 -0.2691 0.7995
vn 0.5582 -0.3445 0.7548
vn 0.4211 0.1953 0.8857
vn 0.4166 -0.1994 0.8870
vn 0.3033 0.1853 0.9347
vn 0.3011 -0.1865 0.9352
vn 0.6257 0.4963 0.6018
vn 0.7091 0.2060 0.6743
vn 0.7057 -0.2140 0.6754
vn 0.5824 -0.5595 0.5897
vn 0.3686 -0.5492 0.7500
vn 0.2883 -0.5328 0.7956
vn 0.3408 -0.5080 0.7910
vn 0.3817 -0.1880 0.9050
vn 0.3821 0.1879 0.9048
vn 0.3431 0.5073 0.7906
vn 0.3001 0.5248 0.7966
vn 0.3950 0.5216 0.7563
vn -0.2120 0.9436 -0.2543
vn 0.2104 0.9436 -0.2556
vn -0.1925 0.9646 -0.1801
vn 0.1920 0.9646 -0.1807
vn -0.6406 0.6673 -0.3800
vn -0.2537 0.8286 -0.4990
vn 0.2501 0.8289 -0.5004
vn 0.6153 0.6808 -0.3974
vn 0.5724 0.7887 -0.2244
vn 0.5472 0.8189 -0.1729
vn 0.5282 0.8231 -0.2086
vn 0.1975 0.9514 -0.2362
vn -0.1976 0.9514 -0.2361
vn -0.5284 0.8231 -0.2081
vn -0.5499 0.8178 -0.1700
vn -0.5823 0.7834 -0.2171
vn 0.4116 -0.4116 0.8131
vn 0.4116 0.4116 0.8131
vn -0.4116 -0.4116 0.8131
vn -0.4116 0.4116 0.8131
vn 0.6583 -0.6583 0.3650
vn 0.8419 -0.2710 0.4666
vn 0.8419 0.2710 0.4666
vn 0.6583 0.6583 0.3650
vn 0.2710 0.8419 0.4666
vn -0.2710 0.8419 0.4666
vn -0.6583 0.6583 0.3650
vn -0.8419 0.2710 0.4666
vn -0.8419 -0.2710 0.4666
vn -0.6583 -0.6583 0.3650
vn -0.2710 -0.8419 0.4666
vn 0.2710 -0.8419 0.4666
vn 0.2108 0.9469 0.2429
vn -0.2125 0.9468 0.2417
vn 0.1923 0.9663 0.1713
vn -0.1927 0.9663 0.1708
vn 0.6188 0.6871 0.3808
vn 0.2523 0.8399 0.4806
vn -0.2560 0.8396 0.4792
vn -0.6439 0.6730 0.3640
vn -0.5835 0.7855 0.2062
vn -0.5507 0.8190 0.1611
vn -0.5297 0.8249 0.1974
vn -0.1981 0.9542 0.2240
vn 0.1981 0.9542 0.2241
vn 0.5295 0.8249 0.1979
vn 0.5480 0.8202 0.1639
vn 0.5737 0.7909 0.2132
vn 0.9702 -0.1762 0.1662
vn 0.9704 0.1728 0.1687
vn 0.9735 -0.1800 0.1411
vn 0.9735 0.1790 0.1424
vn 0.8002 -0.5201 0.2987
vn 0.9266 -0.1907 0.3242
vn 0.9271 0.1839 0.3266
vn 0.8240 0.4644 0.3246
vn 0.8454 0.5020 0.1824
vn 0.8368 0.5262 0.1515
vn 0.8280 0.5255 0.1955
vn 0.9559 0.1957 0.2191
vn 0.9559 -0.1958 0.2189
vn 0.8280 -0.5260 0.1941
vn 0.8337 -0.5330 0.1446
vn 0.8338 -0.5260 0.1674
vn -0.9765 0.1624 0.1420
vn -0.9763 -0.1656 0.1396
vn -0.9756 0.1753 0.1322
vn -0.9756 -0.1763 0.1310
vn -0.8589 0.4265 0.2833
vn -0.9507 0.1630 0.2640
vn -0.9502 -0.1690 0.2619
vn -0.8377 -0.4797 0.2610
vn -0.8471 -0.5098 0.1501
vn -0.8379 -0.5281 0.1377
vn -0.8291 -0.5249 0.1928
vn -0.9565 -0.1950 0.2171
vn -0.9564 0.1949 0.2174
vn -0.8291 0.5244 0.1942
vn -0.8410 0.5214 0.1445
vn -0.8583 0.4862 0.1644
vn -0.3965 -0.3965 -0.8280
vn -0.3965 0.3965 -0.8280
vn 0.3965 -0.3965 -0.8280
vn 0.3965 0.3965 -0.8280
vn -0.6532 -0.6532 -0.3828
vn -0.8314 -0.2676 -0.4870
vn -0.8314 0.2676 -0.4870
vn -0.6532 0.6532 -0.3828
vn -0.2676 0.8314 -0.4870
vn 0.2676 0.8314 -0.4870
vn 0.6532 0.6532 -0.3828
vn 0.8314 0.2676 -0.4870
vn 0.8314 -0.2676 -0.4870
vn 0.6532 -0.6532 -0.3828
vn 0.2676 -0.8314 -0.4870
vn -0.2676 -0.8314 -0.4870
vn 0.9688 0.1726 -0.1779
vn 0.9687 -0.1761 -0.1752
vn 0.9723 0.1788 -0.1503
vn 0.9724 -0.1798 -0.1489
vn 0.8187 0.4630 -0.3398
vn 0.9214 0.1835 -0.3425
vn 0.9210 -0.1903 -0.3400
vn 0.7957 -0.5188 -0.3128
vn 0.8324 -0.5254 -0.1764
vn 0.8327 -0.5323 -0.1525
vn 0.8262 -0.5248 -0.2047
vn 0.9533 -0.1952 -0.2307
vn 0.9532 0.1951 -0.2309
vn 0.8262 0.5243 -0.2062
vn 0.8356 0.5255 -0.1598
vn 0.8437 0.5012 -0.1922
vn -0.9752 -0.1655 -0.1472
vn -0.9753 0.1623 -0.1498
vn -0.9746 -0.1761 -0.1382
vn -0.9746 0.1751 -0.1395
vn -0.8340 -0.4790 -0.2737
vn -0.9464 -0.1689 -0.2752
vn -0.9468 0.1629 -0.2774
vn -0.8547 0.4258 -0.2970
vn -0.8568 0.4856 -0.1732
vn -0.8400 0.5208 -0.1525
vn -0.8272 0.5232 -0.2048
vn -0.9538 0.1944 -0.2291
vn -0.9538 -0.1945 -0.2288
vn -0.8273 -0.5237 -0.2033
vn -0.8370 -0.5276 -0.1453
vn -0.8459 -0.5093 -0.1582
vn 0.1834 -0.9656 -0.1843
vn -0.1848 -0.9655 -0.1832
vn 0.1824 -0.9713 -0.1525
vn -0.1828 -0.9713 -0.1520
vn 0.5389 -0.7792 -0.3201
vn 0.2037 -0.9109 -0.3590
vn -0.2067 -0.9106 -0.3579
vn -0.5635 -0.7670 -0.3068
vn -0.5441 -0.8209 -0.1736
vn -0.5377 -0.8295 -0.1512
vn -0.5255 -0.8259 -0.2044
vn -0.1957 -0.9530 -0.2312
vn 0.1956 -0.9530 -0.2313
vn 0.5253 -0.8259 -0.2049
vn 0.5351 -0.8306 -0.1540
vn 0.5344 -0.8258 -0.1802
vn 0.3991 0.8255 -0.3991
vn -0.3991 0.8255 -0.3991
vn 0.3991 0.8255 0.3991
vn -0.3991 0.8255 0.3991
vn 0.6541 0.3797 -0.6541
vn 0.2682 0.4835 -0.8333
vn -0.2682 0.4835 -0.8333
vn -0.6541 0.3797 -0.6541
vn -0.8333 0.4835 -0.2682
vn -0.8333 0.4835 0.2682
vn -0.6541 0.3797 0.6541
vn -0.2682 0.4835 0.8333
vn 0.2682 0.4835 0.8333
vn 0.6541 0.3797 0.6541
vn 0.8333 0.4835 0.2682
vn 0.8333 0.4835 -0.2682
vn -0.2153 0.2607 0.9411
vn 0.2137 0.2619 0.9411
vn -0.1937 0.1820 0.9640
vn 0.1933 0.1825 0.9640
vn -0.6487 0.3846 0.6567
vn -0.2590 0.5107 0.8198
vn 0.2553 0.5121 0.8201
vn 0.6234 0.4023 0.6704
vn 0.5770 0.2277 0.7844
vn 0.5489 0.1736 0.8177
vn 0.5288 0.2072 0.8230
vn 0.1979 0.2347 0.9517
vn -0.1979 0.2346 0.9517
vn -0.5290 0.2067 0.8231
vn -0.5515 0.1707 0.8165
vn -0.5869 0.2203 0.7791
vn -0.9760 0.1477 -0.1602
vn -0.9760 0.1481 0.1597
vn -0.9750 0.1379 -0.1743
vn -0.9750 0.1381 0.1742
vn -0.8555 0.2939 -0.4262
vn -0.9482 0.2747 -0.1597
vn -0.9482 0.2750 0.1589
vn -0.8580 0.2969 0.4190
vn -0.8589 0.1732 0.4820
vn -0.8407 0.1519 0.5197
vn -0.8276 0.2031 0.5233
vn -0.9543 0.2270 0.1944
vn -0.9543 0.2270 -0.1944
vn -0.8276 0.2029 -0.5234
vn -0.8403 0.1508 -0.5207
vn -0.8574 0.1711 -0.4854
vn 0.9696 0.1760 0.1699
vn 0.9696 0.1756 -0.1704
vn 0.9728 0.1487 0.1778
vn 0.9728 0.1485 -0.1780
vn 0.8225 0.3399 0.4560
vn 0.9233 0.3398 0.1791
vn 0.9232 0.3394 -0.1800
vn 0.8197 0.3364 -0.4635
vn 0.8443 0.1899 -0.5011
vn 0.8360 0.1581 -0.5255
vn 0.8266 0.2042 -0.5245
vn 0.9537 0.2288 -0.1951
vn 0.9537 0.2288 0.1951
vn 0.8266 0.2045 0.5244
vn 0.8364 0.1592 0.5244
vn 0.8458 0.1921 0.4976
vn 0.9287 -0.2622 -0.2622
vn 0.9287 0.2622 -0.2622
vn 0.9287 -0.2622 0.2622
vn 0.9287 0.2622 0.2622
vn 0.5751 -0.5785 -0.5785
vn 0.6872 -0.2226 -0.6915
vn 0.6872 0.2226 -0.6915
vn 0.5751 0.5785 -0.5785
vn 0.6872 0.6915 -0.2226
vn 0.6872 0.6915 0.2226
vn 0.5751 0.5785 0.5785
vn 0.6872 0.2226 0.6915
vn 0.6872 -0.2226 0.6915
vn 0.5751 -0.5785 0.5785
vn 0.6872 -0.6915 0.2226
vn 0.6872 -0.6915 -0.2226
vn 0.4019 -0.1966 -0.8943
vn 0.4064 0.1925 -0.8932
vn 0.2946 -0.1853 -0.9375
vn 0.2968 0.1842 -0.9370
vn 0.5718 -0.5540 -0.6050
vn 0.6885 -0.2113 -0.6938
vn 0.6919 0.2034 -0.6928
vn 0.6144 0.4914 -0.6173
vn 0.3856 0.5180 -0.7636
vn 0.2957 0.5236 -0.7990
vn 0.3422 0.5069 -0.7911
vn 0.3810 0.1877 -0.9053
vn 0.3806 -0.1878 -0.9055
vn 0.3400 -0.5077 -0.7916
vn 0.2839 -0.5316 -0.7980
vn 0.3594 -0.5455 -0.7572
vn 0.3029 -0.9378 0.1697
vn 0.3022 -0.9379 -0.1702
vn 0.2535 -0.9513 0.1756
vn 0.2532 -0.9513 -0.1757
vn 0.5214 -0.7320 0.4386
vn 0.5409 -0.8228 0.1746
vn 0.5405 -0.8229 -0.1755
vn 0.5168 -0.7305 -0.4464
vn 0.3180 -0.8110 -0.4911
vn 0.2662 -0.8149 -0.5149
vn 0.3367 -0.7948 -0.5048
vn 0.3740 -0.9086 -0.1861
vn 0.3740 -0.9086 0.1861
vn 0.3371 -0.7948 0.5047
vn 0.2680 -0.8150 0.5137
vn 0.3215 -0.8119 0.4874
vn 0.4079 0.8929 -0.1905
vn 0.4085 0.8928 0.1900
vn 0.2973 0.9370 -0.1835
vn 0.2977 0.9369 0.1834
vn 0.6154 0.6151 -0.4928
vn 0.6948 0.6908 -0.2000
vn 0.6953 0.6907 0.1989
vn 0.6208 0.6165 0.4843
vn 0.3899 0.7637 0.5145
vn 0.2977 0.7990 0.5225
vn 0.3426 0.7910 0.5068
vn 0.3812 0.9053 0.1876
vn 0.3811 0.9053 -0.1876
vn 0.3423 0.7911 -0.5070
vn 0.2960 0.7989 -0.5237
vn 0.3863 0.7629 -0.5185
vn -0.9568 -0.2055 0.2055
vn -0.9568 0.2055 0.2055
vn -0.9568 -0.2055 -0.2055
vn -0.9568 0.2055 -0.2055
vn -0.6786 -0.5194 0.5194
vn -0.7792 -0.1920 0.5967
vn -0.7792 0.1920 0.5967
vn -0.6786 0.5194 0.5194
vn -0.7792 0.5967 0.1920
vn -0.7792 0.5967 -0.1920
vn -0.6786 0.5194 -0.5194
vn -0.7792 0.1920 -0.5967
vn -0.7792 -0.1920 -0.5967
vn -0.6786 -0.5194 -0.5194
vn -0.7792 -0.5967 -0.1920
vn -0.7792 -0.5967 0.1920
vn -0.5036 0.8446 0.1816
vn -0.5029 0.8449 -0.1822
vn -0.3780 0.9085 0.1782
vn -0.3776 0.9086 -0.1784
vn -0.7061 0.5503 0.4457
vn -0.7803 0.5992 0.1793
vn -0.7798 0.5994 -0.1803
vn -0.7009 0.5500 -0.4541
vn -0.4770 0.7257 -0.4957
vn -0.3754 0.7750 -0.5084
vn -0.4314 0.7596 -0.4867
vn -0.4761 0.8611 -0.1785
vn -0.4761 0.8611 0.1784
vn -0.4318 0.7594 0.4866
vn -0.3775 0.7749 0.5071
vn -0.4812 0.7259 0.4915
vn -0.5013 0.1841 -0.8455
vn -0.4963 -0.1882 -0.8475
vn -0.3769 0.1790 -0.9088
vn -0.3743 -0.1802 -0.9096
vn -0.7000 0.4529 -0.5521
vn -0.7774 0.1836 -0.6017
vn -0.7743 -0.1909 -0.6033
vn -0.6585 -0.5162 -0.5477
vn -0.4465 -0.5246 -0.7248
vn -0.3610 -0.5173 -0.7760
vn -0.4287 -0.4877 -0.7605
vn -0.4755 -0.1787 -0.8614
vn -0.4760 0.1785 -0.8611
vn -0.4314 0.4867 -0.7596
vn -0.3751 0.5083 -0.7752
vn -0.4763 0.4953 -0.7265
vn -0.5124 -0.1902 0.8374
vn -0.5174 0.1861 0.8353
vn -0.3820 -0.1811 0.9062
vn -0.3847 0.1799 0.9053
vn -0.6685 -0.5196 0.5321
vn -0.7889 -0.1922 0.5838
vn -0.7918 0.1848 0.5821
vn -0.7103 0.4560 0.5363
vn -0.4867 0.4976 0.7180
vn -0.3803 0.5091 0.7722
vn -0.4323 0.4869 0.7589
vn -0.4772 0.1787 0.8604
vn -0.4768 -0.1788 0.8607
vn -0.4297 -0.4879 0.7598
vn -0.3662 -0.5181 0.7730
vn -0.4570 -0.5272 0.7164
vn -0.2786 -0.9191 -0.2786
vn 0.2786 -0.9191 -0.2786
vn -0.2786 -0.9191 0.2786
vn 0.2786 -0.9191 0.2786
vn -0.5916 -0.5477 -0.5916
vn -0.2299 -0.6609 -0.7144
vn 0.2299 -0.6609 -0.7144
vn 0.5916 -0.5477 -0.5916
vn 0.7144 -0.6609 -0.2299
vn 0.7144 -0.6609 0.2299
vn 0.5916 -0.5477 0.5916
vn 0.2299 -0.6609 0.7144
vn -0.2299 -0.6609 0.7144
vn -0.5916 -0.5477 0.5916
vn -0.7144 -0.6609 0.2299
vn -0.7144 -0.6609 -0.2299
vn -0.9602 -0.2301 0.1584
vn -0.9602 -0.2296 -0.1589
vn -0.9611 -0.2162 0.1720
vn -0.9611 -0.2159 -0.1722
vn -0.8063 -0.4293 0.4069
vn -0.8993 -0.4086 0.1563
vn -0.8993 -0.4081 -0.1571
vn -0.8047 -0.4253 -0.4142
vn -0.8386 -0.2632 -0.4770
vn -0.8260 -0.2351 -0.5123
vn -0.8026 -0.3133 -0.5076
vn -0.9186 -0.3481 -0.1871
vn -0.9186 -0.3482 0.1871
vn -0.8026 -0.3137 0.5074
vn -0.8262 -0.2367 0.5112
vn -0.8396 -0.2664 0.4734
vn 0.9477 -0.2711 -0.1681
vn 0.9477 -0.2717 0.1676
vn 0.9568 -0.2320 -0.1754
vn 0.9567 -0.2323 0.1753
vn 0.7578 -0.4785 -0.4435
vn 0.8535 -0.4915 -0.1732
vn 0.8534 -0.4920 0.1723
vn 0.7595 -0.4829 0.4359
vn 0.8228 -0.2940 0.4864
vn 0.8207 -0.2476 0.5150
vn 0.8012 -0.3157 0.5083
vn 0.9175 -0.3508 0.1877
vn 0.9175 -0.3507 -0.1877
vn 0.8013 -0.3153 -0.5084
vn 0.8204 -0.2460 -0.5161
vn 0.8218 -0.2907 -0.4901
vn -0.2044 -0.3780 -0.9030
vn 0.2028 -0.3797 -0.9026
vn -0.1882 -0.2758 -0.9426
vn 0.1878 -0.2766 -0.9425
vn -0.5994 -0.5218 -0.6070
vn -0.2273 -0.6618 -0.7144
vn 0.2240 -0.6632 -0.7141
vn 0.5723 -0.5423 -0.6151
vn 0.5542 -0.3357 -0.7617
vn 0.5357 -0.2650 -0.8018
vn 0.5118 -0.3189 -0.7977
vn 0.1898 -0.3580 -0.9142
vn -0.1898 -0.3579 -0.9143
vn -0.5121 -0.3181 -0.7979
vn -0.5387 -0.2607 -0.8012
vn -0.5650 -0.3253 -0.7583
usemtl Material
s off
f 213/1/1 214/2/1 217/3/1 216/4/1
f 214/2/2 215/5/2 218/6/2 217/3/2
f 216/4/3 217/3/3 220/7/3 219/8/3
f 217/3/4 218/6/4 221/9/4 220/7/4
f 1/10/5 65/11/5 213/1/5 134/12/5
f 65/11/6 64/13/6 214/2/6 213/1/6
f 64/13/7 63/14/7 215/5/7 214/2/7
f 63/14/8 5/15/8 129/16/8 215/5/8
f 215/5/9 129/16/9 130/17/9 218/6/9
f 218/6/10 130/17/10 131/18/10 221/9/10
f 221/9/11 131/18/11 20/19/11 126/20/11
f 220/7/12 221/9/12 126/20/12 127/21/12
f 219/8/13 220/7/13 127/21/13 128/22/13
f 132/23/14 219/8/14 128/22/14 19/24/14
f 133/25/15 216/4/15 219/8/15 132/23/15
f 134/12/16 213/1/16 216/4/16 133/25/16
f 222/26/17 223/27/17 226/28/17 225/29/17
f 223/27/18 224/30/18 227/31/18 226/28/18
f 225/29/19 226/28/19 229/32/19 228/33/19
f 226/28/20 227/31/20 230/34/20 229/32/20
f 8/35/21 57/36/21 222/26/21 86/37/21
f 57/36/22 58/38/22 223/27/22 222/26/22
f 58/38/23 59/39/23 224/30/23 223/27/23
f 59/39/24 4/40/24 81/41/24 224/30/24
f 224/30/25 81/41/25 82/42/25 227/31/25
f 227/31/26 82/42/26 83/43/26 230/34/26
f 230/34/27 83/43/27 12/44/27 80/45/27
f 229/32/28 230/34/28 80/45/28 79/46/28
f 228/33/29 229/32/29 79/46/29 78/47/29
f 84/48/30 228/33/30 78/47/30 9/49/30
f 85/50/31 225/29/31 228/33/31 84/48/31
f 86/37/32 222/26/32 225/29/32 85/50/32
f 231/51/33 232/52/33 235/53/33 234/54/33
f 232/52/34 233/55/34 236/56/34 235/53/34
f 234/54/35 235/53/35 238/57/35 237/58/35
f 235/53/36 236/56/36 239/59/36 238/57/36
f 6/60/37 33/61/37 231/51/37 182/62/37
f 33/61/38 34/63/38 232/52/38 231/51/38
f 34/63/39 35/64/39 233/55/39 232/52/39
f 35/64/40 8/35/40 177/65/40 233/55/40
f 233/55/41 177/65/41 178/66/41 236/56/41
f 236/56/42 178/66/42 179/67/42 239/59/42
f 239/59/43 179/67/43 26/68/43 167/69/43
f 238/57/44 239/59/44 167/69/44 166/70/44
f 237/58/45 238/57/45 166/70/45 165/71/45
f 180/72/46 237/58/46 165/71/46 25/73/46
f 181/74/47 234/54/47 237/58/47 180/72/47
f 182/62/48 231/51/48 234/54/48 181/74/48
f 240/75/49 241/76/49 244/77/49 243/78/49
f 241/76/50 242/79/50 245/80/50 244/77/50
f 243/78/51 244/77/51 247/81/51 246/82/51
f 244/77/52 245/80/52 248/83/52 247/81/52
f 4/40/53 59/39/53 240/75/53 206/84/53
f 59/39/54 58/38/54 241/76/54 240/75/54
f 58/38/55 57/36/55 242/79/55 241/76/55
f 57/36/56 8/35/56 201/85/56 242/79/56
f 242/79/57 201/85/57 202/86/57 245/80/57
f 245/80/58 202/86/58 203/87/58 248/83/58
f 248/83/59 203/87/59 30/88/59 195/89/59
f 247/81/60 248/83/60 195/89/60 196/90/60
f 246/82/61 247/81/61 196/90/61 197/91/61
f 204/92/62 246/82/62 197/91/62 32/93/62
f 205/94/63 243/78/63 246/82/63 204/92/63
f 206/84/64 240/75/64 243/78/64 205/94/64
f 249/95/65 250/96/65 253/97/65 252/98/65
f 250/96/66 251/99/66 254/100/66 253/97/66
f 252/98/67 253/97/67 256/101/67 255/102/67
f 253/97/68 254/100/68 257/103/68 256/101/68
f 3/104/69 45/105/69 249/95/69 158/106/69
f 45/105/70 46/107/70 250/96/70 249/95/70
f 46/107/71 47/108/71 251/99/71 250/96/71
f 47/108/72 4/40/72 153/109/72 251/99/72
f 251/99/73 153/109/73 154/110/73 254/100/73
f 254/100/74 154/110/74 155/111/74 257/103/74
f 257/103/75 155/111/75 24/112/75 146/113/75
f 256/101/76 257/103/76 146/113/76 145/114/76
f 255/102/77 256/101/77 145/114/77 144/115/77
f 156/116/78 255/102/78 144/115/78 23/117/78
f 157/118/79 252/98/79 255/102/79 156/116/79
f 158/106/80 249/95/80 252/98/80 157/118/80
f 258/119/81 259/120/81 262/121/81 261/122/81
f 259/120/82 260/123/82 263/124/82 262/121/82
f 261/122/83 262/121/83 265/125/83 264/126/83
f 262/121/84 263/124/84 266/127/84 265/125/84
f 5/15/85 63/14/85 258/119/85 110/128/85
f 63/14/86 64/13/86 259/120/86 258/119/86
f 64/13/87 65/11/87 260/123/87 259/120/87
f 65/11/88 1/10/88 105/129/88 260/123/88
f 260/123/89 105/129/89 106/130/89 263/124/89
f 263/124/90 106/130/90 107/131/90 266/127/90
f 266/127/91 107/131/91 15/132/91 104/133/91
f 265/125/92 266/127/92 104/133/92 103/134/92
f 264/126/93 265/125/93 103/134/93 102/135/93
f 108/136/94 264/126/94 102/135/94 16/137/94
f 109/138/95 261/122/95 264/126/95 108/136/95
f 110/128/96 258/119/96 261/122/96 109/138/96
f 267/139/97 268/140/97 271/141/97 270/142/97
f 268/140/98 269/143/98 272/144/98 271/141/98
f 270/142/99 271/141/99 274/145/99 273/146/99
f 271/141/100 272/144/100 275/147/100 274/145/100
f 12/44/101 74/148/101 267/139/101 80/149/101
f 74/148/102 73/150/102 268/140/102 267/139/102
f 73/150/103 72/151/103 269/143/103 268/140/103
f 72/151/104 11/152/104 75/153/104 269/143/104
f 269/143/105 75/153/105 76/154/105 272/144/105
f 272/144/106 76/154/106 77/155/106 275/147/106
f 275/147/107 77/155/107 10/156/107 71/157/107
f 274/145/108 275/147/108 71/157/108 70/158/108
f 273/146/109 274/145/109 70/158/109 69/159/109
f 78/160/110 273/146/110 69/159/110 9/161/110
f 79/162/111 270/142/111 273/146/111 78/160/111
f 80/149/112 267/139/112 270/142/112 79/162/112
f 276/163/113 277/164/113 280/165/113 279/166/113
f 277/164/114 278/167/114 281/168/114 280/165/114
f 279/166/115 280/165/115 283/169/115 282/170/115
f 280/165/116 281/168/116 284/171/116 283/169/116
f 3/104/117 51/172/117 276/163/117 92/173/117
f 51/172/118 52/174/118 277/164/118 276/163/118
f 52/174/119 53/175/119 278/167/119 277/164/119
f 53/175/120 7/176/120 87/177/120 278/167/120
f 278/167/121 87/177/121 88/178/121 281/168/121
f 281/168/122 88/178/122 89/179/122 284/171/122
f 284/171/123 89/179/123 10/180/123 77/181/123
f 283/169/124 284/171/124 77/181/124 76/182/124
f 282/170/125 283/169/125 76/182/125 75/183/125
f 90/184/126 282/170/126 75/183/126 11/152/126
f 91/185/127 279/166/127 282/170/127 90/184/127
f 92/173/128 276/163/128 279/166/128 91/185/128
f 285/186/129 286/187/129 289/188/129 288/189/129
f 286/187/130 287/190/130 290/191/130 289/188/130
f 288/189/131 289/188/131 292/192/131 291/193/131
f 289/188/132 290/191/132 293/194/132 292/192/132
f 4/40/133 47/108/133 285/186/133 81/41/133
f 47/108/134 46/107/134 286/187/134 285/186/134
f 46/107/135 45/105/135 287/190/135 286/187/135
f 45/105/136 3/104/136 92/173/136 287/190/136
f 287/190/137 92/173/137 91/185/137 290/191/137
f 290/191/138 91/185/138 90/184/138 293/194/138
f 293/194/139 90/184/139 11/152/139 72/151/139
f 292/192/140 293/194/140 72/151/140 73/150/140
f 291/193/141 292/192/141 73/150/141 74/148/141
f 83/43/142 291/193/142 74/148/142 12/44/142
f 82/42/143 288/189/143 291/193/143 83/43/143
f 81/41/144 285/186/144 288/189/144 82/42/144
f 294/195/145 295/196/145 298/197/145 297/198/145
f 295/196/146 296/199/146 299/200/146 298/197/146
f 297/198/147 298/197/147 301/201/147 300/202/147
f 298/197/148 299/200/148 302/203/148 301/201/148
f 7/204/149 44/205/149 294/195/149 87/206/149
f 44/205/150 43/207/150 295/196/150 294/195/150
f 43/207/151 42/208/151 296/199/151 295/196/151
f 42/208/152 8/209/152 86/210/152 296/199/152
f 296/199/153 86/210/153 85/211/153 299/200/153
f 299/200/154 85/211/154 84/212/154 302/203/154
f 302/203/155 84/212/155 9/213/155 69/214/155
f 301/201/156 302/203/156 69/214/156 70/215/156
f 300/202/157 301/201/157 70/215/157 71/216/157
f 89/217/158 300/202/158 71/216/158 10/218/158
f 88/219/159 297/198/159 300/202/159 89/217/159
f 87/206/160 294/195/160 297/198/160 88/219/160
f 303/220/161 304/221/161 307/222/161 306/223/161
f 304/221/162 305/224/162 308/225/162 307/222/162
f 306/223/163 307/222/163 310/226/163 309/227/163
f 307/222/164 308/225/164 311/228/164 310/226/164
f 14/229/165 101/230/165 303/220/165 95/231/165
f 101/230/166 100/232/166 304/221/166 303/220/166
f 100/232/167 99/233/167 305/224/167 304/221/167
f 99/233/168 16/234/168 102/235/168 305/224/168
f 305/224/169 102/235/169 103/236/169 308/225/169
f 308/225/170 103/236/170 104/237/170 311/228/170
f 311/228/171 104/237/171 15/132/171 96/238/171
f 310/226/172 311/228/172 96/238/172 97/239/172
f 309/227/173 310/226/173 97/239/173 98/240/173
f 93/241/174 309/227/174 98/240/174 13/242/174
f 94/243/175 306/223/175 309/227/175 93/241/175
f 95/231/176 303/220/176 306/223/176 94/243/176
f 312/244/177 313/245/177 316/246/177 315/247/177
f 313/245/178 314/248/178 317/249/178 316/246/178
f 315/247/179 316/246/179 319/250/179 318/251/179
f 316/246/180 317/249/180 320/252/180 319/250/180
f 1/10/181 39/253/181 312/244/181 105/129/181
f 39/253/182 40/254/182 313/245/182 312/244/182
f 40/254/183 41/255/183 314/248/183 313/245/183
f 41/255/184 2/256/184 111/257/184 314/248/184
f 314/248/185 111/257/185 112/258/185 317/249/185
f 317/249/186 112/258/186 113/259/186 320/252/186
f 320/252/187 113/259/187 13/242/187 98/240/187
f 319/250/188 320/252/188 98/240/188 97/239/188
f 318/251/189 319/250/189 97/239/189 96/238/189
f 107/131/190 318/251/190 96/238/190 15/132/190
f 106/130/191 315/247/191 318/251/191 107/131/191
f 105/129/192 312/244/192 315/247/192 106/130/192
f 321/260/193 322/261/193 325/262/193 324/263/193
f 322/261/194 323/264/194 326/265/194 325/262/194
f 324/263/195 325/262/195 328/266/195 327/267/195
f 325/262/196 326/265/196 329/268/196 328/266/196
f 6/269/197 50/270/197 321/260/197 116/271/197
f 50/270/198 49/272/198 322/261/198 321/260/198
f 49/272/199 48/273/199 323/264/199 322/261/199
f 48/273/200 5/274/200 110/275/200 323/264/200
f 323/264/201 110/275/201 109/276/201 326/265/201
f 326/265/202 109/276/202 108/277/202 329/268/202
f 329/268/203 108/277/203 16/234/203 99/233/203
f 328/266/204 329/268/204 99/233/204 100/232/204
f 327/267/205 328/266/205 100/232/205 101/230/205
f 114/278/206 327/267/206 101/230/206 14/229/206
f 115/279/207 324/263/207 327/267/207 114/278/207
f 116/271/208 321/260/208 324/263/208 115/279/208
f 330/280/209 331/281/209 334/282/209 333/283/209
f 331/281/210 332/284/210 335/285/210 334/282/210
f 333/283/211 334/282/211 337/286/211 336/287/211
f 334/282/212 335/285/212 338/288/212 337/286/212
f 2/256/213 36/289/213 330/280/213 111/257/213
f 36/289/214 37/290/214 331/281/214 330/280/214
f 37/290/215 38/291/215 332/284/215 331/281/215
f 38/291/216 6/60/216 116/292/216 332/284/216
f 332/284/217 116/292/217 115/293/217 335/285/217
f 335/285/218 115/293/218 114/294/218 338/288/218
f 338/288/219 114/294/219 14/295/219 95/296/219
f 337/286/220 338/288/220 95/296/220 94/297/220
f 336/287/221 337/286/221 94/297/221 93/298/221
f 113/259/222 336/287/222 93/298/222 13/242/222
f 112/258/223 333/283/223 336/287/223 113/259/223
f 111/257/224 330/280/224 333/283/224 112/258/224
f 339/299/225 340/300/225 343/301/225 342/302/225
f 340/300/226 341/303/226 344/304/226 343/301/226
f 342/302/227 343/301/227 346/305/227 345/306/227
f 343/301/228 344/304/228 347/307/228 346/305/228
f 19/24/229 128/22/229 339/299/229 120/308/229
f 128/22/230 127/21/230 340/300/230 339/299/230
f 127/21/231 126/20/231 341/303/231 340/300/231
f 126/20/232 20/19/232 125/309/232 341/303/232
f 341/303/233 125/309/233 124/310/233 344/304/233
f 344/304/234 124/310/234 123/311/234 347/307/234
f 347/307/235 123/311/235 18/312/235 119/313/235
f 346/305/236 347/307/236 119/313/236 118/314/236
f 345/306/237 346/305/237 118/314/237 117/315/237
f 122/316/238 345/306/238 117/315/238 17/317/238
f 121/318/239 342/302/239 345/306/239 122/316/239
f 120/308/240 339/299/240 342/302/240 121/318/240
f 348/319/241 349/320/241 352/321/241 351/322/241
f 349/320/242 350/323/242 353/324/242 352/321/242
f 351/322/243 352/321/243 355/325/243 354/326/243
f 352/321/244 353/324/244 356/327/244 355/325/244
f 7/176/245 53/175/245 348/319/245 140/328/245
f 53/175/246 52/174/246 349/320/246 348/319/246
f 52/174/247 51/172/247 350/323/247 349/320/247
f 51/172/248 3/104/248 135/329/248 350/323/248
f 350/323/249 135/329/249 136/330/249 353/324/249
f 353/324/250 136/330/250 137/331/250 356/327/250
f 356/327/251 137/331/251 17/317/251 117/315/251
f 355/325/252 356/327/252 117/315/252 118/314/252
f 354/326/253 355/325/253 118/314/253 119/313/253
f 138/332/254 354/326/254 119/313/254 18/312/254
f 139/333/255 351/322/255 354/326/255 138/332/255
f 140/328/256 348/319/256 351/322/256 139/333/256
f 357/334/257 358/335/257 361/336/257 360/337/257
f 358/335/258 359/338/258 362/339/258 361/336/258
f 360/337/259 361/336/259 364/340/259 363/341/259
f 361/336/260 362/339/260 365/342/260 364/340/260
f 5/274/261 62/343/261 357/334/261 129/344/261
f 62/343/262 61/345/262 358/335/262 357/334/262
f 61/345/263 60/346/263 359/338/263 358/335/263
f 60/346/264 7/204/264 140/347/264 359/338/264
f 359/338/265 140/347/265 139/348/265 362/339/265
f 362/339/266 139/348/266 138/349/266 365/342/266
f 365/342/267 138/349/267 18/350/267 123/351/267
f 364/340/268 365/342/268 123/351/268 124/352/268
f 363/341/269 364/340/269 124/352/269 125/353/269
f 131/354/270 363/341/270 125/353/270 20/355/270
f 130/356/271 360/337/271 363/341/271 131/354/271
f 129/344/272 357/334/272 360/337/272 130/356/272
f 366/357/273 367/358/273 370/359/273 369/360/273
f 367/358/274 368/361/274 371/362/274 370/359/274
f 369/360/275 370/359/275 373/363/275 372/364/275
f 370/359/276 371/362/276 374/365/276 373/363/276
f 3/104/277 56/366/277 366/357/277 135/329/277
f 56/366/278 55/367/278 367/358/278 366/357/278
f 55/367/279 54/368/279 368/361/279 367/358/279
f 54/368/280 1/10/280 134/12/280 368/361/280
f 368/361/281 134/12/281 133/25/281 371/362/281
f 371/362/282 133/25/282 132/23/282 374/365/282
f 374/365/283 132/23/283 19/24/283 120/308/283
f 373/363/284 374/365/284 120/308/284 121/318/284
f 372/364/285 373/363/285 121/318/285 122/316/285
f 137/331/286 372/364/286 122/316/286 17/317/286
f 136/330/287 369/360/287 372/364/287 137/331/287
f 135/329/288 366/357/288 369/360/288 136/330/288
f 375/369/289 376/370/289 379/371/289 378/372/289
f 376/370/290 377/373/290 380/374/290 379/371/290
f 378/372/291 379/371/291 382/375/291 381/376/291
f 379/371/292 380/374/292 383/377/292 382/375/292
f 22/378/293 143/379/293 375/369/293 152/380/293
f 143/379/294 142/381/294 376/370/294 375/369/294
f 142/381/295 141/382/295 377/373/295 376/370/295
f 141/382/296 21/383/296 147/384/296 377/373/296
f 377/373/297 147/384/297 148/385/297 380/374/297
f 380/374/298 148/385/298 149/386/298 383/377/298
f 383/377/299 149/386/299 23/117/299 144/115/299
f 382/375/300 383/377/300 144/115/300 145/114/300
f 381/376/301 382/375/301 145/114/301 146/113/301
f 150/387/302 381/376/302 146/113/302 24/112/302
f 151/388/303 378/372/303 381/376/303 150/387/303
f 152/380/304 375/369/304 378/372/304 151/388/304
f 384/389/305 385/390/305 388/391/305 387/392/305
f 385/390/306 386/393/306 389/394/306 388/391/306
f 387/392/307 388/391/307 391/395/307 390/396/307
f 388/391/308 389/394/308 392/397/308 391/395/308
f 2/256/309 41/255/309 384/389/309 164/398/309
f 41/255/310 40/254/310 385/390/310 384/389/310
f 40/254/311 39/253/311 386/393/311 385/390/311
f 39/253/312 1/10/312 159/399/312 386/393/312
f 386/393/313 159/399/313 160/400/313 389/394/313
f 389/394/314 160/400/314 161/401/314 392/397/314
f 392/397/315 161/401/315 21/383/315 141/382/315
f 391/395/316 392/397/316 141/382/316 142/381/316
f 390/396/317 391/395/317 142/381/317 143/379/317
f 162/402/318 390/396/318 143/379/318 22/378/318
f 163/403/319 387/392/319 390/396/319 162/402/319
f 164/398/320 384/389/320 387/392/320 163/403/320
f 393/404/321 394/405/321 397/406/321 396/407/321
f 394/405/322 395/408/322 398/409/322 397/406/322
f 396/407/323 397/406/323 400/410/323 399/411/323
f 397/406/324 398/409/324 401/412/324 400/410/324
f 4/40/325 66/413/325 393/404/325 153/109/325
f 66/413/326 67/414/326 394/405/326 393/404/326
f 67/414/327 68/415/327 395/408/327 394/405/327
f 68/415/328 2/256/328 164/398/328 395/408/328
f 395/408/329 164/398/329 163/403/329 398/409/329
f 398/409/330 163/403/330 162/402/330 401/412/330
f 401/412/331 162/402/331 22/378/331 152/380/331
f 400/410/332 401/412/332 152/380/332 151/388/332
f 399/411/333 400/410/333 151/388/333 150/387/333
f 155/111/334 399/411/334 150/387/334 24/112/334
f 154/110/335 396/407/335 399/411/335 155/111/335
f 153/109/336 393/404/336 396/407/336 154/110/336
f 402/416/337 403/417/337 406/418/337 405/419/337
f 403/417/338 404/420/338 407/421/338 406/418/338
f 405/419/339 406/418/339 409/422/339 408/423/339
f 406/418/340 407/421/340 410/424/340 409/422/340
f 1/10/341 54/368/341 402/416/341 159/399/341
f 54/368/342 55/367/342 403/417/342 402/416/342
f 55/367/343 56/366/343 404/420/343 403/417/343
f 56/366/344 3/104/344 158/106/344 404/420/344
f 404/420/345 158/106/345 157/118/345 407/421/345
f 407/421/346 157/118/346 156/116/346 410/424/346
f 410/424/347 156/116/347 23/117/347 149/386/347
f 409/422/348 410/424/348 149/386/348 148/385/348
f 408/423/349 409/422/349 148/385/349 147/384/349
f 161/401/350 408/423/350 147/384/350 21/383/350
f 160/400/351 405/419/351 408/423/351 161/401/351
f 159/399/352 402/416/352 405/419/352 160/400/352
f 411/425/353 412/426/353 415/427/353 414/428/353
f 412/426/354 413/429/354 416/430/354 415/427/354
f 414/428/355 415/427/355 418/431/355 417/432/355
f 415/427/356 416/430/356 419/433/356 418/431/356
f 26/434/357 168/435/357 411/425/357 167/436/357
f 168/435/358 169/437/358 412/426/358 411/425/358
f 169/437/359 170/438/359 413/429/359 412/426/359
f 170/438/360 27/439/360 174/440/360 413/429/360
f 413/429/361 174/440/361 175/441/361 416/430/361
f 416/430/362 175/441/362 176/442/362 419/433/362
f 419/433/363 176/442/363 28/443/363 171/444/363
f 418/431/364 419/433/364 171/444/364 172/445/364
f 417/432/365 418/431/365 172/445/365 173/446/365
f 165/447/366 417/432/366 173/446/366 25/448/366
f 166/449/367 414/428/367 417/432/367 165/447/367
f 167/436/368 411/425/368 414/428/368 166/449/368
f 420/450/369 421/451/369 424/452/369 423/453/369
f 421/451/370 422/454/370 425/455/370 424/452/370
f 423/453/371 424/452/371 427/456/371 426/457/371
f 424/452/372 425/455/372 428/458/372 427/456/372
f 7/204/373 60/346/373 420/450/373 188/459/373
f 60/346/374 61/345/374 421/451/374 420/450/374
f 61/345/375 62/343/375 422/454/375 421/451/375
f 62/343/376 5/274/376 183/460/376 422/454/376
f 422/454/377 183/460/377 184/461/377 425/455/377
f 425/455/378 184/461/378 185/462/378 428/458/378
f 428/458/379 185/462/379 28/443/379 176/442/379
f 427/456/380 428/458/380 176/442/380 175/441/380
f 426/457/381 427/456/381 175/441/381 174/440/381
f 186/463/382 426/457/382 174/440/382 27/439/382
f 187/464/383 423/453/383 426/457/383 186/463/383
f 188/459/384 420/450/384 423/453/384 187/464/384
f 429/465/385 430/466/385 433/467/385 432/468/385
f 430/466/386 431/469/386 434/470/386 433/467/386
f 432/468/387 433/467/387 436/471/387 435/472/387
f 433/467/388 434/470/388 437/473/388 436/471/388
f 5/274/389 48/273/389 429/465/389 183/460/389
f 48/273/390 49/272/390 430/466/390 429/465/390
f 49/272/391 50/270/391 431/469/391 430/466/391
f 50/270/392 6/269/392 182/474/392 431/469/392
f 431/469/393 182/474/393 181/475/393 434/470/393
f 434/470/394 181/475/394 180/476/394 437/473/394
f 437/473/395 180/476/395 25/448/395 173/446/395
f 436/471/396 437/473/396 173/446/396 172/445/396
f 435/472/397 436/471/397 172/445/397 171/444/397
f 185/462/398 435/472/398 171/444/398 28/443/398
f 184/461/399 432/468/399 435/472/399 185/462/399
f 183/460/400 429/465/400 432/468/400 184/461/400
f 438/477/401 439/478/401 442/479/401 441/480/401
f 439/478/402 440/481/402 443/482/402 442/479/402
f 441/480/403 442/479/403 445/483/403 444/484/403
f 442/479/404 443/482/404 446/485/404 445/483/404
f 8/209/405 42/208/405 438/477/405 177/486/405
f 42/208/406 43/207/406 439/478/406 438/477/406
f 43/207/407 44/205/407 440/481/407 439/478/407
f 44/205/408 7/204/408 188/459/408 440/481/408
f 440/481/409 188/459/409 187/464/409 443/482/409
f 443/482/410 187/464/410 186/463/410 446/485/410
f 446/485/411 186/463/411 27/439/411 170/438/411
f 445/483/412 446/485/412 170/438/412 169/437/412
f 444/484/413 445/483/413 169/437/413 168/435/413
f 179/487/414 444/484/414 168/435/414 26/434/414
f 178/488/415 441/480/415 444/484/415 179/487/415
f 177/486/416 438/477/416 441/480/416 178/488/416
f 447/489/417 448/490/417 451/491/417 450/492/417
f 448/490/418 449/493/418 452/494/418 451/491/418
f 450/492/419 451/491/419 454/495/419 453/496/419
f 451/491/420 452/494/420 455/497/420 454/495/420
f 29/498/421 194/499/421 447/489/421 189/500/421
f 194/499/422 193/501/422 448/490/422 447/489/422
f 193/501/423 192/502/423 449/493/423 448/490/423
f 192/502/424 31/503/424 200/504/424 449/493/424
f 449/493/425 200/504/425 199/505/425 452/494/425
f 452/494/426 199/505/426 198/506/426 455/497/426
f 455/497/427 198/506/427 32/93/427 197/91/427
f 454/495/428 455/497/428 197/91/428 196/90/428
f 453/496/429 454/495/429 196/90/429 195/89/429
f 191/507/430 453/496/430 195/89/430 30/88/430
f 190/508/431 450/492/431 453/496/431 191/507/431
f 189/500/432 447/489/432 450/492/432 190/508/432
f 456/509/433 457/510/433 460/511/433 459/512/433
f 457/510/434 458/513/434 461/514/434 460/511/434
f 459/512/435 460/511/435 463/515/435 462/516/435
f 460/511/436 461/514/436 464/517/436 463/515/436
f 8/35/437 35/64/437 456/509/437 201/85/437
f 35/64/438 34/63/438 457/510/438 456/509/438
f 34/63/439 33/61/439 458/513/439 457/510/439
f 33/61/440 6/60/440 207/518/440 458/513/440
f 458/513/441 207/518/441 208/519/441 461/514/441
f 461/514/442 208/519/442 209/520/442 464/517/442
f 464/517/443 209/520/443 29/498/443 189/500/443
f 463/515/444 464/517/444 189/500/444 190/508/444
f 462/516/445 463/515/445 190/508/445 191/507/445
f 203/87/446 462/516/446 191/507/446 30/88/446
f 202/86/447 459/512/447 462/516/447 203/87/447
f 201/85/448 456/509/448 459/512/448 202/86/448
f 465/521/449 466/522/449 469/523/449 468/524/449
f 466/522/450 467/525/450 470/526/450 469/523/450
f 468/524/451 469/523/451 472/527/451 471/528/451
f 469/523/452 470/526/452 473/529/452 472/527/452
f 2/256/453 68/415/453 465/521/453 212/530/453
f 68/415/454 67/414/454 466/522/454 465/521/454
f 67/414/455 66/413/455 467/525/455 466/522/455
f 66/413/456 4/40/456 206/84/456 467/525/456
f 467/525/457 206/84/457 205/94/457 470/526/457
f 470/526/458 205/94/458 204/92/458 473/529/458
f 473/529/459 204/92/459 32/93/459 198/506/459
f 472/527/460 473/529/460 198/506/460 199/505/460
f 471/528/461 472/527/461 199/505/461 200/504/461
f 210/531/462 471/528/462 200/504/462 31/503/462
f 211/532/463 468/524/463 471/528/463 210/531/463
f 212/530/464 465/521/464 468/524/464 211/532/464
f 474/533/465 475/534/465 478/535/465 477/536/465
f 475/534/466 476/537/466 479/538/466 478/535/466
f 477/536/467 478/535/467 481/539/467 480/540/467
f 478/535/468 479/538/468 482/541/468 481/539/468
f 6/60/469 38/291/469 474/533/469 207/518/469
f 38/291/470 37/290/470 475/534/470 474/533/470
f 37/290/471 36/289/471 476/537/471 475/534/471
f 36/289/472 2/256/472 212/530/472 476/537/472
f 476/537/473 212/530/473 211/532/473 479/538/473
f 479/538/474 211/532/474 210/531/474 482/541/474
f 482/541/475 210/531/475 31/503/475 192/502/475
f 481/539/476 482/541/476 192/502/476 193/501/476
f 480/540/477 481/539/477 193/501/477 194/499/477
f 209/520/478 480/540/478 194/499/478 29/498/478
f 208/519/479 477/536/479 480/540/479 209/520/479
f 207/518/480 474/533/480 477/536/480 208/519/480
