$MeshFormat
2.2 0 8
$EndMeshFormat
$Nodes
505
1 0.4422950148582458 2.622720956802368 -1.170138955116272
2 0.003426000010222197 2.67302393913269 -1.260308980941772
3 0.001191999996080995 3.708667993545532 -0.9788320064544678
4 0.3747310042381287 3.679969072341919 -0.909650981426239
5 -0.4303120076656342 2.622721910476685 -1.170138955116272
6 -0.3708209991455078 3.679970026016235 -0.909650981426239
7 0.0001489999995101243 4.680377006530762 -0.7992449998855591
8 0.3213559985160828 4.629813194274902 -0.7449679970741272
9 -0.3208670020103455 4.629811763763428 -0.7449679970741272
10 1.111830949783325 1.321102976799011 -1.316387057304382
11 0.4892770051956177 1.699368953704834 -1.692165017127991
12 0.8242970108985901 2.556392908096313 -0.8992429971694946
13 0.004767000209540129 1.798069000244141 -1.790223956108093
14 -0.4706700146198273 1.699368953704834 -1.692165017127991
15 -1.041633009910583 1.321102023124695 -1.316387057304382
16 -0.7985770106315613 2.556392908096313 -0.8992429971694946
17 -0.6772570013999939 3.651271104812622 -0.7064070105552673
18 -0.5813940167427063 4.572267055511475 -0.5850380063056946
19 -0.5 5.149095058441162 -0.5
20 -0.2966499924659729 5.350831985473633 -0.57293301820755
21 0 5.45216703414917 -0.6095679998397827
22 0.2966499924659729 5.350831985473633 -0.57293301820755
23 0.5823249816894531 4.572267055511475 -0.5850380063056946
24 0.5 5.149096012115479 -0.5
25 0.6847040057182312 3.651271104812622 -0.7064070105552673
26 -0.4303120076656342 -1.066267967224121 2.700392961502075
27 0.003426000010222197 -1.141214966773987 2.752511024475098
28 0.001191999996080995 -0.9446939826011658 3.836168050765991
29 -0.3708209991455078 -0.8802649974822998 3.806266069412231
30 0.4422950148582458 -1.066267967224121 2.700393915176392
31 0.3747310042381287 -0.8802649974822998 3.806266069412231
32 0.0001489999995101243 -0.7949770092964172 4.853259086608887
33 -0.3208670020103455 -0.7412949800491333 4.800336837768555
34 0.3213559985160828 -0.7412949800491333 4.800336837768555
35 -1.041633009910583 -1.133568048477173 1.344722032546997
36 -0.4706700146198273 -1.412840962409973 1.735455989837646
37 -0.7985770106315613 -0.8322610259056091 2.631679058074951
38 0.004767000209540129 -1.486089944839478 1.837360978126526
39 0.4892770051956177 -1.412842035293579 1.735455989837646
40 1.111830949783325 -1.133568048477173 1.344722032546997
41 0.8242970108985901 -0.8322610259056091 2.631679058074951
42 0.6847040057182312 -0.6870110034942627 3.776365041732788
43 0.5823249816894531 -0.5826129913330078 4.740108013153076
44 0.5 -0.5 5.343954086303711
45 0.2966499924659729 -0.57293301820755 5.555164813995361
46 -0 -0.6095679998397827 5.661259174346924
47 -0.2966499924659729 -0.57293301820755 5.555163860321045
48 -0.5813940167427063 -0.5826129913330078 4.740108013153076
49 -0.5 -0.5 5.343954086303711
50 -0.6772570013999939 -0.6870099902153015 3.776365995407104
51 -1.703680038452148 -1.066267967224121 -0.4741170108318329
52 -1.732509970664978 -1.141214966773987 0.001383000053465366
53 -2.200051069259644 -0.9446939826011658 0.0004809999954886734
54 -2.185585021972656 -0.8802649974822998 -0.3850469887256622
55 -1.703680038452148 -1.066267967224121 0.4789539873600006
56 -2.185585021972656 -0.8802649974822998 0.3866249918937683
57 -2.634789943695068 -0.7949770092964172 5.999999848427251e-05
58 -2.612109899520874 -0.7412949800491333 -0.3226450085639954
59 -2.612109899520874 -0.7412949800491333 0.3228429853916168
60 -1.041633009910583 -1.133568048477173 -1.316387057304382
61 -1.272377014160156 -1.412840962409973 -0.5391889810562134
62 -1.665593981742859 -0.8322610259056091 -0.8992429971694946
63 -1.333148956298828 -1.486089944839478 0.001923999981954694
64 -1.272377967834473 -1.412842035293579 0.5466989874839783
65 -1.665593981742859 -0.8322610259056091 0.9096239805221558
66 -2.171118974685669 -0.6870110034942627 0.7094129920005798
67 -2.586327075958252 -0.5826129913330078 0.5854129791259766
68 -2.8434739112854 -0.5 0.5
69 -2.933106899261475 -0.57293301820755 0.2966499924659729
70 -2.978132009506226 -0.6095679998397827 -0
71 -2.933106899261475 -0.57293301820755 -0.2966499924659729
72 -2.586327075958252 -0.5826129913330078 -0.5850380063056946
73 -2.8434739112854 -0.5 -0.5
74 -2.171118974685669 -0.6870099902153015 -0.7064070105552673
75 0.4422950148582458 -2.006009101867676 1.186238050460815
76 0.003426000010222197 -2.041903018951416 1.278766989707947
77 0.001191999996080995 -2.696327924728394 0.9841219782829285
78 0.3747310042381287 -2.677180051803589 0.914205014705658
79 -0.4303120076656342 -2.006009101867676 1.186238050460815
80 -0.3708209991455078 -2.677181005477905 0.914205014705658
81 0.0001489999995101243 -3.307709932327271 0.7999060153961182
82 0.3213559985160828 -3.275856971740723 0.7455369830131531
83 -0.3208670020103455 -3.275856971740723 0.7455369830131531
84 0.8242970108985901 -1.958632946014404 0.9096239805221558
85 -0.7985770106315613 -1.958632946014404 0.9096239805221558
86 -0.6772570013999939 -2.658031940460205 0.7094129920005798
87 -0.5813940167427063 -3.239625930786133 0.5854129791259766
88 -0.5 -3.601934909820557 0.5
89 -0.2966499924659729 -3.728446006774902 0.57293301820755
90 0 -3.791994094848633 0.6095679998397827
91 0.2966499924659729 -3.728446006774902 0.57293301820755
92 0.5823249816894531 -3.239625930786133 0.5854129791259766
93 0.5 -3.601934909820557 0.5
94 0.6847040057182312 -2.658031940460205 0.7094129920005798
95 1.934527993202209 0.4761810004711151 1.186238050460815
96 1.968750953674316 0.009151999838650227 1.278766989707947
97 2.57898998260498 0.003183000022545457 0.9841219782829285
98 2.560949087142944 0.3857479989528656 0.914205014705658
99 1.934527993202209 -0.4441680014133453 1.186238050460815
100 2.560949087142944 -0.3753019869327545 0.914205014705658
101 3.148607015609741 0.0003980000037699938 0.7999060153961182
102 3.11892294883728 0.3227330148220062 0.7455369830131531
103 3.11892294883728 -0.3214269876480103 0.7455369830131531
104 1.111830949783325 1.321102023124695 1.344722032546997
105 1.379629969596863 0.5421910285949707 1.735455989837646
106 1.889348030090332 0.9009699821472168 0.9096239805221558
107 1.449928998947144 0.01273399963974953 1.837360978126526
108 1.379631042480469 -0.4924820065498352 1.735455989837646
109 1.889348030090332 -0.8322610259056091 0.9096239805221558
110 2.542907953262329 -0.6870110034942627 0.7094129920005798
111 3.085161924362183 -0.5826129913330078 0.5854129791259766
112 3.422606945037842 -0.5 0.5
113 3.540399074554443 -0.2966499924659729 0.57293301820755
114 3.59956693649292 0 0.6095679998397827
115 3.540399074554443 0.2966499924659729 0.57293301820755
116 3.085161924362183 0.585099995136261 0.5854129791259766
117 3.422606945037842 0.5 0.5
118 2.542907953262329 0.7069069743156433 0.7094129920005798
119 -0.4303120076656342 1.172817945480347 -2.60721492767334
120 0.003426000010222197 1.26338005065918 -2.65715503692627
121 0.001191999996080995 0.9797120094299316 -3.683213949203491
122 -0.3708209991455078 0.9104089736938477 -3.654755115509033
123 0.4422950148582458 1.172817945480347 -2.60721492767334
124 0.3747310042381287 0.9104089736938477 -3.654755115509033
125 0.0001489999995101243 0.7993549704551697 -4.645863056182861
126 -0.3208670020103455 0.745061993598938 -4.595768928527832
127 0.3213559985160828 0.745061993598938 -4.595767974853516
128 -0.7985770106315613 0.9009699821472168 -2.541363954544067
129 0.8242970108985901 0.9009699821472168 -2.541363954544067
130 0.6847040057182312 0.7069069743156433 -3.626297950744629
131 0.5823249816894531 0.585099995136261 -4.538760185241699
132 0.5 0.5 -5.110194206237793
133 0.2966499924659729 0.57293301820755 -5.31003999710083
134 -0 0.6095679998397827 -5.41042423248291
135 -0.2966499924659729 0.57293301820755 -5.310039043426514
136 -0.5813940167427063 0.585099995136261 -4.538760185241699
137 -0.5 0.5 -5.110194206237793
138 -0.6772570013999939 0.7069069743156433 -3.626296997070312
139 0.3161570131778717 -0.3161570131778717 6.007101058959961
140 0.3331399857997894 -0 6.160120010375977
141 -0 0 6.327154159545898
142 -0 -0.3331399857997894 6.160120010375977
143 0.3161570131778717 0.3161570131778717 6.007102012634277
144 0 0.3331399857997894 6.160120010375977
145 -0.3331399857997894 0 6.160120010375977
146 -0.3161570131778717 -0.3161570131778717 6.007101058959961
147 -0.3161570131778717 0.3161570131778717 6.007101058959961
148 0.57293301820755 -0.2966499924659729 5.555163860321045
149 0.6095679998397827 0 5.661259174346924
150 0.57293301820755 0.2966499924659729 5.555164813995361
151 0.5 0.5 5.343953132629395
152 0.2966499924659729 0.57293301820755 5.555164813995361
153 0 0.6095679998397827 5.661259174346924
154 -0.2966499924659729 0.57293301820755 5.555163860321045
155 -0.5 0.5 5.343953132629395
156 -0.57293301820755 0.2966499924659729 5.555164813995361
157 -0.6095679998397827 -0 5.661258220672607
158 -0.57293301820755 -0.2966499924659729 5.555164813995361
159 0.4422950148582458 1.172817945480347 2.700392961502075
160 0.003426000010222197 1.26338005065918 2.752510070800781
161 0.001191999996080995 0.9797120094299316 3.836168050765991
162 0.3747310042381287 0.9104089736938477 3.806266069412231
163 -0.4303120076656342 1.172817945480347 2.700393915176392
164 -0.3708209991455078 0.9104089736938477 3.806266069412231
165 0.0001489999995101243 0.7993549704551697 4.85325813293457
166 0.3213559985160828 0.745061993598938 4.800336837768555
167 -0.3208670020103455 0.745061993598938 4.800336837768555
168 0.4892770051956177 1.699368953704834 1.735455989837646
169 0.8242970108985901 0.9009699821472168 2.631679058074951
170 0.004767000209540129 1.798069000244141 1.837360978126526
171 -0.4706700146198273 1.699368953704834 1.735455989837646
172 -1.041633009910583 1.321102023124695 1.344722032546997
173 -0.7985770106315613 0.9009699821472168 2.631679058074951
174 -0.6772570013999939 0.7069069743156433 3.776365041732788
175 -0.5813940167427063 0.585099995136261 4.740108013153076
176 0.5823249816894531 0.585099995136261 4.740108013153076
177 0.6847040057182312 0.7069069743156433 3.776365995407104
178 1.05391800403595 -0.4441680014133453 2.700392961502075
179 1.127055048942566 0.009151999838650227 2.752510070800781
180 0.9406350255012512 0.003183000022545457 3.836168050765991
181 0.8767719864845276 -0.3753019869327545 3.806266069412231
182 1.05391800403595 0.4761810004711151 2.700392961502075
183 0.8767719864845276 0.3857479989528656 3.806266069412231
184 0.7944700121879578 0.0003980000037699938 4.85325813293457
185 0.7408580183982849 -0.3214269876480103 4.800336837768555
186 0.7408580183982849 0.3227330148220062 4.800336837768555
187 -1.014034032821655 0.4761810004711151 2.700392961502075
188 -1.081326007843018 0.009151999838650227 2.752510070800781
189 -0.9275270104408264 0.003183000022545457 3.836168050765991
190 -0.8654879927635193 0.3857479989528656 3.806266069412231
191 -1.014034032821655 -0.4441680014133453 2.700393915176392
192 -0.8654879927635193 -0.3753019869327545 3.806266069412231
193 -0.7928310036659241 0.0003980000037699938 4.85325813293457
194 -0.7394469976425171 0.3227330148220062 4.800336837768555
195 -0.7394469976425171 -0.3214269876480103 4.800336837768555
196 -1.272377014160156 0.5421910285949707 1.735455989837646
197 -1.333148956298828 0.01273399963974953 1.837360978126526
198 -1.272377014160156 -0.4924820065498352 1.735455989837646
199 -0.3161570131778717 -0.3161570131778717 -5.737656116485596
200 -0.3331399857997894 -0 -5.88244104385376
201 -0 0 -6.04048490524292
202 0 -0.3331399857997894 -5.88244104385376
203 -0.3161570131778717 0.3161570131778717 -5.737656116485596
204 -0 0.3331399857997894 -5.88244104385376
205 0.3331399857997894 0 -5.88244104385376
206 0.3161570131778717 -0.3161570131778717 -5.737655162811279
207 0.3161570131778717 0.3161570131778717 -5.737656116485596
208 -0.5 -0.5 -5.110194206237793
209 -0.57293301820755 -0.2966499924659729 -5.310039043426514
210 -0.2966499924659729 -0.57293301820755 -5.310039043426514
211 -0.6095679998397827 -0 -5.41042423248291
212 -0.57293301820755 0.2966499924659729 -5.31003999710083
213 0.57293301820755 0.2966499924659729 -5.310039043426514
214 0.6095679998397827 -0 -5.410422801971436
215 0.57293301820755 -0.2966499924659729 -5.310039043426514
216 0.2966499924659729 -0.57293301820755 -5.310039043426514
217 0.5 -0.5 -5.110194206237793
218 0 -0.6095679998397827 -5.41042423248291
219 1.05391800403595 0.4761810004711151 -2.60721492767334
220 1.127055048942566 0.009151999838650227 -2.65715503692627
221 0.9406350255012512 0.003183000022545457 -3.683213949203491
222 0.8767719864845276 0.3857479989528656 -3.654755115509033
223 1.05391800403595 -0.4441680014133453 -2.60721492767334
224 0.8767719864845276 -0.3753019869327545 -3.654755115509033
225 0.7944700121879578 0.0003980000037699938 -4.645863056182861
226 0.7408580183982849 0.3227330148220062 -4.595768928527832
227 0.7408580183982849 -0.3214269876480103 -4.595767974853516
228 1.379631042480469 0.5421910285949707 -1.692165017127991
229 1.449928998947144 0.01273399963974953 -1.790223956108093
230 1.379629969596863 -0.4924820065498352 -1.692165017127991
231 1.111830949783325 -1.133568048477173 -1.316387057304382
232 0.8242970108985901 -0.8322610259056091 -2.541363954544067
233 0.6847040057182312 -0.6870110034942627 -3.626297950744629
234 0.5823249816894531 -0.5826129913330078 -4.538760185241699
235 -1.014034032821655 -0.4441680014133453 -2.60721492767334
236 -1.081326007843018 0.009151999838650227 -2.65715503692627
237 -0.9275270104408264 0.003183000022545457 -3.683213949203491
238 -0.8654879927635193 -0.3753019869327545 -3.654755115509033
239 -1.014034032821655 0.4761810004711151 -2.60721492767334
240 -0.8654879927635193 0.3857479989528656 -3.654755115509033
241 -0.7928310036659241 0.0003980000037699938 -4.645863056182861
242 -0.7394469976425171 -0.3214269876480103 -4.595768928527832
243 -0.7394469976425171 0.3227330148220062 -4.595768928527832
244 -1.272377014160156 -0.4924820065498352 -1.692165017127991
245 -0.7985770106315613 -0.8322610259056091 -2.541363954544067
246 -1.333148956298828 0.01273399963974953 -1.790223956108093
247 -1.272377014160156 0.5421910285949707 -1.692165017127991
248 -0.5813940167427063 -0.5826129913330078 -4.538760185241699
249 -0.6772570013999939 -0.6870110034942627 -3.626297950744629
250 0.4422950148582458 -1.066267967224121 -2.60721492767334
251 0.003426000010222197 -1.141214966773987 -2.65715503692627
252 0.001191999996080995 -0.9446939826011658 -3.683213949203491
253 0.3747310042381287 -0.880266010761261 -3.654755115509033
254 -0.4303120076656342 -1.066267967224121 -2.60721492767334
255 -0.3708209991455078 -0.8802649974822998 -3.654755115509033
256 0.0001489999995101243 -0.7949770092964172 -4.645863056182861
257 0.3213559985160828 -0.7412949800491333 -4.595768928527832
258 -0.3208670020103455 -0.7412949800491333 -4.595768928527832
259 0.4892770051956177 -1.412840962409973 -1.692165017127991
260 0.004767000209540129 -1.486089944839478 -1.790223956108093
261 -0.4706700146198273 -1.412842035293579 -1.692165017127991
262 0.3161570131778717 5.782495975494385 -0.3161570131778717
263 0 5.928650856018066 -0.3331399857997894
264 -0 6.088191032409668 0
265 0.3331399857997894 5.928650856018066 0
266 -0.3161570131778717 5.782495975494385 -0.3161570131778717
267 -0.3331399857997894 5.928650856018066 -0
268 -0 5.928650856018066 0.3331399857997894
269 0.3161570131778717 5.782495975494385 0.3161570131778717
270 -0.3161570131778717 5.782495975494385 0.3161570131778717
271 0.57293301820755 5.350831985473633 -0.2966499924659729
272 -0.57293301820755 5.350831985473633 -0.2966499924659729
273 -0.6095679998397827 5.45216703414917 0
274 -0.57293301820755 5.350831985473633 0.2966499924659729
275 -0.5 5.149095058441162 0.5
276 -0.2966499924659729 5.350831985473633 0.57293301820755
277 0 5.45216703414917 0.6095679998397827
278 0.2966499924659729 5.350831985473633 0.57293301820755
279 0.57293301820755 5.350831985473633 0.2966499924659729
280 0.5 5.149095058441162 0.5
281 0.6095679998397827 5.45216703414917 0
282 -0.4303120076656342 2.622720956802368 1.186238050460815
283 0.003426000010222197 2.67302393913269 1.278766989707947
284 0.001191999996080995 3.708667993545532 0.9841219782829285
285 -0.3708209991455078 3.679969072341919 0.914205014705658
286 0.4422950148582458 2.622721910476685 1.186238050460815
287 0.3747310042381287 3.679970026016235 0.914205014705658
288 0.0001489999995101243 4.680377006530762 0.7999060153961182
289 -0.3208670020103455 4.629813194274902 0.7455369830131531
290 0.3213559985160828 4.629811763763428 0.7455369830131531
291 -0.7985770106315613 2.556392908096313 0.9096239805221558
292 0.8242970108985901 2.556392908096313 0.9096239805221558
293 0.6847040057182312 3.651271104812622 0.7094129920005798
294 0.5823249816894531 4.572267055511475 0.5854129791259766
295 -0.5813940167427063 4.572267055511475 0.5854129791259766
296 -0.6772570013999939 3.651271104812622 0.7094129920005798
297 -1.014034032821655 2.622720956802368 -0.4741170108318329
298 -1.081326007843018 2.67302393913269 0.001383000053465366
299 -0.9275270104408264 3.708667993545532 0.0004809999954886734
300 -0.8654879927635193 3.679969072341919 -0.3850469887256622
301 -1.014034032821655 2.622721910476685 0.4789539873600006
302 -0.8654879927635193 3.679970026016235 0.3866249918937683
303 -0.7928310036659241 4.680377006530762 5.999999848427251e-05
304 -0.7394469976425171 4.629811763763428 -0.3226450085639954
305 -0.7394469976425171 4.629811763763428 0.3228429853916168
306 -1.272377014160156 1.699368953704834 -0.5391889810562134
307 -1.333148956298828 1.798069000244141 0.001923999981954694
308 -1.272377014160156 1.699368953704834 0.5466989874839783
309 1.05391800403595 2.622720956802368 0.4789539873600006
310 1.127055048942566 2.67302393913269 0.001383000053465366
311 0.9406350255012512 3.708667993545532 0.0004809999954886734
312 0.8767719864845276 3.679969072341919 0.3866249918937683
313 1.05391800403595 2.622721910476685 -0.4741170108318329
314 0.8767719864845276 3.679970026016235 -0.3850469887256622
315 0.7944700121879578 4.680377006530762 5.999999848427251e-05
316 0.7408580183982849 4.629813194274902 0.3228429853916168
317 0.7408580183982849 4.629811763763428 -0.3226450085639954
318 1.379631042480469 1.699368953704834 0.5466989874839783
319 1.449928998947144 1.798069000244141 0.001923999981954694
320 1.379629969596863 1.699368953704834 -0.5391889810562134
321 3.792442083358765 -0.3161570131778717 -0.3161570131778717
322 3.877780914306641 -0 -0.3331399857997894
323 3.97093391418457 0 -0
324 3.877780914306641 -0.3331399857997894 0
325 3.792443037033081 0.3161570131778717 -0.3161570131778717
326 3.877780914306641 0.3331399857997894 -0
327 3.877780914306641 0 0.3331399857997894
328 3.792442083358765 -0.3161570131778717 0.3161570131778717
329 3.792442083358765 0.3161570131778717 0.3161570131778717
330 3.422606945037842 -0.5 -0.5
331 3.540399074554443 -0.2966499924659729 -0.57293301820755
332 3.540399074554443 -0.57293301820755 -0.2966499924659729
333 3.59956693649292 -0 -0.6095679998397827
334 3.540399074554443 0.2966499924659729 -0.57293301820755
335 3.422606945037842 0.5 -0.5
336 3.540399074554443 0.57293301820755 -0.2966499924659729
337 3.59956693649292 0.6095679998397827 0
338 3.540399074554443 0.57293301820755 0.2966499924659729
339 3.540399074554443 -0.57293301820755 0.2966499924659729
340 3.59956693649292 -0.6095679998397827 0
341 1.934527039527893 -0.4441680014133453 -1.170138955116272
342 1.968750953674316 0.009151999838650227 -1.260308980941772
343 2.57898998260498 0.003183000022545457 -0.9788320064544678
344 2.560949087142944 -0.3753019869327545 -0.909650981426239
345 1.934527993202209 0.4761810004711151 -1.170138955116272
346 2.560949087142944 0.3857479989528656 -0.909650981426239
347 3.148607015609741 0.0003980000037699938 -0.7992449998855591
348 3.11892294883728 -0.3214269876480103 -0.7449679970741272
349 3.11892294883728 0.3227330148220062 -0.7449679970741272
350 1.889348030090332 -0.8322610259056091 -0.8992429971694946
351 1.889348030090332 0.9009699821472168 -0.8992429971694946
352 2.542907953262329 0.7069069743156433 -0.7064070105552673
353 3.085161924362183 0.585099995136261 -0.5850380063056946
354 3.085161924362183 -0.5826129913330078 -0.5850380063056946
355 2.542907953262329 -0.6870110034942627 -0.7064070105552673
356 1.934527039527893 -1.066267967224121 0.4789539873600006
357 1.968750953674316 -1.141214966773987 0.001383000053465366
358 2.57898998260498 -0.9446939826011658 0.0004809999954886734
359 2.560949087142944 -0.880266010761261 0.3866249918937683
360 1.934527993202209 -1.066267967224121 -0.4741170108318329
361 2.560949087142944 -0.8802649974822998 -0.3850469887256622
362 3.148607015609741 -0.7949770092964172 5.999999848427251e-05
363 3.11892294883728 -0.7412949800491333 0.3228429853916168
364 3.11892294883728 -0.7412949800491333 -0.3226450085639954
365 1.379629969596863 -1.412840962409973 0.5466989874839783
366 1.449928998947144 -1.486089944839478 0.001923999981954694
367 1.379629969596863 -1.412842035293579 -0.5391889810562134
368 1.934527039527893 1.172817945480347 -0.4741170108318329
369 1.968750953674316 1.26338005065918 0.001383000053465366
370 2.57898998260498 0.9797120094299316 0.0004809999954886734
371 2.560949087142944 0.9104089736938477 -0.3850469887256622
372 1.934527993202209 1.172817945480347 0.4789539873600006
373 2.560949087142944 0.9104089736938477 0.3866249918937683
374 3.148607015609741 0.7993549704551697 5.999999848427251e-05
375 3.11892294883728 0.745061993598938 -0.3226450085639954
376 3.11892294883728 0.745061993598938 0.3228429853916168
377 -3.124898910522461 -0.3161570131778717 0.3161570131778717
378 -3.189836978912354 -0 0.3331399857997894
379 -3.26072096824646 0 -0
380 -3.189836978912354 -0.3331399857997894 -0
381 -3.124898910522461 0.3161570131778717 0.3161570131778717
382 -3.189836978912354 0.3331399857997894 0
383 -3.189836978912354 0 -0.3331399857997894
384 -3.124898910522461 -0.3161570131778717 -0.3161570131778717
385 -3.124898910522461 0.3161570131778717 -0.3161570131778717
386 -2.933106899261475 -0.2966499924659729 0.57293301820755
387 -2.978132009506226 0 0.6095679998397827
388 -2.933106899261475 0.2966499924659729 0.57293301820755
389 -2.8434739112854 0.5 0.5
390 -2.933106899261475 0.57293301820755 0.2966499924659729
391 -2.978132009506226 0.6095679998397827 0
392 -2.933106899261475 0.57293301820755 -0.2966499924659729
393 -2.8434739112854 0.5 -0.5
394 -2.933106899261475 0.2966499924659729 -0.57293301820755
395 -2.978132009506226 -0 -0.6095679998397827
396 -2.93310809135437 -0.2966499924659729 -0.57293301820755
397 -1.703680038452148 1.172817945480347 0.4789539873600006
398 -1.732509970664978 1.26338005065918 0.001383000053465366
399 -2.200051069259644 0.9797120094299316 0.0004809999954886734
400 -2.185585021972656 0.9104089736938477 0.3866249918937683
401 -1.703680038452148 1.172817945480347 -0.4741170108318329
402 -2.185585021972656 0.9104089736938477 -0.3850469887256622
403 -2.634789943695068 0.7993549704551697 5.999999848427251e-05
404 -2.612109899520874 0.745061993598938 0.3228429853916168
405 -2.612109899520874 0.745061993598938 -0.3226450085639954
406 -1.665593981742859 0.9009699821472168 0.9096239805221558
407 -1.665593981742859 0.9009699821472168 -0.8992429971694946
408 -2.171118974685669 0.7069069743156433 -0.7064070105552673
409 -2.586327075958252 0.585099995136261 -0.5850380063056946
410 -2.586327075958252 0.585099995136261 0.5854129791259766
411 -2.171118974685669 0.7069069743156433 0.7094129920005798
412 -1.703680038452148 0.4761810004711151 -1.170138955116272
413 -1.732509970664978 0.009151999838650227 -1.260308980941772
414 -2.200051069259644 0.003183000022545457 -0.9788320064544678
415 -2.185585021972656 0.3857479989528656 -0.909650981426239
416 -1.703680038452148 -0.4441680014133453 -1.170138955116272
417 -2.185585021972656 -0.3753019869327545 -0.909650981426239
418 -2.634789943695068 0.0003980000037699938 -0.7992449998855591
419 -2.612109899520874 0.3227330148220062 -0.7449679970741272
420 -2.612109899520874 -0.3214269876480103 -0.7449679970741272
421 -1.703680038452148 -0.4441680014133453 1.186238050460815
422 -1.732509970664978 0.009151999838650227 1.278766989707947
423 -2.200051069259644 0.003183000022545457 0.9841219782829285
424 -2.185585021972656 -0.3753019869327545 0.914205014705658
425 -1.703680038452148 0.4761810004711151 1.186238050460815
426 -2.185585021972656 0.3857479989528656 0.914205014705658
427 -2.634789943695068 0.0003980000037699938 0.7999060153961182
428 -2.612109899520874 -0.3214269876480103 0.7455369830131531
429 -2.612109899520874 0.3227330148220062 0.7455369830131531
430 -0.3161570131778717 -3.999146938323975 -0.3161570131778717
431 -0 -4.090802192687988 -0.3331399857997894
432 0 -4.190851211547852 -0
433 -0.3331399857997894 -4.090802192687988 0
434 0.3161570131778717 -3.999146938323975 -0.3161570131778717
435 0.3331399857997894 -4.090803146362305 -0
436 0 -4.090802192687988 0.3331399857997894
437 -0.3161570131778717 -3.999146938323975 0.3161570131778717
438 0.3161570131778717 -3.999145984649658 0.3161570131778717
439 -0.5 -3.601936101913452 -0.5
440 -0.2966499924659729 -3.728446006774902 -0.57293301820755
441 -0.57293301820755 -3.728446006774902 -0.2966499924659729
442 0 -3.791994094848633 -0.6095679998397827
443 0.2966499924659729 -3.728446006774902 -0.57293301820755
444 0.5 -3.601936101913452 -0.5
445 0.57293301820755 -3.728446006774902 -0.2966499924659729
446 0.6095679998397827 -3.791994094848633 0
447 0.57293301820755 -3.728446006774902 0.2966499924659729
448 -0.57293301820755 -3.728446006774902 0.2966499924659729
449 -0.6095679998397827 -3.791995048522949 0
450 -1.014034032821655 -2.006009101867676 0.4789539873600006
451 -1.081326007843018 -2.041903018951416 0.001383000053465366
452 -0.9275270104408264 -2.696327924728394 0.0004809999954886734
453 -0.8654879927635193 -2.677180051803589 0.3866249918937683
454 -1.014034032821655 -2.006009101867676 -0.4741170108318329
455 -0.8654879927635193 -2.677181005477905 -0.3850469887256622
456 -0.7928310036659241 -3.307709932327271 5.999999848427251e-05
457 -0.7394469976425171 -3.275856971740723 0.3228429853916168
458 -0.7394469976425171 -3.275856971740723 -0.3226450085639954
459 -0.7985770106315613 -1.958632946014404 -0.8992429971694946
460 -0.6772570013999939 -2.658031940460205 -0.7064070105552673
461 -0.5813940167427063 -3.239625930786133 -0.5850380063056946
462 1.05391800403595 -2.006009101867676 -0.4741170108318329
463 1.127055048942566 -2.041903018951416 0.001383000053465366
464 0.9406350255012512 -2.696327924728394 0.0004809999954886734
465 0.8767719864845276 -2.677180051803589 -0.3850469887256622
466 1.05391800403595 -2.006009101867676 0.4789539873600006
467 0.8767719864845276 -2.677181005477905 0.3866249918937683
468 0.7944700121879578 -3.307709932327271 5.999999848427251e-05
469 0.7408580183982849 -3.275856971740723 -0.3226450085639954
470 0.7408580183982849 -3.275856971740723 0.3228429853916168
471 0.8242970108985901 -1.958632946014404 -0.8992429971694946
472 0.5823249816894531 -3.239625930786133 -0.5850380063056946
473 0.6847040057182312 -2.658031940460205 -0.7064070105552673
474 -0.4303120076656342 -2.006009101867676 -1.170138955116272
475 0.003426000010222197 -2.041903018951416 -1.260308980941772
476 0.001191999996080995 -2.696327924728394 -0.9788320064544678
477 -0.3708209991455078 -2.677180051803589 -0.909650981426239
478 0.4422950148582458 -2.006009101867676 -1.170138955116272
479 0.3747310042381287 -2.677181005477905 -0.909650981426239
480 0.0001489999995101243 -3.307709932327271 -0.7992449998855591
481 -0.3208670020103455 -3.275856971740723 -0.7449679970741272
482 0.3213559985160828 -3.275856971740723 -0.7449679970741272
483 -0.8017010853335769 0.0573680600893639 0.02199524099253891
484 -1.840661769071401 0.06353091295061955 0.02258136379600428
485 0.8250473060143984 -0.003226007749568938 0.003753610479645619
486 0.1135992774986188 -3.146950646256414 0.1136002866753225
487 0.09427092576352533 4.39748017136044 0.3837436386194792
488 0.3846358636229606 0.1876448409636647 4.657297841112147
489 0.02286452054977439 -1.206685803987458 0.01524329459332514
490 3.126018568852564 0 0
491 0.3388410987437278 -0.0488409936955902 -1.774343266306969
492 2.014499585823416 0.01457382788421979 -0.01547592716993595
493 0.01130886058874113 0.09244083177969581 3.576115513900362
494 0.12797480726077 0.4539873893614255 -4.585341818716965
495 0.03319336455345267 1.420064136085863 0.1198459285637365
496 -0.2015356756504577 4.577192619464057 -0.3892346059646677
497 0.05362701416015625 0.02485313604964445 1.282861656179054
498 -2.560507460092234 -0.08741044658607303 -0.05311400201525334
499 -0.05044025854645151 -2.190450387205364 -0.09502102180696725
500 0.03166253377971297 0.02880605341862485 -2.930471793229966
501 0.05142039205085146 5.149873449726231 0.006380123443144446
502 0.2538295123321976 2.557936085275317 0.0007876149139088373
503 -0.1592936808248757 -0.3433025818599688 4.865776769397521
504 -0.009536612209518514 -0.3229314012655731 -0.7159426171166062
505 0.009303495287895258 0.8295123286749575 -1.082683410538746
$EndNodes
$Elements
2313
1 2 2 0 1 1 2 3
2 2 2 0 1 11 2 1
3 2 2 0 1 1 3 4
4 2 2 0 1 12 1 4
5 2 2 0 1 10 11 1
6 2 2 0 1 10 1 12
7 2 2 0 1 2 6 3
8 2 2 0 1 2 5 6
9 2 2 0 1 13 5 2
10 2 2 0 1 11 13 2
11 2 2 0 1 4 3 7
12 2 2 0 1 3 6 9
13 2 2 0 1 3 9 7
14 2 2 0 1 4 7 8
15 2 2 0 1 25 4 8
16 2 2 0 1 12 4 25
17 2 2 0 1 5 17 6
18 2 2 0 1 13 14 5
19 2 2 0 1 14 16 5
20 2 2 0 1 5 16 17
21 2 2 0 1 6 18 9
22 2 2 0 1 6 17 18
23 2 2 0 1 8 7 21
24 2 2 0 1 7 9 20
25 2 2 0 1 7 20 21
26 2 2 0 1 8 21 22
27 2 2 0 1 23 8 22
28 2 2 0 1 25 8 23
29 2 2 0 1 9 18 19
30 2 2 0 1 9 19 20
31 2 2 0 1 11 10 129
32 2 2 0 1 320 10 12
33 2 2 0 1 10 219 129
34 2 2 0 1 10 228 219
35 2 2 0 1 228 10 351
36 2 2 0 1 10 320 368
37 2 2 0 1 10 368 351
38 2 2 0 1 13 11 123
39 2 2 0 1 11 129 123
40 2 2 0 1 313 12 25
41 2 2 0 1 320 12 313
42 2 2 0 1 14 13 120
43 2 2 0 1 13 123 120
44 2 2 0 1 14 15 16
45 2 2 0 1 15 14 119
46 2 2 0 1 14 120 119
47 2 2 0 1 15 297 16
48 2 2 0 1 15 119 128
49 2 2 0 1 247 15 128
50 2 2 0 1 15 247 412
51 2 2 0 1 15 306 297
52 2 2 0 1 306 15 407
53 2 2 0 1 15 412 407
54 2 2 0 1 16 300 17
55 2 2 0 1 16 297 300
56 2 2 0 1 17 304 18
57 2 2 0 1 17 300 304
58 2 2 0 1 18 272 19
59 2 2 0 1 18 304 272
60 2 2 0 1 20 19 272
61 2 2 0 1 21 20 266
62 2 2 0 1 20 272 266
63 2 2 0 1 22 21 263
64 2 2 0 1 21 266 263
65 2 2 0 1 23 22 24
66 2 2 0 1 24 22 262
67 2 2 0 1 22 263 262
68 2 2 0 1 317 23 24
69 2 2 0 1 314 25 23
70 2 2 0 1 314 23 317
71 2 2 0 1 24 262 271
72 2 2 0 1 317 24 271
73 2 2 0 1 313 25 314
74 2 2 0 1 26 27 28
75 2 2 0 1 36 27 26
76 2 2 0 1 26 28 29
77 2 2 0 1 37 26 29
78 2 2 0 1 35 36 26
79 2 2 0 1 35 26 37
80 2 2 0 1 27 31 28
81 2 2 0 1 27 30 31
82 2 2 0 1 38 30 27
83 2 2 0 1 36 38 27
84 2 2 0 1 29 28 32
85 2 2 0 1 28 31 34
86 2 2 0 1 28 34 32
87 2 2 0 1 29 32 33
88 2 2 0 1 50 29 33
89 2 2 0 1 37 29 50
90 2 2 0 1 30 42 31
91 2 2 0 1 38 39 30
92 2 2 0 1 39 41 30
93 2 2 0 1 30 41 42
94 2 2 0 1 31 43 34
95 2 2 0 1 31 42 43
96 2 2 0 1 33 32 46
97 2 2 0 1 32 34 45
98 2 2 0 1 32 45 46
99 2 2 0 1 33 46 47
100 2 2 0 1 48 33 47
101 2 2 0 1 50 33 48
102 2 2 0 1 34 43 44
103 2 2 0 1 34 44 45
104 2 2 0 1 36 35 85
105 2 2 0 1 198 35 37
106 2 2 0 1 64 35 65
107 2 2 0 1 35 64 450
108 2 2 0 1 35 421 65
109 2 2 0 1 35 450 85
110 2 2 0 1 35 198 421
111 2 2 0 1 38 36 79
112 2 2 0 1 36 85 79
113 2 2 0 1 191 37 50
114 2 2 0 1 198 37 191
115 2 2 0 1 39 38 76
116 2 2 0 1 38 79 76
117 2 2 0 1 39 40 41
118 2 2 0 1 40 39 75
119 2 2 0 1 39 76 75
120 2 2 0 1 40 178 41
121 2 2 0 1 40 75 84
122 2 2 0 1 365 40 84
123 2 2 0 1 108 40 109
124 2 2 0 1 40 108 178
125 2 2 0 1 40 356 109
126 2 2 0 1 40 365 356
127 2 2 0 1 41 181 42
128 2 2 0 1 41 178 181
129 2 2 0 1 42 185 43
130 2 2 0 1 42 181 185
131 2 2 0 1 43 148 44
132 2 2 0 1 43 185 148
133 2 2 0 1 44 139 45
134 2 2 0 1 44 148 139
135 2 2 0 1 45 142 46
136 2 2 0 1 45 139 142
137 2 2 0 1 46 146 47
138 2 2 0 1 46 142 146
139 2 2 0 1 48 47 49
140 2 2 0 1 47 158 49
141 2 2 0 1 47 146 158
142 2 2 0 1 195 48 49
143 2 2 0 1 192 50 48
144 2 2 0 1 192 48 195
145 2 2 0 1 195 49 158
146 2 2 0 1 191 50 192
147 2 2 0 1 51 52 53
148 2 2 0 1 61 52 51
149 2 2 0 1 51 53 54
150 2 2 0 1 62 51 54
151 2 2 0 1 60 61 51
152 2 2 0 1 60 51 62
153 2 2 0 1 52 56 53
154 2 2 0 1 52 55 56
155 2 2 0 1 63 55 52
156 2 2 0 1 61 63 52
157 2 2 0 1 54 53 57
158 2 2 0 1 53 56 59
159 2 2 0 1 53 59 57
160 2 2 0 1 54 57 58
161 2 2 0 1 74 54 58
162 2 2 0 1 62 54 74
163 2 2 0 1 55 66 56
164 2 2 0 1 63 64 55
165 2 2 0 1 64 65 55
166 2 2 0 1 55 65 66
167 2 2 0 1 56 67 59
168 2 2 0 1 56 66 67
169 2 2 0 1 58 57 70
170 2 2 0 1 57 59 69
171 2 2 0 1 57 69 70
172 2 2 0 1 58 70 71
173 2 2 0 1 72 58 71
174 2 2 0 1 74 58 72
175 2 2 0 1 59 67 68
176 2 2 0 1 59 68 69
177 2 2 0 1 61 60 459
178 2 2 0 1 244 60 62
179 2 2 0 1 60 244 235
180 2 2 0 1 60 235 245
181 2 2 0 1 261 60 245
182 2 2 0 1 60 261 474
183 2 2 0 1 60 474 459
184 2 2 0 1 63 61 454
185 2 2 0 1 61 459 454
186 2 2 0 1 416 62 74
187 2 2 0 1 244 62 416
188 2 2 0 1 64 63 451
189 2 2 0 1 63 454 451
190 2 2 0 1 64 451 450
191 2 2 0 1 65 424 66
192 2 2 0 1 65 421 424
193 2 2 0 1 66 428 67
194 2 2 0 1 66 424 428
195 2 2 0 1 67 386 68
196 2 2 0 1 67 428 386
197 2 2 0 1 68 377 69
198 2 2 0 1 68 386 377
199 2 2 0 1 69 380 70
200 2 2 0 1 69 377 380
201 2 2 0 1 70 384 71
202 2 2 0 1 70 380 384
203 2 2 0 1 72 71 73
204 2 2 0 1 71 396 73
205 2 2 0 1 71 384 396
206 2 2 0 1 420 72 73
207 2 2 0 1 417 74 72
208 2 2 0 1 417 72 420
209 2 2 0 1 420 73 396
210 2 2 0 1 416 74 417
211 2 2 0 1 75 76 77
212 2 2 0 1 75 77 78
213 2 2 0 1 84 75 78
214 2 2 0 1 76 80 77
215 2 2 0 1 76 79 80
216 2 2 0 1 78 77 81
217 2 2 0 1 77 80 83
218 2 2 0 1 77 83 81
219 2 2 0 1 78 81 82
220 2 2 0 1 94 78 82
221 2 2 0 1 84 78 94
222 2 2 0 1 79 86 80
223 2 2 0 1 79 85 86
224 2 2 0 1 80 87 83
225 2 2 0 1 80 86 87
226 2 2 0 1 82 81 90
227 2 2 0 1 81 83 89
228 2 2 0 1 81 89 90
229 2 2 0 1 82 90 91
230 2 2 0 1 92 82 91
231 2 2 0 1 94 82 92
232 2 2 0 1 83 87 88
233 2 2 0 1 83 88 89
234 2 2 0 1 466 84 94
235 2 2 0 1 365 84 466
236 2 2 0 1 85 453 86
237 2 2 0 1 85 450 453
238 2 2 0 1 86 457 87
239 2 2 0 1 86 453 457
240 2 2 0 1 87 448 88
241 2 2 0 1 87 457 448
242 2 2 0 1 448 89 88
243 2 2 0 1 437 90 89
244 2 2 0 1 448 437 89
245 2 2 0 1 436 91 90
246 2 2 0 1 437 436 90
247 2 2 0 1 92 91 93
248 2 2 0 1 438 93 91
249 2 2 0 1 436 438 91
250 2 2 0 1 470 92 93
251 2 2 0 1 467 94 92
252 2 2 0 1 467 92 470
253 2 2 0 1 438 447 93
254 2 2 0 1 470 93 447
255 2 2 0 1 466 94 467
256 2 2 0 1 95 96 97
257 2 2 0 1 105 96 95
258 2 2 0 1 95 97 98
259 2 2 0 1 106 95 98
260 2 2 0 1 104 105 95
261 2 2 0 1 104 95 106
262 2 2 0 1 96 100 97
263 2 2 0 1 96 99 100
264 2 2 0 1 107 99 96
265 2 2 0 1 105 107 96
266 2 2 0 1 98 97 101
267 2 2 0 1 97 100 103
268 2 2 0 1 97 103 101
269 2 2 0 1 98 101 102
270 2 2 0 1 118 98 102
271 2 2 0 1 106 98 118
272 2 2 0 1 99 110 100
273 2 2 0 1 107 108 99
274 2 2 0 1 108 109 99
275 2 2 0 1 99 109 110
276 2 2 0 1 100 111 103
277 2 2 0 1 100 110 111
278 2 2 0 1 102 101 114
279 2 2 0 1 101 103 113
280 2 2 0 1 101 113 114
281 2 2 0 1 102 114 115
282 2 2 0 1 116 102 115
283 2 2 0 1 118 102 116
284 2 2 0 1 103 111 112
285 2 2 0 1 103 112 113
286 2 2 0 1 105 104 169
287 2 2 0 1 318 104 106
288 2 2 0 1 104 168 159
289 2 2 0 1 104 159 169
290 2 2 0 1 168 104 292
291 2 2 0 1 104 309 292
292 2 2 0 1 104 318 309
293 2 2 0 1 107 105 182
294 2 2 0 1 105 169 182
295 2 2 0 1 372 106 118
296 2 2 0 1 318 106 372
297 2 2 0 1 108 107 179
298 2 2 0 1 107 182 179
299 2 2 0 1 108 179 178
300 2 2 0 1 109 359 110
301 2 2 0 1 109 356 359
302 2 2 0 1 110 363 111
303 2 2 0 1 110 359 363
304 2 2 0 1 111 339 112
305 2 2 0 1 111 363 339
306 2 2 0 1 339 113 112
307 2 2 0 1 328 114 113
308 2 2 0 1 339 328 113
309 2 2 0 1 327 115 114
310 2 2 0 1 328 327 114
311 2 2 0 1 116 115 117
312 2 2 0 1 329 117 115
313 2 2 0 1 327 329 115
314 2 2 0 1 376 116 117
315 2 2 0 1 373 118 116
316 2 2 0 1 373 116 376
317 2 2 0 1 329 338 117
318 2 2 0 1 376 117 338
319 2 2 0 1 372 118 373
320 2 2 0 1 119 120 121
321 2 2 0 1 119 121 122
322 2 2 0 1 128 119 122
323 2 2 0 1 120 124 121
324 2 2 0 1 120 123 124
325 2 2 0 1 122 121 125
326 2 2 0 1 121 124 127
327 2 2 0 1 121 127 125
328 2 2 0 1 122 125 126
329 2 2 0 1 138 122 126
330 2 2 0 1 128 122 138
331 2 2 0 1 123 130 124
332 2 2 0 1 123 129 130
333 2 2 0 1 124 131 127
334 2 2 0 1 124 130 131
335 2 2 0 1 126 125 134
336 2 2 0 1 125 127 133
337 2 2 0 1 125 133 134
338 2 2 0 1 126 134 135
339 2 2 0 1 136 126 135
340 2 2 0 1 138 126 136
341 2 2 0 1 127 131 132
342 2 2 0 1 127 132 133
343 2 2 0 1 239 128 138
344 2 2 0 1 247 128 239
345 2 2 0 1 129 222 130
346 2 2 0 1 129 219 222
347 2 2 0 1 130 226 131
348 2 2 0 1 130 222 226
349 2 2 0 1 131 213 132
350 2 2 0 1 131 226 213
351 2 2 0 1 207 133 132
352 2 2 0 1 207 132 213
353 2 2 0 1 204 134 133
354 2 2 0 1 204 133 207
355 2 2 0 1 203 135 134
356 2 2 0 1 203 134 204
357 2 2 0 1 136 135 137
358 2 2 0 1 212 137 135
359 2 2 0 1 212 135 203
360 2 2 0 1 243 136 137
361 2 2 0 1 240 138 136
362 2 2 0 1 240 136 243
363 2 2 0 1 243 137 212
364 2 2 0 1 239 138 240
365 2 2 0 1 139 140 141
366 2 2 0 1 148 140 139
367 2 2 0 1 139 141 142
368 2 2 0 1 140 144 141
369 2 2 0 1 140 143 144
370 2 2 0 1 149 143 140
371 2 2 0 1 148 149 140
372 2 2 0 1 142 141 145
373 2 2 0 1 141 144 147
374 2 2 0 1 141 147 145
375 2 2 0 1 142 145 146
376 2 2 0 1 143 153 144
377 2 2 0 1 149 150 143
378 2 2 0 1 150 152 143
379 2 2 0 1 143 152 153
380 2 2 0 1 144 154 147
381 2 2 0 1 144 153 154
382 2 2 0 1 146 145 157
383 2 2 0 1 145 147 156
384 2 2 0 1 145 156 157
385 2 2 0 1 146 157 158
386 2 2 0 1 147 154 155
387 2 2 0 1 147 155 156
388 2 2 0 1 185 149 148
389 2 2 0 1 184 150 149
390 2 2 0 1 185 184 149
391 2 2 0 1 150 151 152
392 2 2 0 1 186 151 150
393 2 2 0 1 184 186 150
394 2 2 0 1 176 152 151
395 2 2 0 1 186 176 151
396 2 2 0 1 166 153 152
397 2 2 0 1 176 166 152
398 2 2 0 1 165 154 153
399 2 2 0 1 166 165 153
400 2 2 0 1 167 155 154
401 2 2 0 1 165 167 154
402 2 2 0 1 175 156 155
403 2 2 0 1 167 175 155
404 2 2 0 1 194 157 156
405 2 2 0 1 175 194 156
406 2 2 0 1 193 158 157
407 2 2 0 1 194 193 157
408 2 2 0 1 193 195 158
409 2 2 0 1 159 160 161
410 2 2 0 1 168 160 159
411 2 2 0 1 159 161 162
412 2 2 0 1 169 159 162
413 2 2 0 1 160 164 161
414 2 2 0 1 160 163 164
415 2 2 0 1 170 163 160
416 2 2 0 1 168 170 160
417 2 2 0 1 162 161 165
418 2 2 0 1 161 164 167
419 2 2 0 1 161 167 165
420 2 2 0 1 162 165 166
421 2 2 0 1 177 162 166
422 2 2 0 1 169 162 177
423 2 2 0 1 163 174 164
424 2 2 0 1 170 171 163
425 2 2 0 1 171 173 163
426 2 2 0 1 163 173 174
427 2 2 0 1 164 175 167
428 2 2 0 1 164 174 175
429 2 2 0 1 177 166 176
430 2 2 0 1 170 168 286
431 2 2 0 1 168 292 286
432 2 2 0 1 182 169 177
433 2 2 0 1 171 170 283
434 2 2 0 1 170 286 283
435 2 2 0 1 171 172 173
436 2 2 0 1 172 171 282
437 2 2 0 1 171 283 282
438 2 2 0 1 172 187 173
439 2 2 0 1 172 196 187
440 2 2 0 1 196 172 406
441 2 2 0 1 172 282 291
442 2 2 0 1 308 172 291
443 2 2 0 1 172 308 397
444 2 2 0 1 172 397 406
445 2 2 0 1 173 190 174
446 2 2 0 1 173 187 190
447 2 2 0 1 174 194 175
448 2 2 0 1 174 190 194
449 2 2 0 1 183 177 176
450 2 2 0 1 183 176 186
451 2 2 0 1 182 177 183
452 2 2 0 1 178 179 180
453 2 2 0 1 178 180 181
454 2 2 0 1 179 183 180
455 2 2 0 1 179 182 183
456 2 2 0 1 181 180 184
457 2 2 0 1 180 183 186
458 2 2 0 1 180 186 184
459 2 2 0 1 181 184 185
460 2 2 0 1 187 188 189
461 2 2 0 1 196 188 187
462 2 2 0 1 187 189 190
463 2 2 0 1 188 192 189
464 2 2 0 1 188 191 192
465 2 2 0 1 197 191 188
466 2 2 0 1 196 197 188
467 2 2 0 1 190 189 193
468 2 2 0 1 189 192 195
469 2 2 0 1 189 195 193
470 2 2 0 1 190 193 194
471 2 2 0 1 197 198 191
472 2 2 0 1 197 196 425
473 2 2 0 1 196 406 425
474 2 2 0 1 198 197 422
475 2 2 0 1 197 425 422
476 2 2 0 1 198 422 421
477 2 2 0 1 199 200 201
478 2 2 0 1 209 200 199
479 2 2 0 1 199 201 202
480 2 2 0 1 210 199 202
481 2 2 0 1 208 209 199
482 2 2 0 1 208 199 210
483 2 2 0 1 200 204 201
484 2 2 0 1 200 203 204
485 2 2 0 1 211 203 200
486 2 2 0 1 209 211 200
487 2 2 0 1 202 201 205
488 2 2 0 1 201 204 207
489 2 2 0 1 201 207 205
490 2 2 0 1 202 205 206
491 2 2 0 1 218 202 206
492 2 2 0 1 210 202 218
493 2 2 0 1 211 212 203
494 2 2 0 1 206 205 214
495 2 2 0 1 205 207 213
496 2 2 0 1 205 213 214
497 2 2 0 1 206 214 215
498 2 2 0 1 216 206 215
499 2 2 0 1 218 206 216
500 2 2 0 1 248 209 208
501 2 2 0 1 258 208 210
502 2 2 0 1 258 248 208
503 2 2 0 1 242 211 209
504 2 2 0 1 248 242 209
505 2 2 0 1 256 210 218
506 2 2 0 1 256 258 210
507 2 2 0 1 241 212 211
508 2 2 0 1 242 241 211
509 2 2 0 1 241 243 212
510 2 2 0 1 226 214 213
511 2 2 0 1 225 215 214
512 2 2 0 1 226 225 214
513 2 2 0 1 216 215 217
514 2 2 0 1 227 217 215
515 2 2 0 1 225 227 215
516 2 2 0 1 234 216 217
517 2 2 0 1 257 218 216
518 2 2 0 1 234 257 216
519 2 2 0 1 227 234 217
520 2 2 0 1 257 256 218
521 2 2 0 1 219 220 221
522 2 2 0 1 228 220 219
523 2 2 0 1 219 221 222
524 2 2 0 1 220 224 221
525 2 2 0 1 220 223 224
526 2 2 0 1 229 223 220
527 2 2 0 1 228 229 220
528 2 2 0 1 222 221 225
529 2 2 0 1 221 224 227
530 2 2 0 1 221 227 225
531 2 2 0 1 222 225 226
532 2 2 0 1 223 233 224
533 2 2 0 1 229 230 223
534 2 2 0 1 230 232 223
535 2 2 0 1 223 232 233
536 2 2 0 1 224 234 227
537 2 2 0 1 224 233 234
538 2 2 0 1 229 228 345
539 2 2 0 1 228 351 345
540 2 2 0 1 230 229 342
541 2 2 0 1 229 345 342
542 2 2 0 1 230 231 232
543 2 2 0 1 231 230 341
544 2 2 0 1 230 342 341
545 2 2 0 1 231 250 232
546 2 2 0 1 231 259 250
547 2 2 0 1 259 231 471
548 2 2 0 1 231 341 350
549 2 2 0 1 367 231 350
550 2 2 0 1 231 367 462
551 2 2 0 1 231 462 471
552 2 2 0 1 232 253 233
553 2 2 0 1 232 250 253
554 2 2 0 1 233 257 234
555 2 2 0 1 233 253 257
556 2 2 0 1 235 236 237
557 2 2 0 1 244 236 235
558 2 2 0 1 235 237 238
559 2 2 0 1 245 235 238
560 2 2 0 1 236 240 237
561 2 2 0 1 236 239 240
562 2 2 0 1 246 239 236
563 2 2 0 1 244 246 236
564 2 2 0 1 238 237 241
565 2 2 0 1 237 240 243
566 2 2 0 1 237 243 241
567 2 2 0 1 238 241 242
568 2 2 0 1 249 238 242
569 2 2 0 1 245 238 249
570 2 2 0 1 246 247 239
571 2 2 0 1 249 242 248
572 2 2 0 1 246 244 416
573 2 2 0 1 254 245 249
574 2 2 0 1 261 245 254
575 2 2 0 1 247 246 413
576 2 2 0 1 246 416 413
577 2 2 0 1 247 413 412
578 2 2 0 1 255 249 248
579 2 2 0 1 255 248 258
580 2 2 0 1 254 249 255
581 2 2 0 1 250 251 252
582 2 2 0 1 259 251 250
583 2 2 0 1 250 252 253
584 2 2 0 1 251 255 252
585 2 2 0 1 251 254 255
586 2 2 0 1 260 254 251
587 2 2 0 1 259 260 251
588 2 2 0 1 253 252 256
589 2 2 0 1 252 255 258
590 2 2 0 1 252 258 256
591 2 2 0 1 253 256 257
592 2 2 0 1 260 261 254
593 2 2 0 1 260 259 478
594 2 2 0 1 259 471 478
595 2 2 0 1 261 260 475
596 2 2 0 1 260 478 475
597 2 2 0 1 261 475 474
598 2 2 0 1 262 263 264
599 2 2 0 1 262 264 265
600 2 2 0 1 271 262 265
601 2 2 0 1 263 267 264
602 2 2 0 1 263 266 267
603 2 2 0 1 265 264 268
604 2 2 0 1 264 267 270
605 2 2 0 1 264 270 268
606 2 2 0 1 265 268 269
607 2 2 0 1 281 265 269
608 2 2 0 1 271 265 281
609 2 2 0 1 266 273 267
610 2 2 0 1 266 272 273
611 2 2 0 1 267 274 270
612 2 2 0 1 267 273 274
613 2 2 0 1 269 268 277
614 2 2 0 1 268 270 276
615 2 2 0 1 268 276 277
616 2 2 0 1 269 277 278
617 2 2 0 1 279 269 278
618 2 2 0 1 281 269 279
619 2 2 0 1 270 274 275
620 2 2 0 1 270 275 276
621 2 2 0 1 315 271 281
622 2 2 0 1 315 317 271
623 2 2 0 1 304 273 272
624 2 2 0 1 303 274 273
625 2 2 0 1 304 303 273
626 2 2 0 1 305 275 274
627 2 2 0 1 303 305 274
628 2 2 0 1 295 276 275
629 2 2 0 1 305 295 275
630 2 2 0 1 289 277 276
631 2 2 0 1 295 289 276
632 2 2 0 1 288 278 277
633 2 2 0 1 289 288 277
634 2 2 0 1 279 278 280
635 2 2 0 1 290 280 278
636 2 2 0 1 288 290 278
637 2 2 0 1 294 279 280
638 2 2 0 1 316 281 279
639 2 2 0 1 294 316 279
640 2 2 0 1 290 294 280
641 2 2 0 1 316 315 281
642 2 2 0 1 282 283 284
643 2 2 0 1 282 284 285
644 2 2 0 1 291 282 285
645 2 2 0 1 283 287 284
646 2 2 0 1 283 286 287
647 2 2 0 1 285 284 288
648 2 2 0 1 284 287 290
649 2 2 0 1 284 290 288
650 2 2 0 1 285 288 289
651 2 2 0 1 296 285 289
652 2 2 0 1 291 285 296
653 2 2 0 1 286 293 287
654 2 2 0 1 286 292 293
655 2 2 0 1 287 294 290
656 2 2 0 1 287 293 294
657 2 2 0 1 296 289 295
658 2 2 0 1 301 291 296
659 2 2 0 1 308 291 301
660 2 2 0 1 292 312 293
661 2 2 0 1 292 309 312
662 2 2 0 1 293 316 294
663 2 2 0 1 293 312 316
664 2 2 0 1 302 296 295
665 2 2 0 1 302 295 305
666 2 2 0 1 301 296 302
667 2 2 0 1 297 298 299
668 2 2 0 1 306 298 297
669 2 2 0 1 297 299 300
670 2 2 0 1 298 302 299
671 2 2 0 1 298 301 302
672 2 2 0 1 307 301 298
673 2 2 0 1 306 307 298
674 2 2 0 1 300 299 303
675 2 2 0 1 299 302 305
676 2 2 0 1 299 305 303
677 2 2 0 1 300 303 304
678 2 2 0 1 307 308 301
679 2 2 0 1 307 306 401
680 2 2 0 1 306 407 401
681 2 2 0 1 308 307 398
682 2 2 0 1 307 401 398
683 2 2 0 1 308 398 397
684 2 2 0 1 309 310 311
685 2 2 0 1 318 310 309
686 2 2 0 1 309 311 312
687 2 2 0 1 310 314 311
688 2 2 0 1 310 313 314
689 2 2 0 1 319 313 310
690 2 2 0 1 318 319 310
691 2 2 0 1 312 311 315
692 2 2 0 1 311 314 317
693 2 2 0 1 311 317 315
694 2 2 0 1 312 315 316
695 2 2 0 1 319 320 313
696 2 2 0 1 319 318 372
697 2 2 0 1 320 319 369
698 2 2 0 1 319 372 369
699 2 2 0 1 320 369 368
700 2 2 0 1 321 322 323
701 2 2 0 1 331 322 321
702 2 2 0 1 321 323 324
703 2 2 0 1 332 321 324
704 2 2 0 1 330 331 321
705 2 2 0 1 330 321 332
706 2 2 0 1 322 326 323
707 2 2 0 1 322 325 326
708 2 2 0 1 333 325 322
709 2 2 0 1 331 333 322
710 2 2 0 1 324 323 327
711 2 2 0 1 323 326 329
712 2 2 0 1 323 329 327
713 2 2 0 1 324 327 328
714 2 2 0 1 340 324 328
715 2 2 0 1 332 324 340
716 2 2 0 1 325 337 326
717 2 2 0 1 333 334 325
718 2 2 0 1 334 336 325
719 2 2 0 1 325 336 337
720 2 2 0 1 326 338 329
721 2 2 0 1 326 337 338
722 2 2 0 1 340 328 339
723 2 2 0 1 354 331 330
724 2 2 0 1 364 330 332
725 2 2 0 1 364 354 330
726 2 2 0 1 348 333 331
727 2 2 0 1 354 348 331
728 2 2 0 1 362 332 340
729 2 2 0 1 362 364 332
730 2 2 0 1 347 334 333
731 2 2 0 1 348 347 333
732 2 2 0 1 334 335 336
733 2 2 0 1 349 335 334
734 2 2 0 1 347 349 334
735 2 2 0 1 353 336 335
736 2 2 0 1 349 353 335
737 2 2 0 1 375 337 336
738 2 2 0 1 353 375 336
739 2 2 0 1 374 338 337
740 2 2 0 1 375 374 337
741 2 2 0 1 374 376 338
742 2 2 0 1 363 340 339
743 2 2 0 1 363 362 340
744 2 2 0 1 341 342 343
745 2 2 0 1 341 343 344
746 2 2 0 1 350 341 344
747 2 2 0 1 342 346 343
748 2 2 0 1 342 345 346
749 2 2 0 1 344 343 347
750 2 2 0 1 343 346 349
751 2 2 0 1 343 349 347
752 2 2 0 1 344 347 348
753 2 2 0 1 355 344 348
754 2 2 0 1 350 344 355
755 2 2 0 1 345 352 346
756 2 2 0 1 345 351 352
757 2 2 0 1 346 353 349
758 2 2 0 1 346 352 353
759 2 2 0 1 355 348 354
760 2 2 0 1 360 350 355
761 2 2 0 1 367 350 360
762 2 2 0 1 351 371 352
763 2 2 0 1 351 368 371
764 2 2 0 1 352 375 353
765 2 2 0 1 352 371 375
766 2 2 0 1 361 355 354
767 2 2 0 1 361 354 364
768 2 2 0 1 360 355 361
769 2 2 0 1 356 357 358
770 2 2 0 1 365 357 356
771 2 2 0 1 356 358 359
772 2 2 0 1 357 361 358
773 2 2 0 1 357 360 361
774 2 2 0 1 366 360 357
775 2 2 0 1 365 366 357
776 2 2 0 1 359 358 362
777 2 2 0 1 358 361 364
778 2 2 0 1 358 364 362
779 2 2 0 1 359 362 363
780 2 2 0 1 366 367 360
781 2 2 0 1 366 365 466
782 2 2 0 1 367 366 463
783 2 2 0 1 366 466 463
784 2 2 0 1 367 463 462
785 2 2 0 1 368 369 370
786 2 2 0 1 368 370 371
787 2 2 0 1 369 373 370
788 2 2 0 1 369 372 373
789 2 2 0 1 371 370 374
790 2 2 0 1 370 373 376
791 2 2 0 1 370 376 374
792 2 2 0 1 371 374 375
793 2 2 0 1 377 378 379
794 2 2 0 1 386 378 377
795 2 2 0 1 377 379 380
796 2 2 0 1 378 382 379
797 2 2 0 1 378 381 382
798 2 2 0 1 387 381 378
799 2 2 0 1 386 387 378
800 2 2 0 1 380 379 383
801 2 2 0 1 379 382 385
802 2 2 0 1 379 385 383
803 2 2 0 1 380 383 384
804 2 2 0 1 381 391 382
805 2 2 0 1 387 388 381
806 2 2 0 1 388 390 381
807 2 2 0 1 381 390 391
808 2 2 0 1 382 392 385
809 2 2 0 1 382 391 392
810 2 2 0 1 384 383 395
811 2 2 0 1 383 385 394
812 2 2 0 1 383 394 395
813 2 2 0 1 384 395 396
814 2 2 0 1 385 392 393
815 2 2 0 1 385 393 394
816 2 2 0 1 428 387 386
817 2 2 0 1 427 388 387
818 2 2 0 1 428 427 387
819 2 2 0 1 388 389 390
820 2 2 0 1 429 389 388
821 2 2 0 1 427 429 388
822 2 2 0 1 410 390 389
823 2 2 0 1 429 410 389
824 2 2 0 1 404 391 390
825 2 2 0 1 410 404 390
826 2 2 0 1 403 392 391
827 2 2 0 1 404 403 391
828 2 2 0 1 405 393 392
829 2 2 0 1 403 405 392
830 2 2 0 1 409 394 393
831 2 2 0 1 405 409 393
832 2 2 0 1 419 395 394
833 2 2 0 1 409 419 394
834 2 2 0 1 418 396 395
835 2 2 0 1 419 418 395
836 2 2 0 1 418 420 396
837 2 2 0 1 397 398 399
838 2 2 0 1 397 399 400
839 2 2 0 1 406 397 400
840 2 2 0 1 398 402 399
841 2 2 0 1 398 401 402
842 2 2 0 1 400 399 403
843 2 2 0 1 399 402 405
844 2 2 0 1 399 405 403
845 2 2 0 1 400 403 404
846 2 2 0 1 411 400 404
847 2 2 0 1 406 400 411
848 2 2 0 1 401 408 402
849 2 2 0 1 401 407 408
850 2 2 0 1 402 409 405
851 2 2 0 1 402 408 409
852 2 2 0 1 411 404 410
853 2 2 0 1 425 406 411
854 2 2 0 1 407 415 408
855 2 2 0 1 407 412 415
856 2 2 0 1 408 419 409
857 2 2 0 1 408 415 419
858 2 2 0 1 426 411 410
859 2 2 0 1 426 410 429
860 2 2 0 1 425 411 426
861 2 2 0 1 412 413 414
862 2 2 0 1 412 414 415
863 2 2 0 1 413 417 414
864 2 2 0 1 413 416 417
865 2 2 0 1 415 414 418
866 2 2 0 1 414 417 420
867 2 2 0 1 414 420 418
868 2 2 0 1 415 418 419
869 2 2 0 1 421 422 423
870 2 2 0 1 421 423 424
871 2 2 0 1 422 426 423
872 2 2 0 1 422 425 426
873 2 2 0 1 424 423 427
874 2 2 0 1 423 426 429
875 2 2 0 1 423 429 427
876 2 2 0 1 424 427 428
877 2 2 0 1 430 431 432
878 2 2 0 1 440 431 430
879 2 2 0 1 430 432 433
880 2 2 0 1 441 430 433
881 2 2 0 1 439 440 430
882 2 2 0 1 439 430 441
883 2 2 0 1 431 435 432
884 2 2 0 1 431 434 435
885 2 2 0 1 442 434 431
886 2 2 0 1 440 442 431
887 2 2 0 1 433 432 436
888 2 2 0 1 432 435 438
889 2 2 0 1 432 438 436
890 2 2 0 1 433 436 437
891 2 2 0 1 449 433 437
892 2 2 0 1 441 433 449
893 2 2 0 1 434 446 435
894 2 2 0 1 442 443 434
895 2 2 0 1 443 445 434
896 2 2 0 1 434 445 446
897 2 2 0 1 435 447 438
898 2 2 0 1 435 446 447
899 2 2 0 1 449 437 448
900 2 2 0 1 461 440 439
901 2 2 0 1 458 439 441
902 2 2 0 1 458 461 439
903 2 2 0 1 481 442 440
904 2 2 0 1 461 481 440
905 2 2 0 1 456 441 449
906 2 2 0 1 456 458 441
907 2 2 0 1 480 443 442
908 2 2 0 1 481 480 442
909 2 2 0 1 443 444 445
910 2 2 0 1 482 444 443
911 2 2 0 1 480 482 443
912 2 2 0 1 472 445 444
913 2 2 0 1 482 472 444
914 2 2 0 1 469 446 445
915 2 2 0 1 472 469 445
916 2 2 0 1 468 447 446
917 2 2 0 1 469 468 446
918 2 2 0 1 468 470 447
919 2 2 0 1 457 449 448
920 2 2 0 1 457 456 449
921 2 2 0 1 450 451 452
922 2 2 0 1 450 452 453
923 2 2 0 1 451 455 452
924 2 2 0 1 451 454 455
925 2 2 0 1 453 452 456
926 2 2 0 1 452 455 458
927 2 2 0 1 452 458 456
928 2 2 0 1 453 456 457
929 2 2 0 1 454 460 455
930 2 2 0 1 454 459 460
931 2 2 0 1 455 461 458
932 2 2 0 1 455 460 461
933 2 2 0 1 459 477 460
934 2 2 0 1 459 474 477
935 2 2 0 1 460 481 461
936 2 2 0 1 460 477 481
937 2 2 0 1 462 463 464
938 2 2 0 1 462 464 465
939 2 2 0 1 471 462 465
940 2 2 0 1 463 467 464
941 2 2 0 1 463 466 467
942 2 2 0 1 465 464 468
943 2 2 0 1 464 467 470
944 2 2 0 1 464 470 468
945 2 2 0 1 465 468 469
946 2 2 0 1 473 465 469
947 2 2 0 1 471 465 473
948 2 2 0 1 473 469 472
949 2 2 0 1 478 471 473
950 2 2 0 1 479 473 472
951 2 2 0 1 479 472 482
952 2 2 0 1 478 473 479
953 2 2 0 1 474 475 476
954 2 2 0 1 474 476 477
955 2 2 0 1 475 479 476
956 2 2 0 1 475 478 479
957 2 2 0 1 477 476 480
958 2 2 0 1 476 479 482
959 2 2 0 1 476 482 480
960 2 2 0 1 477 480 481
961 4 2 0 1 234 217 216 494
962 4 2 0 1 63 52 55 483
963 4 2 0 1 143 154 146 147
964 4 2 0 1 30 27 191 497
965 4 2 0 1 247 413 246 504
966 4 2 0 1 63 61 483 489
967 4 2 0 1 433 432 430 486
968 4 2 0 1 432 431 430 486
969 4 2 0 1 416 413 483 504
970 4 2 0 1 425 422 483 497
971 4 2 0 1 475 489 478 504
972 4 2 0 1 63 483 64 489
973 4 2 0 1 152 176 151 488
974 4 2 0 1 30 191 41 497
975 4 2 0 1 436 438 432 486
976 4 2 0 1 432 438 435 486
977 4 2 0 1 421 483 422 497
978 4 2 0 1 421 422 198 497
979 4 2 0 1 367 366 485 489
980 4 2 0 1 52 63 61 483
981 4 2 0 1 51 483 61 504
982 4 2 0 1 434 431 435 486
983 4 2 0 1 436 433 437 486
984 4 2 0 1 433 436 432 486
985 4 2 0 1 432 435 431 486
986 4 2 0 1 63 55 64 483
987 4 2 0 1 365 485 366 489
988 4 2 0 1 398 307 308 495
989 4 2 0 1 65 64 55 483
990 4 2 0 1 390 410 389 498
991 4 2 0 1 41 191 30 493
992 4 2 0 1 367 489 485 504
993 4 2 0 1 39 76 38 489
994 4 2 0 1 398 308 483 495
995 4 2 0 1 475 474 489 504
996 4 2 0 1 61 483 489 504
997 4 2 0 1 230 342 229 485
998 4 2 0 1 433 430 441 486
999 4 2 0 1 366 357 360 485
1000 4 2 0 1 230 485 229 491
1001 4 2 0 1 430 431 440 486
1002 4 2 0 1 230 485 491 504
1003 4 2 0 1 105 96 107 485
1004 4 2 0 1 360 367 366 485
1005 4 2 0 1 369 319 320 485
1006 4 2 0 1 179 178 188 497
1007 4 2 0 1 491 504 485 505
1008 4 2 0 1 275 276 295 501
1009 4 2 0 1 416 483 62 504
1010 4 2 0 1 229 485 228 491
1011 4 2 0 1 483 489 485 497
1012 4 2 0 1 366 365 357 485
1013 4 2 0 1 351 228 345 485
1014 4 2 0 1 179 187 182 497
1015 4 2 0 1 26 191 27 497
1016 4 2 0 1 197 198 422 497
1017 4 2 0 1 179 188 187 497
1018 4 2 0 1 62 483 51 504
1019 4 2 0 1 318 372 106 485
1020 4 2 0 1 320 485 319 495
1021 4 2 0 1 398 308 397 483
1022 4 2 0 1 76 39 75 489
1023 4 2 0 1 341 342 230 485
1024 4 2 0 1 55 483 52 484
1025 4 2 0 1 367 360 350 485
1026 4 2 0 1 433 449 437 486
1027 4 2 0 1 434 442 431 486
1028 4 2 0 1 261 475 260 504
1029 4 2 0 1 345 485 342 492
1030 4 2 0 1 105 485 107 497
1031 4 2 0 1 319 485 318 495
1032 4 2 0 1 67 68 386 498
1033 4 2 0 1 64 483 35 489
1034 4 2 0 1 413 416 483 484
1035 4 2 0 1 55 65 483 484
1036 4 2 0 1 485 495 483 497
1037 4 2 0 1 475 261 474 504
1038 4 2 0 1 360 485 357 492
1039 4 2 0 1 372 485 369 492
1040 4 2 0 1 412 407 483 505
1041 4 2 0 1 210 202 206 218
1042 4 2 0 1 133 204 203 134
1043 4 2 0 1 388 390 389 498
1044 4 2 0 1 96 99 485 492
1045 4 2 0 1 461 439 440 486
1046 4 2 0 1 460 461 481 486
1047 4 2 0 1 105 95 96 485
1048 4 2 0 1 441 449 433 486
1049 4 2 0 1 66 56 67 498
1050 4 2 0 1 348 355 354 490
1051 4 2 0 1 108 107 485 497
1052 4 2 0 1 440 431 442 486
1053 4 2 0 1 483 35 489 497
1054 4 2 0 1 118 116 102 490
1055 4 2 0 1 148 43 44 503
1056 4 2 0 1 368 369 320 485
1057 4 2 0 1 352 353 375 490
1058 4 2 0 1 485 489 483 504
1059 4 2 0 1 429 388 389 498
1060 4 2 0 1 61 63 454 489
1061 4 2 0 1 52 61 51 483
1062 4 2 0 1 365 366 466 489
1063 4 2 0 1 366 463 466 489
1064 4 2 0 1 246 244 491 504
1065 4 2 0 1 350 485 360 492
1066 4 2 0 1 422 425 483 484
1067 4 2 0 1 63 451 454 489
1068 4 2 0 1 56 59 67 498
1069 4 2 0 1 367 463 366 489
1070 4 2 0 1 283 286 170 495
1071 4 2 0 1 40 485 365 489
1072 4 2 0 1 206 213 214 205
1073 4 2 0 1 233 234 257 494
1074 4 2 0 1 79 489 76 499
1075 4 2 0 1 40 485 489 497
1076 4 2 0 1 206 201 202 199
1077 4 2 0 1 188 178 179 493
1078 4 2 0 1 443 442 434 486
1079 4 2 0 1 410 429 389 498
1080 4 2 0 1 403 405 484 498
1081 4 2 0 1 475 478 489 499
1082 4 2 0 1 437 449 448 486
1083 4 2 0 1 2 5 13 495
1084 4 2 0 1 410 484 429 498
1085 4 2 0 1 26 37 191 497
1086 4 2 0 1 408 401 402 484
1087 4 2 0 1 423 426 422 484
1088 4 2 0 1 404 484 410 498
1089 4 2 0 1 451 63 64 489
1090 4 2 0 1 401 483 398 484
1091 4 2 0 1 460 455 461 486
1092 4 2 0 1 345 351 485 492
1093 4 2 0 1 45 142 146 46
1094 4 2 0 1 435 446 434 486
1095 4 2 0 1 448 87 88 486
1096 4 2 0 1 90 436 437 486
1097 4 2 0 1 435 438 447 486
1098 4 2 0 1 353 346 349 490
1099 4 2 0 1 104 495 485 497
1100 4 2 0 1 154 144 143 153
1101 4 2 0 1 286 168 170 495
1102 4 2 0 1 116 373 376 490
1103 4 2 0 1 402 398 399 484
1104 4 2 0 1 51 61 60 504
1105 4 2 0 1 106 485 372 492
1106 4 2 0 1 91 438 436 486
1107 4 2 0 1 171 283 170 495
1108 4 2 0 1 14 13 495 505
1109 4 2 0 1 483 495 172 497
1110 4 2 0 1 422 483 421 484
1111 4 2 0 1 342 485 341 492
1112 4 2 0 1 179 182 187 493
1113 4 2 0 1 188 197 196 497
1114 4 2 0 1 36 489 35 497
1115 4 2 0 1 62 483 416 484
1116 4 2 0 1 361 354 355 490
1117 4 2 0 1 390 388 381 498
1118 4 2 0 1 307 495 306 502
1119 4 2 0 1 454 459 61 489
1120 4 2 0 1 14 13 5 495
1121 4 2 0 1 403 484 404 498
1122 4 2 0 1 100 103 111 490
1123 4 2 0 1 443 434 445 486
1124 4 2 0 1 448 89 437 486
1125 4 2 0 1 179 187 188 493
1126 4 2 0 1 11 495 13 505
1127 4 2 0 1 429 484 427 498
1128 4 2 0 1 40 489 39 497
1129 4 2 0 1 427 484 428 498
1130 4 2 0 1 2 13 11 495
1131 4 2 0 1 458 461 455 486
1132 4 2 0 1 485 483 495 504
1133 4 2 0 1 84 365 466 489
1134 4 2 0 1 27 38 36 497
1135 4 2 0 1 65 421 483 484
1136 4 2 0 1 301 308 307 495
1137 4 2 0 1 466 489 463 499
1138 4 2 0 1 239 247 246 491
1139 4 2 0 1 411 425 426 484
1140 4 2 0 1 466 84 489 499
1141 4 2 0 1 364 354 361 490
1142 4 2 0 1 65 35 64 483
1143 4 2 0 1 109 485 99 492
1144 4 2 0 1 118 373 116 490
1145 4 2 0 1 352 346 353 490
1146 4 2 0 1 424 65 66 484
1147 4 2 0 1 451 454 489 499
1148 4 2 0 1 410 426 429 484
1149 4 2 0 1 411 410 404 484
1150 4 2 0 1 171 172 495 497
1151 4 2 0 1 301 495 307 502
1152 4 2 0 1 104 168 495 497
1153 4 2 0 1 65 421 35 483
1154 4 2 0 1 231 489 367 504
1155 4 2 0 1 283 286 495 502
1156 4 2 0 1 140 148 143 149
1157 4 2 0 1 198 197 191 497
1158 4 2 0 1 407 408 415 484
1159 4 2 0 1 454 459 489 499
1160 4 2 0 1 403 405 399 484
1161 4 2 0 1 188 191 197 497
1162 4 2 0 1 424 428 427 484
1163 4 2 0 1 404 390 391 498
1164 4 2 0 1 413 483 412 484
1165 4 2 0 1 355 361 490 492
1166 4 2 0 1 56 66 55 484
1167 4 2 0 1 236 246 244 491
1168 4 2 0 1 394 409 393 498
1169 4 2 0 1 298 307 306 502
1170 4 2 0 1 171 170 163 497
1171 4 2 0 1 427 429 423 484
1172 4 2 0 1 95 96 485 492
1173 4 2 0 1 27 30 38 497
1174 4 2 0 1 2 5 495 502
1175 4 2 0 1 143 141 144 147
1176 4 2 0 1 407 483 401 484
1177 4 2 0 1 347 344 348 490
1178 4 2 0 1 368 369 485 492
1179 4 2 0 1 217 215 216 494
1180 4 2 0 1 421 198 35 497
1181 4 2 0 1 495 504 483 505
1182 4 2 0 1 60 62 51 504
1183 4 2 0 1 89 90 437 486
1184 4 2 0 1 404 410 390 498
1185 4 2 0 1 341 485 350 492
1186 4 2 0 1 10 485 320 495
1187 4 2 0 1 222 240 237 500
1188 4 2 0 1 421 35 483 497
1189 4 2 0 1 76 489 75 499
1190 4 2 0 1 446 445 434 486
1191 4 2 0 1 460 455 486 499
1192 4 2 0 1 485 504 495 505
1193 4 2 0 1 299 311 314 496
1194 4 2 0 1 391 390 381 498
1195 4 2 0 1 474 475 489 499
1196 4 2 0 1 441 439 458 486
1197 4 2 0 1 460 481 477 486
1198 4 2 0 1 110 100 111 490
1199 4 2 0 1 98 102 101 490
1200 4 2 0 1 480 477 481 486
1201 4 2 0 1 152 153 166 488
1202 4 2 0 1 400 404 403 484
1203 4 2 0 1 236 239 246 491
1204 4 2 0 1 10 485 495 505
1205 4 2 0 1 311 299 314 502
1206 4 2 0 1 38 30 39 497
1207 4 2 0 1 179 107 108 497
1208 4 2 0 1 208 209 248 494
1209 4 2 0 1 357 365 356 485
1210 4 2 0 1 233 224 234 494
1211 4 2 0 1 55 66 65 484
1212 4 2 0 1 308 172 483 495
1213 4 2 0 1 371 375 374 490
1214 4 2 0 1 51 52 483 484
1215 4 2 0 1 85 489 79 499
1216 4 2 0 1 405 392 393 498
1217 4 2 0 1 406 483 425 484
1218 4 2 0 1 355 490 344 492
1219 4 2 0 1 104 318 485 495
1220 4 2 0 1 373 490 118 492
1221 4 2 0 1 387 428 386 498
1222 4 2 0 1 443 445 444 486
1223 4 2 0 1 415 419 418 498
1224 4 2 0 1 121 122 240 500
1225 4 2 0 1 448 88 89 486
1226 4 2 0 1 378 381 387 498
1227 4 2 0 1 382 391 381 498
1228 4 2 0 1 110 100 490 492
1229 4 2 0 1 402 401 398 484
1230 4 2 0 1 352 346 490 492
1231 4 2 0 1 298 301 307 502
1232 4 2 0 1 68 377 386 498
1233 4 2 0 1 207 200 206 203
1234 4 2 0 1 299 312 302 502
1235 4 2 0 1 66 428 424 484
1236 4 2 0 1 231 367 485 504
1237 4 2 0 1 381 388 387 498
1238 4 2 0 1 385 394 393 498
1239 4 2 0 1 355 348 344 490
1240 4 2 0 1 400 406 411 484
1241 4 2 0 1 471 489 478 499
1242 4 2 0 1 105 104 485 497
1243 4 2 0 1 447 446 435 486
1244 4 2 0 1 460 486 477 499
1245 4 2 0 1 138 240 122 500
1246 4 2 0 1 203 133 134 206
1247 4 2 0 1 60 61 459 489
1248 4 2 0 1 97 490 100 492
1249 4 2 0 1 425 422 426 484
1250 4 2 0 1 221 222 237 500
1251 4 2 0 1 436 90 91 486
1252 4 2 0 1 61 489 60 504
1253 4 2 0 1 347 349 343 490
1254 4 2 0 1 467 94 466 499
1255 4 2 0 1 358 490 361 492
1256 4 2 0 1 173 163 159 497
1257 4 2 0 1 343 490 346 492
1258 4 2 0 1 423 421 424 484
1259 4 2 0 1 343 349 346 490
1260 4 2 0 1 230 231 485 504
1261 4 2 0 1 386 377 378 498
1262 4 2 0 1 253 257 256 494
1263 4 2 0 1 350 231 367 485
1264 4 2 0 1 101 103 97 490
1265 4 2 0 1 68 69 377 498
1266 4 2 0 1 385 393 392 498
1267 4 2 0 1 261 260 491 504
1268 4 2 0 1 387 388 427 498
1269 4 2 0 1 179 182 107 497
1270 4 2 0 1 370 490 373 492
1271 4 2 0 1 118 490 98 492
1272 4 2 0 1 60 489 474 504
1273 4 2 0 1 106 95 104 485
1274 4 2 0 1 402 399 405 484
1275 4 2 0 1 247 491 128 505
1276 4 2 0 1 374 376 370 490
1277 4 2 0 1 351 368 10 485
1278 4 2 0 1 397 172 406 483
1279 4 2 0 1 373 370 376 490
1280 4 2 0 1 14 16 306 495
1281 4 2 0 1 420 72 417 498
1282 4 2 0 1 343 344 490 492
1283 4 2 0 1 351 10 228 485
1284 4 2 0 1 171 282 283 495
1285 4 2 0 1 398 483 397 484
1286 4 2 0 1 105 107 182 497
1287 4 2 0 1 382 381 378 498
1288 4 2 0 1 14 5 16 495
1289 4 2 0 1 106 95 485 492
1290 4 2 0 1 382 385 392 498
1291 4 2 0 1 84 94 78 499
1292 4 2 0 1 106 104 318 485
1293 4 2 0 1 97 103 100 490
1294 4 2 0 1 351 368 485 492
1295 4 2 0 1 84 75 489 499
1296 4 2 0 1 371 352 490 492
1297 4 2 0 1 118 102 98 490
1298 4 2 0 1 311 312 299 502
1299 4 2 0 1 66 484 56 498
1300 4 2 0 1 378 379 382 498
1301 4 2 0 1 424 427 423 484
1302 4 2 0 1 357 485 356 492
1303 4 2 0 1 341 231 350 485
1304 4 2 0 1 286 292 168 495
1305 4 2 0 1 423 429 426 484
1306 4 2 0 1 98 490 97 492
1307 4 2 0 1 110 490 359 492
1308 4 2 0 1 411 426 410 484
1309 4 2 0 1 56 55 52 484
1310 4 2 0 1 375 371 352 490
1311 4 2 0 1 479 482 472 486
1312 4 2 0 1 29 191 50 493
1313 4 2 0 1 474 489 459 499
1314 4 2 0 1 393 409 405 498
1315 4 2 0 1 474 60 459 489
1316 4 2 0 1 238 249 255 500
1317 4 2 0 1 324 323 321 490
1318 4 2 0 1 327 329 323 490
1319 4 2 0 1 329 326 323 490
1320 4 2 0 1 321 323 322 490
1321 4 2 0 1 215 214 216 494
1322 4 2 0 1 407 401 408 484
1323 4 2 0 1 84 40 365 489
1324 4 2 0 1 466 94 84 499
1325 4 2 0 1 359 363 362 490
1326 4 2 0 1 412 415 414 484
1327 4 2 0 1 56 52 53 484
1328 4 2 0 1 480 482 476 486
1329 4 2 0 1 378 387 386 498
1330 4 2 0 1 23 24 22 501
1331 4 2 0 1 467 486 94 499
1332 4 2 0 1 407 412 483 484
1333 4 2 0 1 364 361 358 490
1334 4 2 0 1 306 495 16 502
1335 4 2 0 1 301 291 308 495
1336 4 2 0 1 429 427 388 498
1337 4 2 0 1 371 490 370 492
1338 4 2 0 1 336 353 335 490
1339 4 2 0 1 62 51 483 484
1340 4 2 0 1 256 258 252 494
1341 4 2 0 1 458 455 452 486
1342 4 2 0 1 240 122 121 494
1343 4 2 0 1 56 53 59 498
1344 4 2 0 1 239 491 236 500
1345 4 2 0 1 2 11 1 495
1346 4 2 0 1 476 477 486 499
1347 4 2 0 1 455 452 486 499
1348 4 2 0 1 403 399 400 484
1349 4 2 0 1 461 458 439 486
1350 4 2 0 1 259 491 260 504
1351 4 2 0 1 128 247 239 491
1352 4 2 0 1 112 339 111 490
1353 4 2 0 1 404 400 411 484
1354 4 2 0 1 212 135 137 494
1355 4 2 0 1 16 495 5 502
1356 4 2 0 1 443 444 482 486
1357 4 2 0 1 391 392 403 498
1358 4 2 0 1 359 490 358 492
1359 4 2 0 1 283 495 282 502
1360 4 2 0 1 308 172 397 483
1361 4 2 0 1 392 391 382 498
1362 4 2 0 1 324 328 327 490
1363 4 2 0 1 325 322 326 490
1364 4 2 0 1 153 488 152 503
1365 4 2 0 1 84 75 40 489
1366 4 2 0 1 108 485 40 497
1367 4 2 0 1 94 486 78 499
1368 4 2 0 1 476 486 479 499
1369 4 2 0 1 480 476 477 486
1370 4 2 0 1 422 421 423 484
1371 4 2 0 1 354 330 331 490
1372 4 2 0 1 327 323 324 490
1373 4 2 0 1 326 322 323 490
1374 4 2 0 1 418 420 414 498
1375 4 2 0 1 292 495 286 502
1376 4 2 0 1 230 231 341 485
1377 4 2 0 1 115 116 117 490
1378 4 2 0 1 368 320 10 485
1379 4 2 0 1 163 173 171 497
1380 4 2 0 1 105 104 95 485
1381 4 2 0 1 440 442 481 486
1382 4 2 0 1 120 491 123 505
1383 4 2 0 1 198 191 37 497
1384 4 2 0 1 86 80 486 499
1385 4 2 0 1 362 364 358 490
1386 4 2 0 1 80 77 486 499
1387 4 2 0 1 57 59 53 498
1388 4 2 0 1 367 462 463 489
1389 4 2 0 1 301 291 495 502
1390 4 2 0 1 479 476 482 486
1391 4 2 0 1 67 59 68 498
1392 4 2 0 1 59 69 68 498
1393 4 2 0 1 347 343 344 490
1394 4 2 0 1 40 75 39 489
1395 4 2 0 1 37 29 191 50
1396 4 2 0 1 479 486 473 499
1397 4 2 0 1 172 308 291 495
1398 4 2 0 1 149 185 150 184
1399 4 2 0 1 391 403 404 498
1400 4 2 0 1 65 424 421 484
1401 4 2 0 1 397 400 399 484
1402 4 2 0 1 178 108 40 497
1403 4 2 0 1 2 495 1 502
1404 4 2 0 1 456 458 452 486
1405 4 2 0 1 461 440 481 486
1406 4 2 0 1 411 406 425 484
1407 4 2 0 1 143 146 139 145
1408 4 2 0 1 143 146 145 147
1409 4 2 0 1 428 67 386 498
1410 4 2 0 1 26 36 35 497
1411 4 2 0 1 78 486 77 499
1412 4 2 0 1 60 474 261 504
1413 4 2 0 1 467 466 463 499
1414 4 2 0 1 74 417 72 498
1415 4 2 0 1 72 73 71 498
1416 4 2 0 1 378 377 379 498
1417 4 2 0 1 382 379 385 498
1418 4 2 0 1 261 260 254 491
1419 4 2 0 1 75 78 77 499
1420 4 2 0 1 356 485 109 492
1421 4 2 0 1 380 379 377 498
1422 4 2 0 1 383 385 379 498
1423 4 2 0 1 319 320 495 502
1424 4 2 0 1 413 412 414 484
1425 4 2 0 1 54 58 57 498
1426 4 2 0 1 101 97 98 490
1427 4 2 0 1 200 207 204 203
1428 4 2 0 1 200 207 206 205
1429 4 2 0 1 397 483 406 484
1430 4 2 0 1 412 15 407 505
1431 4 2 0 1 453 457 456 486
1432 4 2 0 1 418 414 415 498
1433 4 2 0 1 216 214 218 494
1434 4 2 0 1 374 370 371 490
1435 4 2 0 1 414 420 417 498
1436 4 2 0 1 479 472 473 486
1437 4 2 0 1 30 41 39 497
1438 4 2 0 1 403 392 405 498
1439 4 2 0 1 414 417 484 498
1440 4 2 0 1 74 484 417 498
1441 4 2 0 1 50 191 192 493
1442 4 2 0 1 306 297 298 502
1443 4 2 0 1 257 216 218 494
1444 4 2 0 1 47 48 49 503
1445 4 2 0 1 27 36 26 497
1446 4 2 0 1 464 486 467 499
1447 4 2 0 1 414 484 415 498
1448 4 2 0 1 257 253 233 494
1449 4 2 0 1 56 484 53 498
1450 4 2 0 1 387 427 428 498
1451 4 2 0 1 445 472 444 486
1452 4 2 0 1 188 192 191 493
1453 4 2 0 1 453 86 486 499
1454 4 2 0 1 319 495 318 502
1455 4 2 0 1 441 456 449 486
1456 4 2 0 1 42 30 31 493
1457 4 2 0 1 15 412 247 505
1458 4 2 0 1 198 37 35 497
1459 4 2 0 1 320 12 495 502
1460 4 2 0 1 331 321 322 490
1461 4 2 0 1 64 450 451 489
1462 4 2 0 1 115 329 327 490
1463 4 2 0 1 324 321 332 490
1464 4 2 0 1 76 75 77 499
1465 4 2 0 1 329 338 326 490
1466 4 2 0 1 394 385 383 498
1467 4 2 0 1 295 496 275 501
1468 4 2 0 1 453 486 452 499
1469 4 2 0 1 244 235 236 491
1470 4 2 0 1 230 491 231 504
1471 4 2 0 1 256 252 253 494
1472 4 2 0 1 473 486 465 499
1473 4 2 0 1 105 182 169 497
1474 4 2 0 1 443 480 442 486
1475 4 2 0 1 355 360 361 492
1476 4 2 0 1 398 397 399 484
1477 4 2 0 1 463 464 467 499
1478 4 2 0 1 123 491 120 500
1479 4 2 0 1 463 489 462 499
1480 4 2 0 1 128 491 239 500
1481 4 2 0 1 185 150 184 488
1482 4 2 0 1 380 377 69 498
1483 4 2 0 1 373 118 372 492
1484 4 2 0 1 10 320 12 495
1485 4 2 0 1 380 384 383 498
1486 4 2 0 1 261 254 245 491
1487 4 2 0 1 291 282 495 502
1488 4 2 0 1 254 260 251 491
1489 4 2 0 1 272 18 19 496
1490 4 2 0 1 87 80 83 486
1491 4 2 0 1 74 54 484 498
1492 4 2 0 1 441 458 456 486
1493 4 2 0 1 394 419 409 498
1494 4 2 0 1 362 358 359 490
1495 4 2 0 1 346 342 343 492
1496 4 2 0 1 11 10 495 505
1497 4 2 0 1 383 379 380 498
1498 4 2 0 1 119 491 120 505
1499 4 2 0 1 407 415 412 484
1500 4 2 0 1 383 395 394 498
1501 4 2 0 1 352 345 346 492
1502 4 2 0 1 451 489 450 499
1503 4 2 0 1 42 41 30 493
1504 4 2 0 1 481 442 480 486
1505 4 2 0 1 104 105 169 497
1506 4 2 0 1 373 369 370 492
1507 4 2 0 1 84 78 75 499
1508 4 2 0 1 243 237 241 494
1509 4 2 0 1 355 344 350 492
1510 4 2 0 1 396 71 73 498
1511 4 2 0 1 106 118 98 492
1512 4 2 0 1 207 200 204 201
1513 4 2 0 1 240 239 236 500
1514 4 2 0 1 69 70 380 498
1515 4 2 0 1 465 486 464 499
1516 4 2 0 1 285 296 289 487
1517 4 2 0 1 53 484 54 498
1518 4 2 0 1 324 340 328 490
1519 4 2 0 1 322 325 333 490
1520 4 2 0 1 292 104 168 495
1521 4 2 0 1 337 325 326 490
1522 4 2 0 1 327 328 114 490
1523 4 2 0 1 138 239 240 500
1524 4 2 0 1 196 187 188 497
1525 4 2 0 1 172 282 171 495
1526 4 2 0 1 237 240 236 500
1527 4 2 0 1 211 212 135 203
1528 4 2 0 1 215 206 216 214
1529 4 2 0 1 155 156 175 503
1530 4 2 0 1 462 489 471 499
1531 4 2 0 1 132 133 213 494
1532 4 2 0 1 178 179 108 497
1533 4 2 0 1 450 489 85 499
1534 4 2 0 1 123 491 129 505
1535 4 2 0 1 302 296 301 502
1536 4 2 0 1 306 16 297 502
1537 4 2 0 1 10 1 11 495
1538 4 2 0 1 172 291 282 495
1539 4 2 0 1 355 350 360 492
1540 4 2 0 1 302 301 298 502
1541 4 2 0 1 1 495 12 502
1542 4 2 0 1 145 139 143 140
1543 4 2 0 1 139 142 145 146
1544 4 2 0 1 361 360 357 492
1545 4 2 0 1 45 149 148 503
1546 4 2 0 1 209 242 248 494
1547 4 2 0 1 136 137 135 494
1548 4 2 0 1 128 491 119 505
1549 4 2 0 1 419 394 395 498
1550 4 2 0 1 158 157 47 503
1551 4 2 0 1 255 249 254 500
1552 4 2 0 1 51 54 53 484
1553 4 2 0 1 86 80 87 486
1554 4 2 0 1 289 296 295 487
1555 4 2 0 1 346 345 342 492
1556 4 2 0 1 336 334 325 490
1557 4 2 0 1 113 328 339 490
1558 4 2 0 1 322 333 331 490
1559 4 2 0 1 10 12 1 495
1560 4 2 0 1 70 71 384 498
1561 4 2 0 1 120 123 13 505
1562 4 2 0 1 332 340 324 490
1563 4 2 0 1 299 302 298 502
1564 4 2 0 1 327 114 115 490
1565 4 2 0 1 351 352 371 492
1566 4 2 0 1 104 159 168 497
1567 4 2 0 1 373 372 369 492
1568 4 2 0 1 338 337 326 490
1569 4 2 0 1 335 334 336 490
1570 4 2 0 1 236 491 235 500
1571 4 2 0 1 113 339 112 490
1572 4 2 0 1 397 406 400 484
1573 4 2 0 1 361 357 358 492
1574 4 2 0 1 328 340 339 490
1575 4 2 0 1 337 336 325 490
1576 4 2 0 1 40 39 41 497
1577 4 2 0 1 325 334 333 490
1578 4 2 0 1 113 114 328 490
1579 4 2 0 1 120 491 119 500
1580 4 2 0 1 259 251 260 491
1581 4 2 0 1 57 53 54 498
1582 4 2 0 1 41 42 181 493
1583 4 2 0 1 475 476 479 499
1584 4 2 0 1 456 452 453 486
1585 4 2 0 1 380 70 384 498
1586 4 2 0 1 208 248 258 494
1587 4 2 0 1 443 482 480 486
1588 4 2 0 1 383 384 395 498
1589 4 2 0 1 255 254 251 500
1590 4 2 0 1 14 120 13 505
1591 4 2 0 1 472 482 444 486
1592 4 2 0 1 384 396 395 498
1593 4 2 0 1 189 192 188 493
1594 4 2 0 1 155 154 156 503
1595 4 2 0 1 319 313 320 502
1596 4 2 0 1 234 227 217 494
1597 4 2 0 1 88 83 89 486
1598 4 2 0 1 51 53 52 484
1599 4 2 0 1 106 372 118 492
1600 4 2 0 1 104 169 159 497
1601 4 2 0 1 174 163 164 493
1602 4 2 0 1 26 35 37 497
1603 4 2 0 1 11 13 123 505
1604 4 2 0 1 312 316 315 487
1605 4 2 0 1 349 334 335 490
1606 4 2 0 1 71 396 384 498
1607 4 2 0 1 5 6 17 502
1608 4 2 0 1 420 396 73 498
1609 4 2 0 1 113 112 103 490
1610 4 2 0 1 58 71 70 498
1611 4 2 0 1 218 216 206 214
1612 4 2 0 1 91 92 93 486
1613 4 2 0 1 259 231 491 504
1614 4 2 0 1 70 69 57 498
1615 4 2 0 1 330 364 332 490
1616 4 2 0 1 475 479 478 499
1617 4 2 0 1 460 454 455 499
1618 4 2 0 1 345 352 351 492
1619 4 2 0 1 341 344 343 492
1620 4 2 0 1 338 117 376 490
1621 4 2 0 1 201 206 200 199
1622 4 2 0 1 252 255 251 500
1623 4 2 0 1 157 46 47 503
1624 4 2 0 1 119 491 128 500
1625 4 2 0 1 206 201 200 205
1626 4 2 0 1 139 141 145 142
1627 4 2 0 1 95 98 97 492
1628 4 2 0 1 320 313 12 502
1629 4 2 0 1 448 457 87 486
1630 4 2 0 1 295 289 487 501
1631 4 2 0 1 123 129 11 505
1632 4 2 0 1 237 236 235 500
1633 4 2 0 1 254 491 251 500
1634 4 2 0 1 94 92 82 486
1635 4 2 0 1 57 69 59 498
1636 4 2 0 1 5 2 6 502
1637 4 2 0 1 254 245 491 500
1638 4 2 0 1 291 301 296 502
1639 4 2 0 1 128 239 138 500
1640 4 2 0 1 25 314 23 496
1641 4 2 0 1 47 157 158 146
1642 4 2 0 1 160 164 163 493
1643 4 2 0 1 40 41 178 497
1644 4 2 0 1 460 477 459 499
1645 4 2 0 1 72 420 73 498
1646 4 2 0 1 218 256 257 494
1647 4 2 0 1 348 331 333 490
1648 4 2 0 1 343 342 341 492
1649 4 2 0 1 451 455 454 499
1650 4 2 0 1 454 460 459 499
1651 4 2 0 1 353 349 335 490
1652 4 2 0 1 3 6 2 502
1653 4 2 0 1 83 88 87 486
1654 4 2 0 1 102 115 114 490
1655 4 2 0 1 375 336 337 490
1656 4 2 0 1 275 496 274 501
1657 4 2 0 1 395 418 419 498
1658 4 2 0 1 319 318 310 502
1659 4 2 0 1 354 364 330 490
1660 4 2 0 1 95 97 96 492
1661 4 2 0 1 103 112 111 490
1662 4 2 0 1 81 83 77 486
1663 4 2 0 1 469 472 445 486
1664 4 2 0 1 395 396 418 498
1665 4 2 0 1 77 83 80 486
1666 4 2 0 1 154 165 153 503
1667 4 2 0 1 5 17 16 502
1668 4 2 0 1 234 216 257 494
1669 4 2 0 1 371 370 368 492
1670 4 2 0 1 277 289 276 501
1671 4 2 0 1 128 138 122 500
1672 4 2 0 1 116 376 117 490
1673 4 2 0 1 295 276 289 501
1674 4 2 0 1 81 78 82 486
1675 4 2 0 1 344 341 350 492
1676 4 2 0 1 270 264 268 501
1677 4 2 0 1 270 267 264 501
1678 4 2 0 1 181 178 41 493
1679 4 2 0 1 295 487 496 501
1680 4 2 0 1 299 298 297 502
1681 4 2 0 1 225 227 221 494
1682 4 2 0 1 44 45 148 503
1683 4 2 0 1 465 469 468 486
1684 4 2 0 1 235 238 237 500
1685 4 2 0 1 477 476 474 499
1686 4 2 0 1 235 491 245 500
1687 4 2 0 1 284 287 283 502
1688 4 2 0 1 72 71 58 498
1689 4 2 0 1 250 251 259 491
1690 4 2 0 1 15 247 128 505
1691 4 2 0 1 455 451 452 499
1692 4 2 0 1 264 267 263 501
1693 4 2 0 1 265 268 264 501
1694 4 2 0 1 354 331 348 490
1695 4 2 0 1 14 119 120 505
1696 4 2 0 1 462 465 464 499
1697 4 2 0 1 368 370 369 492
1698 4 2 0 1 121 124 120 500
1699 4 2 0 1 262 265 264 501
1700 4 2 0 1 262 264 263 501
1701 4 2 0 1 287 286 283 502
1702 4 2 0 1 161 164 160 493
1703 4 2 0 1 200 207 205 201
1704 4 2 0 1 106 98 95 492
1705 4 2 0 1 157 47 46 146
1706 4 2 0 1 295 305 275 496
1707 4 2 0 1 182 179 183 493
1708 4 2 0 1 420 418 396 498
1709 4 2 0 1 102 116 115 490
1710 4 2 0 1 310 313 319 502
1711 4 2 0 1 375 353 336 490
1712 4 2 0 1 94 467 92 486
1713 4 2 0 1 129 491 123 500
1714 4 2 0 1 15 119 14 505
1715 4 2 0 1 464 463 462 499
1716 4 2 0 1 469 445 446 486
1717 4 2 0 1 334 347 333 490
1718 4 2 0 1 111 339 363 490
1719 4 2 0 1 474 476 475 499
1720 4 2 0 1 467 470 92 486
1721 4 2 0 1 169 182 177 493
1722 4 2 0 1 143 145 141 147
1723 4 2 0 1 187 190 189 493
1724 4 2 0 1 337 338 374 490
1725 4 2 0 1 114 113 101 490
1726 4 2 0 1 143 145 140 141
1727 4 2 0 1 362 340 332 490
1728 4 2 0 1 120 124 123 500
1729 4 2 0 1 70 57 58 498
1730 4 2 0 1 192 195 48 503
1731 4 2 0 1 273 496 272 501
1732 4 2 0 1 231 250 259 491
1733 4 2 0 1 284 283 282 502
1734 4 2 0 1 356 359 358 492
1735 4 2 0 1 358 357 356 492
1736 4 2 0 1 182 183 177 493
1737 4 2 0 1 11 129 10 505
1738 4 2 0 1 43 493 34 503
1739 4 2 0 1 121 120 119 500
1740 4 2 0 1 169 177 162 493
1741 4 2 0 1 297 300 299 502
1742 4 2 0 1 25 23 8 496
1743 4 2 0 1 351 371 368 492
1744 4 2 0 1 90 89 81 486
1745 4 2 0 1 165 488 153 503
1746 4 2 0 1 82 91 90 486
1747 4 2 0 1 270 274 267 501
1748 4 2 0 1 267 266 263 501
1749 4 2 0 1 265 269 268 501
1750 4 2 0 1 347 334 349 490
1751 4 2 0 1 362 332 364 490
1752 4 2 0 1 293 286 287 502
1753 4 2 0 1 50 192 48 503
1754 4 2 0 1 468 464 465 486
1755 4 2 0 1 180 179 178 493
1756 4 2 0 1 338 376 374 490
1757 4 2 0 1 231 232 250 491
1758 4 2 0 1 113 103 101 490
1759 4 2 0 1 94 82 78 486
1760 4 2 0 1 180 183 179 493
1761 4 2 0 1 277 278 288 501
1762 4 2 0 1 348 333 347 490
1763 4 2 0 1 189 188 187 493
1764 4 2 0 1 121 119 122 500
1765 4 2 0 1 128 122 119 500
1766 4 2 0 1 50 48 33 503
1767 4 2 0 1 474 459 477 499
1768 4 2 0 1 229 228 220 491
1769 4 2 0 1 273 274 496 501
1770 4 2 0 1 470 447 93 486
1771 4 2 0 1 123 124 130 500
1772 4 2 0 1 337 374 375 490
1773 4 2 0 1 114 101 102 490
1774 4 2 0 1 467 464 470 486
1775 4 2 0 1 446 468 469 486
1776 4 2 0 1 468 470 464 486
1777 4 2 0 1 252 251 250 500
1778 4 2 0 1 34 493 31 503
1779 4 2 0 1 81 77 78 486
1780 4 2 0 1 452 451 450 499
1781 4 2 0 1 15 14 16 306
1782 4 2 0 1 276 270 268 501
1783 4 2 0 1 34 43 31 493
1784 4 2 0 1 89 83 81 486
1785 4 2 0 1 178 181 180 493
1786 4 2 0 1 310 318 309 502
1787 4 2 0 1 28 34 31 503
1788 4 2 0 1 25 8 4 496
1789 4 2 0 1 231 230 232 491
1790 4 2 0 1 189 195 192 503
1791 4 2 0 1 232 233 253 500
1792 4 2 0 1 446 447 468 486
1793 4 2 0 1 252 250 253 500
1794 4 2 0 1 194 193 493 503
1795 4 2 0 1 3 1 4 502
1796 4 2 0 1 158 47 49 503
1797 4 2 0 1 2 1 3 502
1798 4 2 0 1 223 224 233 500
1799 4 2 0 1 450 453 452 499
1800 4 2 0 1 202 210 206 199
1801 4 2 0 1 161 159 162 493
1802 4 2 0 1 204 133 203 207
1803 4 2 0 1 15 128 119 505
1804 4 2 0 1 167 175 493 503
1805 4 2 0 1 277 288 289 501
1806 4 2 0 1 50 493 192 503
1807 4 2 0 1 156 194 175 503
1808 4 2 0 1 139 141 140 145
1809 4 2 0 1 278 487 288 501
1810 4 2 0 1 288 487 289 501
1811 4 2 0 1 12 25 4 502
1812 4 2 0 1 274 273 267 501
1813 4 2 0 1 250 251 491 500
1814 4 2 0 1 165 493 488 503
1815 4 2 0 1 273 266 267 501
1816 4 2 0 1 268 269 277 501
1817 4 2 0 1 313 314 25 502
1818 4 2 0 1 175 194 493 503
1819 4 2 0 1 165 167 493 503
1820 4 2 0 1 304 272 273 496
1821 4 2 0 1 300 304 303 496
1822 4 2 0 1 293 292 286 502
1823 4 2 0 1 189 192 493 503
1824 4 2 0 1 303 305 299 496
1825 4 2 0 1 160 159 161 493
1826 4 2 0 1 28 31 493 503
1827 4 2 0 1 232 223 233 500
1828 4 2 0 1 29 493 50 503
1829 4 2 0 1 220 224 223 500
1830 4 2 0 1 229 223 230 491
1831 4 2 0 1 268 277 276 501
1832 4 2 0 1 315 496 487 501
1833 4 2 0 1 190 194 193 493
1834 4 2 0 1 123 130 129 500
1835 4 2 0 1 82 90 81 486
1836 4 2 0 1 166 153 165 488
1837 4 2 0 1 221 224 220 500
1838 4 2 0 1 12 313 25 502
1839 4 2 0 1 169 162 159 493
1840 4 2 0 1 310 314 313 502
1841 4 2 0 1 155 175 167 503
1842 4 2 0 1 37 29 26 191
1843 4 2 0 1 229 220 223 491
1844 4 2 0 1 82 92 91 486
1845 4 2 0 1 470 468 447 486
1846 4 2 0 1 165 166 488 493
1847 4 2 0 1 311 314 310 502
1848 4 2 0 1 273 274 303 496
1849 4 2 0 1 29 33 32 503
1850 4 2 0 1 28 493 29 503
1851 4 2 0 1 142 45 146 139
1852 4 2 0 1 144 154 143 147
1853 4 2 0 1 42 31 43 493
1854 4 2 0 1 230 223 232 491
1855 4 2 0 1 232 253 250 500
1856 4 2 0 1 285 288 284 487
1857 4 2 0 1 470 93 92 486
1858 4 2 0 1 148 140 143 139
1859 4 2 0 1 33 29 50 503
1860 4 2 0 1 12 4 1 502
1861 4 2 0 1 193 189 190 493
1862 4 2 0 1 32 34 28 503
1863 4 2 0 1 317 496 315 501
1864 4 2 0 1 157 193 194 503
1865 4 2 0 1 124 131 130 494
1866 4 2 0 1 21 8 22 501
1867 4 2 0 1 221 220 219 500
1868 4 2 0 1 220 228 219 491
1869 4 2 0 1 316 279 281 501
1870 4 2 0 1 311 310 309 502
1871 4 2 0 1 285 289 288 487
1872 4 2 0 1 269 278 277 501
1873 4 2 0 1 157 158 193 503
1874 4 2 0 1 23 317 24 501
1875 4 2 0 1 136 135 126 494
1876 4 2 0 1 194 156 157 503
1877 4 2 0 1 8 7 4 496
1878 4 2 0 1 223 491 220 500
1879 4 2 0 1 136 243 137 494
1880 4 2 0 1 167 175 164 493
1881 4 2 0 1 272 266 273 501
1882 4 2 0 1 232 250 491 500
1883 4 2 0 1 272 20 266 501
1884 4 2 0 1 278 269 279 501
1885 4 2 0 1 125 122 126 494
1886 4 2 0 1 23 496 317 501
1887 4 2 0 1 219 222 221 500
1888 4 2 0 1 265 262 271 501
1889 4 2 0 1 4 7 3 496
1890 4 2 0 1 124 127 131 494
1891 4 2 0 1 232 491 223 500
1892 4 2 0 1 315 487 316 501
1893 4 2 0 1 309 312 311 502
1894 4 2 0 1 32 28 29 503
1895 4 2 0 1 303 299 300 496
1896 4 2 0 1 175 174 164 493
1897 4 2 0 1 185 43 148 503
1898 4 2 0 1 22 262 263 501
1899 4 2 0 1 129 219 491 500
1900 4 2 0 1 176 488 166 493
1901 4 2 0 1 125 121 122 494
1902 4 2 0 1 177 176 166 493
1903 4 2 0 1 23 8 496 501
1904 4 2 0 1 265 281 269 501
1905 4 2 0 1 263 266 21 501
1906 4 2 0 1 273 303 304 496
1907 4 2 0 1 165 162 166 493
1908 4 2 0 1 165 167 161 493
1909 4 2 0 1 281 315 316 501
1910 4 2 0 1 18 17 6 496
1911 4 2 0 1 9 18 6 496
1912 4 2 0 1 167 164 161 493
1913 4 2 0 1 220 491 219 500
1914 4 2 0 1 33 47 46 503
1915 4 2 0 1 183 488 176 493
1916 4 2 0 1 124 121 127 494
1917 4 2 0 1 21 266 20 501
1918 4 2 0 1 9 3 7 496
1919 4 2 0 1 21 20 7 501
1920 4 2 0 1 9 6 3 496
1921 4 2 0 1 165 161 162 493
1922 4 2 0 1 125 127 121 494
1923 4 2 0 1 281 271 315 501
1924 4 2 0 1 23 22 8 501
1925 4 2 0 1 20 496 7 501
1926 4 2 0 1 269 281 279 501
1927 4 2 0 1 43 34 44 503
1928 4 2 0 1 183 180 488 493
1929 4 2 0 1 177 166 162 493
1930 4 2 0 1 177 183 176 493
1931 4 2 0 1 271 281 265 501
1932 4 2 0 1 183 186 176 488
1933 4 2 0 1 8 21 7 501
1934 4 2 0 1 290 284 288 487
1935 4 2 0 1 263 21 22 501
1936 4 2 0 1 184 186 180 488
1937 4 2 0 1 183 180 186 488
1938 4 2 0 1 46 45 32 503
1939 4 2 0 1 304 18 272 496
1940 4 2 0 1 8 7 496 501
1941 4 2 0 1 46 32 33 503
1942 4 2 0 1 152 166 176 488
1943 4 2 0 1 33 48 47 503
1944 4 2 0 1 195 49 48 503
1945 4 2 0 1 9 19 18 496
1946 4 2 0 1 127 132 131 494
1947 4 2 0 1 176 186 151 488
1948 4 2 0 1 294 290 280 487
1949 4 2 0 1 44 139 148 45
1950 4 2 0 1 206 201 205 202
1951 4 2 0 1 15 297 306 16
1952 4 2 0 1 154 155 156 147
1953 4 2 0 1 143 141 140 144
1954 4 2 0 1 132 133 207 213
1955 4 2 0 1 203 133 206 207
1956 4 2 0 1 225 494 214 215
1957 4 2 0 1 38 489 497 39
1958 4 2 0 1 497 489 38 36
1959 4 2 0 1 488 150 186 151
1960 4 2 0 1 488 186 150 184
1961 4 2 0 1 504 247 491 246
1962 4 2 0 1 504 491 247 505
1963 4 2 0 1 505 412 504 483
1964 4 2 0 1 505 504 412 247
1965 4 2 0 1 413 504 412 483
1966 4 2 0 1 413 412 504 247
1967 4 2 0 1 107 99 485 96
1968 4 2 0 1 485 99 107 108
1969 4 2 0 1 498 66 428 67
1970 4 2 0 1 498 428 66 484
1971 4 2 0 1 487 312 284 496
1972 4 2 0 1 500 224 237 221
1973 4 2 0 1 494 237 224 221
1974 4 2 0 1 405 484 409 402
1975 4 2 0 1 405 409 484 498
1976 4 2 0 1 408 409 484 402
1977 4 2 0 1 495 170 497 168
1978 4 2 0 1 495 497 170 171
1979 4 2 0 1 500 255 237 252
1980 4 2 0 1 500 237 255 238
1981 4 2 0 1 494 237 255 252
1982 4 2 0 1 502 3 25 4
1983 4 2 0 1 502 25 3 314
1984 4 2 0 1 496 25 3 4
1985 4 2 0 1 496 3 25 314
1986 4 2 0 1 149 143 45 148
1987 4 2 0 1 149 45 143 146
1988 4 2 0 1 139 45 143 148
1989 4 2 0 1 139 143 45 146
1990 4 2 0 1 300 502 314 299
1991 4 2 0 1 314 496 300 299
1992 4 2 0 1 494 135 133 213
1993 4 2 0 1 237 494 222 221
1994 4 2 0 1 212 135 209 211
1995 4 2 0 1 212 209 135 494
1996 4 2 0 1 242 212 209 211
1997 4 2 0 1 242 209 212 494
1998 4 2 0 1 241 212 242 211
1999 4 2 0 1 241 242 212 494
2000 4 2 0 1 505 407 306 15
2001 4 2 0 1 496 312 299 311
2002 4 2 0 1 191 27 28 26
2003 4 2 0 1 28 29 191 26
2004 4 2 0 1 191 29 28 493
2005 4 2 0 1 502 6 314 3
2006 4 2 0 1 496 314 6 3
2007 4 2 0 1 494 222 240 237
2008 4 2 0 1 124 494 240 121
2009 4 2 0 1 240 500 124 121
2010 4 2 0 1 293 502 284 312
2011 4 2 0 1 284 502 293 287
2012 4 2 0 1 284 487 293 312
2013 4 2 0 1 135 214 494 209
2014 4 2 0 1 135 494 214 213
2015 4 2 0 1 502 17 314 6
2016 4 2 0 1 502 314 17 300
2017 4 2 0 1 496 314 17 6
2018 4 2 0 1 496 17 314 300
2019 4 2 0 1 496 312 302 299
2020 4 2 0 1 163 493 159 160
2021 4 2 0 1 170 163 168 160
2022 4 2 0 1 170 168 163 497
2023 4 2 0 1 159 168 163 160
2024 4 2 0 1 159 163 168 497
2025 4 2 0 1 38 79 489 76
2026 4 2 0 1 489 79 38 36
2027 4 2 0 1 206 203 135 134
2028 4 2 0 1 135 203 206 211
2029 4 2 0 1 494 224 227 221
2030 4 2 0 1 494 227 224 234
2031 4 2 0 1 206 214 210 218
2032 4 2 0 1 159 173 493 163
2033 4 2 0 1 174 493 173 163
2034 4 2 0 1 503 45 157 46
2035 4 2 0 1 146 157 45 46
2036 4 2 0 1 503 154 149 153
2037 4 2 0 1 150 503 153 152
2038 4 2 0 1 153 503 150 149
2039 4 2 0 1 153 143 150 152
2040 4 2 0 1 150 143 153 149
2041 4 2 0 1 503 156 149 154
2042 4 2 0 1 149 156 146 154
2043 4 2 0 1 146 145 156 157
2044 4 2 0 1 100 96 492 99
2045 4 2 0 1 100 492 96 97
2046 4 2 0 1 505 306 14 15
2047 4 2 0 1 505 14 306 495
2048 4 2 0 1 487 296 284 285
2049 4 2 0 1 255 258 494 252
2050 4 2 0 1 494 258 255 248
2051 4 2 0 1 136 240 126 138
2052 4 2 0 1 136 126 240 494
2053 4 2 0 1 122 126 240 138
2054 4 2 0 1 122 240 126 494
2055 4 2 0 1 196 406 497 425
2056 4 2 0 1 196 497 406 172
2057 4 2 0 1 483 497 406 425
2058 4 2 0 1 483 406 497 172
2059 4 2 0 1 130 494 240 124
2060 4 2 0 1 240 494 130 222
2061 4 2 0 1 240 500 130 124
2062 4 2 0 1 130 500 240 222
2063 4 2 0 1 493 187 169 182
2064 4 2 0 1 497 169 187 182
2065 4 2 0 1 76 80 499 77
2066 4 2 0 1 499 80 76 79
2067 4 2 0 1 317 314 496 23
2068 4 2 0 1 317 496 314 311
2069 4 2 0 1 249 255 242 238
2070 4 2 0 1 249 242 255 248
2071 4 2 0 1 494 255 242 248
2072 4 2 0 1 243 240 494 136
2073 4 2 0 1 243 494 240 237
2074 4 2 0 1 302 305 496 299
2075 4 2 0 1 496 305 302 295
2076 4 2 0 1 496 272 20 19
2077 4 2 0 1 496 20 272 501
2078 4 2 0 1 496 312 315 487
2079 4 2 0 1 500 245 249 254
2080 4 2 0 1 503 189 193 493
2081 4 2 0 1 503 193 189 195
2082 4 2 0 1 200 206 209 199
2083 4 2 0 1 478 260 504 259
2084 4 2 0 1 478 504 260 475
2085 4 2 0 1 180 488 181 184
2086 4 2 0 1 180 181 488 493
2087 4 2 0 1 185 181 488 184
2088 4 2 0 1 489 471 504 231
2089 4 2 0 1 489 504 471 478
2090 4 2 0 1 259 504 471 231
2091 4 2 0 1 259 471 504 478
2092 4 2 0 1 172 173 497 171
2093 4 2 0 1 319 372 485 369
2094 4 2 0 1 319 485 372 318
2095 4 2 0 1 345 229 485 228
2096 4 2 0 1 485 229 345 342
2097 4 2 0 1 503 150 185 488
2098 4 2 0 1 245 491 60 261
2099 4 2 0 1 504 491 60 244
2100 4 2 0 1 504 60 491 261
2101 4 2 0 1 222 494 225 221
2102 4 2 0 1 473 478 499 471
2103 4 2 0 1 499 478 473 479
2104 4 2 0 1 416 74 484 417
2105 4 2 0 1 484 74 416 62
2106 4 2 0 1 86 79 499 85
2107 4 2 0 1 86 499 79 80
2108 4 2 0 1 62 244 504 60
2109 4 2 0 1 504 244 62 416
2110 4 2 0 1 417 413 484 416
2111 4 2 0 1 484 413 417 414
2112 4 2 0 1 36 85 489 79
2113 4 2 0 1 489 85 36 35
2114 4 2 0 1 109 108 485 40
2115 4 2 0 1 485 108 109 99
2116 4 2 0 1 158 195 503 49
2117 4 2 0 1 503 195 158 193
2118 4 2 0 1 99 110 492 100
2119 4 2 0 1 492 110 99 109
2120 4 2 0 1 243 212 494 241
2121 4 2 0 1 494 212 243 137
2122 4 2 0 1 34 45 503 32
2123 4 2 0 1 34 503 45 44
2124 4 2 0 1 215 227 494 217
2125 4 2 0 1 215 494 227 225
2126 4 2 0 1 290 278 487 288
2127 4 2 0 1 487 278 290 280
2128 4 2 0 1 20 9 496 19
2129 4 2 0 1 496 9 20 7
2130 4 2 0 1 154 167 503 155
2131 4 2 0 1 154 503 167 165
2132 4 2 0 1 305 274 496 303
2133 4 2 0 1 496 274 305 275
2134 4 2 0 1 271 317 501 24
2135 4 2 0 1 271 501 317 315
2136 4 2 0 1 127 133 494 125
2137 4 2 0 1 494 133 127 132
2138 4 2 0 1 16 300 502 17
2139 4 2 0 1 16 502 300 297
2140 4 2 0 1 235 60 491 244
2141 4 2 0 1 235 491 60 245
2142 4 2 0 1 450 35 489 64
2143 4 2 0 1 450 489 35 85
2144 4 2 0 1 17 304 496 18
2145 4 2 0 1 496 304 17 300
2146 4 2 0 1 356 40 485 365
2147 4 2 0 1 356 485 40 109
2148 4 2 0 1 430 439 486 440
2149 4 2 0 1 486 439 430 441
2150 4 2 0 1 449 457 486 456
2151 4 2 0 1 449 486 457 448
2152 4 2 0 1 199 208 206 209
2153 4 2 0 1 199 206 208 210
2154 4 2 0 1 206 208 214 209
2155 4 2 0 1 206 214 208 210
2156 4 2 0 1 214 208 494 209
2157 4 2 0 1 54 62 484 51
2158 4 2 0 1 54 484 62 74
2159 4 2 0 1 416 246 504 244
2160 4 2 0 1 504 246 416 413
2161 4 2 0 1 58 74 498 54
2162 4 2 0 1 498 74 58 72
2163 4 2 0 1 238 245 500 235
2164 4 2 0 1 238 500 245 249
2165 4 2 0 1 187 172 497 196
2166 4 2 0 1 187 497 172 173
2167 4 2 0 1 401 307 495 306
2168 4 2 0 1 495 307 401 398
2169 4 2 0 1 401 483 495 398
2170 4 2 0 1 262 24 501 22
2171 4 2 0 1 501 24 262 271
2172 4 2 0 1 270 275 501 276
2173 4 2 0 1 501 275 270 274
2174 4 2 0 1 173 190 493 174
2175 4 2 0 1 493 190 173 187
2176 4 2 0 1 197 425 497 422
2177 4 2 0 1 197 497 425 196
2178 4 2 0 1 453 85 499 450
2179 4 2 0 1 453 499 85 86
2180 4 2 0 1 457 86 486 453
2181 4 2 0 1 457 486 86 87
2182 4 2 0 1 194 174 493 190
2183 4 2 0 1 194 493 174 175
2184 4 2 0 1 147 156 146 145
2185 4 2 0 1 147 146 156 154
2186 4 2 0 1 93 438 486 447
2187 4 2 0 1 93 486 438 91
2188 4 2 0 1 359 109 492 356
2189 4 2 0 1 359 492 109 110
2190 4 2 0 1 316 293 487 312
2191 4 2 0 1 316 487 293 294
2192 4 2 0 1 117 329 490 338
2193 4 2 0 1 117 490 329 115
2194 4 2 0 1 110 363 490 111
2195 4 2 0 1 490 363 110 359
2196 4 2 0 1 462 231 489 367
2197 4 2 0 1 462 489 231 471
2198 4 2 0 1 222 129 500 219
2199 4 2 0 1 222 500 129 130
2200 4 2 0 1 330 321 490 332
2201 4 2 0 1 490 321 330 331
2202 4 2 0 1 219 10 491 228
2203 4 2 0 1 219 491 10 129
2204 4 2 0 1 505 10 491 129
2205 4 2 0 1 131 213 494 132
2206 4 2 0 1 206 207 213 205
2207 4 2 0 1 206 213 207 133
2208 4 2 0 1 340 363 490 362
2209 4 2 0 1 340 490 363 339
2210 4 2 0 1 469 473 486 465
2211 4 2 0 1 469 486 473 472
2212 4 2 0 1 465 471 499 462
2213 4 2 0 1 465 499 471 473
2214 4 2 0 1 502 309 495 318
2215 4 2 0 1 502 495 309 292
2216 4 2 0 1 104 495 309 318
2217 4 2 0 1 104 309 495 292
2218 4 2 0 1 312 292 502 309
2219 4 2 0 1 312 502 292 293
2220 4 2 0 1 488 152 150 151
2221 4 2 0 1 488 150 152 503
2222 4 2 0 1 28 191 31 27
2223 4 2 0 1 28 31 191 493
2224 4 2 0 1 30 31 191 27
2225 4 2 0 1 30 191 31 493
2226 4 2 0 1 211 200 206 209
2227 4 2 0 1 211 206 200 203
2228 4 2 0 1 501 294 316 279
2229 4 2 0 1 501 316 294 487
2230 4 2 0 1 278 280 501 279
2231 4 2 0 1 278 501 280 487
2232 4 2 0 1 280 294 501 279
2233 4 2 0 1 280 501 294 487
2234 4 2 0 1 154 143 149 153
2235 4 2 0 1 154 149 143 146
2236 4 2 0 1 493 41 188 178
2237 4 2 0 1 493 188 41 191
2238 4 2 0 1 497 188 41 178
2239 4 2 0 1 497 41 188 191
2240 4 2 0 1 209 135 206 211
2241 4 2 0 1 209 206 135 214
2242 4 2 0 1 503 149 185 150
2243 4 2 0 1 503 185 149 148
2244 4 2 0 1 409 484 419 408
2245 4 2 0 1 409 419 484 498
2246 4 2 0 1 415 419 484 408
2247 4 2 0 1 415 484 419 498
2248 4 2 0 1 237 500 233 224
2249 4 2 0 1 233 494 237 224
2250 4 2 0 1 500 253 237 233
2251 4 2 0 1 500 237 253 252
2252 4 2 0 1 494 237 253 233
2253 4 2 0 1 494 253 237 252
2254 4 2 0 1 237 255 241 494
2255 4 2 0 1 237 241 255 238
2256 4 2 0 1 242 241 255 494
2257 4 2 0 1 242 255 241 238
2258 4 2 0 1 135 133 126 494
2259 4 2 0 1 135 126 133 134
2260 4 2 0 1 125 126 133 494
2261 4 2 0 1 125 133 126 134
2262 4 2 0 1 206 135 133 134
2263 4 2 0 1 213 135 206 214
2264 4 2 0 1 213 206 135 133
2265 4 2 0 1 284 290 294 487
2266 4 2 0 1 294 290 284 287
2267 4 2 0 1 294 293 284 487
2268 4 2 0 1 284 293 294 287
2269 4 2 0 1 496 295 296 487
2270 4 2 0 1 296 295 496 302
2271 4 2 0 1 296 284 496 487
2272 4 2 0 1 311 315 496 312
2273 4 2 0 1 311 496 315 317
2274 4 2 0 1 214 218 208 210
2275 4 2 0 1 208 218 214 494
2276 4 2 0 1 256 258 208 210
2277 4 2 0 1 208 258 256 494
2278 4 2 0 1 218 256 208 210
2279 4 2 0 1 208 256 218 494
2280 4 2 0 1 497 173 169 159
2281 4 2 0 1 497 169 173 187
2282 4 2 0 1 493 169 173 159
2283 4 2 0 1 493 173 169 187
2284 4 2 0 1 503 156 45 149
2285 4 2 0 1 503 45 156 157
2286 4 2 0 1 146 45 156 149
2287 4 2 0 1 146 156 45 157
2288 4 2 0 1 296 284 291 502
2289 4 2 0 1 296 291 284 285
2290 4 2 0 1 282 291 284 502
2291 4 2 0 1 282 284 291 285
2292 4 2 0 1 296 502 312 284
2293 4 2 0 1 312 502 296 302
2294 4 2 0 1 312 496 296 284
2295 4 2 0 1 296 496 312 302
2296 4 2 0 1 181 488 42 185
2297 4 2 0 1 181 42 488 493
2298 4 2 0 1 42 488 43 185
2299 4 2 0 1 42 43 488 493
2300 4 2 0 1 43 488 503 185
2301 4 2 0 1 43 503 488 493
2302 4 2 0 1 495 401 407 483
2303 4 2 0 1 407 401 495 306
2304 4 2 0 1 407 505 495 483
2305 4 2 0 1 495 505 407 306
2306 4 2 0 1 10 491 485 505
2307 4 2 0 1 10 485 491 228
2308 4 2 0 1 494 130 226 131
2309 4 2 0 1 494 214 226 225
2310 4 2 0 1 222 494 226 225
2311 4 2 0 1 222 226 494 130
2312 4 2 0 1 213 226 494 214
2313 4 2 0 1 213 494 226 131
$EndElements
