# Blender v2.93.1 OBJ File: 'liver_gallbladder_new_edited_v10.blend'
# www.blender.org
mtllib connective_tissue.mtl
o Connective_02_raw_CatHERA1400002.003
v 31.155426 -34.940342 -17.886389
v 26.412828 -33.984589 -12.233669
v 32.004738 -28.369360 -21.759968
v 32.476341 -27.420759 -26.773628
v 27.948568 -26.417702 -16.649960
v 13.386082 -24.900784 -1.992343
v -0.042452 -14.480243 5.033525
v 8.583919 -7.396160 -6.918733
v 18.650721 -29.071186 -5.981926
v 1.174494 -22.391304 5.500775
v -7.388924 -18.886318 9.145717
v 5.598509 -15.983748 0.911177
v 29.224232 -23.736368 -27.086037
v 6.392618 -23.531857 2.675862
v 11.929965 -10.567125 -7.222899
v 26.846193 -21.264738 -18.684563
v 23.439247 -17.201706 -20.980833
v 24.140812 -19.558630 -14.926494
v 18.809177 -11.382450 -18.238373
v -16.776838 -16.600405 14.327521
v 17.533043 -11.466621 -13.361154
v -6.450598 -14.014629 8.601192
v -11.688082 -8.073585 10.877251
v -5.321887 -1.928094 3.376168
v 3.041955 -8.379928 -1.467423
v -2.397994 -7.364220 3.526974
v 0.847048 -4.157359 -4.363381
v 3.869411 -2.450088 -1.613709
v -8.665718 -6.366313 13.626923
v -13.754476 -14.893133 17.077194
v 16.408445 -23.193512 0.757329
v 9.414983 -21.824583 5.425534
v 20.555407 -9.759351 -10.611482
v 21.831537 -9.675179 -15.488701
v 33.515926 -27.515717 -20.385139
v 20.161901 -28.217558 -4.607083
v 30.735422 -22.882740 -25.711195
v 32.666611 -34.086712 -16.511559
v 33.987534 -26.567133 -25.398769
v 27.924017 -33.130962 -10.858841
v 24.950420 -16.348078 -19.606003
v -3.810705 -1.074466 4.751012
v -5.877742 -18.032675 10.520559
v 2.685676 -21.537674 6.875603
v 10.095110 -6.542531 -5.543874
v 7.903801 -22.678228 4.050705
v 2.358229 -3.303731 -2.988553
v 20.320360 -10.528823 -16.863544
v -15.265657 -15.746761 15.702351
v 14.897264 -24.047140 -0.617500
v 19.044226 -10.612994 -11.986310
v -10.176899 -7.219956 12.252079
v 23.406305 -21.191021 -9.049056
v 28.688831 -21.118767 -15.788721
v 34.177788 -33.233086 -15.136715
v 21.673079 -27.363932 -3.232255
v 26.461613 -15.494451 -18.231159
v 29.435207 -32.277302 -9.484013
v 35.027100 -26.662088 -19.010296
v 35.498703 -25.713490 -24.023926
v 4.196857 -20.684046 8.250431
v -4.366560 -17.179049 11.895388
v 32.246597 -22.029099 -24.336349
v 1.936485 -12.071848 6.243291
v -2.299523 -0.220823 6.125855
v 11.606299 -5.688904 -4.169030
v 8.725148 -14.963098 3.046978
v 19.073267 -14.560780 -6.548203
v 13.936818 -14.184008 -1.778226
vt 0.000000 0.000000
vt 0.000000 0.000000
vt 0.000000 0.000000
vt 0.000000 0.000000
vt 0.000000 0.000000
vt 0.000000 0.000000
vt 0.000000 0.000000
vt 0.000000 0.000000
vt 0.000000 0.000000
vt 0.000000 0.000000
vt 0.000000 0.000000
vt 0.000000 0.000000
vt 0.000000 0.000000
vt 0.000000 0.000000
vt 0.000000 0.000000
vt 0.000000 0.000000
vt 0.000000 0.000000
vt 0.000000 0.000000
vt 0.000000 0.000000
vt 0.000000 0.000000
vt 0.000000 0.000000
vt 0.000000 0.000000
vt 0.000000 0.000000
vt 0.000000 0.000000
vt 0.000000 0.000000
vt 0.000000 0.000000
vt 0.000000 0.000000
vt 0.000000 0.000000
vt 0.000000 0.000000
vt 0.000000 0.000000
vt 0.000000 0.000000
vt 0.000000 0.000000
vt 0.000000 0.000000
vt 0.000000 0.000000
vt 0.000000 0.000000
vt 0.000000 0.000000
vt 0.000000 0.000000
vt 0.000000 0.000000
vt 0.000000 0.000000
vt 0.000000 0.000000
vt 0.000000 0.000000
vt 0.000000 0.000000
vt 0.000000 0.000000
vt 0.000000 0.000000
vt 0.000000 0.000000
vt 0.000000 0.000000
vt 0.000000 0.000000
vt 0.000000 0.000000
vt 0.000000 0.000000
vt 0.000000 0.000000
vt 0.000000 0.000000
vt 0.000000 0.000000
vt 0.000000 0.000000
vt 0.000000 0.000000
vt 0.000000 0.000000
vt 0.000000 0.000000
vt 0.000000 0.000000
vt 0.000000 0.000000
vt 0.000000 0.000000
vt 0.000000 0.000000
vt 0.000000 0.000000
vt 0.000000 0.000000
vt 0.000000 0.000000
vt 0.000000 0.000000
vt 0.000000 0.000000
vt 0.000000 0.000000
vt 0.000000 0.000000
vt 0.000000 0.000000
vt 0.000000 0.000000
vn -0.8032 -0.2220 -0.5528
vn -0.7670 -0.2002 -0.6097
vn -0.6983 -0.2498 -0.6708
vn -0.7066 -0.2235 -0.6714
vn -0.8313 -0.5266 -0.1778
vn -0.6980 -0.2336 -0.6769
vn -0.7923 -0.3631 -0.4903
vn -0.7496 -0.6618 -0.0019
vn -0.7573 -0.6523 -0.0306
vn -0.8050 -0.5784 -0.1319
vn -0.5710 -0.2434 -0.7840
vn -0.8284 -0.3499 -0.4375
vn -0.4003 -0.0253 -0.9161
vn -0.6976 -0.6913 -0.1883
vn -0.5025 -0.2466 -0.8287
vn -0.6615 -0.3155 -0.6803
vn -0.6314 -0.3216 -0.7056
vn -0.7765 -0.5928 -0.2134
vn -0.6082 -0.1397 -0.7814
vn -0.4895 -0.1263 -0.8628
vn -0.4841 -0.0046 -0.8750
vn -0.6900 -0.4545 -0.5633
vn -0.4773 -0.3304 -0.8142
vn -0.4689 -0.0762 -0.8800
vn -0.6116 -0.3524 -0.7084
vn -0.5644 -0.4133 -0.7146
vn -0.5510 -0.5187 -0.6537
vn -0.6557 -0.4173 -0.6293
vn -0.6257 -0.6141 -0.4811
vn -0.4696 -0.6522 -0.5951
vn -0.6640 -0.3751 -0.6469
vn -0.5149 -0.2992 -0.8034
vn -0.6191 -0.2622 -0.7402
vn -0.6925 -0.6167 -0.3743
vn 0.1129 -0.8950 0.4316
vn 0.2139 -0.9177 0.3347
vn 0.1218 0.7777 -0.6168
vn 0.0037 0.8477 -0.5304
vn 0.7293 -0.4149 -0.5440
vn 0.0647 -0.8781 0.4741
vn 0.3241 0.6018 -0.7299
vn -0.0796 -0.8053 0.5875
vn 0.4993 0.3745 -0.7813
vn -0.5876 0.7947 0.1524
vn -0.1349 -0.7685 0.6254
vn 0.0540 -0.8738 0.4832
vn -0.4227 0.9013 -0.0950
vn -0.1593 0.9076 -0.3884
vn 0.1641 0.7471 -0.6442
vn -0.0577 -0.8185 0.5716
vn 0.5587 -0.8229 -0.1031
vn -0.7015 0.5840 0.4085
vn -0.6397 -0.3273 -0.6955
vn -0.8113 -0.5410 -0.2216
vn -0.7392 -0.3802 -0.5559
vn -0.7316 -0.3626 -0.5773
vn -0.7131 -0.3643 -0.5990
vn -0.7263 -0.3522 -0.5902
vn -0.7274 -0.6585 -0.1930
vn -0.7032 -0.6758 -0.2207
vn -0.5685 -0.3199 -0.7579
vn -0.4782 -0.3164 -0.8192
vn -0.7568 -0.2701 -0.5952
vn -0.7564 -0.2701 -0.5958
vn -0.6025 -0.3650 -0.7097
vn -0.8350 -0.4611 -0.3002
vn -0.6476 -0.3658 -0.6685
vn -0.4542 -0.5070 -0.7326
vn -0.6091 -0.1165 -0.7845
vn -0.7877 -0.2869 -0.5452
vn -0.6375 -0.2351 -0.7337
vn -0.5042 -0.3277 -0.7990
vn -0.5261 -0.4144 -0.7426
vn -0.5117 -0.3201 -0.7973
vn -0.8357 -0.4607 -0.2988
vn 0.4931 0.0570 0.8681
usemtl None
s off
f 1/1/1 5/2/1 3/3/1
f 1/1/2 2/4/2 5/2/2
f 2/4/3 9/5/3 5/2/3
f 9/5/4 18/6/4 5/2/4
f 3/3/5 16/7/5 4/8/5
f 9/5/6 6/9/6 18/6/6
f 3/3/7 5/2/7 16/7/7
f 13/10/8 4/8/8 17/11/8
f 4/8/9 16/7/9 17/11/9
f 19/12/10 17/11/10 18/6/10
f 6/9/11 14/13/11 12/14/11
f 5/2/12 18/6/12 16/7/12
f 10/15/13 11/16/13 22/17/13
f 17/11/14 16/7/14 18/6/14
f 10/15/15 12/14/15 14/13/15
f 6/9/16 15/18/16 18/6/16
f 12/14/17 15/18/17 6/9/17
f 21/19/18 19/12/18 18/6/18
f 12/14/19 10/15/19 7/20/19
f 10/15/20 22/17/20 7/20/20
f 11/16/21 20/21/21 22/17/21
f 18/6/22 15/18/22 21/19/22
f 7/20/23 22/17/23 26/22/23
f 22/17/24 20/21/24 23/23/24
f 12/14/25 7/20/25 26/22/25
f 15/18/26 12/14/26 25/24/26
f 25/24/27 8/25/27 15/18/27
f 25/24/28 12/14/28 26/22/28
f 15/18/29 8/25/29 21/19/29
f 25/24/30 27/26/30 8/25/30
f 26/22/31 24/27/31 25/24/31
f 22/17/32 24/27/32 26/22/32
f 22/17/33 23/23/33 24/27/33
f 25/24/34 24/27/34 27/26/34
f 50/28/35 31/29/35 32/30/35 46/31/35
f 1/1/36 38/32/36 40/33/36 2/4/36
f 27/26/37 47/34/37 45/35/37 8/25/37
f 8/25/38 45/35/38 51/36/38 21/19/38
f 3/3/39 35/37/39 38/32/39 1/1/39
f 14/13/40 46/31/40 44/38/40 10/15/40
f 19/12/41 48/39/41 41/40/41 17/11/41
f 10/15/42 44/38/42 43/41/42 11/16/42
f 13/10/43 37/42/43 39/43/43 4/8/43
f 23/23/44 52/44/44 42/45/44 24/27/44
f 9/5/45 36/46/45 50/28/45 6/9/45
f 11/16/46 43/41/46 49/47/46 20/21/46
f 21/19/47 51/36/47 48/39/47 19/12/47
f 24/27/48 42/45/48 47/34/48 27/26/48
f 17/11/49 41/40/49 37/42/49 13/10/49
f 2/4/50 40/33/50 36/46/50 9/5/50
f 4/8/51 39/43/51 35/37/51 3/3/51
f 6/9/35 50/28/35 46/31/35 14/13/35
f 39/43/51 60/48/51 59/49/51 35/37/51
f 40/33/50 58/50/50 56/51/50 36/46/50
f 41/40/49 57/52/49 63/53/49 37/42/49
f 42/45/48 65/54/48 28/55/48 47/34/48
f 51/36/47 33/56/47 34/57/47 48/39/47
f 43/41/46 62/58/46 30/59/46 49/47/46
f 36/46/45 56/51/45 31/29/45 50/28/45
f 52/44/44 29/60/44 65/54/44 42/45/44
f 37/42/43 63/53/43 60/48/43 39/43/43
f 44/38/42 61/61/42 62/58/42 43/41/42
f 48/39/41 34/57/41 57/52/41 41/40/41
f 46/31/40 32/30/40 61/61/40 44/38/40
f 35/37/39 59/49/39 55/62/39 38/32/39
f 45/35/38 66/63/38 33/56/38 51/36/38
f 47/34/37 28/55/37 66/63/37 45/35/37
f 38/32/36 55/62/36 58/50/36 40/33/36
f 49/47/52 30/59/52 29/60/52 52/44/52
f 20/21/52 49/47/52 52/44/52 23/23/52
f 59/49/53 55/62/53 54/64/53
f 34/57/54 57/52/54 33/56/54
f 55/62/55 58/50/55 53/65/55
f 55/62/56 53/65/56 54/64/56
f 58/50/57 56/51/57 53/65/57
f 56/51/58 31/29/58 53/65/58
f 60/48/59 59/49/59 63/53/59
f 54/64/60 63/53/60 59/49/60
f 31/29/61 32/30/61 67/66/61
f 61/61/62 62/58/62 64/67/62
f 53/65/63 68/68/63 33/56/63
f 54/64/64 53/65/64 33/56/64
f 31/29/65 67/66/65 69/69/65
f 54/64/66 33/56/66 57/52/66
f 33/56/67 68/68/67 66/63/67
f 66/63/68 64/67/68 28/55/68
f 62/58/69 29/60/69 64/67/69
f 28/55/70 64/67/70 65/54/70
f 65/54/71 64/67/71 29/60/71
f 67/66/72 32/30/72 61/61/72
f 66/63/73 67/66/73 64/67/73
f 61/61/74 64/67/74 67/66/74
f 69/69/65 67/66/65 66/63/65
f 68/68/63 53/65/63 31/29/63
f 69/69/67 68/68/67 31/29/67
f 66/63/67 68/68/67 69/69/67
f 57/52/75 63/53/75 54/64/75
f 30/59/76 62/58/76 29/60/76
