$MeshFormat
2.2 0 8
$EndMeshFormat
$Nodes
69
1 0.2976779937744141 -0.09352900087833405 -0.1397649943828583
2 0.2751260101795197 -0.03419199958443642 -0.130854994058609
3 0.3034799993038177 -0.04753600060939789 -0.1665340065956116
4 0.2645510137081146 -0.08716099709272385 -0.1003250032663345
5 0.2102860063314438 -0.0532739982008934 -0.05659300088882446
6 0.248418003320694 0.01350300014019012 -0.1186039969325066
7 0.2673420011997223 0.001792000024579465 -0.1448660045862198
8 0.3067750036716461 -0.04072500020265579 -0.2014710009098053
9 0.1734610050916672 -0.02444300055503845 -0.02863699942827225
10 0.2840180099010468 -0.01508599985390902 -0.2035360038280487
11 0.2435069978237152 0.03013800084590912 -0.1607439965009689
12 0.2110829949378967 0.07053200155496597 -0.1414380073547363
13 0.1246360018849373 -0.01520300004631281 0.00394099997356534
14 0.1189490035176277 0.0374860018491745 -0.008107000030577183
15 0.08820799738168716 -0.007462000008672476 0.02365499921143055
16 0.02839200012385845 0.01667499914765358 0.04916099831461906
17 0.03483600169420242 0.05069399997591972 0.04554000124335289
18 0.1630340069532394 0.07568799704313278 -0.06461499631404877
19 0.2021580040454865 0.06975200027227402 -0.1074210032820702
20 0.07955799996852875 0.04770400002598763 0.02066699974238873
21 -0.03715499863028526 0.03223999962210655 0.08534599840641022
22 0.06298799812793732 0.09734500199556351 0.01041200011968613
23 -0.00182400003541261 0.09194699674844742 0.06161199882626534
24 0.1009730026125908 0.09055700153112411 -0.02443400025367737
25 0.139627993106842 0.09771700203418732 -0.06239699944853783
26 0.08559100329875946 0.1200639978051186 -0.04449500143527985
27 0.04248299822211266 0.1352079957723618 0.00953999999910593
28 0.1839769929647446 -0.01849500089883804 -0.01901699975132942
29 0.1944929957389832 -0.01256200019270182 -0.00938200019299984
30 0.1456679999828339 -0.003337000031024218 0.02319600060582161
31 0.1351519972085953 -0.009270000271499157 0.01356100011616945
32 0.3081899881362915 -0.08758000284433365 -0.1301299929618835
33 0.2750659883022308 -0.08121299743652344 -0.09070499986410141
34 0.09610699862241745 0.125997006893158 -0.03486000001430511
35 0.1501439958810806 0.1036650016903877 -0.05276099964976311
36 0.212674006819725 0.07568500190973282 -0.09780099987983704
37 0.3139959871768951 -0.04160299897193909 -0.1569139957427979
38 0.09872400015592575 -0.001514000003226101 0.03327599912881851
39 0.2215950042009354 0.07648000121116638 -0.1318030059337616
40 0.2540229856967926 0.03608699887990952 -0.1511230021715164
41 0.03890800103545189 0.02262300066649914 0.05878100171685219
42 0.2945339977741241 -0.009153000079095364 -0.193901002407074
43 0.3172909915447235 -0.03479199856519699 -0.1918500065803528
44 0.008692000061273575 0.09787999838590622 0.07123199850320816
45 0.05299900099635124 0.1411409974098206 0.01916000060737133
46 0.2208019942045212 -0.0473410002887249 -0.04695700109004974
47 -0.02663899958133698 0.03818900138139725 0.09496600180864334
48 0.327802985906601 -0.02885900065302849 -0.1822150051593781
49 0.3245120048522949 -0.03567000105977058 -0.1472939997911453
50 0.2855820059776306 -0.07528000324964523 -0.08106999844312668
51 0.2313179969787598 -0.04139300063252449 -0.03733700141310692
52 0.2645390033721924 0.04202000051736832 -0.1414880007505417
53 0.3050499856472015 -0.003220000071451068 -0.1842810064554214
54 0.06351500004529953 0.1470739990472794 0.02879500016570091
55 0.106623001396656 0.1319289952516556 -0.02524000033736229
56 0.2231899946928024 0.08161800354719162 -0.08818099647760391
57 0.232111006975174 0.08241300284862518 -0.1221830025315285
58 0.04942400008440018 0.02855600044131279 0.06841599941253662
59 -0.01612300053238869 0.04412100091576576 0.1045859977602959
60 0.01920400001108646 0.103813000023365 0.08085200190544128
61 0.1092360019683838 0.004418999888002872 0.04291100054979324
62 0.3187049925327301 -0.08164799958467484 -0.120509997010231
63 0.1606599986553192 0.1095980033278465 -0.04314099997282028
64 0.2801769971847534 0.002748999977484345 -0.1246500015258789
65 0.2433049976825714 0.00189499999396503 -0.07766599953174591
66 0.1407269984483719 0.044599998742342 0.006837000139057636
67 0.09330400079488754 0.06450200080871582 0.02920100092887878
68 0.2129330039024353 0.04796399921178818 -0.06000899896025658
69 0.1770790070295334 0.05031200125813484 -0.02675599977374077
$EndNodes
$Elements
282
1 2 2 0 1 1 2 3
2 2 2 0 1 1 4 2
3 2 2 0 1 3 32 1
4 2 2 0 1 1 33 4
5 2 2 0 1 1 32 33
6 2 2 0 1 3 2 7
7 2 2 0 1 4 5 2
8 2 2 0 1 5 6 2
9 2 2 0 1 2 6 7
10 2 2 0 1 3 7 8
11 2 2 0 1 8 37 3
12 2 2 0 1 3 37 32
13 2 2 0 1 4 46 5
14 2 2 0 1 4 33 46
15 2 2 0 1 5 9 6
16 2 2 0 1 5 28 9
17 2 2 0 1 5 46 28
18 2 2 0 1 11 7 6
19 2 2 0 1 9 18 6
20 2 2 0 1 12 11 6
21 2 2 0 1 19 12 6
22 2 2 0 1 6 18 19
23 2 2 0 1 8 7 11
24 2 2 0 1 10 8 11
25 2 2 0 1 10 43 8
26 2 2 0 1 8 43 37
27 2 2 0 1 9 13 14
28 2 2 0 1 9 31 13
29 2 2 0 1 14 18 9
30 2 2 0 1 9 28 31
31 2 2 0 1 11 42 10
32 2 2 0 1 10 42 43
33 2 2 0 1 12 40 11
34 2 2 0 1 11 40 42
35 2 2 0 1 19 39 12
36 2 2 0 1 12 39 40
37 2 2 0 1 15 14 13
38 2 2 0 1 13 38 15
39 2 2 0 1 13 31 38
40 2 2 0 1 14 15 20
41 2 2 0 1 18 14 24
42 2 2 0 1 14 20 22
43 2 2 0 1 24 14 22
44 2 2 0 1 15 16 17
45 2 2 0 1 15 41 16
46 2 2 0 1 15 17 20
47 2 2 0 1 15 38 41
48 2 2 0 1 16 21 17
49 2 2 0 1 16 47 21
50 2 2 0 1 16 41 47
51 2 2 0 1 20 17 22
52 2 2 0 1 17 21 23
53 2 2 0 1 17 27 22
54 2 2 0 1 17 23 27
55 2 2 0 1 18 25 19
56 2 2 0 1 24 25 18
57 2 2 0 1 25 36 19
58 2 2 0 1 19 36 39
59 2 2 0 1 21 44 23
60 2 2 0 1 21 47 44
61 2 2 0 1 22 27 24
62 2 2 0 1 23 45 27
63 2 2 0 1 23 44 45
64 2 2 0 1 24 26 25
65 2 2 0 1 24 27 26
66 2 2 0 1 26 35 25
67 2 2 0 1 25 35 36
68 2 2 0 1 27 34 26
69 2 2 0 1 26 34 35
70 2 2 0 1 27 45 34
71 2 2 0 1 28 29 30
72 2 2 0 1 46 29 28
73 2 2 0 1 28 30 31
74 2 2 0 1 29 30 66
75 2 2 0 1 46 51 29
76 2 2 0 1 51 29 65
77 2 2 0 1 68 65 29
78 2 2 0 1 29 66 69
79 2 2 0 1 69 68 29
80 2 2 0 1 31 30 61
81 2 2 0 1 66 30 61
82 2 2 0 1 31 61 38
83 2 2 0 1 32 50 33
84 2 2 0 1 37 62 32
85 2 2 0 1 32 62 50
86 2 2 0 1 33 51 46
87 2 2 0 1 33 50 51
88 2 2 0 1 34 63 35
89 2 2 0 1 45 55 34
90 2 2 0 1 34 55 63
91 2 2 0 1 35 56 36
92 2 2 0 1 35 63 56
93 2 2 0 1 36 57 39
94 2 2 0 1 36 56 57
95 2 2 0 1 43 49 37
96 2 2 0 1 37 49 62
97 2 2 0 1 38 58 41
98 2 2 0 1 38 61 58
99 2 2 0 1 39 52 40
100 2 2 0 1 39 57 52
101 2 2 0 1 40 53 42
102 2 2 0 1 40 52 53
103 2 2 0 1 41 59 47
104 2 2 0 1 41 58 59
105 2 2 0 1 42 48 43
106 2 2 0 1 42 53 48
107 2 2 0 1 43 48 49
108 2 2 0 1 44 54 45
109 2 2 0 1 47 60 44
110 2 2 0 1 44 60 54
111 2 2 0 1 45 54 55
112 2 2 0 1 47 59 60
113 2 2 0 1 48 49 53
114 2 2 0 1 64 53 49
115 2 2 0 1 49 62 64
116 2 2 0 1 50 51 65
117 2 2 0 1 62 50 65
118 2 2 0 1 52 53 64
119 2 2 0 1 57 52 56
120 2 2 0 1 64 56 52
121 2 2 0 1 55 67 54
122 2 2 0 1 54 67 60
123 2 2 0 1 63 67 55
124 2 2 0 1 56 68 63
125 2 2 0 1 64 65 56
126 2 2 0 1 65 68 56
127 2 2 0 1 59 58 60
128 2 2 0 1 58 60 67
129 2 2 0 1 61 58 67
130 2 2 0 1 61 67 66
131 2 2 0 1 62 65 64
132 2 2 0 1 63 66 67
133 2 2 0 1 69 66 63
134 2 2 0 1 63 68 69
135 4 2 0 1 6 9 5 65
136 4 2 0 1 11 43 7 8
137 4 2 0 1 64 62 65 2
138 4 2 0 1 69 9 14 18
139 4 2 0 1 9 69 68 18
140 4 2 0 1 28 66 31 30
141 4 2 0 1 14 22 67 24
142 4 2 0 1 54 60 22 67
143 4 2 0 1 8 37 7 3
144 4 2 0 1 25 36 18 19
145 4 2 0 1 35 18 25 36
146 4 2 0 1 58 60 67 17
147 4 2 0 1 47 60 17 44
148 4 2 0 1 37 8 7 43
149 4 2 0 1 21 44 17 23
150 4 2 0 1 69 29 28 68
151 4 2 0 1 30 28 66 29
152 4 2 0 1 21 44 47 17
153 4 2 0 1 29 28 66 69
154 4 2 0 1 69 28 9 68
155 4 2 0 1 44 54 22 45
156 4 2 0 1 14 22 20 67
157 4 2 0 1 6 5 2 65
158 4 2 0 1 46 4 65 33
159 4 2 0 1 60 47 17 59
160 4 2 0 1 15 17 16 41
161 4 2 0 1 66 31 9 28
162 4 2 0 1 31 13 14 9
163 4 2 0 1 60 22 67 17
164 4 2 0 1 5 28 46 65
165 4 2 0 1 23 45 22 27
166 4 2 0 1 23 45 44 22
167 4 2 0 1 68 29 28 65
168 4 2 0 1 60 59 17 58
169 4 2 0 1 28 9 66 69
170 4 2 0 1 24 27 34 26
171 4 2 0 1 47 21 17 16
172 4 2 0 1 33 51 65 46
173 4 2 0 1 4 2 65 33
174 4 2 0 1 5 4 2 65
175 4 2 0 1 4 46 65 5
176 4 2 0 1 37 43 42 48
177 4 2 0 1 46 29 65 28
178 4 2 0 1 53 52 7 64
179 4 2 0 1 33 51 50 65
180 4 2 0 1 68 28 9 65
181 4 2 0 1 42 40 7 53
182 4 2 0 1 44 54 60 22
183 4 2 0 1 37 42 7 53
184 4 2 0 1 69 66 63 35
185 4 2 0 1 52 7 40 53
186 4 2 0 1 31 14 66 9
187 4 2 0 1 47 41 17 59
188 4 2 0 1 47 41 16 17
189 4 2 0 1 59 17 58 41
190 4 2 0 1 9 14 66 69
191 4 2 0 1 18 14 69 35
192 4 2 0 1 66 24 63 35
193 4 2 0 1 29 46 65 51
194 4 2 0 1 44 23 22 17
195 4 2 0 1 37 53 64 49
196 4 2 0 1 22 60 44 17
197 4 2 0 1 3 2 32 37
198 4 2 0 1 1 33 32 2
199 4 2 0 1 61 31 66 30
200 4 2 0 1 61 20 14 38
201 4 2 0 1 18 35 25 24
202 4 2 0 1 24 18 35 14
203 4 2 0 1 48 53 37 49
204 4 2 0 1 33 2 65 50
205 4 2 0 1 3 2 1 32
206 4 2 0 1 35 26 24 34
207 4 2 0 1 39 6 19 12
208 4 2 0 1 40 42 7 11
209 4 2 0 1 31 14 13 38
210 4 2 0 1 15 14 20 38
211 4 2 0 1 5 28 65 9
212 4 2 0 1 32 50 2 33
213 4 2 0 1 64 7 53 37
214 4 2 0 1 12 39 6 40
215 4 2 0 1 14 31 61 38
216 4 2 0 1 48 42 37 53
217 4 2 0 1 67 20 14 61
218 4 2 0 1 7 2 3 37
219 4 2 0 1 26 35 24 25
220 4 2 0 1 19 36 6 39
221 4 2 0 1 1 33 2 4
222 4 2 0 1 14 15 13 38
223 4 2 0 1 31 66 14 61
224 4 2 0 1 34 63 24 35
225 4 2 0 1 40 39 6 52
226 4 2 0 1 36 68 6 56
227 4 2 0 1 67 22 20 17
228 4 2 0 1 56 68 6 65
229 4 2 0 1 24 14 66 67
230 4 2 0 1 63 34 24 55
231 4 2 0 1 67 14 66 61
232 4 2 0 1 32 2 62 37
233 4 2 0 1 11 12 6 40
234 4 2 0 1 2 7 64 37
235 4 2 0 1 50 32 2 62
236 4 2 0 1 65 2 6 64
237 4 2 0 1 7 6 2 64
238 4 2 0 1 6 7 11 40
239 4 2 0 1 6 7 40 52
240 4 2 0 1 6 7 52 64
241 4 2 0 1 43 10 11 42
242 4 2 0 1 23 27 22 17
243 4 2 0 1 7 43 42 37
244 4 2 0 1 37 43 48 49
245 4 2 0 1 62 65 2 50
246 4 2 0 1 11 43 42 7
247 4 2 0 1 10 43 11 8
248 4 2 0 1 68 9 6 65
249 4 2 0 1 68 6 9 18
250 4 2 0 1 64 56 6 65
251 4 2 0 1 64 6 56 52
252 4 2 0 1 58 17 38 41
253 4 2 0 1 15 38 17 41
254 4 2 0 1 15 17 38 20
255 4 2 0 1 62 64 37 2
256 4 2 0 1 62 37 64 49
257 4 2 0 1 66 35 14 24
258 4 2 0 1 14 35 66 69
259 4 2 0 1 39 52 36 6
260 4 2 0 1 39 36 52 57
261 4 2 0 1 56 36 52 6
262 4 2 0 1 56 52 36 57
263 4 2 0 1 56 35 68 63
264 4 2 0 1 69 68 35 63
265 4 2 0 1 69 35 68 18
266 4 2 0 1 63 67 24 66
267 4 2 0 1 63 24 67 55
268 4 2 0 1 27 24 45 22
269 4 2 0 1 27 45 24 34
270 4 2 0 1 55 24 45 34
271 4 2 0 1 36 35 68 56
272 4 2 0 1 36 68 35 18
273 4 2 0 1 18 6 36 68
274 4 2 0 1 18 36 6 19
275 4 2 0 1 67 17 61 58
276 4 2 0 1 67 61 17 20
277 4 2 0 1 38 61 17 58
278 4 2 0 1 38 17 61 20
279 4 2 0 1 67 24 54 55
280 4 2 0 1 67 54 24 22
281 4 2 0 1 45 54 24 55
282 4 2 0 1 45 24 54 22
$EndElements
