$MeshFormat
2.2 0 8
$EndMeshFormat
$Nodes
217
1 26.88613510131836 -38.85143280029297 -37.62298965454102
2 24.88910865783691 -41.89269256591797 -34.5320930480957
3 20.96001815795898 -38.44883728027344 -35.94152069091797
4 22.54387092590332 -43.11504745483398 -27.49718856811523
5 18.91403007507324 -40.6386604309082 -24.11386108398438
6 19.70714378356934 -41.13608169555664 -30.51440811157227
7 30.58396911621094 -39.12331390380859 -18.78703689575195
8 31.14219665527344 -43.16593170166016 -26.06825828552246
9 34.98458480834961 -38.20022583007812 -23.38547706604004
10 23.65162467956543 -34.25667190551758 -38.92815399169922
11 27.79986000061035 -33.71192169189453 -39.27652740478516
12 25.79948616027832 -27.86249542236328 -38.4686393737793
13 31.84414482116699 -29.85552787780762 -37.08853149414062
14 31.05852317810059 -41.39099884033203 -33.79949188232422
15 35.92910003662109 -40.16958236694336 -29.35507774353027
16 22.46029281616211 -42.15052795410156 -22.98322296142578
17 17.65305137634277 -38.48558807373047 -29.90523719787598
18 19.77301979064941 -34.64529037475586 -36.2862548828125
19 36.91898345947266 -37.69054794311523 -30.49445343017578
20 34.66462707519531 -37.41849136352539 -34.80625915527344
21 36.13496398925781 -34.13239669799805 -33.17295074462891
22 27.85368537902832 -40.85024261474609 -19.94025039672852
23 21.69015884399414 -35.773681640625 -10.88510417938232
24 31.12672233581543 -36.27078628540039 -37.56704330444336
25 37.20107269287109 -34.85503005981445 -26.60669136047363
26 16.33805084228516 -34.53450775146484 -22.95314598083496
27 15.62797260284424 -32.53210830688477 -9.844790458679199
28 13.56986331939697 -31.37887191772461 -13.3370418548584
29 9.031815528869629 -29.5052547454834 -6.601861953735352
30 9.798588752746582 -29.04851150512695 -2.148191928863525
31 2.233652114868164 -29.56002998352051 -5.128505229949951
32 -6.145711898803711 -24.0805549621582 3.325114965438843
33 -0.1109090000391006 -24.6927661895752 4.357172012329102
34 -8.820681571960449 -21.6723747253418 7.073770046234131
35 6.589009761810303 -27.57058143615723 -13.05768871307373
36 -0.4307189881801605 -27.73549842834473 -10.02972507476807
37 -0.2992540001869202 -16.41122817993164 -22.71179389953613
38 0.1852400004863739 -22.49682426452637 -17.83427619934082
39 -5.209764957427979 -13.79209613800049 -19.45108222961426
40 18.52082633972168 -35.64817047119141 -12.61882781982422
41 23.43924713134766 -17.20170593261719 -20.98083305358887
42 29.2242317199707 -23.73636817932129 -27.08603668212891
43 24.1474494934082 -20.83344841003418 -30.44926643371582
44 22.07707214355469 -34.38600921630859 -9.299816131591797
45 32.47634124755859 -27.4207592010498 -26.77362823486328
46 30.43088150024414 -25.112060546875 -33.76080322265625
47 26.41282844543457 -33.98458862304688 -12.23366928100586
48 31.15542602539062 -34.94034194946289 -17.88638877868652
49 20.68966293334961 -30.69936943054199 -36.59328460693359
50 17.37275505065918 -30.43757629394531 -29.78854370117188
51 15.55542945861816 -30.0256175994873 -4.70097017288208
52 18.65072059631348 -29.07118606567383 -5.981925964355469
53 10.082932472229 -27.73247146606445 -0.6090859770774841
54 14.55638027191162 -26.30949211120605 -26.94339561462402
55 33.51845932006836 -31.82090950012207 -23.03973388671875
56 14.26472282409668 -30.86348533630371 -20.41695022583008
57 0.7016540169715881 -28.51351356506348 -0.9816460013389587
58 -1.836127996444702 -28.41946601867676 -3.698142051696777
59 34.70775985717773 -29.98157501220703 -33.12601089477539
60 32.00473785400391 -28.36935997009277 -21.75996780395508
61 27.94856834411621 -26.41770172119141 -16.64995956420898
62 1.174494028091431 -22.39130401611328 5.50077486038208
63 17.35254669189453 -26.32291603088379 -31.60664749145508
64 19.53965377807617 -24.30499458312988 -34.47361373901367
65 9.986235618591309 -28.37698936462402 -14.26678085327148
66 -7.548821926116943 -24.67221450805664 -0.744379997253418
67 11.05830383300781 -26.66582107543945 -21.05537796020508
68 21.65068054199219 -22.21966361999512 -34.5362434387207
69 25.82101440429688 -24.34692001342773 -36.29304122924805
70 7.399333953857422 -24.21225357055664 -20.88301277160645
71 24.14081192016602 -19.55862998962402 -14.92649364471436
72 -4.201088905334473 -25.48695755004883 -10.61761856079102
73 -5.685450077056885 -25.68299102783203 -6.379731178283691
74 13.38608169555664 -24.90078353881836 -1.992342948913574
75 6.392618179321289 -23.53185653686523 2.675862073898315
76 9.161046981811523 -21.29166603088379 -25.60434341430664
77 6.68375301361084 -9.778070449829102 -26.30648803710938
78 6.299178123474121 -6.539513111114502 -23.4098072052002
79 9.312789916992188 -12.6243143081665 -28.11485862731934
80 17.77289772033691 -19.85110473632812 -33.87420272827148
81 26.84619331359863 -21.26473808288574 -18.68456268310547
82 6.293206214904785 -16.32074165344238 -26.56581497192383
83 -30.38908386230469 5.59932279586792 3.3161940574646
84 -29.06061172485352 4.137209892272949 1.106289029121399
85 -32.523681640625 1.085983991622925 1.022032022476196
86 -10.46312522888184 -21.43939971923828 -5.875977039337158
87 -12.16686820983887 -23.29059982299805 2.564976930618286
88 11.87888717651367 -17.33209609985352 -30.99979591369629
89 -29.15294456481934 -22.87091636657715 6.792734146118164
90 -22.60251998901367 -21.69034004211426 -0.1610070019960403
91 -15.28940200805664 -20.69685745239258 -3.8854660987854
92 -16.7768383026123 -16.60040473937988 14.32752132415771
93 -22.58701705932617 -13.7489185333252 15.99426078796387
94 -26.94271278381348 -18.09896469116211 14.78529071807861
95 -28.03909492492676 -22.19781112670898 10.35702991485596
96 -35.21212387084961 -19.73807907104492 6.071725845336914
97 -36.86615371704102 -17.33035087585449 5.896169185638428
98 -37.38481140136719 -8.692790985107422 2.069108963012695
99 -35.95317459106445 -19.86766624450684 11.03361797332764
100 -27.8011474609375 -20.8343505859375 12.69192218780518
101 18.80917739868164 -11.38245010375977 -18.23837280273438
102 -8.519213676452637 -17.27773475646973 -14.63348293304443
103 5.598508834838867 -15.98374843597412 0.9111769795417786
104 -7.388924121856689 -18.88631820678711 9.145716667175293
105 13.69059753417969 -15.55510902404785 -31.67600059509277
106 -30.51714515686035 -21.83167839050293 4.709158897399902
107 -18.63718795776367 -18.93562889099121 13.19747924804688
108 16.89801406860352 -16.00517654418945 -31.54438591003418
109 -14.6962423324585 -11.3528938293457 -13.92045307159424
110 -14.12935638427734 -15.4371862411499 -11.16650199890137
111 -25.77117919921875 -18.37677574157715 -3.569556951522827
112 -45.81153106689453 -9.00347900390625 12.18236923217773
113 -43.78835296630859 -5.035711765289307 9.078461647033691
114 -6.450597763061523 -14.01462936401367 8.601192474365234
115 -58.4586067199707 -16.69046783447266 24.91166687011719
116 -62.96720123291016 -17.76991844177246 24.55485343933105
117 -62.73886108398438 -19.46297645568848 24.53915214538574
118 -63.66206741333008 -19.50065231323242 21.56566429138184
119 -62.35434722900391 -20.51294708251953 22.45947456359863
120 -57.21810913085938 -17.51347732543945 19.41778182983398
121 -53.25391006469727 -16.65717506408691 19.82526016235352
122 -57.70750045776367 -18.71649169921875 22.29166984558105
123 -59.64590835571289 -15.21682071685791 23.23988151550293
124 -54.66064834594727 -13.29146385192871 20.11359977722168
125 -62.85102844238281 -16.84688758850098 21.97268104553223
126 -4.54056978225708 -9.533461570739746 -20.65027618408203
127 2.640568017959595 -11.10758686065674 -25.26456832885742
128 -34.60314559936523 -17.69103622436523 13.65592098236084
129 -34.34252166748047 -12.6078634262085 14.74197959899902
130 17.26070404052734 -13.00243663787842 -26.22136878967285
131 13.92044544219971 -7.856626033782959 -21.53711318969727
132 11.92996501922607 -10.56712532043457 -7.222898960113525
133 -32.51364517211914 -12.58671569824219 -0.05196899920701981
134 -27.90831565856934 -14.99231052398682 -3.772808074951172
135 -52.97316360473633 -15.28325939178467 22.06535530090332
136 -53.52665328979492 -14.31752300262451 17.39291572570801
137 -21.18972969055176 -15.37678241729736 -6.838075160980225
138 -47.82598876953125 -12.8473539352417 14.19460391998291
139 -44.88249588012695 -13.47465419769287 15.12910079956055
140 -42.16928100585938 -10.68445301055908 11.81932544708252
141 -40.63196182250977 -9.224582672119141 6.64616584777832
142 17.53304290771484 -11.46662139892578 -13.3611536026001
143 -0.04245200008153915 -14.48024272918701 5.033524990081787
144 -39.89664459228516 -11.70475578308105 10.62120723724365
145 -21.00684356689453 -9.215770721435547 -10.10893630981445
146 -37.98939514160156 -10.77609539031982 13.72870063781738
147 -47.1600227355957 -14.80955982208252 18.29647636413574
148 -33.37365341186523 -7.050989151000977 12.60862064361572
149 -42.30848693847656 -8.115762710571289 15.44705772399902
150 -11.68808174133301 -8.07358455657959 10.87725067138672
151 -21.33924674987793 -11.1049280166626 15.77444839477539
152 -44.31035232543945 -12.4288387298584 17.96991920471191
153 -11.58619499206543 -7.783394813537598 -16.93806457519531
154 -24.10404968261719 -8.835330963134766 -7.33283805847168
155 -11.05325984954834 1.035567045211792 -10.71619701385498
156 -7.980380058288574 1.78448498249054 -8.075592041015625
157 -3.403604984283447 -2.465559005737305 -16.74539375305176
158 -29.73075866699219 -7.154316902160645 -1.78193998336792
159 -35.81284332275391 -4.605097770690918 0.6830220222473145
160 -2.397994041442871 -7.364220142364502 3.526973962783813
161 -49.52082061767578 -11.01834487915039 18.93039512634277
162 -50.04426574707031 -10.03702259063721 16.57890510559082
163 -45.12983322143555 -7.58939790725708 14.55284976959229
164 -5.771038055419922 -2.92793607711792 -17.79627227783203
165 -12.61109733581543 2.22829008102417 -6.839240074157715
166 -14.33290672302246 1.907647013664246 0.1057889983057976
167 14.80341053009033 -7.695851802825928 -16.44023704528809
168 -40.27873611450195 -9.507081985473633 14.37746238708496
169 -19.44088745117188 -6.388607978820801 -10.76081657409668
170 3.04195499420166 -8.379927635192871 -1.467422962188721
171 -27.14328384399414 -2.837464094161987 -1.93022894859314
172 -44.36514282226562 -4.424920082092285 12.13238143920898
173 -43.05405426025391 -4.820714950561523 13.59611797332764
174 -39.81713104248047 -1.958220958709717 10.24233722686768
175 -23.96891212463379 -8.348876953125 14.77961444854736
176 -23.23042869567871 -5.346979141235352 12.26868057250977
177 -37.34470748901367 -2.653876066207886 11.96890640258789
178 -33.77524185180664 -1.165061950683594 9.834898948669434
179 -36.40404891967773 0.6183419823646545 7.915144920349121
180 -1.43953001499176 -4.587364196777344 -20.02597427368164
181 8.583918571472168 -7.396160125732422 -6.9187331199646
182 -17.27964019775391 -6.062003135681152 12.20602416992188
183 -24.14244842529297 -3.922333002090454 -4.006731986999512
184 9.194559097290039 -5.691975116729736 -10.93801116943359
185 9.915472030639648 -4.810416221618652 -16.13298797607422
186 -27.07870101928711 -2.629436016082764 7.502098083496094
187 -19.66366958618164 -2.301862001419067 6.898860931396484
188 0.8470479846000671 -4.15735912322998 -4.363380908966064
189 -5.321887016296387 -1.928094029426575 3.376168012619019
190 -12.12060928344727 -2.73245096206665 8.537991523742676
191 -18.48197746276855 -1.057407975196838 -7.797327041625977
192 1.77393901348114 -3.756150007247925 -9.023170471191406
193 -6.078536987304688 0.8685470223426819 1.310322999954224
194 6.836844921112061 -4.568404197692871 -20.10930824279785
195 -37.50332641601562 -0.8575929999351501 5.19721794128418
196 -24.55208206176758 -1.410455942153931 1.034276008605957
197 -23.05364418029785 -1.752982974052429 -0.7881489992141724
198 -17.17513847351074 1.299255013465881 -5.32948112487793
199 -27.70034408569336 8.160614013671875 2.304910898208618
200 -26.03369903564453 5.280708789825439 2.666749000549316
201 -0.4697589874267578 -2.78386402130127 -14.01187038421631
202 -22.37857627868652 -1.590000987052917 3.274818897247314
203 -25.6741828918457 -0.7765520215034485 5.557074069976807
204 -25.14626312255859 1.590646982192993 2.664779901504517
205 -29.52127456665039 1.392603993415833 8.052822113037109
206 -26.38344573974609 5.313593864440918 5.093062877655029
207 -6.740035057067871 1.966725945472717 -2.568861961364746
208 -27.19442939758301 8.290314674377441 5.177196979522705
209 -25.50584030151367 10.03925704956055 2.306293964385986
210 -30.16646957397461 4.46941089630127 5.36480712890625
211 -25.02153968811035 8.249035835266113 3.789752960205078
212 26.74461548294197 -33.45486085467776 -28.78934224519315
213 -14.20272681004138 -9.831471970264742 0.0009708279841425531
214 -24.68311192724828 -12.35660447266201 5.551009375311467
215 7.80958811684985 -13.81402812039992 -17.66311646689843
216 14.33023990717905 -20.10277576369583 -15.18974004110409
217 -4.441013995173471 -12.331773051335 -6.519087195091167
$EndNodes
$Elements
990
1 2 2 0 1 1 2 3
2 2 2 0 1 14 2 1
3 2 2 0 1 10 1 3
4 2 2 0 1 1 10 11
5 2 2 0 1 24 1 11
6 2 2 0 1 24 14 1
7 2 2 0 1 2 6 3
8 2 2 0 1 2 4 6
9 2 2 0 1 8 4 2
10 2 2 0 1 14 8 2
11 2 2 0 1 3 6 17
12 2 2 0 1 3 18 10
13 2 2 0 1 3 17 18
14 2 2 0 1 4 5 6
15 2 2 0 1 4 16 5
16 2 2 0 1 4 8 16
17 2 2 0 1 6 5 17
18 2 2 0 1 5 16 40
19 2 2 0 1 17 5 26
20 2 2 0 1 26 5 27
21 2 2 0 1 27 5 40
22 2 2 0 1 7 8 9
23 2 2 0 1 22 8 7
24 2 2 0 1 7 9 47
25 2 2 0 1 22 7 44
26 2 2 0 1 7 47 44
27 2 2 0 1 8 15 9
28 2 2 0 1 8 14 15
29 2 2 0 1 8 22 16
30 2 2 0 1 9 15 25
31 2 2 0 1 55 9 25
32 2 2 0 1 9 48 47
33 2 2 0 1 9 60 48
34 2 2 0 1 9 55 60
35 2 2 0 1 11 10 12
36 2 2 0 1 10 49 12
37 2 2 0 1 10 18 49
38 2 2 0 1 11 12 13
39 2 2 0 1 24 11 13
40 2 2 0 1 13 12 69
41 2 2 0 1 12 49 68
42 2 2 0 1 12 68 69
43 2 2 0 1 21 20 13
44 2 2 0 1 20 24 13
45 2 2 0 1 59 21 13
46 2 2 0 1 13 46 59
47 2 2 0 1 46 13 69
48 2 2 0 1 14 20 15
49 2 2 0 1 20 14 24
50 2 2 0 1 19 15 20
51 2 2 0 1 25 15 19
52 2 2 0 1 16 22 23
53 2 2 0 1 23 40 16
54 2 2 0 1 18 17 50
55 2 2 0 1 17 26 50
56 2 2 0 1 18 50 49
57 2 2 0 1 19 20 21
58 2 2 0 1 19 21 25
59 2 2 0 1 25 21 59
60 2 2 0 1 23 22 44
61 2 2 0 1 40 23 27
62 2 2 0 1 51 27 23
63 2 2 0 1 23 44 51
64 2 2 0 1 45 55 25
65 2 2 0 1 25 59 45
66 2 2 0 1 26 27 28
67 2 2 0 1 56 26 28
68 2 2 0 1 50 26 54
69 2 2 0 1 56 54 26
70 2 2 0 1 28 27 29
71 2 2 0 1 27 30 29
72 2 2 0 1 27 51 30
73 2 2 0 1 65 28 29
74 2 2 0 1 56 28 65
75 2 2 0 1 29 30 31
76 2 2 0 1 29 31 35
77 2 2 0 1 65 29 35
78 2 2 0 1 31 30 57
79 2 2 0 1 30 53 33
80 2 2 0 1 57 30 33
81 2 2 0 1 53 30 51
82 2 2 0 1 35 31 36
83 2 2 0 1 31 58 36
84 2 2 0 1 31 57 58
85 2 2 0 1 32 33 34
86 2 2 0 1 32 57 33
87 2 2 0 1 87 32 34
88 2 2 0 1 58 57 32
89 2 2 0 1 58 32 66
90 2 2 0 1 87 66 32
91 2 2 0 1 104 34 33
92 2 2 0 1 33 53 62
93 2 2 0 1 33 62 104
94 2 2 0 1 95 87 34
95 2 2 0 1 34 104 92
96 2 2 0 1 34 92 107
97 2 2 0 1 95 34 100
98 2 2 0 1 34 107 100
99 2 2 0 1 35 36 70
100 2 2 0 1 70 65 35
101 2 2 0 1 70 36 38
102 2 2 0 1 38 36 72
103 2 2 0 1 36 58 73
104 2 2 0 1 72 36 73
105 2 2 0 1 37 38 39
106 2 2 0 1 38 37 76
107 2 2 0 1 37 39 126
108 2 2 0 1 37 82 76
109 2 2 0 1 127 82 37
110 2 2 0 1 126 127 37
111 2 2 0 1 38 102 39
112 2 2 0 1 76 70 38
113 2 2 0 1 102 38 72
114 2 2 0 1 39 102 109
115 2 2 0 1 39 109 126
116 2 2 0 1 41 42 43
117 2 2 0 1 42 41 45
118 2 2 0 1 130 41 43
119 2 2 0 1 45 41 81
120 2 2 0 1 41 71 81
121 2 2 0 1 101 71 41
122 2 2 0 1 101 41 130
123 2 2 0 1 42 46 43
124 2 2 0 1 42 45 46
125 2 2 0 1 46 69 43
126 2 2 0 1 69 68 43
127 2 2 0 1 68 108 43
128 2 2 0 1 130 43 108
129 2 2 0 1 47 52 44
130 2 2 0 1 44 52 51
131 2 2 0 1 45 59 46
132 2 2 0 1 45 60 55
133 2 2 0 1 60 45 81
134 2 2 0 1 48 61 47
135 2 2 0 1 47 61 52
136 2 2 0 1 48 60 61
137 2 2 0 1 49 50 63
138 2 2 0 1 49 63 64
139 2 2 0 1 68 49 64
140 2 2 0 1 50 54 63
141 2 2 0 1 52 53 51
142 2 2 0 1 74 53 52
143 2 2 0 1 52 61 71
144 2 2 0 1 52 71 74
145 2 2 0 1 53 75 62
146 2 2 0 1 53 74 75
147 2 2 0 1 54 56 67
148 2 2 0 1 63 54 88
149 2 2 0 1 54 67 76
150 2 2 0 1 54 76 88
151 2 2 0 1 67 56 65
152 2 2 0 1 73 58 66
153 2 2 0 1 60 81 61
154 2 2 0 1 61 81 71
155 2 2 0 1 62 75 103
156 2 2 0 1 103 143 62
157 2 2 0 1 62 114 104
158 2 2 0 1 62 143 114
159 2 2 0 1 64 63 88
160 2 2 0 1 80 68 64
161 2 2 0 1 64 88 80
162 2 2 0 1 65 70 67
163 2 2 0 1 73 66 86
164 2 2 0 1 66 91 86
165 2 2 0 1 66 87 91
166 2 2 0 1 67 70 76
167 2 2 0 1 68 80 108
168 2 2 0 1 74 71 132
169 2 2 0 1 142 71 101
170 2 2 0 1 71 142 132
171 2 2 0 1 102 72 73
172 2 2 0 1 110 73 86
173 2 2 0 1 102 73 110
174 2 2 0 1 74 103 75
175 2 2 0 1 103 74 132
176 2 2 0 1 88 76 82
177 2 2 0 1 77 78 79
178 2 2 0 1 77 180 78
179 2 2 0 1 77 79 127
180 2 2 0 1 127 180 77
181 2 2 0 1 130 79 78
182 2 2 0 1 130 78 131
183 2 2 0 1 131 78 194
184 2 2 0 1 78 180 157
185 2 2 0 1 78 157 194
186 2 2 0 1 88 82 79
187 2 2 0 1 127 79 82
188 2 2 0 1 105 88 79
189 2 2 0 1 108 105 79
190 2 2 0 1 130 108 79
191 2 2 0 1 80 88 105
192 2 2 0 1 108 80 105
193 2 2 0 1 83 84 85
194 2 2 0 1 84 83 199
195 2 2 0 1 83 85 195
196 2 2 0 1 195 179 83
197 2 2 0 1 83 179 210
198 2 2 0 1 83 208 199
199 2 2 0 1 210 208 83
200 2 2 0 1 171 85 84
201 2 2 0 1 200 171 84
202 2 2 0 1 199 200 84
203 2 2 0 1 171 159 85
204 2 2 0 1 85 159 195
205 2 2 0 1 91 110 86
206 2 2 0 1 89 90 87
207 2 2 0 1 89 87 95
208 2 2 0 1 90 91 87
209 2 2 0 1 106 90 89
210 2 2 0 1 89 95 99
211 2 2 0 1 96 89 99
212 2 2 0 1 96 106 89
213 2 2 0 1 90 111 91
214 2 2 0 1 111 90 106
215 2 2 0 1 110 91 137
216 2 2 0 1 137 91 111
217 2 2 0 1 92 93 94
218 2 2 0 1 93 92 151
219 2 2 0 1 94 107 92
220 2 2 0 1 104 114 92
221 2 2 0 1 114 150 92
222 2 2 0 1 92 150 151
223 2 2 0 1 94 93 129
224 2 2 0 1 93 151 129
225 2 2 0 1 100 107 94
226 2 2 0 1 100 94 128
227 2 2 0 1 94 129 128
228 2 2 0 1 99 95 100
229 2 2 0 1 96 97 98
230 2 2 0 1 96 99 97
231 2 2 0 1 96 98 133
232 2 2 0 1 111 106 96
233 2 2 0 1 111 96 134
234 2 2 0 1 96 133 134
235 2 2 0 1 97 141 98
236 2 2 0 1 97 99 144
237 2 2 0 1 97 144 141
238 2 2 0 1 98 112 113
239 2 2 0 1 98 141 112
240 2 2 0 1 98 113 159
241 2 2 0 1 133 98 159
242 2 2 0 1 99 100 128
243 2 2 0 1 146 99 128
244 2 2 0 1 144 99 146
245 2 2 0 1 101 130 131
246 2 2 0 1 101 131 167
247 2 2 0 1 167 142 101
248 2 2 0 1 109 102 110
249 2 2 0 1 132 170 103
250 2 2 0 1 103 160 143
251 2 2 0 1 170 160 103
252 2 2 0 1 109 110 137
253 2 2 0 1 126 109 153
254 2 2 0 1 137 145 109
255 2 2 0 1 109 145 169
256 2 2 0 1 109 169 153
257 2 2 0 1 111 134 145
258 2 2 0 1 145 137 111
259 2 2 0 1 112 172 113
260 2 2 0 1 112 136 124
261 2 2 0 1 124 162 112
262 2 2 0 1 138 136 112
263 2 2 0 1 112 140 138
264 2 2 0 1 140 112 141
265 2 2 0 1 162 163 112
266 2 2 0 1 172 112 163
267 2 2 0 1 159 113 195
268 2 2 0 1 195 113 172
269 2 2 0 1 143 160 114
270 2 2 0 1 114 189 150
271 2 2 0 1 114 160 189
272 2 2 0 1 115 116 117
273 2 2 0 1 116 115 123
274 2 2 0 1 117 122 115
275 2 2 0 1 115 122 135
276 2 2 0 1 123 115 124
277 2 2 0 1 124 115 135
278 2 2 0 1 117 116 118
279 2 2 0 1 118 116 125
280 2 2 0 1 125 116 123
281 2 2 0 1 118 119 117
282 2 2 0 1 119 122 117
283 2 2 0 1 119 118 120
284 2 2 0 1 120 118 125
285 2 2 0 1 122 119 120
286 2 2 0 1 120 121 122
287 2 2 0 1 121 120 136
288 2 2 0 1 120 125 136
289 2 2 0 1 122 121 135
290 2 2 0 1 121 147 135
291 2 2 0 1 136 138 121
292 2 2 0 1 138 139 121
293 2 2 0 1 139 147 121
294 2 2 0 1 123 124 125
295 2 2 0 1 136 125 124
296 2 2 0 1 124 135 161
297 2 2 0 1 124 161 162
298 2 2 0 1 127 126 180
299 2 2 0 1 180 126 153
300 2 2 0 1 146 128 129
301 2 2 0 1 146 129 148
302 2 2 0 1 129 175 148
303 2 2 0 1 129 151 175
304 2 2 0 1 167 131 185
305 2 2 0 1 131 194 185
306 2 2 0 1 132 142 181
307 2 2 0 1 170 132 181
308 2 2 0 1 134 133 154
309 2 2 0 1 154 133 158
310 2 2 0 1 158 133 159
311 2 2 0 1 134 154 145
312 2 2 0 1 147 152 135
313 2 2 0 1 135 152 161
314 2 2 0 1 139 138 140
315 2 2 0 1 140 168 139
316 2 2 0 1 139 152 147
317 2 2 0 1 139 168 152
318 2 2 0 1 141 144 140
319 2 2 0 1 144 146 140
320 2 2 0 1 146 168 140
321 2 2 0 1 167 184 142
322 2 2 0 1 142 184 181
323 2 2 0 1 154 169 145
324 2 2 0 1 146 148 149
325 2 2 0 1 149 168 146
326 2 2 0 1 148 177 149
327 2 2 0 1 148 175 176
328 2 2 0 1 148 176 186
329 2 2 0 1 148 178 177
330 2 2 0 1 148 186 178
331 2 2 0 1 152 149 161
332 2 2 0 1 152 168 149
333 2 2 0 1 161 149 163
334 2 2 0 1 149 173 163
335 2 2 0 1 149 177 173
336 2 2 0 1 151 150 182
337 2 2 0 1 150 190 182
338 2 2 0 1 150 189 190
339 2 2 0 1 151 182 175
340 2 2 0 1 169 164 153
341 2 2 0 1 180 153 164
342 2 2 0 1 154 158 183
343 2 2 0 1 169 154 183
344 2 2 0 1 155 156 157
345 2 2 0 1 155 165 156
346 2 2 0 1 155 157 164
347 2 2 0 1 191 155 164
348 2 2 0 1 155 198 165
349 2 2 0 1 155 191 198
350 2 2 0 1 201 157 156
351 2 2 0 1 156 165 166
352 2 2 0 1 207 156 166
353 2 2 0 1 207 201 156
354 2 2 0 1 180 164 157
355 2 2 0 1 194 157 185
356 2 2 0 1 185 157 201
357 2 2 0 1 171 158 159
358 2 2 0 1 183 158 171
359 2 2 0 1 160 170 189
360 2 2 0 1 162 161 163
361 2 2 0 1 172 163 173
362 2 2 0 1 164 169 191
363 2 2 0 1 166 165 198
364 2 2 0 1 190 166 187
365 2 2 0 1 166 202 187
366 2 2 0 1 166 190 193
367 2 2 0 1 207 166 193
368 2 2 0 1 202 166 198
369 2 2 0 1 184 167 185
370 2 2 0 1 169 183 191
371 2 2 0 1 170 181 188
372 2 2 0 1 170 188 189
373 2 2 0 1 196 183 171
374 2 2 0 1 196 171 200
375 2 2 0 1 172 173 174
376 2 2 0 1 195 172 174
377 2 2 0 1 177 174 173
378 2 2 0 1 174 177 179
379 2 2 0 1 195 174 179
380 2 2 0 1 176 175 182
381 2 2 0 1 182 187 176
382 2 2 0 1 186 176 187
383 2 2 0 1 177 178 179
384 2 2 0 1 178 205 179
385 2 2 0 1 205 178 186
386 2 2 0 1 205 210 179
387 2 2 0 1 181 184 192
388 2 2 0 1 188 181 192
389 2 2 0 1 190 187 182
390 2 2 0 1 191 183 198
391 2 2 0 1 183 196 197
392 2 2 0 1 183 197 198
393 2 2 0 1 184 185 192
394 2 2 0 1 192 185 201
395 2 2 0 1 202 186 187
396 2 2 0 1 202 203 186
397 2 2 0 1 186 203 205
398 2 2 0 1 189 188 193
399 2 2 0 1 192 201 188
400 2 2 0 1 193 188 207
401 2 2 0 1 188 201 207
402 2 2 0 1 189 193 190
403 2 2 0 1 197 196 202
404 2 2 0 1 204 196 200
405 2 2 0 1 196 203 202
406 2 2 0 1 196 204 203
407 2 2 0 1 197 202 198
408 2 2 0 1 200 199 209
409 2 2 0 1 199 208 209
410 2 2 0 1 200 206 204
411 2 2 0 1 206 200 211
412 2 2 0 1 200 209 211
413 2 2 0 1 203 204 206
414 2 2 0 1 203 206 205
415 2 2 0 1 206 210 205
416 2 2 0 1 206 208 210
417 2 2 0 1 211 208 206
418 2 2 0 1 208 211 209
419 4 2 0 1 27 51 23 44
420 4 2 0 1 125 136 124 120
421 4 2 0 1 29 31 103 35
422 4 2 0 1 68 49 63 64
423 4 2 0 1 29 31 75 103
424 4 2 0 1 192 215 181 217
425 4 2 0 1 54 67 56 216
426 4 2 0 1 102 215 39 217
427 4 2 0 1 38 215 102 217
428 4 2 0 1 38 39 102 215
429 4 2 0 1 57 31 58 103
430 4 2 0 1 102 72 38 217
431 4 2 0 1 31 103 35 36
432 4 2 0 1 57 75 31 103
433 4 2 0 1 30 29 51 27
434 4 2 0 1 156 165 155 213
435 4 2 0 1 29 65 35 216
436 4 2 0 1 156 166 165 213
437 4 2 0 1 103 72 73 217
438 4 2 0 1 192 181 170 217
439 4 2 0 1 96 133 98 214
440 4 2 0 1 103 31 58 36
441 4 2 0 1 114 143 32 217
442 4 2 0 1 61 81 54 56
443 4 2 0 1 54 56 41 216
444 4 2 0 1 188 201 192 217
445 4 2 0 1 156 213 155 217
446 4 2 0 1 19 15 25 212
447 4 2 0 1 53 31 75 29
448 4 2 0 1 92 213 107 214
449 4 2 0 1 128 129 94 214
450 4 2 0 1 109 126 153 217
451 4 2 0 1 41 54 81 56
452 4 2 0 1 67 65 56 216
453 4 2 0 1 192 184 181 215
454 4 2 0 1 33 66 32 62
455 4 2 0 1 26 50 61 212
456 4 2 0 1 74 29 75 103
457 4 2 0 1 92 150 213 214
458 4 2 0 1 36 73 103 72
459 4 2 0 1 112 124 136 138
460 4 2 0 1 67 54 76 216
461 4 2 0 1 92 150 114 213
462 4 2 0 1 58 73 103 36
463 4 2 0 1 56 28 71 216
464 4 2 0 1 85 196 204 203
465 4 2 0 1 21 19 25 212
466 4 2 0 1 86 66 73 217
467 4 2 0 1 109 39 126 217
468 4 2 0 1 82 76 79 215
469 4 2 0 1 109 102 39 217
470 4 2 0 1 155 213 169 217
471 4 2 0 1 168 177 174 173
472 4 2 0 1 21 20 19 212
473 4 2 0 1 186 148 98 214
474 4 2 0 1 130 76 54 216
475 4 2 0 1 182 187 213 214
476 4 2 0 1 207 213 156 217
477 4 2 0 1 65 28 56 216
478 4 2 0 1 198 165 166 213
479 4 2 0 1 182 213 150 214
480 4 2 0 1 87 107 213 214
481 4 2 0 1 132 74 103 216
482 4 2 0 1 65 51 29 28
483 4 2 0 1 52 65 51 216
484 4 2 0 1 39 38 37 215
485 4 2 0 1 109 155 169 217
486 4 2 0 1 70 215 35 216
487 4 2 0 1 66 87 32 217
488 4 2 0 1 108 130 54 43
489 4 2 0 1 149 152 161 163
490 4 2 0 1 178 177 141 148
491 4 2 0 1 75 53 29 74
492 4 2 0 1 91 90 87 213
493 4 2 0 1 87 213 90 214
494 4 2 0 1 177 141 195 178
495 4 2 0 1 177 174 141 168
496 4 2 0 1 195 159 98 113
497 4 2 0 1 187 150 182 213
498 4 2 0 1 203 204 85 210
499 4 2 0 1 109 169 213 217
500 4 2 0 1 87 90 107 214
501 4 2 0 1 186 176 148 214
502 4 2 0 1 148 175 129 214
503 4 2 0 1 63 69 68 43
504 4 2 0 1 156 207 166 213
505 4 2 0 1 63 49 69 212
506 4 2 0 1 14 8 15 212
507 4 2 0 1 150 187 182 190
508 4 2 0 1 41 130 54 216
509 4 2 0 1 130 101 215 216
510 4 2 0 1 65 52 28 216
511 4 2 0 1 88 54 108 76
512 4 2 0 1 87 91 213 217
513 4 2 0 1 130 215 76 216
514 4 2 0 1 130 101 131 215
515 4 2 0 1 183 213 197 214
516 4 2 0 1 114 160 143 217
517 4 2 0 1 21 25 59 212
518 4 2 0 1 196 183 197 214
519 4 2 0 1 192 170 188 217
520 4 2 0 1 126 127 180 215
521 4 2 0 1 114 213 160 217
522 4 2 0 1 174 141 195 177
523 4 2 0 1 47 26 61 48
524 4 2 0 1 98 141 195 113
525 4 2 0 1 37 127 126 215
526 4 2 0 1 102 73 72 217
527 4 2 0 1 205 186 85 203
528 4 2 0 1 175 148 176 214
529 4 2 0 1 31 53 30 29
530 4 2 0 1 130 79 76 215
531 4 2 0 1 108 80 54 88
532 4 2 0 1 49 68 63 69
533 4 2 0 1 101 167 131 215
534 4 2 0 1 81 61 71 56
535 4 2 0 1 114 189 160 213
536 4 2 0 1 6 3 17 212
537 4 2 0 1 92 114 34 213
538 4 2 0 1 92 104 34 114
539 4 2 0 1 153 180 164 157
540 4 2 0 1 63 50 49 212
541 4 2 0 1 189 150 190 213
542 4 2 0 1 171 183 196 214
543 4 2 0 1 54 130 108 76
544 4 2 0 1 126 39 37 215
545 4 2 0 1 84 85 204 210
546 4 2 0 1 153 180 157 126
547 4 2 0 1 10 11 12 212
548 4 2 0 1 69 49 12 212
549 4 2 0 1 166 190 187 213
550 4 2 0 1 3 1 10 212
551 4 2 0 1 52 51 65 28
552 4 2 0 1 14 24 1 212
553 4 2 0 1 26 17 50 212
554 4 2 0 1 150 187 190 213
555 4 2 0 1 154 213 183 214
556 4 2 0 1 71 52 74 216
557 4 2 0 1 24 11 1 212
558 4 2 0 1 193 166 207 213
559 4 2 0 1 71 28 52 216
560 4 2 0 1 114 150 189 213
561 4 2 0 1 11 10 1 212
562 4 2 0 1 109 213 110 217
563 4 2 0 1 154 183 158 214
564 4 2 0 1 203 85 205 210
565 4 2 0 1 160 213 189 217
566 4 2 0 1 86 110 91 217
567 4 2 0 1 18 50 17 212
568 4 2 0 1 110 213 91 217
569 4 2 0 1 88 108 130 76
570 4 2 0 1 32 34 114 217
571 4 2 0 1 197 213 202 214
572 4 2 0 1 3 18 17 212
573 4 2 0 1 171 158 183 214
574 4 2 0 1 141 98 178 148
575 4 2 0 1 43 130 54 41
576 4 2 0 1 169 155 191 213
577 4 2 0 1 141 98 195 178
578 4 2 0 1 202 166 187 213
579 4 2 0 1 168 141 177 144
580 4 2 0 1 13 11 24 212
581 4 2 0 1 13 12 11 212
582 4 2 0 1 14 20 24 212
583 4 2 0 1 48 60 9 212
584 4 2 0 1 141 168 140 144
585 4 2 0 1 196 197 202 214
586 4 2 0 1 196 186 202 203
587 4 2 0 1 25 15 9 212
588 4 2 0 1 182 176 187 214
589 4 2 0 1 57 31 75 53
590 4 2 0 1 6 4 2 212
591 4 2 0 1 6 2 3 212
592 4 2 0 1 90 111 106 214
593 4 2 0 1 8 4 16 212
594 4 2 0 1 177 146 168 144
595 4 2 0 1 168 149 177 173
596 4 2 0 1 25 9 55 212
597 4 2 0 1 40 26 61 47
598 4 2 0 1 110 137 91 213
599 4 2 0 1 167 101 142 215
600 4 2 0 1 187 202 213 214
601 4 2 0 1 65 70 35 216
602 4 2 0 1 10 12 49 212
603 4 2 0 1 202 186 196 214
604 4 2 0 1 142 215 101 216
605 4 2 0 1 3 10 18 212
606 4 2 0 1 68 49 12 69
607 4 2 0 1 8 9 15 212
608 4 2 0 1 210 203 204 206
609 4 2 0 1 101 130 41 216
610 4 2 0 1 50 18 49 212
611 4 2 0 1 127 37 82 215
612 4 2 0 1 74 52 51 216
613 4 2 0 1 45 25 55 212
614 4 2 0 1 32 87 34 217
615 4 2 0 1 59 46 13 212
616 4 2 0 1 195 98 159 178
617 4 2 0 1 14 1 2 212
618 4 2 0 1 3 2 1 212
619 4 2 0 1 106 89 90 214
620 4 2 0 1 55 60 45 212
621 4 2 0 1 148 177 141 144
622 4 2 0 1 76 215 70 216
623 4 2 0 1 67 76 70 216
624 4 2 0 1 132 215 142 216
625 4 2 0 1 70 65 67 216
626 4 2 0 1 110 102 109 217
627 4 2 0 1 45 59 25 212
628 4 2 0 1 186 187 176 214
629 4 2 0 1 185 167 184 215
630 4 2 0 1 177 148 146 144
631 4 2 0 1 138 124 161 162
632 4 2 0 1 94 107 100 214
633 4 2 0 1 10 49 18 212
634 4 2 0 1 88 130 79 76
635 4 2 0 1 5 26 16 212
636 4 2 0 1 154 169 183 213
637 4 2 0 1 186 202 187 214
638 4 2 0 1 26 5 17 212
639 4 2 0 1 199 209 211 200
640 4 2 0 1 131 167 185 215
641 4 2 0 1 210 205 203 206
642 4 2 0 1 28 51 29 27
643 4 2 0 1 32 34 104 114
644 4 2 0 1 88 79 82 76
645 4 2 0 1 117 116 115 122
646 4 2 0 1 194 78 131 215
647 4 2 0 1 185 194 131 215
648 4 2 0 1 115 116 123 122
649 4 2 0 1 53 57 31 30
650 4 2 0 1 210 204 84 206
651 4 2 0 1 59 45 46 212
652 4 2 0 1 4 5 16 212
653 4 2 0 1 154 145 169 213
654 4 2 0 1 46 45 42 212
655 4 2 0 1 191 183 169 213
656 4 2 0 1 5 16 26 40
657 4 2 0 1 52 51 28 27
658 4 2 0 1 142 101 71 216
659 4 2 0 1 125 122 119 120
660 4 2 0 1 174 195 179 177
661 4 2 0 1 188 181 170 192
662 4 2 0 1 163 152 161 162
663 4 2 0 1 168 149 173 140
664 4 2 0 1 119 118 125 120
665 4 2 0 1 100 107 95 214
666 4 2 0 1 195 179 177 178
667 4 2 0 1 41 71 101 216
668 4 2 0 1 204 200 84 206
669 4 2 0 1 116 117 125 122
670 4 2 0 1 211 209 199 208
671 4 2 0 1 125 123 116 122
672 4 2 0 1 173 149 163 140
673 4 2 0 1 80 108 105 88
674 4 2 0 1 122 117 125 119
675 4 2 0 1 161 147 135 121
676 4 2 0 1 147 161 136 121
677 4 2 0 1 172 113 173 140
678 4 2 0 1 141 113 112 140
679 4 2 0 1 140 168 149 139
680 4 2 0 1 140 149 163 139
681 4 2 0 1 112 173 163 140
682 4 2 0 1 112 140 139 138
683 4 2 0 1 211 199 200 208
684 4 2 0 1 85 84 83 210
685 4 2 0 1 112 172 173 140
686 4 2 0 1 52 51 27 44
687 4 2 0 1 121 122 135 120
688 4 2 0 1 163 112 138 162
689 4 2 0 1 152 149 168 139
690 4 2 0 1 136 161 135 121
691 4 2 0 1 9 7 22 8
692 4 2 0 1 83 210 206 208
693 4 2 0 1 206 211 200 208
694 4 2 0 1 163 112 140 139
695 4 2 0 1 149 152 163 139
696 4 2 0 1 84 83 210 206
697 4 2 0 1 113 172 112 140
698 4 2 0 1 140 168 146 144
699 4 2 0 1 83 84 200 206
700 4 2 0 1 163 112 139 138
701 4 2 0 1 136 135 161 124
702 4 2 0 1 173 163 172 112
703 4 2 0 1 89 96 99 95
704 4 2 0 1 84 200 199 83
705 4 2 0 1 121 135 124 120
706 4 2 0 1 116 117 118 125
707 4 2 0 1 124 136 121 120
708 4 2 0 1 117 118 125 119
709 4 2 0 1 124 136 135 121
710 4 2 0 1 45 41 42 81
711 4 2 0 1 196 84 204 200
712 4 2 0 1 152 161 147 135
713 4 2 0 1 112 124 138 162
714 4 2 0 1 138 124 136 161
715 4 2 0 1 100 34 95 107
716 4 2 0 1 95 107 34 87
717 4 2 0 1 33 57 53 30
718 4 2 0 1 53 52 51 74
719 4 2 0 1 5 26 27 40
720 4 2 0 1 196 84 200 171
721 4 2 0 1 112 98 113 141
722 4 2 0 1 60 55 9 212
723 4 2 0 1 214 154 111 134
724 4 2 0 1 145 111 154 134
725 4 2 0 1 53 57 62 75
726 4 2 0 1 53 62 57 33
727 4 2 0 1 103 62 57 75
728 4 2 0 1 71 132 216 74
729 4 2 0 1 71 216 132 142
730 4 2 0 1 155 198 213 165
731 4 2 0 1 155 213 198 191
732 4 2 0 1 98 96 148 97
733 4 2 0 1 98 148 96 214
734 4 2 0 1 148 96 129 97
735 4 2 0 1 148 129 96 214
736 4 2 0 1 129 128 96 214
737 4 2 0 1 121 136 139 138
738 4 2 0 1 121 139 136 147
739 4 2 0 1 177 149 146 148
740 4 2 0 1 146 149 177 168
741 4 2 0 1 189 170 217 188
742 4 2 0 1 217 170 189 160
743 4 2 0 1 134 96 214 133
744 4 2 0 1 103 217 62 143
745 4 2 0 1 32 62 217 143
746 4 2 0 1 32 217 62 66
747 4 2 0 1 54 26 61 56
748 4 2 0 1 54 61 26 50
749 4 2 0 1 198 183 213 197
750 4 2 0 1 198 213 183 191
751 4 2 0 1 124 125 122 123
752 4 2 0 1 122 125 124 120
753 4 2 0 1 124 135 122 120
754 4 2 0 1 103 216 215 132
755 4 2 0 1 215 216 103 35
756 4 2 0 1 15 20 212 19
757 4 2 0 1 212 20 15 14
758 4 2 0 1 108 68 54 80
759 4 2 0 1 108 54 68 43
760 4 2 0 1 63 68 54 43
761 4 2 0 1 216 29 103 35
762 4 2 0 1 216 103 29 74
763 4 2 0 1 124 115 122 135
764 4 2 0 1 122 115 124 123
765 4 2 0 1 62 57 58 103
766 4 2 0 1 87 89 107 90
767 4 2 0 1 87 107 89 95
768 4 2 0 1 214 107 89 90
769 4 2 0 1 214 89 107 95
770 4 2 0 1 61 212 48 26
771 4 2 0 1 48 212 61 60
772 4 2 0 1 69 13 212 12
773 4 2 0 1 69 212 13 46
774 4 2 0 1 71 56 41 81
775 4 2 0 1 71 41 56 216
776 4 2 0 1 83 195 210 179
777 4 2 0 1 83 210 195 85
778 4 2 0 1 210 195 205 179
779 4 2 0 1 210 205 195 85
780 4 2 0 1 205 195 178 179
781 4 2 0 1 212 42 63 50
782 4 2 0 1 54 42 63 43
783 4 2 0 1 54 63 42 50
784 4 2 0 1 216 29 51 74
785 4 2 0 1 216 51 29 65
786 4 2 0 1 157 156 217 201
787 4 2 0 1 157 217 156 155
788 4 2 0 1 85 186 196 203
789 4 2 0 1 126 217 157 153
790 4 2 0 1 151 150 214 182
791 4 2 0 1 214 150 151 92
792 4 2 0 1 214 171 186 196
793 4 2 0 1 214 186 171 158
794 4 2 0 1 85 186 171 196
795 4 2 0 1 2 8 212 4
796 4 2 0 1 212 8 2 14
797 4 2 0 1 98 178 186 159
798 4 2 0 1 98 186 178 148
799 4 2 0 1 100 128 214 96
800 4 2 0 1 100 214 128 94
801 4 2 0 1 97 141 148 98
802 4 2 0 1 97 148 141 144
803 4 2 0 1 213 193 217 207
804 4 2 0 1 213 217 193 189
805 4 2 0 1 188 217 193 207
806 4 2 0 1 188 193 217 189
807 4 2 0 1 196 85 84 171
808 4 2 0 1 196 84 85 204
809 4 2 0 1 41 42 54 43
810 4 2 0 1 41 54 42 81
811 4 2 0 1 127 79 215 82
812 4 2 0 1 215 79 127 77
813 4 2 0 1 91 111 213 137
814 4 2 0 1 91 213 111 90
815 4 2 0 1 214 111 213 90
816 4 2 0 1 107 34 213 92
817 4 2 0 1 213 34 107 87
818 4 2 0 1 215 184 142 167
819 4 2 0 1 185 192 215 184
820 4 2 0 1 185 215 192 201
821 4 2 0 1 5 6 212 4
822 4 2 0 1 212 6 5 17
823 4 2 0 1 93 92 214 151
824 4 2 0 1 159 171 186 158
825 4 2 0 1 186 171 159 85
826 4 2 0 1 76 37 215 82
827 4 2 0 1 217 34 213 87
828 4 2 0 1 217 213 34 114
829 4 2 0 1 62 58 33 66
830 4 2 0 1 62 33 58 57
831 4 2 0 1 32 33 58 66
832 4 2 0 1 32 58 33 57
833 4 2 0 1 190 193 213 166
834 4 2 0 1 190 213 193 189
835 4 2 0 1 40 27 47 61
836 4 2 0 1 52 27 47 44
837 4 2 0 1 52 47 27 61
838 4 2 0 1 95 214 96 100
839 4 2 0 1 109 145 213 169
840 4 2 0 1 132 215 217 181
841 4 2 0 1 217 215 132 103
842 4 2 0 1 217 170 132 181
843 4 2 0 1 132 170 217 103
844 4 2 0 1 214 89 96 106
845 4 2 0 1 214 96 89 95
846 4 2 0 1 53 29 51 30
847 4 2 0 1 51 29 53 74
848 4 2 0 1 175 182 214 176
849 4 2 0 1 214 182 175 151
850 4 2 0 1 66 91 217 86
851 4 2 0 1 66 217 91 87
852 4 2 0 1 33 104 32 34
853 4 2 0 1 32 104 33 62
854 4 2 0 1 100 96 99 128
855 4 2 0 1 100 99 96 95
856 4 2 0 1 159 133 214 98
857 4 2 0 1 214 133 159 158
858 4 2 0 1 214 186 159 98
859 4 2 0 1 159 186 214 158
860 4 2 0 1 200 208 83 206
861 4 2 0 1 83 208 200 199
862 4 2 0 1 202 198 213 197
863 4 2 0 1 202 213 198 166
864 4 2 0 1 133 154 214 134
865 4 2 0 1 133 214 154 158
866 4 2 0 1 155 164 169 191
867 4 2 0 1 172 195 173 113
868 4 2 0 1 172 173 195 174
869 4 2 0 1 168 141 173 174
870 4 2 0 1 173 195 141 113
871 4 2 0 1 173 141 195 174
872 4 2 0 1 111 96 214 134
873 4 2 0 1 111 214 96 106
874 4 2 0 1 92 94 214 107
875 4 2 0 1 92 214 94 93
876 4 2 0 1 62 114 32 104
877 4 2 0 1 62 32 114 143
878 4 2 0 1 160 103 217 170
879 4 2 0 1 217 103 160 143
880 4 2 0 1 201 207 217 188
881 4 2 0 1 217 207 201 156
882 4 2 0 1 181 142 215 184
883 4 2 0 1 181 215 142 132
884 4 2 0 1 73 110 217 102
885 4 2 0 1 73 217 110 86
886 4 2 0 1 126 157 215 180
887 4 2 0 1 185 157 215 201
888 4 2 0 1 77 180 215 78
889 4 2 0 1 215 180 77 127
890 4 2 0 1 78 79 215 77
891 4 2 0 1 64 88 54 80
892 4 2 0 1 54 88 64 63
893 4 2 0 1 54 68 64 80
894 4 2 0 1 64 68 54 63
895 4 2 0 1 103 36 215 35
896 4 2 0 1 70 215 36 35
897 4 2 0 1 70 36 215 38
898 4 2 0 1 38 76 215 70
899 4 2 0 1 215 76 38 37
900 4 2 0 1 40 44 27 23
901 4 2 0 1 40 27 44 47
902 4 2 0 1 16 22 40 23
903 4 2 0 1 22 44 40 23
904 4 2 0 1 26 61 27 40
905 4 2 0 1 108 79 88 130
906 4 2 0 1 108 88 79 105
907 4 2 0 1 78 130 215 79
908 4 2 0 1 215 130 78 131
909 4 2 0 1 212 26 9 48
910 4 2 0 1 47 9 26 48
911 4 2 0 1 26 28 61 56
912 4 2 0 1 26 61 28 27
913 4 2 0 1 71 61 28 56
914 4 2 0 1 194 157 215 185
915 4 2 0 1 137 109 213 110
916 4 2 0 1 137 213 109 145
917 4 2 0 1 78 157 215 194
918 4 2 0 1 78 215 157 180
919 4 2 0 1 145 111 214 154
920 4 2 0 1 214 213 145 154
921 4 2 0 1 20 212 13 24
922 4 2 0 1 13 21 212 20
923 4 2 0 1 212 21 13 59
924 4 2 0 1 161 139 136 138
925 4 2 0 1 139 162 161 152
926 4 2 0 1 161 162 139 138
927 4 2 0 1 139 163 162 152
928 4 2 0 1 162 163 139 138
929 4 2 0 1 147 139 161 152
930 4 2 0 1 147 161 139 136
931 4 2 0 1 217 62 73 103
932 4 2 0 1 217 73 62 66
933 4 2 0 1 58 73 62 103
934 4 2 0 1 58 62 73 66
935 4 2 0 1 28 52 61 71
936 4 2 0 1 28 61 52 27
937 4 2 0 1 205 195 159 178
938 4 2 0 1 159 195 205 85
939 4 2 0 1 159 186 205 178
940 4 2 0 1 205 186 159 85
941 4 2 0 1 215 217 126 39
942 4 2 0 1 201 217 215 192
943 4 2 0 1 42 63 46 212
944 4 2 0 1 42 46 63 43
945 4 2 0 1 69 46 63 212
946 4 2 0 1 69 63 46 43
947 4 2 0 1 164 157 169 153
948 4 2 0 1 164 169 157 155
949 4 2 0 1 169 157 109 153
950 4 2 0 1 169 109 157 155
951 4 2 0 1 109 157 217 153
952 4 2 0 1 109 217 157 155
953 4 2 0 1 111 213 145 214
954 4 2 0 1 111 145 213 137
955 4 2 0 1 22 40 26 16
956 4 2 0 1 214 129 151 175
957 4 2 0 1 93 129 214 94
958 4 2 0 1 93 214 129 151
959 4 2 0 1 97 99 146 144
960 4 2 0 1 97 148 146 129
961 4 2 0 1 146 148 97 144
962 4 2 0 1 96 128 97 99
963 4 2 0 1 96 97 128 129
964 4 2 0 1 146 97 128 99
965 4 2 0 1 146 128 97 129
966 4 2 0 1 141 173 140 168
967 4 2 0 1 141 140 173 113
968 4 2 0 1 157 215 217 126
969 4 2 0 1 157 217 215 201
970 4 2 0 1 45 212 81 42
971 4 2 0 1 212 81 50 61
972 4 2 0 1 212 50 81 42
973 4 2 0 1 50 81 54 61
974 4 2 0 1 50 54 81 42
975 4 2 0 1 81 60 212 45
976 4 2 0 1 212 60 81 61
977 4 2 0 1 36 215 72 103
978 4 2 0 1 36 72 215 38
979 4 2 0 1 217 72 215 103
980 4 2 0 1 217 215 72 38
981 4 2 0 1 44 40 7 22
982 4 2 0 1 44 7 40 47
983 4 2 0 1 9 7 26 22
984 4 2 0 1 9 26 7 47
985 4 2 0 1 7 40 26 22
986 4 2 0 1 7 26 40 47
987 4 2 0 1 26 9 16 212
988 4 2 0 1 26 16 9 22
989 4 2 0 1 8 16 9 212
990 4 2 0 1 8 9 16 22
$EndElements
