# Blender v2.93.1 OBJ File: 'liver_gallbladder_new_edited_v10.blend'
# www.blender.org
mtllib gallbladder.mtl
o Gallbladder_CatHERA1400002.005
v 22.543871 -43.115047 -27.497189
v 22.460293 -42.150528 -22.983223
v 18.914030 -40.638660 -24.113861
v 27.853685 -40.850243 -19.940250
v 30.583969 -39.123314 -18.787037
v 31.058523 -41.390999 -33.799492
v 24.889109 -41.892693 -34.532093
v 23.651625 -34.256672 -38.928154
v 27.799860 -33.711922 -39.276527
v 25.799486 -27.862495 -38.468639
v 34.707760 -29.981575 -33.126011
v 19.707144 -41.136082 -30.514408
v 35.929100 -40.169582 -29.355078
v 26.886135 -38.851433 -37.622990
v 19.773020 -34.645290 -36.286255
v 19.539654 -24.304995 -34.473614
v 17.352547 -26.322916 -31.606647
v 17.372755 -30.437576 -29.788544
v 31.142197 -43.165932 -26.068258
v 14.264723 -30.863485 -20.416950
v 17.653051 -38.485588 -29.905237
v 31.126722 -36.270786 -37.567043
v 36.918983 -37.690548 -30.494453
v 31.155426 -34.940342 -17.886389
v 26.412828 -33.984589 -12.233669
v 20.960018 -38.448837 -35.941521
v 34.664627 -37.418491 -34.806259
v 36.134964 -34.132397 -33.172951
v 34.984585 -38.200226 -23.385477
v 16.338051 -34.534508 -22.953146
v 13.569863 -31.378872 -13.337042
v 9.031816 -29.505255 -6.601862
v 0.701654 -28.513514 -0.981646
v -0.110909 -24.692766 4.357172
v -6.145712 -24.080555 3.325115
v -1.836128 -28.419466 -3.698142
v 6.589010 -27.570581 -13.057689
v 7.399334 -24.212254 -20.883013
v 9.161047 -21.291666 -25.604343
v -8.519214 -17.277735 -14.633483
v -4.201089 -25.486958 -10.617619
v 21.650681 -22.219664 -34.536243
v 18.520826 -35.648170 -12.618828
v 32.004738 -28.369360 -21.759968
v 32.476341 -27.420759 -26.773628
v 15.627973 -32.532108 -9.844790
v 27.948568 -26.417702 -16.649960
v 22.077072 -34.386009 -9.299816
v 21.690159 -35.773682 -10.885104
v 37.201073 -34.855030 -26.606691
v 33.518459 -31.820910 -23.039734
v 15.555429 -30.025618 -4.700970
v 13.386082 -24.900784 -1.992343
v 10.082932 -27.732471 -0.609086
v -0.042452 -14.480243 5.033525
v 8.583919 -7.396160 -6.918733
v 20.689663 -30.699369 -36.593285
v 9.986236 -28.376989 -14.266781
v 2.233652 -29.560030 -5.128505
v 25.821014 -24.346920 -36.293041
v 9.798589 -29.048512 -2.148192
v 18.650721 -29.071186 -5.981926
v 1.174494 -22.391304 5.500775
v -7.388924 -18.886318 9.145717
v 11.058304 -26.665821 -21.055378
v 14.556380 -26.309492 -26.943396
v 31.844145 -29.855528 -37.088531
v -0.430719 -27.735498 -10.029725
v -7.548822 -24.672215 -0.744380
v 5.598509 -15.983748 0.911177
v 30.430882 -25.112061 -33.760803
v 29.224232 -23.736368 -27.086037
v 11.878887 -17.332096 -30.999796
v 6.293206 -16.320742 -26.565815
v 0.185240 -22.496824 -17.834276
v -5.685450 -25.682991 -6.379731
v -10.463125 -21.439400 -5.875977
v 6.392618 -23.531857 2.675862
v 11.929965 -10.567125 -7.222899
v 14.803411 -7.695852 -16.440237
v 13.920445 -7.856626 -21.537113
v 6.299178 -6.539513 -23.409807
v 13.690598 -15.555109 -31.676001
v 17.772898 -19.851105 -33.874203
v -12.166868 -23.290600 2.564977
v -33.775242 -1.165062 9.834899
v -29.060612 4.137210 1.106289
v -8.820682 -21.672375 7.073770
v 9.312790 -12.624314 -28.114859
v 2.640568 -11.107587 -25.264568
v 26.846193 -21.264738 -18.684563
v 23.439247 -17.201706 -20.980833
v -14.129356 -15.437186 -11.166502
v -21.189730 -15.376782 -6.838075
v -25.771179 -18.376776 -3.569557
v -30.517145 -21.831678 4.709159
v -15.289402 -20.696857 -3.885466
v -27.801147 -20.834351 12.691922
v -22.587017 -13.748919 15.994261
v -26.942713 -18.098965 14.785291
v -29.152945 -22.870916 6.792734
v -35.212124 -19.738079 6.071726
v -36.866154 -17.330351 5.896169
v -43.788353 -5.035712 9.078462
v -35.953175 -19.867666 11.033618
v -28.039095 -22.197811 10.357030
v 24.140812 -19.558630 -14.926494
v 24.147449 -20.833448 -30.449266
v -0.299254 -16.411228 -22.711794
v -22.602520 -21.690340 -0.161007
v 16.898014 -16.005177 -31.544386
v -32.513645 -12.586716 -0.051969
v -37.384811 -8.692791 2.069109
v -37.989395 -10.776095 13.728701
v -39.896645 -11.704756 10.621207
v -45.811531 -9.003479 12.182369
v -34.342522 -12.607863 14.741980
v -62.967201 -17.769918 24.554853
v -58.458607 -16.690468 24.911667
v -62.738861 -19.462976 24.539152
v -63.662067 -19.500652 21.565664
v -62.354347 -20.512947 22.459475
v -57.218109 -17.513477 19.417782
v -52.973164 -15.283259 22.065355
v -54.660648 -13.291464 20.113600
v -62.851028 -16.846888 21.972681
v -14.696242 -11.352894 -13.920453
v -34.603146 -17.691036 13.655921
v 18.809177 -11.382450 -18.238373
v 17.260704 -13.002437 -26.221369
v -16.776838 -16.600405 14.327521
v -18.637188 -18.935629 13.197479
v -27.908316 -14.992311 -3.772808
v -29.730759 -7.154317 -1.781940
v -57.707500 -18.716492 22.291670
v -47.160023 -14.809560 18.296476
v -44.882496 -13.474654 15.129101
v -47.825989 -12.847354 14.194604
v -42.169281 -10.684453 11.819325
v -4.540570 -9.533462 -20.650276
v 17.533043 -11.466621 -13.361154
v -11.586195 -7.783395 -16.938065
v -21.006844 -9.215771 -10.108936
v -40.631962 -9.224583 6.646166
v -21.339247 -11.104928 15.774448
v -23.968912 -8.348877 14.779614
v -53.526653 -14.317523 17.392916
v -53.253910 -16.657175 19.825260
v -40.278736 -9.507082 14.377462
v -44.310352 -12.428839 17.969919
v -59.645908 -15.216821 23.239882
v -33.373653 -7.050989 12.608621
v -42.308487 -8.115763 15.447058
v -45.129833 -7.589398 14.552850
v -50.044266 -10.037023 16.578905
v -5.209765 -13.792096 -19.451082
v -24.104050 -8.835331 -7.332838
v -11.053260 1.035567 -10.716197
v -6.450598 -14.014629 8.601192
v -11.688082 -8.073585 10.877251
v -49.520821 -11.018345 18.930395
v -5.321887 -1.928094 3.376168
v 3.041955 -8.379928 -1.467423
v -2.397994 -7.364220 3.526974
v -17.279640 -6.062003 12.206024
v -5.771038 -2.927936 -17.796272
v 6.683753 -9.778070 -26.306488
v -6.740035 1.966726 -2.568862
v 0.847048 -4.157359 -4.363381
v -1.439530 -4.587364 -20.025974
v -19.440887 -6.388608 -10.760817
v -27.143284 -2.837464 -1.930229
v -32.523682 1.085984 1.022032
v -44.365143 -4.424920 12.132381
v -43.054054 -4.820715 13.596118
v -39.817131 -1.958221 10.242337
v -37.503326 -0.857593 5.197218
v -12.120609 -2.732451 8.537992
v -23.230429 -5.346979 12.268681
v -27.078701 -2.629436 7.502098
v -25.674183 -0.776552 5.557074
v -26.383446 5.313594 5.093063
v -25.021540 8.249036 3.789753
v -25.505840 10.039257 2.306294
v 6.836845 -4.568404 -20.109308
v 9.915472 -4.810416 -16.132988
v -18.481977 -1.057408 -7.797327
v -3.403605 -2.465559 -16.745394
v 9.194559 -5.691975 -10.938011
v 1.773939 -3.756150 -9.023170
v -37.344707 -2.653876 11.968906
v -24.552082 -1.410456 1.034276
v -24.142448 -3.922333 -4.006732
v -6.078537 0.868547 1.310323
v -23.053644 -1.752983 -0.788149
v -17.175138 1.299255 -5.329481
v -12.611097 2.228290 -6.839240
v -26.033699 5.280709 2.666749
v -25.146263 1.590647 2.664780
v -35.812843 -4.605098 0.683022
v -0.469759 -2.783864 -14.011870
v -22.378576 -1.590001 3.274819
v -19.663670 -2.301862 6.898861
v -29.521275 1.392604 8.052822
v -36.404049 0.618342 7.915145
v -14.332907 1.907647 0.105789
v -27.700344 8.160614 2.304911
v -7.980380 1.784485 -8.075592
v -27.194429 8.290315 5.177197
v -30.389084 5.599323 3.316194
v -30.166470 4.469411 5.364807
vn 0.0360 -0.5419 -0.8397
vn -0.1418 -0.8567 -0.4960
vn -0.5682 -0.4894 -0.6615
vn -0.2615 -0.9651 -0.0149
vn -0.7034 -0.6976 0.1361
vn -0.6250 -0.7359 -0.2604
vn 0.5387 -0.5797 0.6113
vn 0.3255 -0.9336 0.1499
vn 0.8043 -0.3326 0.4923
vn -0.3153 -0.1076 -0.9428
vn 0.1671 -0.0525 -0.9845
vn -0.0354 0.3466 -0.9373
vn 0.5699 0.3196 -0.7570
vn 0.3313 -0.8089 -0.4857
vn 0.7559 -0.6519 -0.0603
vn -0.2283 -0.9206 0.3168
vn -0.9142 -0.3403 -0.2197
vn -0.7762 -0.0732 -0.6262
vn 0.9473 -0.2494 -0.2009
vn 0.6742 -0.3386 -0.6564
vn 0.8963 0.1248 -0.4255
vn 0.1360 -0.8647 0.4836
vn -0.0363 -0.8264 0.5618
vn 0.4432 -0.2703 -0.8547
vn 0.9558 0.1313 0.2628
vn -0.9313 -0.3482 -0.1069
vn -0.4360 -0.8640 0.2519
vn -0.6017 -0.7973 -0.0470
vn -0.2271 -0.9735 -0.0269
vn 0.0204 -0.8932 0.4490
vn -0.1312 -0.9908 -0.0324
vn -0.2183 -0.8964 0.3858
vn 0.0392 -0.6988 0.7142
vn 0.0412 -0.7999 0.5987
vn -0.2058 -0.9239 -0.3226
vn -0.3170 -0.8829 -0.3464
vn -0.5693 -0.3505 -0.7436
vn -0.4902 -0.6355 -0.5964
vn -0.5754 -0.3063 -0.7583
vn -0.4035 -0.8126 0.4204
vn 0.7318 0.6794 -0.0522
vn 0.6848 0.7260 -0.0621
vn 0.5223 0.7816 -0.3408
vn 0.3234 -0.5238 0.7880
vn 0.8130 0.5729 0.1038
vn 0.6013 0.7249 -0.3360
vn 0.6751 -0.1190 0.7280
vn 0.7949 -0.0016 0.6067
vn -0.6671 0.1415 -0.7313
vn -0.9159 -0.1559 -0.3699
vn 0.2299 -0.6614 0.7139
vn 0.6027 -0.0151 0.7978
vn 0.3217 -0.5216 0.7902
vn -0.7722 -0.4438 -0.4546
vn 0.8395 0.2853 0.4623
vn -0.8304 -0.5040 -0.2373
vn -0.1437 -0.9082 0.3931
vn -0.3958 -0.9170 0.0488
vn 0.8377 0.4788 -0.2625
vn 0.8672 0.3551 0.3489
vn 0.7693 0.2762 0.5761
vn 0.3836 -0.2023 0.9011
vn -0.7977 -0.2411 -0.5527
vn -0.4801 0.0428 -0.8762
vn -0.5113 -0.8237 -0.2449
vn -0.4285 -0.9029 0.0333
vn -0.6369 -0.6640 -0.3916
vn 0.0770 0.5545 -0.8286
vn 0.2112 0.6867 -0.6955
vn -0.4275 -0.7466 -0.5096
vn 0.7651 0.4434 0.4670
vn -0.5774 -0.7138 -0.3963
vn -0.6035 -0.7728 -0.1960
vn 0.6053 0.0816 0.7917
vn 0.4984 -0.0328 0.8663
vn -0.5572 -0.5442 -0.6271
vn -0.0869 0.5310 -0.8429
vn 0.0622 0.7535 -0.6545
vn -0.1865 0.4654 -0.8652
vn -0.1438 0.2590 -0.9551
vn 0.7979 0.5468 0.2536
vn -0.5152 -0.2246 -0.8271
vn -0.6956 0.6979 -0.1704
vn -0.1519 0.4515 -0.8792
vn -0.4954 0.4321 -0.7536
vn -0.5063 -0.7776 -0.3728
vn -0.1328 -0.9890 0.0643
vn -0.5906 -0.1087 -0.7996
vn -0.2084 -0.9776 -0.0280
vn -0.1664 -0.8905 -0.4234
vn -0.2543 -0.8315 -0.4938
vn 0.3258 -0.2649 0.9076
vn 0.0489 -0.1009 0.9937
vn -0.0423 -0.4183 0.9073
vn -0.0704 -0.9265 0.3695
vn -0.6356 -0.6736 -0.3771
vn -0.7575 -0.4577 -0.4654
vn -0.6539 -0.1681 -0.7376
vn -0.6279 -0.7074 0.3245
vn -0.0472 -0.7512 0.6584
vn 0.7355 0.6772 -0.0199
vn -0.5623 -0.5529 -0.6149
vn 0.5986 0.3055 0.7405
vn 0.3243 -0.3169 0.8913
vn -0.1730 0.5287 -0.8310
vn -0.3832 -0.8430 -0.3775
vn 0.1655 -0.6610 0.7319
vn 0.2968 0.7085 -0.6402
vn -0.5624 -0.3081 -0.7673
vn -0.4843 -0.6197 -0.6175
vn -0.3860 -0.5987 -0.7017
vn -0.7669 0.0265 -0.6412
vn -0.8104 0.3342 -0.4811
vn 0.4985 0.1466 0.8544
vn 0.2475 0.0820 0.9654
vn -0.6622 0.3205 0.6773
vn -0.3828 -0.5570 0.7370
vn -0.8000 -0.3366 -0.4966
vn -0.1231 -0.9907 -0.0573
vn -0.0692 -0.6001 -0.7969
vn 0.3285 -0.9334 -0.1443
vn 0.4304 -0.8795 0.2028
vn -0.2647 0.8905 0.3700
vn -0.3474 0.9253 0.1523
vn -0.7208 0.6003 -0.3464
vn -0.4930 0.1084 -0.8632
vn -0.4488 0.1542 -0.8802
vn -0.3824 -0.4238 0.8210
vn -0.1985 0.0532 0.9786
vn 0.4827 0.7623 -0.4312
vn 0.4708 0.8023 -0.3669
vn 0.6312 0.4751 0.6129
vn -0.6157 -0.2012 -0.7618
vn -0.6052 -0.2567 -0.7535
vn 0.4122 -0.0649 0.9088
vn -0.5023 -0.0724 -0.8616
vn -0.3334 -0.5424 -0.7711
vn -0.2149 -0.5723 -0.7913
vn 0.3839 -0.8821 -0.2728
vn -0.1473 -0.9518 -0.2688
vn -0.6532 -0.6302 -0.4195
vn 0.7037 0.5958 0.3870
vn 0.5535 0.2438 0.7964
vn -0.7242 -0.6797 0.1161
vn -0.5876 -0.0693 -0.8061
vn -0.2219 -0.3004 0.9276
vn 0.4591 -0.8472 0.2673
vn 0.0961 0.4286 0.8983
vn 0.2065 0.3900 0.8973
vn 0.4740 0.2607 0.8411
vn 0.1677 0.2135 0.9624
vn 0.6428 -0.2562 0.7219
vn -0.5252 0.1108 -0.8437
vn -0.6631 0.1940 -0.7229
vn -0.1952 0.8380 -0.5096
vn 0.2029 0.9611 -0.1870
vn 0.1333 0.9145 -0.3818
vn -0.5009 0.1447 -0.8533
vn -0.5582 0.1741 -0.8112
vn 0.5880 0.3497 0.7293
vn -0.0123 0.7021 0.7119
vn -0.6080 0.7845 -0.1220
vn -0.5046 0.7574 0.4144
vn -0.2232 0.6425 -0.7331
vn -0.1037 0.9812 -0.1627
vn -0.1213 0.9640 0.2364
vn 0.6060 0.7896 0.0956
vn 0.0204 -0.8354 0.5492
vn -0.5848 0.3027 -0.7526
vn 0.6061 0.5121 0.6086
vn -0.1546 0.4740 -0.8668
vn -0.7214 0.6730 0.1630
vn -0.2231 0.6556 0.7214
vn -0.3668 0.8849 0.2870
vn -0.0210 0.4722 0.8812
vn 0.0043 0.7580 0.6522
vn 0.0828 0.6214 0.7791
vn 0.1780 0.5508 0.8154
vn -0.4286 0.8448 0.3203
vn -0.2125 0.6362 -0.7416
vn 0.5146 0.6934 0.5043
vn 0.1883 0.5906 0.7847
vn -0.5294 0.6087 -0.5909
vn 0.4457 0.8376 0.3157
vn 0.3753 0.9268 0.0113
vn 0.2714 0.6279 0.7294
vn -0.0643 0.8893 0.4527
vn 0.5880 0.7615 0.2726
vn 0.5983 0.4888 0.6348
vn 0.2379 0.6698 0.7034
vn -0.5468 0.6248 -0.5573
vn 0.2606 0.9526 0.1567
vn 0.4335 0.8062 0.4025
vn 0.1884 0.9214 -0.3397
vn -0.6836 0.6119 -0.3977
vn 0.4580 0.8152 -0.3544
vn -0.3906 0.8939 -0.2197
vn -0.4133 0.8848 -0.2151
vn -0.4453 0.5833 -0.6793
vn 0.8436 0.1089 -0.5258
vn 0.2980 0.9524 -0.0642
vn -0.0623 0.9844 0.1642
vn 0.7208 0.3371 0.6055
vn 0.9792 0.1716 0.1075
vn 0.2478 0.3985 0.8830
vn 0.6684 0.1112 0.7354
vn 0.3215 0.9445 0.0674
vn -0.1438 0.6200 0.7713
vn 0.3470 0.8316 -0.4336
vn -0.2743 0.6711 0.6887
vn 0.9379 0.1785 0.2974
usemtl None
s 1
f 14//1 7//2 26//3
f 1//4 3//5 12//6
f 5//7 19//8 29//9
f 14//1 8//10 9//11
f 9//11 10//12 67//13
f 7//2 1//4 12//6
f 6//14 19//8 7//2
f 19//8 1//4 7//2
f 19//8 6//14 13//15
f 1//4 19//8 2//16
f 26//3 12//6 21//17
f 26//3 21//17 15//18
f 1//4 2//16 3//5
f 8//10 14//1 26//3
f 23//19 27//20 28//21
f 19//8 13//15 29//9
f 19//8 4//22 2//16
f 4//22 19//8 5//7
f 6//14 7//2 14//1
f 7//2 12//6 26//3
f 12//6 3//5 21//17
f 2//16 4//22 49//23
f 27//20 22//24 67//13
f 6//14 27//20 13//15
f 22//24 6//14 14//1
f 23//19 13//15 27//20
f 29//9 13//15 50//25
f 50//25 13//15 23//19
f 30//26 3//5 46//27
f 30//26 46//27 31//28
f 32//29 61//30 59//31
f 35//32 34//33 88//34
f 37//35 59//31 68//36
f 109//37 75//38 156//39
f 3//5 2//16 43//40
f 27//20 6//14 22//24
f 21//17 3//5 30//26
f 92//41 72//42 108//43
f 49//23 4//22 48//44
f 22//24 14//1 9//11
f 72//42 45//45 71//46
f 31//28 46//27 32//29
f 5//7 29//9 25//47
f 4//22 5//7 48//44
f 49//23 43//40 2//16
f 29//9 24//48 25//47
f 5//7 25//47 48//44
f 26//3 15//18 8//10
f 8//10 15//18 57//49
f 15//18 21//17 18//50
f 23//19 28//21 50//25
f 46//27 3//5 43//40
f 52//51 46//27 49//23
f 62//52 54//53 52//51
f 22//24 9//11 67//13
f 28//21 27//20 67//13
f 18//50 30//26 66//54
f 51//55 29//9 50//25
f 20//56 30//26 31//28
f 59//31 33//57 36//58
f 9//11 8//10 10//12
f 11//59 28//21 67//13
f 46//27 61//30 32//29
f 25//47 62//52 48//44
f 43//40 49//23 46//27
f 21//17 30//26 18//50
f 29//9 51//55 44//60
f 49//23 48//44 52//51
f 50//25 28//21 11//59
f 20//56 66//54 30//26
f 29//9 44//60 24//48
f 24//48 44//60 47//61
f 24//48 47//61 25//47
f 50//25 11//59 45//45
f 45//45 51//55 50//25
f 46//27 52//51 61//30
f 34//33 54//53 63//62
f 8//10 57//49 10//12
f 15//18 18//50 57//49
f 57//49 17//63 16//64
f 58//65 31//28 32//29
f 36//58 35//32 69//66
f 48//44 62//52 52//51
f 57//49 18//50 17//63
f 45//45 44//60 51//55
f 65//67 20//56 58//65
f 20//56 31//28 58//65
f 58//65 32//29 37//35
f 25//47 47//61 62//52
f 32//29 59//31 37//35
f 33//57 61//30 34//33
f 59//31 61//30 33//57
f 54//53 61//30 52//51
f 10//12 42//68 60//69
f 10//12 57//49 42//68
f 42//68 57//49 16//64
f 67//13 10//12 60//69
f 66//54 20//56 65//67
f 59//31 36//58 68//36
f 45//45 11//59 71//46
f 58//65 38//70 65//67
f 62//52 47//61 107//71
f 18//50 66//54 17//63
f 38//70 58//65 37//35
f 75//38 68//36 41//72
f 68//36 36//58 76//73
f 76//73 36//58 69//66
f 53//74 54//53 62//52
f 36//58 33//57 35//32
f 61//30 54//53 34//33
f 54//53 53//74 78//75
f 54//53 78//75 63//62
f 71//46 67//13 60//69
f 67//13 71//46 11//59
f 66//54 65//67 39//76
f 41//72 68//36 76//73
f 167//77 82//78 89//79
f 84//80 42//68 16//64
f 35//32 33//57 34//33
f 44//60 45//45 91//81
f 65//67 38//70 39//76
f 109//37 74//82 39//76
f 37//35 68//36 38//70
f 62//52 107//71 53//74
f 210//83 87//84 173//85
f 38//70 68//36 75//38
f 44//60 91//81 47//61
f 76//73 69//66 77//86
f 85//87 69//66 35//32
f 85//87 35//32 88//34
f 71//46 60//69 108//43
f 17//63 66//54 73//88
f 72//42 71//46 108//43
f 72//42 92//41 45//45
f 45//45 92//41 91//81
f 101//89 110//90 85//87
f 110//90 97//91 85//87
f 69//66 97//91 77//86
f 69//66 85//87 97//91
f 131//92 99//93 100//94
f 101//89 85//87 106//95
f 102//96 103//97 113//98
f 105//99 106//95 98//100
f 16//64 73//88 84//80
f 129//101 107//71 92//41
f 40//102 75//38 41//72
f 40//102 41//72 76//73
f 53//74 70//103 78//75
f 106//95 85//87 88//34
f 34//33 63//62 64//104
f 16//64 17//63 73//88
f 84//80 73//88 83//105
f 66//54 39//76 73//88
f 39//76 38//70 75//38
f 47//61 91//81 107//71
f 96//106 110//90 101//89
f 98//100 132//107 100//94
f 106//95 88//34 98//100
f 60//69 42//68 108//43
f 111//108 84//80 83//105
f 73//88 39//76 74//82
f 127//109 40//102 93//110
f 95//111 110//90 96//106
f 102//96 96//106 101//89
f 113//98 116//112 104//113
f 102//96 101//89 105//99
f 64//104 88//34 34//33
f 63//62 159//114 64//104
f 101//89 106//95 105//99
f 119//115 118//116 120//117
f 121//118 122//119 120//117
f 123//120 148//121 135//122
f 151//123 125//124 126//125
f 42//68 111//108 108//43
f 75//38 109//37 39//76
f 92//41 107//71 91//81
f 75//38 40//102 156//39
f 40//102 76//73 93//110
f 93//110 76//73 77//86
f 140//126 90//127 109//37
f 110//90 95//111 97//91
f 88//34 132//107 98//100
f 98//100 100//94 128//128
f 100//94 117//129 128//128
f 42//68 84//80 111//108
f 129//101 92//41 130//130
f 129//101 130//130 81//131
f 95//111 96//106 102//96
f 63//62 78//75 70//103
f 100//94 132//107 131//92
f 105//99 98//100 128//128
f 135//122 122//119 123//120
f 122//119 135//122 120//117
f 120//117 135//122 119//115
f 53//74 107//71 79//132
f 97//91 93//110 77//86
f 70//103 53//74 79//132
f 102//96 112//133 133//134
f 102//96 105//99 103//97
f 88//34 64//104 131//92
f 88//34 131//92 132//107
f 135//122 148//121 124//135
f 122//119 121//118 123//120
f 123//120 121//118 126//125
f 123//120 126//125 147//136
f 73//88 74//82 89//79
f 130//130 92//41 108//43
f 94//137 97//91 95//111
f 138//138 137//139 148//121
f 137//139 138//138 139//140
f 139//140 116//112 144//141
f 120//117 118//116 121//118
f 130//130 108//43 111//108
f 141//142 107//71 129//101
f 70//103 55//143 63//62
f 144//141 115//144 139//140
f 63//62 55//143 159//114
f 121//118 118//116 126//125
f 83//105 73//88 89//79
f 127//109 93//110 94//137
f 143//145 94//137 95//111
f 103//97 105//99 115//144
f 64//104 159//114 131//92
f 115//144 105//99 114//146
f 114//146 105//99 128//128
f 148//121 123//120 147//136
f 93//110 97//91 94//137
f 95//111 102//96 133//134
f 148//121 136//147 124//135
f 119//115 135//122 124//135
f 118//116 119//115 151//123
f 114//146 128//128 117//129
f 114//146 152//148 153//149
f 100//94 99//93 117//129
f 137//139 136//147 148//121
f 126//125 118//116 151//123
f 111//108 83//105 89//79
f 156//39 40//102 127//109
f 107//71 141//142 79//132
f 95//111 133//134 143//145
f 102//96 113//98 112//133
f 131//92 160//150 145//151
f 99//93 131//92 145//151
f 147//136 138//138 148//121
f 136//147 150//152 124//135
f 130//130 111//108 89//79
f 90//127 74//82 109//37
f 140//126 127//109 142//153
f 94//137 143//145 127//109
f 133//134 157//154 143//145
f 158//155 208//156 188//157
f 103//97 115//144 144//141
f 156//39 127//109 140//126
f 133//134 112//133 157//154
f 134//158 112//133 200//159
f 55//143 164//160 159//114
f 159//114 160//150 131//92
f 137//139 150//152 136//147
f 147//136 126//125 125//124
f 125//124 161//161 155//162
f 155//162 154//163 116//112
f 125//124 119//115 124//135
f 151//123 119//115 125//124
f 90//127 89//79 74//82
f 70//103 164//160 55//143
f 116//112 147//136 125//124
f 124//135 150//152 161//161
f 125//124 124//135 161//161
f 158//155 188//157 166//164
f 109//37 156//39 140//126
f 208//156 197//165 206//166
f 112//133 113//98 200//159
f 103//97 144//141 113//98
f 138//138 147//136 116//112
f 99//93 145//151 117//129
f 167//77 89//79 90//127
f 130//130 82//78 81//131
f 80//167 141//142 129//101
f 114//146 149//168 139//140
f 137//139 149//168 150//152
f 125//124 155//162 116//112
f 150//152 153//149 161//161
f 127//109 171//169 142//153
f 79//132 163//170 70//103
f 116//112 139//140 138//138
f 115//144 114//146 139//140
f 139//140 149//168 137//139
f 114//146 117//129 152//148
f 130//130 89//79 82//78
f 172//171 200//159 173//85
f 157//154 112//133 134//158
f 174//172 175//173 176//174
f 117//129 145//151 146//175
f 152//148 146//175 179//176
f 191//177 86//178 205//179
f 161//161 153//149 154//163
f 90//127 170//180 167//77
f 127//109 143//145 171//169
f 163//170 79//132 56//181
f 163//170 164//160 70//103
f 145//151 160//150 165//182
f 117//129 146//175 152//148
f 150//152 149//168 153//149
f 155//162 161//161 154//163
f 167//77 170//180 82//78
f 90//127 140//126 170//180
f 171//169 157//154 193//183
f 129//101 81//131 80//167
f 189//184 80//167 186//185
f 180//186 179//176 203//187
f 113//98 144//141 116//112
f 145//151 165//182 146//175
f 141//142 189//184 56//181
f 79//132 141//142 56//181
f 157//154 171//169 143//145
f 157//154 134//158 193//183
f 163//170 56//181 169//188
f 164//160 163//170 162//189
f 113//98 104//113 200//159
f 159//114 164//160 162//189
f 174//172 116//112 154//163
f 174//172 154//163 175//173
f 179//176 146//175 165//182
f 152//148 179//176 180//186
f 153//149 149//168 114//146
f 170//180 142//153 166//164
f 170//180 140//126 142//153
f 80//167 189//184 141//142
f 159//114 162//189 160//150
f 160//150 178//190 165//182
f 116//112 174//172 104//113
f 153//149 175//173 154//163
f 187//191 158//155 166//164
f 56//181 189//184 190//192
f 171//169 193//183 187//191
f 193//183 134//158 172//171
f 169//188 56//181 190//192
f 162//189 194//193 178//190
f 152//148 191//177 153//149
f 153//149 191//177 175//173
f 81//131 185//194 186//185
f 81//131 82//78 185//194
f 172//171 134//158 200//159
f 177//195 104//113 174//172
f 177//195 174//172 176//174
f 82//78 188//157 185//194
f 82//78 170//180 188//157
f 80//167 81//131 186//185
f 171//169 166//164 142//153
f 163//170 169//188 162//189
f 162//189 169//188 194//193
f 200//159 104//113 177//195
f 165//182 203//187 179//176
f 192//196 193//183 172//171
f 193//183 195//197 196//198
f 207//199 198//200 87//84
f 152//148 86//178 191//177
f 166//164 171//169 187//191
f 160//150 162//189 178//190
f 152//148 180//186 86//178
f 185//194 188//157 186//185
f 170//180 166//164 188//157
f 186//185 188//157 201//201
f 189//184 186//185 190//192
f 190//192 186//185 201//201
f 195//197 192//196 202//202
f 202//202 180//186 203//187
f 192//196 181//203 202//202
f 202//202 181//203 180//186
f 191//177 176//174 175//173
f 193//183 192//196 195//197
f 206//166 202//202 203//187
f 199//204 192//196 198//200
f 178//190 203//187 165//182
f 180//186 181//203 204//205
f 158//155 187//191 196//198
f 187//191 193//183 196//198
f 173//85 200//159 177//195
f 192//196 172//171 198//200
f 198//200 172//171 87//84
f 198//200 182//206 199//204
f 206//166 178//190 194//193
f 177//195 176//174 205//179
f 204//205 86//178 180//186
f 168//207 201//201 208//156
f 194//193 169//188 168//207
f 86//178 204//205 205//179
f 176//174 191//177 205//179
f 158//155 196//198 197//165
f 190//192 201//201 169//188
f 169//188 201//201 168//207
f 195//197 202//202 196//198
f 202//202 206//166 196//198
f 172//171 173//85 87//84
f 192//196 199//204 181//203
f 178//190 206//166 203//187
f 201//201 188//157 208//156
f 181//203 182//206 204//205
f 158//155 197//165 208//156
f 210//83 209//208 207//199
f 207//199 209//208 184//209
f 206//166 197//165 196//198
f 168//207 208//156 206//166
f 168//207 206//166 194//193
f 210//83 173//85 177//195
f 177//195 205//179 210//83
f 181//203 199//204 182//206
f 204//205 211//210 205//179
f 210//83 205//179 211//210
f 182//206 211//210 204//205
f 182//206 198//200 183//211
f 87//84 210//83 207//199
f 198//200 207//199 184//209
f 182//206 209//208 211//210
f 211//210 209//208 210//83
f 183//211 209//208 182//206
f 198//200 184//209 183//211
f 209//208 183//211 184//209
