# Blender v2.93.0 OBJ File: 'liver_gallbladder_new_edited_v09.blend'
# www.blender.org
mtllib liver.mtl
o CatHERA1400001.001_CatHERA1400001.004
v 0.494299 -0.534980 0.300171
v 0.541900 -0.492994 0.126602
v 0.328394 -0.374936 0.166800
v 0.231746 -0.299510 0.301356
v 0.420469 -0.471602 0.416644
v 0.422296 -0.448090 0.168151
v 0.380716 -0.438875 0.290105
v 0.252717 -0.217118 0.472708
v 0.587524 -0.375169 0.112420
v 0.452389 -0.393274 0.059396
v 0.507825 -0.369899 -0.060002
v 0.576557 -0.369582 0.278276
v 0.323612 -0.313587 0.043544
v 0.391472 -0.241994 -0.107321
v 0.317813 -0.194480 -0.066126
v 0.354483 -0.193690 -0.124570
v 0.318133 -0.169097 -0.070192
v 0.274148 -0.137128 -0.066258
v 0.311305 -0.356599 0.378189
v 0.349835 -0.317590 0.491392
v 0.423050 -0.296719 -0.114646
v 0.573214 -0.249684 0.087220
v 0.211189 -0.253094 0.081378
v 0.334121 -0.224231 -0.042494
v 0.152600 -0.224236 0.222480
v 0.152818 -0.126898 0.055679
v 0.166511 -0.217317 0.116108
v 0.127022 -0.147847 0.400851
v 0.400387 -0.214727 -0.191360
v 0.277210 -0.215382 -0.015692
v 0.371269 -0.161882 -0.176017
v 0.474840 -0.188766 -0.122298
v 0.204113 -0.202122 0.043288
v 0.204179 -0.173295 0.045679
v 0.244036 -0.194714 0.002428
v 0.143111 -0.187263 0.154486
v 0.161282 -0.169107 0.105777
v 0.270554 -0.166862 -0.036795
v 0.340214 -0.171096 -0.096189
v 0.115438 -0.177191 0.173959
v 0.095773 -0.196026 0.217231
v 0.510480 -0.147262 0.383713
v 0.249153 0.005576 -0.086936
v 0.286024 0.006430 -0.133920
v 0.229037 0.085299 -0.097451
v 0.130606 0.160905 -0.124167
v 0.143754 0.105097 -0.198970
v -0.012136 0.250254 -0.217205
v -0.022727 0.222915 -0.209478
v 0.324553 -0.077966 -0.129780
v 0.237165 -0.037712 -0.046607
v 0.213417 -0.140433 0.022401
v 0.024558 -0.144040 0.217892
v 0.307697 -0.134308 -0.105833
v -0.089236 0.000212 0.352927
v -0.024070 -0.099450 0.266582
v -0.034704 -0.060220 0.323158
v 0.032857 -0.150500 0.316041
v -0.005407 -0.123907 0.252919
v 0.352442 0.029527 0.709622
v 0.047039 -0.132409 0.164744
v 0.100205 -0.117429 0.127883
v 0.055416 -0.027855 0.068497
v 0.005977 0.159721 0.058501
v -0.033516 0.148016 0.086384
v -0.142539 0.209391 0.135745
v 0.176092 -0.102766 0.029069
v 0.369290 -0.133992 -0.197177
v 0.532290 -0.087179 0.135741
v 0.400873 -0.115899 -0.187129
v 0.249269 -0.119424 -0.054495
v -0.030508 -0.086363 0.207318
v 0.318526 0.024974 -0.238037
v 0.269098 0.075635 -0.254931
v 0.240228 0.029425 -0.249816
v 0.270386 0.045701 -0.150758
v 0.174289 -0.073734 0.011425
v 0.200340 -0.008881 -0.018652
v 0.506510 -0.137602 -0.002857
v -0.069183 -0.031556 0.161781
v 0.213032 -0.108695 0.522616
v 0.359045 -0.075818 -0.189592
v 0.291430 -0.071599 -0.090340
v 0.032379 -0.049652 0.095302
v -0.049725 0.057488 0.099978
v -0.033039 0.120831 0.097384
v -0.126729 0.020032 0.122913
v -0.063415 0.002354 0.131532
v -0.064922 0.056876 0.112508
v 0.015107 -0.081581 0.143239
v 0.110235 -0.088860 0.073333
v 0.448000 -0.040329 -0.107593
v 0.330359 -0.031989 -0.156564
v 0.333651 -0.025178 -0.191485
v -0.104223 -0.027135 0.201789
v -0.111049 -0.025010 0.238646
v -0.073738 -0.053054 0.271792
v -0.185171 0.037140 0.234551
v 0.115083 0.008100 0.033641
v 0.025052 0.107494 0.071582
v 0.237958 0.086095 -0.131453
v 0.027914 0.034569 0.499377
v -0.010276 0.047803 0.095316
v 0.190164 -0.006785 0.632560
v 0.055271 0.032237 0.059146
v 0.290271 0.031575 -0.199677
v 0.471396 0.035809 0.496627
v -0.160037 0.069116 0.321861
v -0.132743 0.081835 0.103801
v -0.240949 0.072870 0.200609
v 0.163026 0.084236 -0.214216
v 0.235699 0.053966 -0.276976
v 0.292880 0.020508 -0.235911
v -0.126781 0.048139 0.105098
v -0.266286 0.091972 0.162466
v -0.129216 0.012795 0.301039
v 0.188269 0.104052 -0.302691
v 0.218242 0.043426 -0.264041
v 0.200022 0.064781 -0.231503
v -0.154963 0.021897 0.144679
v -0.226288 0.095325 0.135791
v -0.203154 0.065330 0.246708
v -0.216613 0.053568 0.175776
v -0.021279 0.264845 -0.282750
v -0.059323 0.262487 -0.407514
v -0.021526 0.253925 -0.331619
v 0.310897 0.000462 -0.193551
v 0.088780 0.159781 0.746859
v 0.099151 0.068183 0.019931
v -0.084023 0.123586 0.474155
v 0.220009 0.081205 -0.194235
v 0.069362 0.150755 0.019525
v 0.023858 0.193476 0.020736
v -0.102679 0.242323 -0.136555
v -0.098571 0.250680 -0.106373
v -0.086649 0.297061 -0.017671
v -0.049460 0.265850 -0.015899
v -0.006485 0.260833 0.065068
v -0.040438 0.253082 -0.032209
v -0.185844 0.182719 0.134298
v -0.328079 0.228795 0.118616
v -0.450462 0.282995 0.015051
v -0.349547 0.269937 0.016196
v -0.282717 0.247951 0.027618
v -0.296727 0.255829 0.063446
v -0.400005 0.273765 0.011284
v 0.112470 0.135611 -0.034510
v -0.296575 0.108817 0.189831
v -0.131562 0.092193 0.390923
v 0.057766 0.099587 0.606299
v 0.220235 0.098655 -0.293924
v 0.078844 0.163107 -0.033064
v -0.061181 0.088806 0.115924
v -0.042381 0.101250 0.110538
v -0.248499 0.104056 0.223637
v -0.276902 0.179275 0.235494
v -0.249193 0.186108 0.258115
v -0.277302 0.264616 0.265640
v -0.242170 0.278624 0.291874
v 0.148806 0.161255 -0.333782
v 0.070038 0.221366 -0.324080
v 0.054759 0.285285 -0.258271
v 0.121162 0.114516 -0.215813
v 0.166507 0.113279 -0.052411
v -0.103402 0.108690 0.112046
v -0.228815 0.161074 0.131824
v -0.230109 0.123656 0.250682
v -0.198746 0.157636 0.334694
v -0.039744 0.113587 0.155083
v -0.228904 0.193411 0.294986
v 0.196574 0.118207 -0.168700
v 0.176022 0.134756 -0.101810
v -0.372449 0.179985 0.181692
v -0.373179 0.197830 0.206609
v -0.289972 0.217807 0.129159
v -0.330253 0.144190 0.166826
v 0.143449 0.138274 -0.304041
v -0.087121 0.161076 0.136084
v -0.052174 0.169763 0.119733
v 0.033436 0.194249 -0.026327
v -0.044263 0.116188 0.148257
v -0.019871 0.265961 0.751008
v 0.093785 0.141094 -0.165447
v -0.071189 0.268348 0.109407
v -0.075412 0.280277 0.068983
v -0.112610 0.306923 0.025942
v -0.262396 0.327446 0.034356
v -0.228225 0.366658 0.010257
v -0.292575 0.313472 0.040063
v -0.354524 0.362441 0.036534
v -0.394079 0.421739 0.075920
v -0.384942 0.427863 0.059204
v -0.447751 0.448772 0.096440
v -0.093023 0.210686 -0.124030
v -0.023004 0.174928 -0.103049
v 0.073165 0.169002 -0.093829
v 0.132353 0.162373 -0.097105
v -0.055656 0.150412 0.142001
v -0.332447 0.157181 0.200217
v 0.070480 0.163422 -0.215474
v -0.011143 0.167368 -0.160453
v 0.025861 0.157017 -0.129018
v -0.003712 0.180211 -0.193754
v 0.078498 0.189132 -0.287908
v -0.001944 0.194550 -0.051877
v 0.003772 0.224722 0.021951
v -0.048852 0.261478 0.102215
v -0.013237 0.263777 0.091080
v 0.104776 0.186291 -0.352604
v -0.332336 0.172766 0.154444
v -0.036306 0.200038 0.608125
v 0.124170 0.223848 0.881566
v 0.079786 0.211486 -0.355558
v 0.065122 0.244444 -0.381614
v -0.023293 0.289676 -0.424822
v -0.035341 0.192816 0.100391
v 0.022915 0.329118 -0.260448
v 0.009667 0.360412 -0.342115
v -0.084616 0.216477 -0.153445
v -0.238345 0.255702 0.297801
v 0.031467 0.261522 -0.380938
v -0.371798 0.215246 0.164554
v -0.348332 0.302751 0.244884
v -0.353674 0.390232 0.259397
v -0.429334 0.367575 0.289489
v -0.507570 0.312376 0.102537
v 0.062826 0.238326 -0.287972
v -0.087019 0.187122 0.148348
v -0.072240 0.211034 0.115002
v -0.007734 0.229649 0.069119
v -0.384366 0.204416 0.192383
v -0.183806 0.176907 0.394359
v -0.254845 0.327985 0.320821
v -0.271450 0.293575 0.409532
v 0.429551 0.205275 0.624422
v 0.032362 0.231608 -0.242189
v 0.410896 0.263874 -0.113810
v -0.291582 0.249777 0.086078
v -0.392441 0.229129 0.200882
v -0.229710 0.225365 0.347701
v -0.233997 0.238361 0.110930
v -0.155157 0.272984 0.114837
v -0.419705 0.211215 0.122493
v -0.485225 0.279557 0.147627
v -0.089900 0.212742 -0.103418
v -0.212560 0.394028 0.708293
v -0.053533 0.229074 0.098337
v -0.404241 0.223732 0.175181
v -0.333611 0.289223 0.237256
v -0.344186 0.221374 0.006154
v -0.357359 0.231630 0.024845
v -0.357777 0.257020 0.018871
v -0.318208 0.245524 0.013162
v -0.164350 0.291095 0.091929
v -0.423491 0.231749 0.058676
v -0.451857 0.231203 0.077301
v -0.449829 0.253144 0.034171
v -0.447114 0.225587 0.133856
v 0.045499 0.258276 -0.245522
v -0.082325 0.287903 -0.053482
v -0.492080 0.289009 0.055994
v -0.304681 0.224063 0.230898
v -0.425395 0.287582 0.230182
v -0.407835 0.311314 0.266342
v -0.075652 0.255680 -0.166513
v -0.336158 0.239274 0.043407
v -0.151057 0.245175 0.130658
v -0.485618 0.263817 0.104347
v -0.454649 0.256587 0.178245
v 0.044365 0.296114 -0.313842
v -0.373915 0.242106 0.052338
v 0.476931 0.321319 0.142803
v -0.230159 0.315116 0.538578
v -0.103264 0.274614 -0.366648
v -0.042418 0.247212 -0.331973
v 0.168659 0.401490 -0.238313
v 0.013623 0.306925 -0.193261
v -0.004890 0.328669 -0.191971
v -0.013581 0.379488 -0.260901
v -0.026594 0.374449 -0.270579
v -0.379802 0.306290 0.009541
v 0.027263 0.314130 -0.334727
v -0.084837 0.263879 -0.271001
v -0.123558 0.281900 -0.257782
v -0.181394 0.337969 -0.292705
v 0.045384 0.278214 -0.223783
v -0.264950 0.265092 0.028144
v -0.372548 0.266718 0.229134
v -0.386141 0.287342 0.225416
v -0.247336 0.301981 0.313780
v -0.176988 0.359116 -0.111133
v -0.133649 0.384337 -0.034970
v -0.078761 0.367444 -0.110064
v -0.085052 0.297168 -0.106186
v -0.034212 0.281291 -0.414695
v -0.012588 0.299103 -0.361411
v -0.001415 0.308288 -0.372679
v -0.006190 0.340171 -0.355871
v -0.062325 0.261718 -0.235353
v -0.151299 0.390789 -0.137001
v -0.200512 0.315272 -0.106018
v -0.045516 0.296394 -0.158609
v -0.266218 0.277578 0.065287
v -0.090696 0.278341 -0.458327
v -0.350186 0.323642 -0.092936
v -0.185345 0.269658 -0.176570
v -0.112792 0.270729 -0.182757
v -0.226010 0.286278 -0.108396
v -0.273779 0.296628 0.044719
v -0.067843 0.277616 -0.482379
v -0.086542 0.332683 -0.173999
v -0.459867 0.333967 0.026125
v -0.442917 0.396361 0.077635
v -0.147933 0.315712 -0.322200
v -0.025710 0.298541 -0.253435
v -0.047975 0.286891 -0.220184
v -0.176927 0.313276 -0.527649
v -0.135469 0.301305 -0.385927
v -0.211468 0.283601 -0.208911
v -0.103613 0.313513 -0.156195
v -0.269784 0.299796 -0.077029
v -0.068412 0.345145 -0.135761
v -0.440360 0.313582 0.257604
v -0.104430 0.422540 -0.520174
v -0.307946 0.302628 -0.068052
v -0.466396 0.332750 0.247934
v -0.130076 0.299753 0.655587
v -0.036057 0.405807 -0.201805
v -0.223062 0.336919 -0.266813
v -0.095907 0.339293 -0.034047
v -0.089730 0.342370 -0.077103
v -0.113562 0.374612 -0.052097
v -0.116255 0.348202 -0.015597
v -0.213168 0.402714 -0.040376
v -0.356914 0.322780 0.247132
v -0.366357 0.355443 0.263712
v -0.431830 0.355335 0.029519
v -0.184637 0.317691 0.059443
v -0.505786 0.320325 0.059182
v -0.512463 0.401996 0.164609
v -0.325472 0.333587 0.264527
v -0.279942 0.310825 0.272177
v 0.013081 0.330699 -0.369228
v -0.036936 0.353654 -0.253358
v -0.068610 0.391471 -0.248944
v -0.094001 0.402656 -0.275576
v -0.300723 0.317125 -0.156445
v -0.362192 0.369515 -0.151380
v -0.378106 0.390001 -0.168177
v -0.239588 0.369610 -0.066138
v -0.503594 0.361324 0.185952
v 0.011314 0.358523 -0.282293
v -0.316465 0.325138 -0.058589
v -0.436982 0.383373 -0.022512
v -0.452526 0.364416 -0.075232
v -0.336729 0.363605 -0.034509
v -0.002210 0.330451 -0.383385
v -0.142983 0.409919 -0.119212
v -0.093765 0.407859 -0.105549
v -0.084957 0.407777 -0.239471
v -0.168431 0.333945 0.026685
v -0.359951 0.353342 -0.144488
v -0.434512 0.351873 -0.049894
v -0.312647 0.373631 0.038984
v -0.508518 0.398583 0.133176
v -0.278078 0.344904 0.322906
v -0.017810 0.371365 -0.187885
v -0.022344 0.343677 -0.170925
v -0.375899 0.335473 -0.052258
v -0.319332 0.421656 0.001353
v -0.068831 0.371302 -0.234765
v -0.096584 0.374532 -0.208292
v -0.470997 0.367000 0.255477
v 0.480385 0.416210 0.422684
v -0.494921 0.363800 0.070979
v -0.318187 0.450975 0.450378
v -0.323522 0.415134 0.047857
v -0.456018 0.419894 0.060611
v -0.465854 0.427201 0.114857
v -0.292840 0.393095 -0.237136
v -0.461264 0.368131 -0.054863
v -0.481069 0.390953 -0.032542
v -0.509230 0.402232 0.031127
v -0.536324 0.410178 -0.061274
v -0.050538 0.393105 -0.134435
v -0.222801 0.404755 -0.053998
v -0.201171 0.394940 -0.085559
v -0.376464 0.407035 0.001484
v -0.448978 0.380427 -0.100798
v -0.395138 0.411361 -0.156742
v -0.287748 0.390798 0.026424
v -0.364637 0.397817 0.056408
v -0.096946 0.389378 -0.255946
v -0.282265 0.409236 0.004793
v -0.397430 0.395122 0.301157
v 0.377649 0.651035 0.028963
v -0.267437 0.407584 -0.027570
v -0.421993 0.439869 0.094916
v -0.109666 0.400142 -0.211038
v -0.138154 0.403796 -0.059181
v -0.319924 0.499650 -0.556788
v -0.238174 0.430037 -0.378270
v 0.122974 0.457420 0.809077
v -0.286246 0.422635 0.017021
v -0.659523 0.563336 -0.192744
v 0.301169 0.524608 -0.127286
v -0.454889 0.463691 0.122940
v -0.645267 0.452752 -0.047197
v -0.625573 0.458531 0.075177
v -0.536101 0.440367 0.089441
v -0.320846 0.508597 -0.418359
v -0.551085 0.468760 -0.168468
v -0.757420 0.546969 0.047176
v -0.458173 0.503992 0.242928
v -0.394861 0.481054 -0.267698
v 0.304722 0.618664 0.598504
v -0.132570 0.597277 0.546391
v -0.114167 0.648672 -0.369605
v -0.772121 0.590624 -0.095220
v -0.580613 0.591598 0.034186
v -0.410815 0.595561 -0.473988
v -0.274714 0.646742 0.268470
v -0.533501 0.657175 -0.461287
v -0.687205 0.655346 -0.282823
v 0.142346 0.790731 -0.074315
v 0.366855 0.723520 0.328663
v -0.236866 0.733585 -0.028884
v 0.109016 0.711542 0.485903
v -0.432226 0.696290 -0.257907
v -0.114399 0.795307 0.140385
v 0.119979 0.867233 0.193995
v 0.146574 0.048281 -0.002433
v 0.151515 0.000344 0.013926
v 0.218780 0.051646 -0.069279
v 0.182926 0.053993 -0.036026
vn 0.2176 -0.9311 0.2927
vn 0.1525 -0.6644 0.7316
vn -0.6680 -0.7430 -0.0410
vn -0.5226 -0.7880 -0.3254
vn 0.4014 -0.7891 -0.4649
vn -0.2213 -0.8457 -0.4855
vn -0.6758 -0.7251 0.1323
vn -0.7195 -0.6322 0.2873
vn -0.0396 -0.5543 0.8313
vn -0.6264 -0.7505 -0.2106
vn 0.9357 -0.2363 -0.2618
vn 0.9254 -0.1061 0.3638
vn -0.2297 -0.6045 -0.7627
vn 0.3870 -0.6872 -0.6148
vn -0.5444 -0.6914 -0.4749
vn -0.8284 -0.3778 -0.4135
vn -0.7649 -0.5145 -0.3874
vn -0.6600 -0.4095 -0.6298
vn -0.5927 -0.5535 -0.5850
vn -0.7262 -0.3691 -0.5799
vn -0.6449 -0.3882 -0.6583
vn 0.9021 -0.0211 0.4309
vn -0.6492 -0.6523 -0.3911
vn -0.6502 -0.5596 0.5138
vn 0.9759 0.1532 -0.1553
vn 0.7886 0.0161 -0.6147
vn -0.5927 -0.5980 -0.5394
vn -0.5984 -0.7841 -0.1646
vn -0.7451 -0.5566 -0.3674
vn -0.4890 -0.7074 -0.5103
vn -0.4866 -0.8421 -0.2323
vn -0.4933 -0.5953 0.6343
vn -0.7913 -0.0789 -0.6063
vn -0.7425 -0.2461 -0.6229
vn -0.7656 -0.4213 -0.4862
vn -0.8226 -0.4717 -0.3175
vn -0.5457 -0.6370 0.5444
vn -0.0592 -0.2700 -0.9610
vn -0.5040 -0.5960 -0.6250
vn -0.4108 -0.4418 -0.7975
vn -0.4093 -0.4331 -0.8030
vn -0.6915 -0.3440 -0.6351
vn -0.5167 -0.6399 -0.5688
vn -0.5823 -0.5279 -0.6182
vn -0.6181 -0.7196 0.3164
vn -0.7510 -0.2158 -0.6240
vn 0.9152 0.2609 -0.3070
vn 0.9790 0.1935 -0.0638
vn -0.8112 -0.3099 -0.4959
vn -0.7078 -0.2459 -0.6622
vn -0.7210 -0.1782 -0.6696
vn -0.7814 -0.6089 -0.1361
vn -0.4600 -0.7990 0.3872
vn -0.4949 -0.7465 0.4448
vn -0.2349 -0.9316 0.2771
vn -0.2870 -0.9337 0.2142
vn -0.3675 -0.8030 0.4691
vn -0.7855 -0.4446 -0.4306
vn -0.7962 -0.1564 -0.5845
vn -0.7758 -0.4322 -0.4596
vn -0.5996 -0.7656 -0.2331
vn -0.7165 -0.3337 -0.6125
vn -0.4753 -0.6729 -0.5668
vn -0.2592 -0.2630 -0.9293
vn -0.6536 -0.7150 0.2480
vn -0.6467 -0.7584 0.0808
vn -0.7299 -0.6707 0.1317
vn -0.7026 -0.7115 -0.0100
vn 0.4009 -0.4162 0.8161
vn -0.7663 -0.5223 -0.3742
vn -0.6674 -0.4906 -0.5602
vn -0.6254 -0.2425 -0.7416
vn 0.0202 -0.0383 -0.9991
vn -0.7789 -0.0952 -0.6199
vn -0.1735 0.0600 -0.9830
vn 0.0559 0.0094 -0.9984
vn 0.0262 -0.2373 -0.9711
vn -0.2541 -0.1530 -0.9550
vn 0.8520 0.1722 -0.4943
vn 0.5229 -0.0501 -0.8509
vn -0.2019 -0.9002 -0.3858
vn -0.2891 -0.9493 -0.1233
vn -0.7390 -0.6728 -0.0335
vn -0.7292 -0.5269 -0.4366
vn -0.5358 -0.3229 -0.7802
vn -0.5790 -0.5743 -0.5787
vn -0.6303 -0.7223 -0.2846
vn -0.4553 -0.0936 -0.8854
vn -0.5483 -0.4189 -0.7238
vn -0.5026 -0.6463 -0.5741
vn -0.6285 -0.6472 0.4314
vn 0.5223 0.0038 -0.8527
vn -0.4855 -0.2921 -0.8240
vn -0.5858 -0.5983 0.5466
vn -0.6475 -0.2399 -0.7233
vn -0.4912 -0.5334 -0.6886
vn -0.4686 -0.7119 -0.5230
vn -0.2858 -0.4873 -0.8251
vn -0.5611 -0.8039 -0.1971
vn -0.7471 -0.5911 -0.3041
vn -0.6905 -0.6294 0.3565
vn -0.7412 -0.3138 -0.5934
vn -0.6614 -0.6973 0.2762
vn 0.9396 -0.0830 0.3319
vn -0.4803 -0.2102 -0.8515
vn -0.7429 -0.4913 0.4547
vn -0.3850 -0.5483 0.7424
vn -0.5311 -0.2261 -0.8165
vn -0.5705 -0.8149 -0.1022
vn -0.6153 -0.6259 0.4791
vn -0.0332 -0.2689 0.9626
vn 0.8304 0.0866 0.5503
vn 0.1206 0.4911 0.8627
vn -0.6372 -0.5593 -0.5302
vn -0.2042 -0.1386 -0.9691
vn -0.3233 -0.0999 -0.9410
vn -0.4699 -0.4231 -0.7747
vn -0.6687 -0.7374 0.0956
vn -0.2987 -0.6455 -0.7029
vn -0.5100 -0.1466 -0.8476
vn -0.5114 -0.7360 -0.4436
vn -0.1520 -0.2984 -0.9422
vn -0.6093 -0.7324 0.3038
vn -0.4895 -0.8340 0.2545
vn -0.3220 -0.8297 0.4560
vn -0.5440 -0.7113 -0.4450
vn -0.6029 -0.7922 -0.0940
vn 0.1919 -0.4477 -0.8733
vn -0.6961 -0.4978 0.5173
vn -0.5566 -0.6454 0.5230
vn -0.4368 -0.8193 -0.3713
vn 0.5932 0.1589 -0.7892
vn -0.5486 -0.3588 -0.7552
vn -0.3955 -0.3143 -0.8630
vn -0.7065 -0.5241 0.4755
vn -0.3144 -0.9430 -0.1093
vn -0.5516 -0.8338 0.0239
vn -0.3365 -0.6686 -0.6630
vn -0.1497 -0.5350 -0.8315
vn -0.5781 -0.3052 -0.7567
vn -0.4872 -0.7460 0.4540
vn -0.7031 -0.3179 -0.6360
vn -0.5552 -0.6755 -0.4853
vn -0.6237 -0.3639 -0.6917
vn -0.3483 -0.8960 0.2756
vn -0.7445 -0.5533 0.3735
vn -0.7912 -0.6108 -0.0285
vn -0.9534 0.1909 -0.2335
vn -0.9589 0.0403 -0.2810
vn -0.9776 0.0204 0.2095
vn -0.8043 -0.5936 0.0256
vn -0.7992 -0.6002 -0.0315
vn -0.6226 -0.7728 0.1230
vn -0.0887 0.0603 -0.9942
vn -0.5687 -0.5664 -0.5965
vn -0.5037 -0.2109 -0.8377
vn -0.0238 -0.4083 -0.9125
vn 0.0963 0.1650 -0.9816
vn 0.0143 -0.0459 -0.9988
vn 0.1599 -0.9608 0.2264
vn 0.4957 -0.8677 -0.0370
vn 0.2408 -0.8446 -0.4781
vn -0.7156 0.2201 -0.6629
vn -0.0178 -0.9413 -0.3371
vn -0.1375 0.4391 -0.8878
vn 0.1890 0.2944 -0.9368
vn -0.6120 -0.5936 0.5225
vn 0.7992 0.2075 -0.5640
vn -0.6360 -0.7313 0.2463
vn 0.4876 -0.0322 -0.8724
vn -0.5520 -0.5177 -0.6537
vn -0.8198 0.4510 -0.3528
vn 0.2531 -0.2710 -0.9287
vn -0.1138 -0.4736 -0.8733
vn -0.7693 -0.5632 -0.3014
vn -0.8737 -0.4859 -0.0195
vn -0.6680 -0.7033 -0.2431
vn 0.5881 0.2709 -0.7620
vn 0.0210 0.2262 -0.9738
vn -0.1303 -0.0095 -0.9914
vn -0.8889 -0.2633 0.3750
vn -0.6924 -0.2712 0.6685
vn -0.7249 -0.3479 0.5945
vn -0.5766 -0.7934 -0.1953
vn -0.5929 -0.4525 0.6661
vn 0.9515 0.2686 -0.1497
vn -0.8228 -0.4151 0.3881
vn -0.4287 -0.2863 -0.8569
vn -0.3622 -0.4277 -0.8282
vn -0.7407 -0.1734 -0.6490
vn -0.4957 -0.5117 0.7017
vn -0.5574 -0.7428 0.3709
vn -0.5806 -0.6954 0.4235
vn -0.5597 -0.7471 -0.3585
vn -0.5435 -0.8093 -0.2227
vn -0.7195 -0.0948 -0.6879
vn -0.3412 -0.5733 -0.7449
vn -0.3003 -0.9370 -0.1782
vn -0.2987 -0.4230 -0.8554
vn 0.1118 0.0837 -0.9902
vn 0.0692 0.3723 -0.9255
vn -0.1976 0.4223 -0.8846
vn -0.1706 0.5302 -0.8305
vn 0.0681 -0.9124 0.4037
vn -0.1368 -0.9872 -0.0811
vn -0.6017 -0.5112 -0.6137
vn 0.1185 -0.8148 -0.5674
vn -0.9477 -0.1790 0.2641
vn -0.5910 -0.5963 -0.5431
vn -0.7505 -0.5475 0.3700
vn -0.1311 -0.9708 0.2006
vn -0.1741 -0.9643 0.1996
vn -0.4046 -0.8921 -0.2010
vn -0.7992 -0.5756 -0.1726
vn -0.4922 -0.2783 0.8248
vn -0.3807 -0.9144 -0.1376
vn -0.4283 -0.6774 -0.5980
vn 0.2747 -0.3714 -0.8869
vn 0.6020 -0.7188 -0.3477
vn 0.9457 -0.3206 0.0527
vn 0.7166 -0.6962 -0.0403
vn -0.8629 -0.4709 0.1832
vn -0.9256 -0.3462 -0.1531
vn -0.3615 -0.7647 0.5334
vn -0.5415 -0.8339 0.1068
vn -0.6570 -0.1276 -0.7430
vn -0.1308 -0.5721 -0.8097
vn -0.3500 -0.8218 -0.4496
vn -0.5610 -0.3619 0.7445
vn -0.8958 -0.4325 0.1017
vn -0.4404 -0.0313 -0.8972
vn -0.9076 -0.1459 0.3936
vn -0.5364 -0.2069 0.8182
vn -0.4052 -0.2931 0.8659
vn -0.6451 -0.6962 0.3147
vn -0.8401 -0.0225 -0.5420
vn -0.5526 -0.2603 -0.7917
vn -0.6766 0.2815 -0.6804
vn -0.5166 0.3469 -0.7828
vn -0.6453 -0.1706 -0.7446
vn -0.9477 -0.1002 -0.3031
vn -0.7114 -0.4505 -0.5393
vn -0.8897 -0.4455 0.0996
vn 0.1266 -0.5608 -0.8182
vn -0.8417 -0.5322 0.0909
vn -0.5069 -0.4978 0.7037
vn -0.6468 -0.6414 0.4125
vn -0.3646 -0.5442 -0.7556
vn 0.0924 -0.6445 -0.7589
vn 0.0521 -0.2965 -0.9536
vn -0.6696 -0.7222 0.1730
vn -0.8696 -0.2252 0.4394
vn 0.5912 -0.6264 -0.5080
vn 0.0361 -0.7755 -0.6303
vn -0.0549 -0.8278 -0.5582
vn -0.0413 -0.8874 -0.4592
vn -0.1515 -0.9879 -0.0327
vn -0.5105 -0.8223 -0.2512
vn -0.4047 -0.6701 -0.6222
vn -0.8111 -0.4214 -0.4056
vn -0.8256 -0.5639 0.0181
vn 0.0412 -0.9225 -0.3837
vn -0.4122 -0.8789 0.2399
vn -0.5815 -0.7882 0.2011
vn -0.0586 -0.7687 -0.6369
vn -0.6615 -0.7454 -0.0825
vn -0.6334 -0.6308 0.4482
vn -0.2365 -0.2344 0.9429
vn -0.2045 -0.7068 0.6771
vn -0.7631 -0.5343 0.3635
vn 0.3141 -0.4241 -0.8494
vn 0.4666 0.1921 -0.8633
vn -0.9272 -0.3197 0.1952
vn 0.0235 -0.3481 0.9372
vn -0.7979 0.1080 -0.5930
vn -0.6328 0.2591 -0.7296
vn 0.4937 -0.8192 -0.2917
vn -0.6440 -0.4562 -0.6140
vn 0.0448 -0.8046 -0.5921
vn -0.2026 -0.2723 0.9406
vn 0.0131 -0.9994 -0.0324
vn 0.2814 -0.8999 0.3330
vn -0.6198 0.4870 -0.6153
vn 0.8336 -0.1809 -0.5218
vn -0.3142 -0.2199 0.9235
vn 0.0834 -0.9738 -0.2116
vn -0.3458 -0.9368 -0.0531
vn -0.5192 -0.8536 -0.0422
vn 0.7997 -0.5476 0.2462
vn 0.7304 -0.3131 0.6070
vn 0.7391 -0.2292 0.6334
vn 0.2620 -0.9481 0.1800
vn 0.5774 -0.4641 0.6717
vn 0.4754 -0.6373 -0.6065
vn -0.1421 -0.9898 0.0054
vn 0.2839 -0.8141 0.5065
vn -0.8110 0.0958 -0.5771
vn -0.6731 0.0030 -0.7395
vn -0.7504 -0.2804 -0.5985
vn 0.6946 0.0189 -0.7191
vn -0.8342 -0.4802 0.2711
vn -0.5785 -0.8156 -0.0040
vn -0.4650 -0.7872 -0.4050
vn -0.3795 -0.8457 -0.3752
vn -0.2387 -0.7937 0.5595
vn -0.5614 -0.6122 -0.5567
vn -0.5077 -0.7693 -0.3877
vn -0.4077 -0.9076 -0.0997
vn 0.1911 -0.8152 0.5466
vn -0.5375 -0.4653 0.7033
vn -0.9626 -0.2608 0.0733
vn -0.3896 -0.2003 -0.8989
vn -0.9335 -0.1671 0.3172
vn -0.9674 -0.2513 0.0312
vn -0.6414 -0.7256 0.2492
vn -0.7972 -0.5990 0.0750
vn 0.9184 -0.0203 0.3952
vn -0.4979 -0.7881 -0.3618
vn -0.8808 -0.3831 0.2782
vn -0.6916 -0.2252 -0.6862
vn 0.4489 -0.3315 0.8298
vn -0.8846 -0.0172 -0.4659
vn -0.0307 -0.4100 -0.9116
vn -0.1147 -0.4891 0.8646
vn 0.9594 0.2222 0.1738
vn 0.8430 -0.4483 0.2972
vn 0.8190 0.2185 0.5306
vn 0.5731 -0.2119 0.7916
vn 0.7313 0.2408 0.6381
vn 0.2553 -0.5213 0.8142
vn -0.0155 -0.5531 0.8329
vn 0.4293 -0.4171 0.8010
vn 0.2632 -0.9034 0.3386
vn -0.7882 -0.5908 -0.1721
vn -0.8492 -0.5072 -0.1468
vn -0.3976 0.3210 -0.8596
vn -0.5909 -0.7307 -0.3417
vn 0.2044 -0.2355 0.9501
vn -0.8039 -0.1270 0.5811
vn -0.3363 -0.8565 0.3914
vn 0.5858 -0.0685 0.8075
vn -0.5891 -0.5631 -0.5795
vn -0.8438 -0.4081 -0.3484
vn -0.7272 -0.5258 -0.4412
vn -0.7288 -0.3733 0.5739
vn 0.0498 -0.6027 0.7964
vn 0.0465 -0.2670 0.9626
vn 0.3030 -0.2398 0.9223
vn -0.4552 -0.4920 0.7421
vn -0.1256 -0.5652 0.8153
vn -0.5135 -0.4949 -0.7009
vn -0.4184 -0.5774 0.7010
vn -0.2935 -0.5346 0.7925
vn -0.1433 -0.0668 0.9874
vn 0.2000 -0.2753 0.9403
vn 0.4686 0.6596 0.5876
vn 0.6506 0.6308 0.4227
vn 0.7348 0.5778 0.3551
vn 0.8992 -0.2443 0.3629
vn -0.5645 -0.6456 -0.5142
vn -0.3291 -0.9037 0.2739
vn 0.5271 -0.6298 0.5705
vn -0.1411 -0.8468 0.5127
vn -0.3755 -0.8717 0.3149
vn -0.1130 -0.8021 0.5864
vn -0.4742 -0.8418 0.2578
vn -0.4447 -0.8415 -0.3068
vn -0.4004 -0.8987 -0.1787
vn -0.4540 -0.6952 -0.5572
vn 0.1596 -0.5227 0.8374
vn 0.0985 -0.8727 0.4782
vn -0.8456 -0.3520 -0.4012
vn -0.7530 -0.3535 -0.5550
vn -0.8335 -0.0546 -0.5497
vn -0.4451 -0.8097 -0.3823
vn -0.9446 -0.1905 -0.2673
vn -0.2360 -0.7325 -0.6385
vn -0.8220 -0.5676 -0.0448
vn -0.5446 -0.4494 -0.7081
vn -0.5125 -0.4711 -0.7178
vn -0.7290 0.0046 0.6844
vn -0.2185 0.0350 -0.9752
vn -0.3862 -0.3749 -0.8427
vn -0.6311 -0.7209 -0.2862
vn -0.4302 -0.6967 -0.5741
vn 0.6574 0.3168 -0.6837
vn -0.2509 -0.5865 -0.7701
vn 0.4944 -0.7855 0.3723
vn -0.7132 -0.6924 -0.1088
vn -0.5423 -0.5623 -0.6242
vn -0.8168 -0.3040 -0.4903
vn -0.1560 -0.9239 -0.3494
vn -0.6459 0.4967 -0.5796
vn -0.8750 0.0960 0.4745
vn -0.8094 -0.0174 0.5869
vn -0.5031 -0.8632 -0.0423
vn -0.5175 -0.0424 -0.8546
vn -0.8378 0.4833 -0.2540
vn -0.3506 -0.9006 0.2567
vn -0.2058 -0.9432 0.2606
vn -0.6516 -0.7398 -0.1674
vn -0.3022 -0.1150 -0.9463
vn -0.5131 -0.0472 -0.8570
vn 0.1416 -0.7609 0.6332
vn 0.4998 0.6286 0.5958
vn -0.0203 -0.9785 0.2054
vn -0.2605 -0.8818 -0.3931
vn -0.5176 -0.2516 -0.8178
vn -0.2975 0.6390 -0.7093
vn -0.5802 0.4980 -0.6445
vn -0.6097 -0.5255 0.5933
vn 0.0758 -0.8631 0.4993
vn -0.0973 -0.9950 0.0222
vn -0.4165 -0.7413 -0.5263
vn -0.6334 -0.7146 -0.2968
vn 0.0782 -0.9092 0.4089
vn 0.3153 0.7452 -0.5875
vn -0.8581 -0.4352 -0.2726
vn -0.4308 -0.7768 -0.4593
vn -0.8495 0.0750 0.5222
vn -0.7138 0.3312 0.6171
vn 0.3002 0.8215 -0.4847
vn 0.8434 0.3945 -0.3647
vn -0.3701 0.8085 0.4575
vn -0.4421 0.7450 0.4994
vn -0.8768 0.2878 -0.3853
vn 0.6798 0.7120 0.1757
vn -0.5043 0.7676 0.3955
vn -0.8918 0.3435 -0.2945
vn -0.5053 0.2508 -0.8257
vn -0.0777 0.8641 0.4972
vn -0.0960 0.9947 -0.0365
vn -0.2949 0.9549 -0.0338
vn -0.3793 0.9192 0.1057
vn 0.0795 0.9931 0.0862
usemtl None
s 1
f 1//1 5//2 7//3
f 6//4 1//1 7//3
f 2//5 6//4 10//6
f 6//4 2//5 1//1
f 4//7 7//3 19//8
f 5//2 1//1 20//9
f 3//10 6//4 7//3
f 2//5 9//11 12//12
f 1//1 2//5 12//12
f 2//5 10//6 9//11
f 7//3 5//2 19//8
f 1//1 12//12 20//9
f 19//8 5//2 20//9
f 21//13 11//14 10//6
f 3//10 7//3 4//7
f 10//6 6//4 13//15
f 16//16 14//17 15//18
f 18//19 54//20 17//21
f 9//11 10//6 11//14
f 12//12 42//22 20//9
f 21//13 10//6 13//15
f 3//10 13//15 6//4
f 3//10 4//7 23//23
f 4//7 19//8 8//24
f 9//11 11//14 22//25
f 19//8 20//9 8//24
f 11//14 21//13 32//26
f 14//17 21//13 13//15
f 13//15 3//10 23//23
f 22//25 11//14 32//26
f 12//12 9//11 42//22
f 24//27 13//15 23//23
f 42//22 9//11 22//25
f 23//23 4//7 25//28
f 13//15 24//27 14//17
f 36//29 25//28 40//30
f 40//30 25//28 41//31
f 20//9 81//32 8//24
f 34//33 33//34 37//35
f 23//23 27//36 33//34
f 28//37 8//24 81//32
f 23//23 25//28 27//36
f 29//38 21//13 14//17
f 23//23 33//34 30//39
f 24//27 23//23 30//39
f 15//18 30//39 38//40
f 4//7 8//24 28//37
f 14//17 16//16 29//38
f 29//38 16//16 31//41
f 29//38 31//41 32//26
f 35//42 30//39 33//34
f 25//28 36//29 27//36
f 15//18 14//17 24//27
f 15//18 24//27 30//39
f 37//35 62//43 26//44
f 4//7 28//37 58//45
f 25//28 4//7 58//45
f 38//40 30//39 71//46
f 30//39 35//42 71//46
f 22//25 79//47 69//48
f 22//25 69//48 42//22
f 41//31 25//28 58//45
f 21//13 29//38 32//26
f 15//18 39//49 16//16
f 35//42 33//34 34//33
f 33//34 27//36 37//35
f 71//46 51//50 83//51
f 76//52 171//53 131//54
f 46//55 183//56 47//57
f 32//26 79//47 22//25
f 37//35 27//36 36//29
f 93//58 50//59 44//60
f 16//16 39//49 31//41
f 31//41 39//49 54//20
f 39//49 15//18 17//21
f 15//18 38//40 17//21
f 41//31 58//45 53//61
f 35//42 34//33 52//62
f 40//30 41//31 53//61
f 40//30 53//61 61//63
f 32//26 31//41 68//64
f 35//42 52//62 71//46
f 97//65 96//66 56//67
f 54//20 39//49 17//21
f 34//33 37//35 52//62
f 53//61 58//45 59//68
f 81//32 20//9 60//69
f 31//41 54//20 68//64
f 133//70 132//71 64//72
f 181//73 86//74 169//75
f 140//76 66//77 228//78
f 37//35 36//29 62//43
f 62//43 36//29 40//30
f 17//21 38//40 18//19
f 38//40 71//46 18//19
f 26//44 52//62 37//35
f 61//63 62//43 40//30
f 59//68 58//45 56//67
f 68//64 54//20 50//59
f 54//20 18//19 71//46
f 79//47 32//26 92//79
f 71//46 52//62 51//50
f 73//80 113//81 75//82
f 101//83 76//52 45//84
f 51//50 52//62 77//85
f 26//44 62//43 91//86
f 53//61 59//68 72//87
f 82//88 68//64 50//59
f 52//62 26//44 67//89
f 26//44 91//86 67//89
f 72//87 59//68 56//67
f 61//63 90//90 62//43
f 61//63 53//61 72//87
f 54//20 83//51 50//59
f 56//67 58//45 57//91
f 54//20 71//46 83//51
f 32//26 68//64 70//92
f 77//85 52//62 67//89
f 90//90 61//63 72//87
f 70//92 68//64 82//88
f 67//89 91//86 63//93
f 58//45 28//37 102//94
f 51//50 77//85 78//95
f 91//86 62//43 84//96
f 63//93 91//86 84//96
f 84//96 62//43 90//90
f 90//90 72//87 80//97
f 84//96 80//97 88//98
f 95//99 72//87 56//67
f 77//85 67//89 63//93
f 70//92 82//88 94//100
f 92//79 32//26 70//92
f 96//66 97//65 116//101
f 56//67 57//91 97//65
f 50//59 93//58 82//88
f 50//59 83//51 43//102
f 84//96 90//90 80//97
f 95//99 56//67 96//66
f 116//101 98//103 96//66
f 57//91 58//45 102//94
f 93//58 94//100 82//88
f 72//87 95//99 80//97
f 20//9 42//22 107//104
f 50//59 43//102 44//60
f 79//47 92//79 69//48
f 99//105 77//85 63//93
f 108//106 98//103 116//101
f 81//32 60//69 104//107
f 83//51 51//50 43//102
f 51//50 78//95 43//102
f 78//95 77//85 433//108
f 94//100 73//80 70//92
f 95//99 96//66 123//109
f 55//110 97//65 57//91
f 212//111 235//112 403//113
f 94//100 93//58 127//114
f 63//93 84//96 89//115
f 97//65 55//110 116//101
f 28//37 81//32 104//107
f 92//79 70//92 73//80
f 103//116 89//115 85//117
f 113//81 94//100 106//118
f 127//114 106//118 94//100
f 57//91 102//94 55//110
f 28//37 104//107 102//94
f 80//97 87//119 88//98
f 20//9 107//104 60//69
f 63//93 89//115 103//116
f 89//115 84//96 88//98
f 94//100 113//81 73//80
f 44//60 127//114 93//58
f 63//93 105//120 99//105
f 120//121 80//97 95//99
f 87//119 80//97 120//121
f 88//98 114//122 89//115
f 123//109 98//103 110//123
f 111//124 119//125 131//54
f 177//126 111//124 163//127
f 73//80 75//82 112//128
f 113//81 106//118 75//82
f 88//98 87//119 114//122
f 95//99 123//109 120//121
f 149//129 55//110 102//94
f 55//110 149//129 116//101
f 104//107 60//69 150//130
f 112//128 75//82 118//131
f 92//79 73//80 74//132
f 78//95 433//108 432//133
f 120//121 121//134 87//119
f 123//109 96//66 98//103
f 98//103 122//135 110//123
f 304//136 318//137 317//138
f 112//128 118//131 117//139
f 74//132 73//80 112//128
f 99//105 105//120 129//140
f 104//107 150//130 102//94
f 128//141 150//130 60//69
f 43//102 434//142 45//84
f 120//121 123//109 115//143
f 118//131 75//82 119//125
f 119//125 75//82 131//54
f 131//54 106//118 76//52
f 44//60 43//102 45//84
f 78//95 432//133 435//144
f 106//118 127//114 76//52
f 44//60 45//84 76//52
f 195//145 245//146 194//147
f 294//148 134//149 135//150
f 206//151 138//152 137//153
f 89//115 114//122 109//154
f 75//82 106//118 131//54
f 45//84 434//142 164//155
f 105//120 103//116 100//156
f 146//157 281//158 143//159
f 266//160 145//161 238//162
f 252//163 271//164 143//159
f 89//115 109//154 153//165
f 153//165 109//154 165//166
f 98//103 108//106 122//135
f 177//126 118//131 111//124
f 114//122 87//119 121//134
f 69//48 107//104 42//22
f 149//129 102//94 130//167
f 69//48 92//79 237//168
f 115//143 123//109 148//169
f 108//106 116//101 149//129
f 92//79 74//132 237//168
f 118//131 119//125 111//124
f 47//57 171//53 46//55
f 112//128 151//170 74//132
f 101//83 171//53 76//52
f 164//155 129//140 147//171
f 105//120 100//156 129//140
f 153//165 154//172 85//117
f 154//172 169//75 86//74
f 151//170 112//128 117//139
f 177//126 160//173 117//139
f 209//174 204//175 161//176
f 209//174 161//176 213//177
f 117//139 118//131 177//126
f 111//124 131//54 171//53
f 103//116 85//117 100//156
f 121//134 120//121 115//143
f 123//109 110//123 148//169
f 276//178 237//168 74//132
f 181//73 153//165 165//166
f 181//73 165//166 178//179
f 109//154 114//122 121//134
f 109//154 121//134 166//180
f 85//117 89//115 153//165
f 170//181 157//182 167//183
f 45//84 172//184 101//83
f 153//165 181//73 154//172
f 110//123 122//135 155//185
f 111//124 47//57 163//127
f 47//57 111//124 171//53
f 46//55 171//53 172//184
f 148//169 110//123 155//185
f 154//172 181//73 169//75
f 107//104 69//48 272//186
f 177//126 163//127 204//175
f 171//53 101//83 172//184
f 100//156 85//117 86//74
f 85//117 154//172 86//74
f 155//185 122//135 167//183
f 167//183 108//106 168//187
f 108//106 167//183 122//135
f 45//84 164//155 172//184
f 165//166 109//154 140//76
f 115//143 210//188 121//134
f 198//189 178//179 179//190
f 148//169 155//185 199//191
f 150//130 182//192 327//193
f 200//194 163//127 183//56
f 147//171 129//140 132//71
f 151//170 117//139 160//173
f 47//57 183//56 163//127
f 172//184 164//155 152//195
f 64//72 86//74 65//196
f 178//179 165//166 140//76
f 184//197 185//198 207//199
f 189//200 281//158 190//201
f 392//202 190//201 337//203
f 193//204 192//205 398//206
f 193//204 407//207 340//208
f 115//143 176//209 210//188
f 115//143 148//169 176//209
f 149//129 130//167 232//210
f 150//130 128//141 182//192
f 109//154 166//180 140//76
f 86//74 181//73 179//190
f 108//106 149//129 168//187
f 276//178 151//170 160//173
f 151//170 276//178 74//132
f 183//56 196//211 202//212
f 201//213 195//145 194//147
f 152//195 164//155 147//171
f 152//195 147//171 132//71
f 149//129 232//210 168//187
f 183//56 46//55 196//211
f 64//72 100//156 86//74
f 178//179 140//76 228//78
f 173//214 148//169 199//191
f 199//191 155//185 156//215
f 102//94 150//130 130//167
f 201//213 183//56 202//212
f 197//216 152//195 196//211
f 132//71 129//140 100//156
f 65//196 86//74 179//190
f 181//73 198//189 179//190
f 166//180 121//134 210//188
f 176//209 148//169 173//214
f 155//185 167//183 156//215
f 235//112 60//69 107//104
f 200//194 183//56 201//213
f 200//194 201//213 203//217
f 197//216 172//184 152//195
f 132//71 100//156 64//72
f 170//181 167//183 168//187
f 163//127 200//194 204//175
f 46//55 172//184 197//216
f 181//73 178//179 198//189
f 160//173 177//126 209//174
f 160//173 209//174 276//178
f 209//174 213//177 214//218
f 295//219 296//220 126//221
f 209//174 177//126 204//175
f 201//213 202//212 195//145
f 60//69 212//111 128//141
f 270//222 161//176 162//223
f 46//55 197//216 196//211
f 202//212 196//211 205//224
f 196//211 180//225 205//224
f 65//196 179//190 216//226
f 179//190 228//78 216//226
f 202//212 205//224 195//145
f 195//145 205//224 245//146
f 196//211 152//195 180//225
f 152//195 132//71 133//70
f 216//226 64//72 65//196
f 176//209 173//214 210//188
f 175//227 210//188 222//228
f 173//214 199//191 174//229
f 174//229 199//191 156//215
f 167//183 157//182 156//215
f 170//181 168//187 240//230
f 228//78 179//190 178//179
f 184//197 247//231 66//77
f 157//182 220//232 158//233
f 157//182 158//233 262//234
f 150//130 211//235 130//167
f 152//195 133//70 180//225
f 69//48 237//168 272//186
f 216//226 230//236 64//72
f 210//188 173//214 222//228
f 49//237 265//238 48//239
f 49//237 236//240 203//217
f 64//72 230//236 133//70
f 140//76 166//180 175//227
f 204//175 227//241 161//176
f 204//175 200//194 236//240
f 219//242 201//213 194//147
f 166//180 210//188 175//227
f 240//230 232//210 234//243
f 128//141 212//111 182//192
f 276//178 209//174 214//218
f 219//242 203//217 201//213
f 241//244 140//76 175//227
f 173//214 174//229 231//245
f 174//229 156//215 239//246
f 200//194 203//217 236//240
f 139//247 205//224 180//225
f 229//248 216//226 228//78
f 242//249 267//250 241//244
f 222//228 173//214 231//245
f 156//215 262//234 239//246
f 156//215 157//182 262//234
f 214//218 213//177 221//251
f 213//177 161//176 221//251
f 66//77 229//248 228//78
f 204//175 236//240 227//241
f 219//242 49//237 203//217
f 135//150 194//147 245//146
f 206//151 180//225 133//70
f 66//77 140//76 241//244
f 174//229 239//246 231//245
f 158//233 220//232 159//252
f 130//167 211//235 327//193
f 150//130 327//193 211//235
f 245//146 205//224 139//247
f 241//244 303//253 254//254
f 338//255 185//198 254//254
f 255//256 243//257 256//258
f 255//256 256//258 257//259
f 261//260 256//258 268//261
f 141//262 175//227 222//228
f 243//257 248//263 258//264
f 243//257 222//228 248//263
f 168//187 232//210 240//230
f 236//240 49//237 48//239
f 134//149 219//242 194//147
f 250//265 266//160 251//266
f 133//70 230//236 206//151
f 230//236 216//226 229//248
f 230//236 229//248 247//231
f 247//231 229//248 66//77
f 141//262 243//257 271//164
f 242//249 254//254 184//197
f 184//197 254//254 185//198
f 141//262 222//228 243//257
f 248//263 239//246 258//264
f 258//264 239//246 269//267
f 222//228 231//245 248//263
f 231//245 239//246 248//263
f 262//234 288//268 239//246
f 288//268 263//269 239//246
f 170//181 220//232 157//182
f 49//237 219//242 265//238
f 243//257 258//264 256//258
f 66//77 267//250 184//197
f 242//249 184//197 267//250
f 66//77 241//244 267//250
f 170//181 240//230 220//232
f 232//210 130//167 273//270
f 180//225 206//151 139//247
f 251//266 252//163 250//265
f 250//265 253//271 266//160
f 255//256 271//164 243//257
f 268//261 258//264 269//267
f 276//178 214//218 324//272
f 265//238 219//242 134//149
f 134//149 194//147 135//150
f 245//146 139//247 260//273
f 263//269 288//268 289//274
f 286//275 265//238 302//276
f 206//151 137//153 139//247
f 253//271 144//277 266//160
f 266//160 144//277 145//161
f 251//266 271//164 252//163
f 143//159 255//256 146//157
f 206//151 230//236 138//152
f 138//152 230//236 208//278
f 230//236 247//231 208//278
f 141//262 238//162 175//227
f 175//227 238//162 241//244
f 258//264 268//261 256//258
f 130//167 327//193 273//270
f 215//279 324//272 214//218
f 215//279 297//280 296//220
f 275//281 126//221 299//282
f 48//239 259//283 236//240
f 48//239 265//238 286//275
f 253//271 250//265 252//163
f 287//284 144//277 253//271
f 251//266 266//160 271//164
f 238//162 141//262 271//164
f 158//233 249//285 288//268
f 215//279 221//251 297//280
f 125//286 126//221 275//281
f 221//251 161//176 270//222
f 275//281 283//287 274//288
f 126//221 124//289 299//282
f 275//281 299//282 283//287
f 236//240 259//283 227//241
f 255//256 257//259 146//157
f 143//159 271//164 255//256
f 185//198 208//278 207//199
f 257//259 256//258 261//260
f 271//164 266//160 238//162
f 208//278 247//231 207//199
f 159//252 240//230 234//243
f 125//286 275//281 274//288
f 161//176 227//241 162//223
f 124//289 316//290 299//282
f 300//291 358//292 387//293
f 260//273 139//247 137//153
f 287//284 253//271 189//200
f 189//200 143//159 281//158
f 207//199 247//231 184//197
f 262//234 158//233 288//268
f 232//210 273//270 234//243
f 295//219 125//286 310//294
f 125//286 274//288 304//136
f 259//283 48//239 286//275
f 283//287 299//282 306//295
f 306//295 299//282 307//296
f 322//297 368//298 278//299
f 245//146 260//273 135//150
f 253//271 252//163 143//159
f 309//300 287//284 189//200
f 144//277 287//284 303//253
f 144//277 303//253 145//161
f 268//261 269//267 244//301
f 240//230 159//252 220//232
f 60//69 235//112 212//111
f 125//286 304//136 310//294
f 310//294 304//136 317//138
f 126//221 125//286 295//219
f 274//288 283//287 314//302
f 162//223 227//241 286//275
f 284//303 306//295 319//304
f 319//304 306//295 325//305
f 362//306 347//307 305//308
f 306//295 307//296 308//309
f 134//149 294//148 265//238
f 303//253 287//284 309//300
f 342//310 159//252 290//311
f 310//294 324//272 295//219
f 227//241 259//283 286//275
f 283//287 306//295 284//303
f 299//282 316//290 307//296
f 253//271 143//159 189//200
f 146//157 257//259 142//312
f 351//313 226//314 244//301
f 142//312 257//259 261//260
f 137//153 138//152 185//198
f 238//162 145//161 303//253
f 159//252 234//243 290//311
f 234//243 366//315 233//316
f 126//221 296//220 124//289
f 314//302 283//287 284//303
f 316//290 124//289 315//317
f 265//238 294//148 302//276
f 186//318 137//153 185//198
f 138//152 208//278 185//198
f 158//233 159//252 342//310
f 282//319 221//251 270//222
f 124//289 296//220 315//317
f 162//223 286//275 277//320
f 325//305 306//295 308//309
f 308//309 307//296 301//321
f 302//276 294//148 322//297
f 339//322 142//312 261//260
f 187//323 303//253 309//300
f 303//253 241//244 238//162
f 223//324 289//274 249//285
f 288//268 249//285 289//274
f 107//104 272//186 374//325
f 158//233 342//310 249//285
f 310//294 317//138 324//272
f 221//251 215//279 214//218
f 304//136 274//288 318//137
f 221//251 282//319 297//280
f 315//317 298//326 344//327
f 320//328 316//290 311//329
f 308//309 321//330 325//305
f 353//331 301//321 350//332
f 350//332 387//293 386//333
f 260//273 137//153 136//334
f 137//153 186//318 136//334
f 185//198 338//255 186//318
f 254//254 242//249 241//244
f 239//246 263//269 269//267
f 233//316 290//311 234//243
f 324//272 215//279 295//219
f 282//319 270//222 217//335
f 274//288 314//302 318//137
f 270//222 162//223 217//335
f 307//296 316//290 320//328
f 281//158 142//312 312//336
f 295//219 215//279 296//220
f 284//303 319//304 285//337
f 286//275 302//276 277//320
f 277//320 302//276 278//299
f 307//296 320//328 301//321
f 325//305 347//307 319//304
f 321//330 308//309 301//321
f 135//150 260//273 294//148
f 357//338 343//339 218//340
f 316//290 315//317 311//329
f 291//341 320//328 300//291
f 136//334 186//318 333//342
f 330//343 333//342 332//344
f 146//157 142//312 281//158
f 268//261 244//301 226//314
f 244//301 269//267 326//345
f 264//346 223//324 335//347
f 264//346 335//347 336//348
f 336//348 341//349 224//350
f 374//325 235//112 107//104
f 296//220 297//280 357//338
f 285//337 319//304 329//351
f 162//223 277//320 217//335
f 217//335 277//320 278//299
f 347//307 325//305 305//308
f 254//254 303//253 187//323
f 268//261 226//314 261//260
f 289//274 223//324 263//269
f 341//349 342//310 233//316
f 335//347 223//324 342//310
f 223//324 264//346 263//269
f 269//267 263//269 323//352
f 323//352 264//346 225//353
f 223//324 249//285 342//310
f 263//269 264//346 323//352
f 182//192 212//111 327//193
f 357//338 297//280 343//339
f 296//220 298//326 315//317
f 282//319 343//339 297//280
f 285//337 314//302 284//303
f 345//354 346//355 371//356
f 371//356 346//355 393//357
f 372//358 393//357 399//359
f 329//351 347//307 380//360
f 301//321 353//331 321//330
f 325//305 321//330 353//331
f 260//273 136//334 330//343
f 142//312 339//322 312//336
f 261//260 226//314 339//322
f 341//349 335//347 342//310
f 342//310 290//311 233//316
f 296//220 357//338 298//326
f 218//340 279//361 280//362
f 329//351 319//304 347//307
f 305//308 353//331 369//363
f 363//364 354//365 381//366
f 363//364 381//366 355//367
f 384//368 389//369 355//367
f 305//308 325//305 353//331
f 356//370 350//332 397//371
f 281//158 312//336 337//203
f 187//323 309//300 189//200
f 254//254 187//323 338//255
f 269//267 323//352 326//345
f 318//137 314//302 285//337
f 367//372 278//299 368//298
f 278//299 302//276 322//297
f 385//373 293//374 359//375
f 294//148 260//273 331//376
f 361//377 186//318 338//255
f 186//318 361//377 333//342
f 244//301 326//345 351//313
f 317//138 318//137 285//337
f 217//335 352//378 282//319
f 282//319 352//378 218//340
f 285//337 329//351 380//360
f 315//317 344//327 311//329
f 347//307 362//306 380//360
f 380//360 349//379 390//380
f 294//148 331//376 322//297
f 273//270 327//193 246//381
f 343//339 282//319 218//340
f 301//321 320//328 291//341
f 363//364 362//306 305//308
f 363//364 305//308 369//363
f 136//334 333//342 330//343
f 364//382 187//323 189//200
f 189//200 190//201 364//382
f 361//377 338//255 187//323
f 339//322 226//314 340//208
f 341//349 233//316 366//315
f 278//299 367//372 217//335
f 301//321 291//341 350//332
f 331//376 260//273 330//343
f 281//158 337//203 190//201
f 212//111 246//381 327//193
f 377//383 192//205 404//384
f 363//364 369//363 354//365
f 333//342 361//377 292//385
f 298//326 357//338 218//340
f 371//356 311//329 344//327
f 237//168 406//386 272//186
f 188//387 361//377 187//323
f 336//348 395//388 264//346
f 326//345 323//352 225//353
f 317//138 285//337 402//389
f 298//326 280//362 344//327
f 380//360 348//390 349//379
f 311//329 300//291 320//328
f 362//306 363//364 355//367
f 332//344 331//376 330//343
f 361//377 188//387 292//385
f 394//391 386//333 334//392
f 339//322 375//393 312//336
f 340//208 226//314 351//313
f 341//349 336//348 335//347
f 341//349 366//315 376//394
f 376//394 366//315 234//243
f 280//362 298//326 218//340
f 322//297 367//372 368//298
f 353//331 350//332 356//370
f 326//345 225//353 373//395
f 371//356 372//358 311//329
f 217//335 367//372 328//396
f 367//372 322//297 293//374
f 322//297 331//376 293//374
f 369//363 353//331 356//370
f 377//383 191//397 192//205
f 337//203 312//336 375//393
f 339//322 365//398 375//393
f 351//313 326//345 373//395
f 264//346 395//388 225//353
f 218//340 352//378 279//361
f 348//390 380//360 362//306
f 381//366 354//365 382//399
f 382//399 354//365 383//400
f 364//382 188//387 187//323
f 234//243 273//270 376//394
f 411//401 421//402 401//403
f 385//373 367//372 293//374
f 355//367 381//366 384//368
f 369//363 356//370 388//404
f 364//382 190//201 392//202
f 365//398 339//322 340//208
f 235//112 416//405 403//113
f 344//327 280//362 371//356
f 371//356 393//357 372//358
f 352//378 217//335 328//396
f 311//329 372//358 399//359
f 399//359 346//355 360//406
f 362//306 355//367 348//390
f 348//390 355//367 389//369
f 359//375 332//344 400//407
f 350//332 291//341 387//293
f 332//344 333//342 292//385
f 188//387 364//382 391//408
f 337//203 313//409 392//202
f 313//409 337//203 375//393
f 346//355 345//354 360//406
f 349//379 348//390 389//369
f 354//365 369//363 388//404
f 351//313 373//395 340//208
f 395//388 336//348 224//350
f 371//356 280//362 345//354
f 352//378 328//396 279//361
f 399//359 300//291 311//329
f 293//374 331//376 359//375
f 359//375 331//376 332//344
f 273//270 246//381 376//394
f 291//341 300//291 387//293
f 387//293 358//292 386//333
f 332//344 292//385 400//407
f 382//399 384//368 381//366
f 334//392 292//385 188//387
f 334//392 188//387 394//391
f 394//391 391//408 404//384
f 313//409 379//410 191//397
f 192//205 191//397 398//206
f 373//395 225//353 376//394
f 280//362 279//361 345//354
f 328//396 367//372 385//373
f 349//379 389//369 384//368
f 350//332 386//333 397//371
f 356//370 397//371 388//404
f 394//391 188//387 391//408
f 225//353 395//388 376//394
f 279//361 328//396 360//406
f 279//361 360//406 345//354
f 292//385 334//392 400//407
f 364//382 377//383 391//408
f 364//382 392//202 377//383
f 224//350 376//394 395//388
f 393//357 346//355 399//359
f 390//380 349//379 384//368
f 237//168 276//178 406//386
f 382//399 409//411 384//368
f 397//371 394//391 404//384
f 388//404 378//412 383//400
f 382//399 383//400 409//411
f 383//400 354//365 388//404
f 392//202 313//409 191//397
f 328//396 385//373 359//375
f 300//291 399//359 358//292
f 340//208 410//413 193//204
f 313//409 375//393 379//410
f 328//396 358//292 360//406
f 328//396 359//375 358//292
f 400//407 358//292 359//375
f 399//359 360//406 358//292
f 386//333 358//292 400//407
f 400//407 334//392 386//333
f 375//393 365//398 379//410
f 402//389 285//337 380//360
f 412//414 384//368 408//415
f 388//404 397//371 370//416
f 397//371 404//384 370//416
f 373//395 376//394 340//208
f 401//403 317//138 411//401
f 397//371 386//333 394//391
f 391//408 377//383 404//384
f 377//383 392//202 191//397
f 383//400 378//412 410//413
f 340//208 407//207 379//410
f 402//389 411//401 317//138
f 370//416 378//412 388//404
f 212//111 403//113 246//381
f 370//416 404//384 192//205
f 370//416 192//205 378//412
f 224//350 341//349 376//394
f 324//272 317//138 401//403
f 409//411 383//400 410//413
f 378//412 193//204 410//413
f 191//397 379//410 398//206
f 193//204 398//206 407//207
f 408//415 384//368 409//411
f 378//412 192//205 193//204
f 398//206 379//410 407//207
f 380//360 411//401 402//389
f 379//410 365//398 340//208
f 276//178 324//272 418//417
f 384//368 412//414 390//380
f 412//414 405//418 415//419
f 408//415 409//411 413//420
f 410//413 340//208 409//411
f 340//208 376//394 414//421
f 235//112 374//325 416//405
f 380//360 415//419 411//401
f 415//419 380//360 390//380
f 415//419 390//380 412//414
f 412//414 408//415 413//420
f 406//386 276//178 425//422
f 340//208 414//421 409//411
f 374//325 406//386 396//423
f 401//403 418//417 324//272
f 406//386 374//325 272//186
f 414//421 420//424 409//411
f 405//418 412//414 413//420
f 413//420 409//411 420//424
f 411//401 415//419 421//402
f 246//381 417//425 376//394
f 413//420 419//426 405//418
f 418//417 401//403 421//402
f 405//418 421//402 415//419
f 276//178 418//417 425//422
f 374//325 396//423 426//427
f 417//425 422//428 376//394
f 417//425 246//381 403//113
f 419//426 413//420 420//424
f 406//386 425//422 396//423
f 424//429 421//402 405//418
f 419//426 420//424 405//418
f 374//325 426//427 416//405
f 422//428 414//421 376//394
f 418//417 421//402 423//430
f 423//430 421//402 424//429
f 403//113 416//405 428//431
f 417//425 403//113 428//431
f 424//429 405//418 420//424
f 422//428 420//424 414//421
f 422//428 417//425 428//431
f 418//417 429//432 427//433
f 429//432 424//429 420//424
f 427//433 425//422 418//417
f 396//423 425//422 426//427
f 429//432 422//428 427//433
f 429//432 420//424 422//428
f 418//417 423//430 429//432
f 429//432 423//430 424//429
f 416//405 426//427 428//431
f 425//422 427//433 430//434
f 430//434 427//433 422//428
f 422//428 428//431 430//434
f 431//435 428//431 426//427
f 425//422 431//435 426//427
f 425//422 430//434 431//435
f 430//434 428//431 431//435
f 432//133 433//108 99//105
f 433//108 77//85 99//105
f 164//155 432//133 129//140
f 99//105 129//140 432//133
f 103//116 105//120 63//93
f 435//144 432//133 164//155
f 434//142 43//102 78//95
f 435//144 434//142 78//95
f 164//155 434//142 435//144
f 76//52 127//114 44//60
