$MeshFormat
2.2 0 8
$EndMeshFormat
$Nodes
482
1 0.4942989945411682 -0.5349799990653992 0.3001709878444672
2 0.4204689860343933 -0.4716019928455353 0.4166440069675446
3 0.3807159960269928 -0.4388749897480011 0.2901049852371216
4 0.4222959876060486 -0.448089987039566 0.168151006102562
5 0.5418999791145325 -0.4929940104484558 0.1266019940376282
6 0.4523890018463135 -0.3932740092277527 0.05939599871635437
7 0.2317460030317307 -0.2995100021362305 0.3013559877872467
8 0.3113049864768982 -0.3565990030765533 0.3781889975070953
9 0.3498350083827972 -0.3175899982452393 0.4913919866085052
10 0.3283939957618713 -0.3749360144138336 0.1668000072240829
11 0.5875239968299866 -0.3751690089702606 0.1124200001358986
12 0.5765569806098938 -0.3695819973945618 0.2782759964466095
13 0.4230499863624573 -0.2967190146446228 -0.1146460026502609
14 0.5078250169754028 -0.3698990046977997 -0.06000199913978577
15 0.3236120045185089 -0.3135870099067688 0.04354399815201759
16 0.3544830083847046 -0.1936900019645691 -0.1245699971914291
17 0.3914720118045807 -0.2419939935207367 -0.1073210015892982
18 0.3178130090236664 -0.1944800019264221 -0.06612599641084671
19 0.2741479873657227 -0.1371279954910278 -0.06625799834728241
20 0.3076969981193542 -0.1343079954385757 -0.105833001434803
21 0.3181329965591431 -0.1690970063209534 -0.07019200176000595
22 0.5104799866676331 -0.1472620069980621 0.3837130069732666
23 0.2111890017986298 -0.2530939877033234 0.08137799799442291
24 0.252716988325119 -0.2171179950237274 0.472707986831665
25 0.5732139945030212 -0.2496840059757233 0.08721999824047089
26 0.474839985370636 -0.1887660026550293 -0.122298002243042
27 0.3341209888458252 -0.2242310047149658 -0.04249399900436401
28 0.1526000052690506 -0.2242359966039658 0.2224799990653992
29 0.1431110054254532 -0.1872629970312119 0.1544860005378723
30 0.1154379993677139 -0.1771910041570663 0.1739590018987656
31 0.09577299654483795 -0.1960259974002838 0.2172310054302216
32 0.2130320072174072 -0.10869500041008 0.5226160287857056
33 0.2041790038347244 -0.1732950061559677 0.0456789992749691
34 0.2041130065917969 -0.2021220028400421 0.04328799992799759
35 0.1612820029258728 -0.1691070050001144 0.1057770028710365
36 0.1665109992027283 -0.2173170000314713 0.1161080002784729
37 0.127021998167038 -0.1478469967842102 0.4008510112762451
38 0.4003869891166687 -0.2147269994020462 -0.1913599967956543
39 0.277209997177124 -0.215381994843483 -0.01569199934601784
40 0.2705540060997009 -0.1668619960546494 -0.0367950014770031
41 0.3712689876556396 -0.1618819981813431 -0.1760170012712479
42 0.244036003947258 -0.1947139948606491 0.002428000094369054
43 0.1002049967646599 -0.1174290031194687 0.1278830021619797
44 0.1528179943561554 -0.126898005604744 0.05567900091409683
45 0.03285700082778931 -0.1504999995231628 0.3160409927368164
46 0.2492689937353134 -0.1194240003824234 -0.05449499934911728
47 0.5065100193023682 -0.1376020014286041 -0.002857000101357698
48 0.532289981842041 -0.08717899769544601 0.1357409954071045
49 0.3402140140533447 -0.171095997095108 -0.09618899971246719
50 0.2371650040149689 -0.03771200031042099 -0.04660699889063835
51 0.2914299964904785 -0.07159899920225143 -0.09034000337123871
52 0.2703860104084015 0.04570100083947182 -0.1507579982280731
53 0.1965740025043488 0.1182070001959801 -0.1686999946832657
54 0.2200089991092682 0.08120500296354294 -0.1942349970340729
55 0.1306059956550598 0.1609050035476685 -0.1241670027375221
56 0.09378500282764435 0.1410939991474152 -0.1654469966888428
57 0.1437540054321289 0.1050970032811165 -0.1989700049161911
58 0.330359011888504 -0.03198900073766708 -0.1565639972686768
59 0.3245530128479004 -0.07796599715948105 -0.1297799944877625
60 0.2860240042209625 0.006430000066757202 -0.1339199990034103
61 0.02455800026655197 -0.1440400034189224 0.2178920060396194
62 0.2134169936180115 -0.1404329985380173 0.0224009994417429
63 0.04703899845480919 -0.132409006357193 0.1647440046072006
64 0.3692899942398071 -0.133992001414299 -0.197176992893219
65 -0.07373800128698349 -0.05305400118231773 0.2717919945716858
66 -0.1110489964485168 -0.02501000091433525 0.238646000623703
67 -0.02407000027596951 -0.0994499996304512 0.2665820121765137
68 -0.005406999960541725 -0.1239069998264313 0.2529189884662628
69 0.3524419963359833 0.02952699922025204 0.7096220254898071
70 0.02385799959301949 0.1934760063886642 0.02073599956929684
71 0.06936199963092804 0.1507550030946732 0.01952500082552433
72 0.00597700010985136 0.1597210019826889 0.05850100144743919
73 -0.04426300153136253 0.1161879971623421 0.1482570022344589
74 -0.03303899988532066 0.1208309978246689 0.09738399833440781
75 -0.03974400088191032 0.113586999475956 0.1550830006599426
76 -0.1858440041542053 0.1827190071344376 0.1342979967594147
77 -0.142538994550705 0.2093909978866577 0.1357450038194656
78 -0.08701899647712708 0.1871220022439957 0.1483480036258698
79 0.4480000138282776 -0.04032900184392929 -0.1075929999351501
80 0.3185259997844696 0.02497399970889091 -0.2380370050668716
81 0.2928799986839294 0.02050800062716007 -0.2359109967947006
82 0.240227997303009 0.02942500077188015 -0.2498160004615784
83 0.2379579991102219 0.08609499782323837 -0.1314529925584793
84 0.2290370017290115 0.08529900014400482 -0.09745100140571594
85 0.1742890030145645 -0.07373400032520294 0.01142499968409538
86 0.1102349981665611 -0.08885999768972397 0.0733330026268959
87 -0.03050800040364265 -0.08636300265789032 0.2073179930448532
88 0.359044998884201 -0.07581800222396851 -0.1895920038223267
89 0.1760919988155365 -0.1027659997344017 0.02906900085508823
90 0.01510700024664402 -0.0815809965133667 0.1432390064001083
91 -0.03470399975776672 -0.06021999940276146 0.3231579959392548
92 0.4008730053901672 -0.115898996591568 -0.1871290057897568
93 0.05541599914431572 -0.02785499952733517 0.06849700212478638
94 0.02791400067508221 0.03456899896264076 0.4993770122528076
95 0.2003400027751923 -0.008880999870598316 -0.01865199953317642
96 0.03237900137901306 -0.04965199902653694 0.09530200064182281
97 -0.06918299943208694 -0.03155599907040596 0.1617809981107712
98 -0.06341499835252762 0.002353999996557832 0.1315319985151291
99 -0.1042229980230331 -0.02713499963283539 0.2017890065908432
100 0.3336510062217712 -0.02517800033092499 -0.1914850026369095
101 -0.1292160004377365 0.01279500033706427 0.3010390102863312
102 0.2491530030965805 0.005576000083237886 -0.08693599700927734
103 -0.1851709932088852 0.03714000061154366 0.2345509976148605
104 0.4713959991931915 0.0358089990913868 0.496627002954483
105 0.1150830015540123 0.008100000210106373 0.03364099934697151
106 -0.1600369960069656 0.06911599636077881 0.3218609988689423
107 0.1901639997959137 -0.006785000208765268 0.6325600147247314
108 0.151515007019043 0.0003440000000409782 0.01392600033432245
109 -0.2166129946708679 0.05356800183653831 0.1757760047912598
110 -0.08923599869012833 0.0002119999990100041 0.3529269993305206
111 0.1241699978709221 0.2238480001688004 0.8815659880638123
112 0.4295510053634644 0.2052749991416931 0.624422013759613
113 0.1229740008711815 0.4574199914932251 0.8090770244598389
114 0.3108969926834106 0.0004619999963324517 -0.1935510039329529
115 -0.06492199748754501 0.05687600001692772 0.1125079989433289
116 -0.0102760000154376 0.04780299961566925 0.09531600028276443
117 -0.0497249998152256 0.05748799815773964 0.0999779999256134
118 0.2902710139751434 0.03157500177621841 -0.1996770054101944
119 -0.1267289966344833 0.02003199979662895 0.1229130029678345
120 0.05527099967002869 0.03223700076341629 0.05914599820971489
121 -0.1549630016088486 0.02189699932932854 0.144678995013237
122 -0.1267810016870499 0.04813899844884872 0.1050980016589165
123 -0.2409490048885345 0.07287000119686127 0.2006089985370636
124 0.1630260050296783 0.08423600345849991 -0.2142159938812256
125 0.2000219970941544 0.06478100270032883 -0.2315029948949814
126 0.143448993563652 0.1382739990949631 -0.3040409982204437
127 0.1211619973182678 0.1145159974694252 -0.2158129960298538
128 0.2356989979743958 0.05396600067615509 -0.2769759893417358
129 -0.1315619945526123 0.09219300001859665 0.3909229934215546
130 0.05776600167155266 0.09958700090646744 0.6062989830970764
131 0.2182420045137405 0.04342599958181381 -0.264041006565094
132 0.2690980136394501 0.07563500106334686 -0.2549310028553009
133 0.146574005484581 0.0482809990644455 -0.002432999899610877
134 -0.2262880057096481 0.09532500058412552 0.135791003704071
135 -0.2031539976596832 0.06532999873161316 0.2467080056667328
136 -0.09069599956274033 0.2783409953117371 -0.4583269953727722
137 -0.1354690045118332 0.3013049960136414 -0.3859269917011261
138 -0.1769270002841949 0.3132759928703308 -0.5276489853858948
139 0.1882690042257309 0.1040519997477531 -0.3026910126209259
140 0.09915100038051605 0.06818299740552902 0.01993099972605705
141 0.0887800008058548 0.1597809940576553 0.7468590140342712
142 0.2187799960374832 0.05164600163698196 -0.06927900016307831
143 -0.2662859857082367 0.09197200089693069 0.1624660044908524
144 0.1829259991645813 0.05399300158023834 -0.0360260009765625
145 -0.02300399914383888 0.1749279946088791 -0.1030490025877953
146 -0.08990000188350677 0.2127420008182526 -0.1034180000424385
147 -0.09302300214767456 0.2106859982013702 -0.1240300014615059
148 -0.0850519984960556 0.2971679866313934 -0.1061860024929047
149 -0.1026789993047714 0.2423229962587357 -0.1365550011396408
150 -0.09857100248336792 0.25067999958992 -0.1063729971647263
151 0.003772000083699822 0.2247219979763031 0.02195099927484989
152 -0.006484999787062407 0.2608329951763153 0.06506799906492233
153 -0.04946000128984451 0.2658500075340271 -0.01589900068938732
154 -0.1327430009841919 0.08183500170707703 0.1038009971380234
155 0.1665070056915283 0.1132789999246597 -0.05241100117564201
156 0.02505199983716011 0.1074939966201782 0.07158199697732925
157 -0.4000050127506256 0.2737649977207184 0.01128400024026632
158 -0.3798019886016846 0.3062900006771088 0.009541000239551067
159 -0.3495469987392426 0.2699370086193085 0.0161959994584322
160 -0.3361580073833466 0.2392739951610565 0.04340700060129166
161 -0.2967270016670227 0.2558290064334869 0.06344600021839142
162 -0.2915819883346558 0.2497770041227341 0.08607800304889679
163 -0.3577769994735718 0.2570199966430664 0.01887100003659725
164 -0.3739149868488312 0.2421060055494308 0.05233800038695335
165 -0.06118100136518478 0.08880600333213806 0.1159240007400513
166 -0.1034020036458969 0.1086900010704994 0.1120460033416748
167 -0.08402299880981445 0.1235859990119934 0.4741550087928772
168 0.4108960032463074 0.2638739943504333 -0.1138100028038025
169 -0.2965750098228455 0.1088170036673546 0.1898310035467148
170 0.2202350050210953 0.09865500032901764 -0.2939240038394928
171 0.1124700009822845 0.1356109976768494 -0.03451000154018402
172 -0.04238099977374077 0.1012500002980232 0.1105379983782768
173 0.1488060057163239 0.1612550020217896 -0.3337819874286652
174 0.1047760024666786 0.1862909942865372 -0.3526040017604828
175 0.0784979984164238 0.1891320049762726 -0.2879079878330231
176 0.07003799825906754 0.2213660031557083 -0.3240799903869629
177 0.07978600263595581 0.2114859968423843 -0.3555580079555511
178 0.1686590015888214 0.4014900028705597 -0.2383130043745041
179 -0.08712100237607956 0.1610759943723679 0.1360840052366257
180 -0.2288150042295456 0.1610739976167679 0.1318240016698837
181 -0.2289039939641953 0.1934109926223755 0.2949860095977783
182 -0.2491929978132248 0.1861079931259155 0.2581149935722351
183 -0.2301090061664581 0.1236559972167015 0.25068199634552
184 0.1760219931602478 0.1347559988498688 -0.1018100008368492
185 -0.2484990060329437 0.1040560007095337 0.2236369997262955
186 0.4769310057163239 0.3213190138339996 0.1428029984235764
187 -0.198745995759964 0.1576360017061234 0.3346939980983734
188 -0.3323360085487366 0.1727660000324249 0.1544439941644669
189 -0.05565600097179413 0.150411993265152 0.1420010030269623
190 -0.05217399820685387 0.1697629988193512 0.1197329983115196
191 -0.3324469923973083 0.1571809947490692 0.200216993689537
192 -0.01987100020051003 0.2659609913825989 0.7510079741477966
193 -0.1300760060548782 0.2997530102729797 0.6555870175361633
194 0.07047999650239944 0.1634220033884048 -0.2154739946126938
195 0.07884400337934494 0.1631069928407669 -0.03306400030851364
196 -0.03351600095629692 0.1480160057544708 0.08638399839401245
197 -0.07118900120258331 0.2683480083942413 0.1094070002436638
198 -0.07541199773550034 0.2802770137786865 0.06898300349712372
199 -0.04885200038552284 0.2614780068397522 0.1022149994969368
200 -0.2925750017166138 0.3134720027446747 0.04006300121545792
201 -0.3545239865779877 0.3624410033226013 0.03653400018811226
202 -0.3646369874477386 0.3978169858455658 0.05640799924731255
203 -0.4318299889564514 0.355334997177124 0.02951899915933609
204 -0.447750985622406 0.4487720131874084 0.09644000232219696
205 -0.3849419951438904 0.4278630018234253 0.05920400097966194
206 -0.4219929873943329 0.4398689866065979 0.09491600096225739
207 -0.4548889994621277 0.4636909961700439 0.1229399964213371
208 -0.5124629735946655 0.401995986700058 0.1646090000867844
209 -0.330253005027771 0.1441899985074997 0.166825994849205
210 -0.1838060021400452 0.1769070029258728 0.3943589925765991
211 0.07316499948501587 0.1690019965171814 -0.09382899850606918
212 0.02586100064218044 0.1570169925689697 -0.1290179938077927
213 -0.01114299986511469 0.1673679947853088 -0.1604530066251755
214 -0.3724490106105804 0.1799850016832352 0.1816920042037964
215 -0.2769019901752472 0.1792750060558319 0.235494002699852
216 0.1323529928922653 0.1623730063438416 -0.0971049964427948
217 -0.003712000092491508 0.1802109926939011 -0.1937540024518967
218 0.06512200087308884 0.2444439977407455 -0.3816139996051788
219 -0.03421200066804886 0.2812910079956055 -0.4146949946880341
220 -0.01258799992501736 0.2991029918193817 -0.3614110052585602
221 -0.02152599953114986 0.2539249956607819 -0.331618994474411
222 0.04436499997973442 0.2961139976978302 -0.3138419985771179
223 0.05475899949669838 0.2852849960327148 -0.2582710087299347
224 -0.001944000017829239 0.1945499926805496 -0.05187699943780899
225 0.03343600034713745 0.1942490041255951 -0.02632700093090534
226 -0.03534099832177162 0.1928160041570663 0.1003910005092621
227 -0.2899720072746277 0.2178069949150085 0.12915900349617
228 -0.3717980086803436 0.2152460068464279 0.1645539999008179
229 -0.3731789886951447 0.197830006480217 0.2066089957952499
230 -0.2297099977731705 0.2253649979829788 0.3477010130882263
231 -0.05353299900889397 0.2290740013122559 0.09833700209856033
232 -0.2383449971675873 0.2557019889354706 0.2978009879589081
233 -0.2773019969463348 0.2646160125732422 0.265639990568161
234 -0.3046810030937195 0.2240629941225052 0.23089799284935
235 -0.03630600124597549 0.2000380009412766 0.6081249713897705
236 -0.007734000217169523 0.2296490073204041 0.06911899894475937
237 -0.0227269995957613 0.22291499376297 -0.2094780057668686
238 -0.07565200328826904 0.2556799948215485 -0.1665129959583282
239 -0.01213600020855665 0.2502540051937103 -0.2172050029039383
240 0.03236199915409088 0.2316080033779144 -0.2421890050172806
241 0.0628260001540184 0.2383259981870651 -0.2879720032215118
242 -0.08461599797010422 0.2164770066738129 -0.1534450054168701
243 -0.271450012922287 0.2935749888420105 0.4095320105552673
244 -0.2339970022439957 0.2383610010147095 0.1109300032258034
245 -0.3843660056591034 0.2044160068035126 0.1923830062150955
246 -0.3924410045146942 0.2291290014982224 0.2008820027112961
247 -0.04043800011277199 0.2530820071697235 -0.03220900148153305
248 -0.07224000245332718 0.2110339999198914 0.1150019988417625
249 -0.1551569998264313 0.2729839980602264 0.1148369982838631
250 -0.1510570049285889 0.2451750040054321 0.1306580007076263
251 0.03146699815988541 0.2615219950675964 -0.3809379935264587
252 -0.2421700060367584 0.2786239981651306 0.2918739914894104
253 -0.2662180066108704 0.2775779962539673 0.06528700143098831
254 -0.1643500030040741 0.2910949885845184 0.09192900359630585
255 -0.1846369951963425 0.3176909983158112 0.05944300070405006
256 -0.4234910011291504 0.2317489981651306 0.05867600068449974
257 -0.4197050034999847 0.211215004324913 0.1224929988384247
258 -0.4518570005893707 0.2312030047178268 0.07730100303888321
259 -0.4498290121555328 0.2531439960002899 0.03417100012302399
260 -0.4920800030231476 0.2890090048313141 0.05599400028586388
261 -0.485617995262146 0.2638170123100281 0.1043469980359077
262 -0.3280789852142334 0.2287950068712234 0.1186159998178482
263 -0.4042409956455231 0.2237319946289062 0.1751810014247894
264 -0.4471139907836914 0.2255869954824448 0.1338559985160828
265 -0.344186007976532 0.2213740050792694 0.006153999827802181
266 -0.357358992099762 0.2316299974918365 0.02484500035643578
267 -0.4546490013599396 0.2565869987010956 0.1782449930906296
268 -0.3725480139255524 0.2667180001735687 0.2291339933872223
269 -0.4253950119018555 0.2875820100307465 0.2301820069551468
270 -0.2301589995622635 0.3151159882545471 0.5385779738426208
271 -0.3182080090045929 0.2455240041017532 0.01316200010478497
272 -0.1044299975037575 0.422540009021759 -0.5201740264892578
273 -0.08232499659061432 0.2879030108451843 -0.05348199978470802
274 -0.3861410021781921 0.2873420119285583 0.2254160046577454
275 0.0453840009868145 0.2782140076160431 -0.2237830013036728
276 -0.0455159991979599 0.2963939905166626 -0.158609002828598
277 -0.2827169895172119 0.2479510009288788 0.02761800028383732
278 -0.01323700044304132 0.2637769877910614 0.09108000248670578
279 -0.02329299971461296 0.2896760106086731 -0.4248220026493073
280 -0.001414999947883189 0.3082880079746246 -0.3726789951324463
281 -0.04241799935698509 0.2472119927406311 -0.3319729864597321
282 -0.06232500076293945 0.2617180049419403 -0.2353529930114746
283 0.04549900069832802 0.2582759857177734 -0.2455220073461533
284 -0.2649500072002411 0.2650919854640961 0.02814400009810925
285 -0.333611011505127 0.2892229855060577 0.2372560054063797
286 -0.05932300165295601 0.26248699426651 -0.4075140058994293
287 -0.08483699709177017 0.2638790011405945 -0.271001011133194
288 -0.1032639965415001 0.274614006280899 -0.3666479885578156
289 -0.02127899974584579 0.2648450136184692 -0.2827500104904175
290 -0.04797499999403954 0.2868910133838654 -0.2201839983463287
291 -0.151298999786377 0.3907890021800995 -0.1370009928941727
292 -0.142983004450798 0.4099189937114716 -0.1192120015621185
293 -0.2011709958314896 0.3949399888515472 -0.08555900305509567
294 -0.067842997610569 0.2776159942150116 -0.4823789894580841
295 -0.1853449940681458 0.2696579992771149 -0.1765699982643127
296 -0.1127920001745224 0.2707290053367615 -0.1827570050954819
297 -0.06841199845075607 0.3451449871063232 -0.1357609927654266
298 -0.02234400063753128 0.3436770141124725 -0.1709250062704086
299 -0.004889999981969595 0.328669011592865 -0.1919710040092468
300 -0.2737790048122406 0.2966279983520508 0.04471899941563606
301 -0.4852249920368195 0.2795569896697998 0.1476269960403442
302 -0.1479330062866211 0.3157120048999786 -0.3222000002861023
303 -0.1235579997301102 0.2818999886512756 -0.2577820122241974
304 -0.2114679962396622 0.2836009860038757 -0.2089110016822815
305 -0.3079459965229034 0.3026280105113983 -0.06805200129747391
306 -0.359950989484787 0.3533419966697693 -0.1444880068302155
307 -0.3007229864597321 0.317124992609024 -0.1564449965953827
308 -0.3501859903335571 0.3236419856548309 -0.09293600171804428
309 -0.2260099947452545 0.2862780094146729 -0.1083960011601448
310 -0.2799420058727264 0.310824990272522 0.2721770107746124
311 -0.2473360002040863 0.3019810020923615 0.3137800097465515
312 -0.4504620134830475 0.2829949855804443 0.01505099982023239
313 -0.5035939812660217 0.3613240122795105 0.1859519928693771
314 -0.5075700283050537 0.3123759925365448 0.1025369986891747
315 -0.2780779898166656 0.3449040055274963 0.3229059875011444
316 -0.25484499335289 0.3279849886894226 0.3208209872245789
317 -0.02570999972522259 0.2985410094261169 -0.2534349858760834
318 -0.1126099973917007 0.3069230020046234 0.0259419996291399
319 0.02726300060749054 0.3141300082206726 -0.3347269892692566
320 0.01362300012260675 0.3069249987602234 -0.1932609975337982
321 -0.2005120068788528 0.3152720034122467 -0.1060179993510246
322 -0.5057860016822815 0.3203249871730804 0.05918199941515923
323 -0.2623960077762604 0.3274460136890411 0.0343560017645359
324 -0.3483319878578186 0.3027510046958923 0.2448839992284775
325 0.4803850054740906 0.4162099957466125 0.4226840138435364
326 -0.006190000101923943 0.3401710093021393 -0.3558709919452667
327 -0.03693599998950958 0.3536539971828461 -0.253358006477356
328 -0.1036129966378212 0.3135130107402802 -0.1561949998140335
329 -0.08654200285673141 0.3326829969882965 -0.1739989966154099
330 -0.26978400349617 0.2997959852218628 -0.07702899724245071
331 -0.3164649903774261 0.3251380026340485 -0.05858900025486946
332 -0.2395880073308945 0.3696100115776062 -0.06613799929618835
333 -0.222800999879837 0.4047549962997437 -0.05399800091981888
334 -0.08664900064468384 0.2970609962940216 -0.01767100021243095
335 0.02291500009596348 0.329118013381958 -0.2604480087757111
336 -0.459867000579834 0.333967000246048 0.02612500078976154
337 -0.1813939958810806 0.3379690051078796 -0.2927049994468689
338 -0.002210000064224005 0.3304510116577148 -0.3833850026130676
339 0.01308100018650293 0.3306989967823029 -0.3692280054092407
340 0.00966699980199337 0.3604120016098022 -0.3421150147914886
341 -0.1769880056381226 0.3591159880161285 -0.1111330017447472
342 -0.1162550002336502 0.3482019901275635 -0.01559699978679419
343 -0.09590700268745422 0.3392930030822754 -0.03404700011014938
344 -0.1135620027780533 0.3746120035648346 -0.05209700018167496
345 -0.4663960039615631 0.332749992609024 0.2479339987039566
346 -0.4078350067138672 0.3113139867782593 0.2663420140743256
347 -0.3569140136241913 0.3227800130844116 0.2471320033073425
348 -0.3663569986820221 0.355443000793457 0.2637119889259338
349 -0.3254719972610474 0.3335869908332825 0.2645269930362701
350 -0.3536739945411682 0.3902319967746735 0.2593970000743866
351 -0.2230619937181473 0.3369190096855164 -0.2668130099773407
352 -0.4403600096702576 0.3135820031166077 0.2576040029525757
353 -0.4293340146541595 0.3675749897956848 0.2894890010356903
354 -0.06860999763011932 0.3914709985256195 -0.2489439994096756
355 -0.09400100260972977 0.4026559889316559 -0.2755759954452515
356 -0.06883099675178528 0.3713020086288452 -0.2347649931907654
357 -0.09694600105285645 0.3893780112266541 -0.255946010351181
358 -0.09658399969339371 0.374532014131546 -0.2082920074462891
359 -0.1096659973263741 0.4001420140266418 -0.2110379934310913
360 -0.2928400039672852 0.3930949866771698 -0.2371360063552856
361 -0.01358100026845932 0.3794879913330078 -0.260901004076004
362 -0.0265939999371767 0.3744490146636963 -0.2705790102481842
363 -0.3758989870548248 0.3354730010032654 -0.05225799977779388
364 -0.4345119893550873 0.3518730103969574 -0.04989400133490562
365 -0.4369820058345795 0.3833729922771454 -0.02251200005412102
366 -0.4612640142440796 0.368131011724472 -0.05486299842596054
367 -0.4525260031223297 0.3644160032272339 -0.07523199915885925
368 -0.5363240242004395 0.410178005695343 -0.06127399951219559
369 -0.4489780068397522 0.3804270029067993 -0.1007980033755302
370 -0.3367289900779724 0.3636049926280975 -0.03450899943709373
371 -0.2674370110034943 0.407584011554718 -0.02756999991834164
372 -0.01781000010669231 0.3713650107383728 -0.1878850013017654
373 -0.05053799971938133 0.3931050002574921 -0.1344349980354309
374 -0.07876099646091461 0.3674440085887909 -0.1100639998912811
375 -0.09376499801874161 0.4078589975833893 -0.1055490002036095
376 -0.08973000198602676 0.3423700034618378 -0.07710299640893936
377 -0.1684309989213943 0.3339450061321259 0.02668499946594238
378 0.01131400000303984 0.3585230112075806 -0.2822929918766022
379 -0.3781059980392456 0.3900009989738464 -0.168176993727684
380 -0.3951379954814911 0.4113610088825226 -0.1567420065402985
381 -0.2125599980354309 0.3940280079841614 0.7082930207252502
382 -0.3126470148563385 0.3736310005187988 0.03898400068283081
383 -0.3235220015048981 0.4151340126991272 0.04785700142383575
384 -0.2862460017204285 0.4226349890232086 0.01702100038528442
385 -0.133649006485939 0.3843370079994202 -0.0349700003862381
386 0.3011690080165863 0.5246080160140991 -0.1272860020399094
387 -0.2282249927520752 0.3666580021381378 0.01025700010359287
388 -0.3974300026893616 0.3951219916343689 0.3011569976806641
389 -0.2381740063428879 0.4300369918346405 -0.3782700002193451
390 -0.3621920049190521 0.3695150017738342 -0.1513800024986267
391 -0.2822650074958801 0.4092360138893127 0.004792999941855669
392 -0.2131679952144623 0.4027140140533447 -0.04037600010633469
393 -0.4949209988117218 0.3637999892234802 0.07097899913787842
394 -0.3181869983673096 0.4509750008583069 0.4503780007362366
395 -0.4709970057010651 0.367000013589859 0.2554770112037659
396 -0.036056999117136 0.4058069884777069 -0.2018049955368042
397 -0.3940789997577667 0.4217390120029449 0.07592000067234039
398 -0.5085179805755615 0.3985829949378967 0.1331759989261627
399 -0.4810689985752106 0.390953004360199 -0.03254200145602226
400 -0.5092300176620483 0.4022319912910461 0.03112700022757053
401 -0.3208459913730621 0.5085970163345337 -0.4183590114116669
402 -0.4108150005340576 0.5955610275268555 -0.4739879965782166
403 -0.319923996925354 0.4996500015258789 -0.5567880272865295
404 -0.3764640092849731 0.4070349931716919 0.001484000007621944
405 0.304722011089325 0.618664026260376 0.5985040068626404
406 -0.08495700359344482 0.4077770113945007 -0.2394710034132004
407 -0.138154000043869 0.40379598736763 -0.05918100103735924
408 -0.2877480089664459 0.3907980024814606 0.02642400003969669
409 -0.4429169893264771 0.3963609933853149 0.07763499766588211
410 -0.4658539891242981 0.4272010028362274 0.1148570030927658
411 -0.6255729794502258 0.458530992269516 0.07517699897289276
412 -0.4560180008411407 0.4198940098285675 0.06061099842190742
413 -0.5361009836196899 0.4403670132160187 0.08944100141525269
414 -0.5510849952697754 0.4687600135803223 -0.1684679985046387
415 -0.6452670097351074 0.4527519941329956 -0.04719699919223785
416 -0.3193320035934448 0.4216560125350952 0.001353000057861209
417 -0.1141669973731041 0.6486719846725464 -0.3696050047874451
418 -0.6595230102539062 0.5633360147476196 -0.1927440017461777
419 -0.3948610126972198 0.4810540080070496 -0.2676979899406433
420 -0.7574200034141541 0.5469689965248108 0.04717599973082542
421 -0.458173006772995 0.5039920210838318 0.2429279983043671
422 0.1423459947109222 0.7907310128211975 -0.07431499660015106
423 0.3776490092277527 0.6510350108146667 0.02896299958229065
424 -0.5806130170822144 0.5915979743003845 0.03418599814176559
425 -0.1325699985027313 0.5972769856452942 0.5463910102844238
426 -0.7721210122108459 0.5906239748001099 -0.09521999955177307
427 0.3668549954891205 0.7235199809074402 0.3286629915237427
428 -0.2747139930725098 0.6467419862747192 0.2684699892997742
429 -0.6872050166130066 0.6553459763526917 -0.2828229963779449
430 -0.5335010290145874 0.6571750044822693 -0.4612869918346405
431 0.1090160012245178 0.711542010307312 0.4859029948711395
432 -0.4322260022163391 0.6962900161743164 -0.2579070031642914
433 -0.2368659973144531 0.733585000038147 -0.02888399921357632
434 -0.1143990010023117 0.7953069806098938 0.1403850018978119
435 0.1199790015816689 0.8672329783439636 0.1939949989318848
436 0.0819078499583792 0.5732518850283416 0.06240706340689579
437 0.07820323061610118 0.2131961384999513 0.2239657741275102
438 0.296078104866 0.009095604255350317 0.2174495593701299
439 0.1062026091335012 0.3600054169459692 -0.04337171400963216
440 -0.3686864739092866 0.5668979341795234 0.01864882154501361
441 0.3448858894407412 -0.07088365634338474 0.04491697276288251
442 -0.1785087867514449 0.5734898229252489 0.07949651506770036
443 -0.09842907627419434 0.3776103803640907 0.2488116955738182
444 -0.3200098406610463 0.5118320662495262 0.137435485192517
445 0.1186757128936453 -0.01973748940232202 0.268763080301271
446 0.2326691458197798 0.2557153820648755 0.07405656224266091
447 -0.01997149119204619 0.50966174062299 -0.2746656543188898
448 0.1731458675344857 0.2366027595612725 -0.1980739135408595
449 0.3636515846852333 0.1023597540718896 0.0218102038105819
450 -0.2482118130074371 0.3875446374426139 0.1610421292791293
451 -0.3415686558652169 0.3379907388759897 0.1422156675620463
452 -0.002356566864333574 0.3908022383223546 -0.03902577234830128
453 0.03494022543507862 0.5985031079304554 -0.09144789859433097
454 0.2997494303285841 -0.1612136887813211 0.1915023983596247
455 0.02277868557397525 0.1605894135336241 0.1432956055439038
456 -0.1189608994220396 0.2510456836888978 0.2537454181589407
457 -0.05594453343109478 0.1640185154648712 0.248701566001272
458 0.1255597622063825 0.4082529583214252 0.4541339959391564
459 -0.1136972512157375 0.3207325623147856 0.3947567995661929
460 0.131407836398657 0.09410273838201888 0.1404163679195213
461 0.2549502948836134 0.07020163927853498 0.08162060589686085
462 -0.01261625580883186 0.3483929428046155 0.1732972796347054
463 -0.07361124973998254 0.439012892487972 0.08773861183187481
464 0.0975742673680066 0.4049440116546306 -0.1451874332131508
465 -0.4099850020894247 0.3622705403439016 0.1892996811525804
466 -0.2504433344819113 0.545141036539192 -0.1909685094425539
467 0.09415669201267912 0.2206558189078325 0.09434508702687466
468 -0.01551681577202866 0.2349488762929378 0.1858123788752177
469 -0.2157402153794225 0.291285997345304 0.1865645327071518
470 -0.02283598285033465 0.05130585277448242 0.2533537541883316
471 0.2168697709078686 0.2747845628042915 -0.08244305435962786
472 -0.296029767094302 0.4283873704241117 -0.1334962288088948
473 0.04652453928184638 0.2659640582023294 -0.120883191984476
474 -0.421344975463563 0.3122364292456328 0.1072870914329148
475 -0.1209812618863404 0.1046436937504661 0.2073855486063536
476 -0.4431442520176798 0.5252271454370767 -0.09263795531157459
477 0.2008801674640705 -0.0285052465424506 0.115927751515896
478 0.08131758126687116 0.3439569167300359 0.09250023201652931
479 0.2302996055661612 0.1511197837720274 0.411700646907501
480 -0.1224914851240676 0.5545536576888643 -0.07558602394767541
481 0.06886290444775103 0.5910541637316442 0.2480056036307997
482 0.2616678272262489 0.4302721457668313 0.2002674001731552
$EndNodes
$Elements
2367
1 2 2 0 1 1 2 3
2 2 2 0 1 2 1 9
3 2 2 0 1 4 1 3
4 2 2 0 1 4 5 1
5 2 2 0 1 1 5 12
6 2 2 0 1 1 12 9
7 2 2 0 1 3 2 8
8 2 2 0 1 8 2 9
9 2 2 0 1 10 4 3
10 2 2 0 1 7 3 8
11 2 2 0 1 10 3 7
12 2 2 0 1 5 4 6
13 2 2 0 1 6 4 15
14 2 2 0 1 10 15 4
15 2 2 0 1 5 6 11
16 2 2 0 1 5 11 12
17 2 2 0 1 11 6 14
18 2 2 0 1 13 14 6
19 2 2 0 1 13 6 15
20 2 2 0 1 7 8 24
21 2 2 0 1 10 7 23
22 2 2 0 1 23 7 28
23 2 2 0 1 7 24 37
24 2 2 0 1 28 7 45
25 2 2 0 1 7 37 45
26 2 2 0 1 8 9 24
27 2 2 0 1 12 22 9
28 2 2 0 1 9 22 104
29 2 2 0 1 9 32 24
30 2 2 0 1 32 9 69
31 2 2 0 1 9 104 69
32 2 2 0 1 15 10 23
33 2 2 0 1 12 11 22
34 2 2 0 1 11 14 25
35 2 2 0 1 22 11 25
36 2 2 0 1 14 13 26
37 2 2 0 1 17 13 15
38 2 2 0 1 38 13 17
39 2 2 0 1 13 38 26
40 2 2 0 1 25 14 26
41 2 2 0 1 15 27 17
42 2 2 0 1 27 15 23
43 2 2 0 1 16 17 18
44 2 2 0 1 17 16 38
45 2 2 0 1 18 49 16
46 2 2 0 1 38 16 41
47 2 2 0 1 16 49 41
48 2 2 0 1 18 17 27
49 2 2 0 1 18 40 21
50 2 2 0 1 49 18 21
51 2 2 0 1 18 27 39
52 2 2 0 1 18 39 40
53 2 2 0 1 19 20 21
54 2 2 0 1 20 19 46
55 2 2 0 1 21 40 19
56 2 2 0 1 40 46 19
57 2 2 0 1 20 49 21
58 2 2 0 1 41 49 20
59 2 2 0 1 41 20 64
60 2 2 0 1 20 46 51
61 2 2 0 1 20 51 59
62 2 2 0 1 64 20 59
63 2 2 0 1 25 48 22
64 2 2 0 1 48 104 22
65 2 2 0 1 27 23 39
66 2 2 0 1 23 28 36
67 2 2 0 1 23 36 34
68 2 2 0 1 23 34 39
69 2 2 0 1 37 24 32
70 2 2 0 1 26 47 25
71 2 2 0 1 25 47 48
72 2 2 0 1 38 41 26
73 2 2 0 1 26 41 64
74 2 2 0 1 47 26 79
75 2 2 0 1 26 64 92
76 2 2 0 1 79 26 92
77 2 2 0 1 29 28 30
78 2 2 0 1 28 29 36
79 2 2 0 1 30 28 31
80 2 2 0 1 31 28 45
81 2 2 0 1 43 29 30
82 2 2 0 1 35 36 29
83 2 2 0 1 35 29 43
84 2 2 0 1 30 31 61
85 2 2 0 1 63 43 30
86 2 2 0 1 30 61 63
87 2 2 0 1 31 45 61
88 2 2 0 1 37 32 107
89 2 2 0 1 32 69 107
90 2 2 0 1 33 34 35
91 2 2 0 1 42 34 33
92 2 2 0 1 33 35 62
93 2 2 0 1 42 33 62
94 2 2 0 1 34 36 35
95 2 2 0 1 42 39 34
96 2 2 0 1 35 43 44
97 2 2 0 1 44 62 35
98 2 2 0 1 45 37 94
99 2 2 0 1 37 107 94
100 2 2 0 1 40 39 46
101 2 2 0 1 39 42 46
102 2 2 0 1 42 62 46
103 2 2 0 1 44 43 86
104 2 2 0 1 63 90 43
105 2 2 0 1 86 43 96
106 2 2 0 1 96 43 90
107 2 2 0 1 62 44 89
108 2 2 0 1 44 86 89
109 2 2 0 1 61 45 68
110 2 2 0 1 68 45 67
111 2 2 0 1 67 45 91
112 2 2 0 1 91 45 94
113 2 2 0 1 46 50 51
114 2 2 0 1 46 62 50
115 2 2 0 1 47 79 48
116 2 2 0 1 48 79 168
117 2 2 0 1 104 48 186
118 2 2 0 1 48 168 186
119 2 2 0 1 51 50 102
120 2 2 0 1 50 62 85
121 2 2 0 1 50 85 95
122 2 2 0 1 50 95 102
123 2 2 0 1 59 51 102
124 2 2 0 1 52 53 54
125 2 2 0 1 83 53 52
126 2 2 0 1 54 118 52
127 2 2 0 1 60 84 52
128 2 2 0 1 52 114 60
129 2 2 0 1 83 52 84
130 2 2 0 1 118 114 52
131 2 2 0 1 124 54 53
132 2 2 0 1 57 53 55
133 2 2 0 1 55 53 184
134 2 2 0 1 57 124 53
135 2 2 0 1 53 83 184
136 2 2 0 1 82 118 54
137 2 2 0 1 125 82 54
138 2 2 0 1 124 125 54
139 2 2 0 1 55 56 57
140 2 2 0 1 56 55 211
141 2 2 0 1 55 184 216
142 2 2 0 1 55 216 211
143 2 2 0 1 57 56 127
144 2 2 0 1 194 127 56
145 2 2 0 1 194 56 213
146 2 2 0 1 56 211 212
147 2 2 0 1 213 56 212
148 2 2 0 1 124 57 127
149 2 2 0 1 58 59 60
150 2 2 0 1 59 58 88
151 2 2 0 1 60 114 58
152 2 2 0 1 58 100 88
153 2 2 0 1 100 58 114
154 2 2 0 1 59 102 60
155 2 2 0 1 88 64 59
156 2 2 0 1 60 102 84
157 2 2 0 1 63 61 87
158 2 2 0 1 61 68 87
159 2 2 0 1 85 62 89
160 2 2 0 1 90 63 87
161 2 2 0 1 92 64 88
162 2 2 0 1 65 66 67
163 2 2 0 1 66 65 101
164 2 2 0 1 67 91 65
165 2 2 0 1 110 65 91
166 2 2 0 1 65 110 101
167 2 2 0 1 99 67 66
168 2 2 0 1 99 66 109
169 2 2 0 1 101 103 66
170 2 2 0 1 109 66 103
171 2 2 0 1 87 68 67
172 2 2 0 1 99 87 67
173 2 2 0 1 112 69 104
174 2 2 0 1 107 69 130
175 2 2 0 1 69 112 111
176 2 2 0 1 69 111 141
177 2 2 0 1 141 130 69
178 2 2 0 1 70 71 72
179 2 2 0 1 195 71 70
180 2 2 0 1 72 236 70
181 2 2 0 1 151 225 70
182 2 2 0 1 70 236 151
183 2 2 0 1 195 70 225
184 2 2 0 1 71 156 72
185 2 2 0 1 71 140 156
186 2 2 0 1 171 140 71
187 2 2 0 1 195 171 71
188 2 2 0 1 72 156 74
189 2 2 0 1 72 74 196
190 2 2 0 1 226 72 196
191 2 2 0 1 226 236 72
192 2 2 0 1 73 74 75
193 2 2 0 1 74 73 190
194 2 2 0 1 172 73 75
195 2 2 0 1 73 165 166
196 2 2 0 1 165 73 172
197 2 2 0 1 73 166 179
198 2 2 0 1 73 179 189
199 2 2 0 1 73 189 190
200 2 2 0 1 172 75 74
201 2 2 0 1 156 117 74
202 2 2 0 1 117 172 74
203 2 2 0 1 196 74 190
204 2 2 0 1 76 77 78
205 2 2 0 1 77 76 244
206 2 2 0 1 179 76 78
207 2 2 0 1 166 154 76
208 2 2 0 1 154 180 76
209 2 2 0 1 179 166 76
210 2 2 0 1 76 180 227
211 2 2 0 1 244 76 227
212 2 2 0 1 77 248 78
213 2 2 0 1 197 231 77
214 2 2 0 1 77 250 197
215 2 2 0 1 231 248 77
216 2 2 0 1 77 244 250
217 2 2 0 1 78 190 179
218 2 2 0 1 190 78 226
219 2 2 0 1 248 226 78
220 2 2 0 1 79 92 80
221 2 2 0 1 79 80 132
222 2 2 0 1 79 132 168
223 2 2 0 1 80 81 82
224 2 2 0 1 100 81 80
225 2 2 0 1 80 82 128
226 2 2 0 1 100 80 92
227 2 2 0 1 132 80 128
228 2 2 0 1 81 118 82
229 2 2 0 1 81 100 118
230 2 2 0 1 131 82 125
231 2 2 0 1 128 82 131
232 2 2 0 1 84 184 83
233 2 2 0 1 102 142 84
234 2 2 0 1 84 142 155
235 2 2 0 1 84 155 184
236 2 2 0 1 85 89 93
237 2 2 0 1 105 85 93
238 2 2 0 1 95 85 108
239 2 2 0 1 108 85 105
240 2 2 0 1 89 86 93
241 2 2 0 1 93 86 96
242 2 2 0 1 90 87 97
243 2 2 0 1 87 99 97
244 2 2 0 1 92 88 100
245 2 2 0 1 96 90 97
246 2 2 0 1 91 94 110
247 2 2 0 1 93 96 115
248 2 2 0 1 93 120 105
249 2 2 0 1 93 115 116
250 2 2 0 1 116 120 93
251 2 2 0 1 107 130 94
252 2 2 0 1 129 110 94
253 2 2 0 1 129 94 167
254 2 2 0 1 94 130 167
255 2 2 0 1 142 102 95
256 2 2 0 1 95 108 133
257 2 2 0 1 95 133 144
258 2 2 0 1 144 142 95
259 2 2 0 1 96 97 98
260 2 2 0 1 115 96 98
261 2 2 0 1 97 119 98
262 2 2 0 1 121 97 99
263 2 2 0 1 119 97 121
264 2 2 0 1 98 122 115
265 2 2 0 1 98 119 122
266 2 2 0 1 99 109 121
267 2 2 0 1 114 118 100
268 2 2 0 1 106 103 101
269 2 2 0 1 106 101 129
270 2 2 0 1 110 129 101
271 2 2 0 1 103 106 135
272 2 2 0 1 109 103 123
273 2 2 0 1 103 135 123
274 2 2 0 1 325 112 104
275 2 2 0 1 104 186 325
276 2 2 0 1 133 108 105
277 2 2 0 1 105 120 140
278 2 2 0 1 105 140 133
279 2 2 0 1 106 129 187
280 2 2 0 1 106 183 135
281 2 2 0 1 183 106 187
282 2 2 0 1 121 109 143
283 2 2 0 1 109 123 169
284 2 2 0 1 143 109 169
285 2 2 0 1 111 112 113
286 2 2 0 1 111 113 381
287 2 2 0 1 141 111 192
288 2 2 0 1 192 111 193
289 2 2 0 1 111 381 193
290 2 2 0 1 112 405 113
291 2 2 0 1 112 325 405
292 2 2 0 1 425 381 113
293 2 2 0 1 113 405 431
294 2 2 0 1 425 113 431
295 2 2 0 1 116 115 117
296 2 2 0 1 117 115 165
297 2 2 0 1 115 122 154
298 2 2 0 1 115 154 165
299 2 2 0 1 116 117 156
300 2 2 0 1 120 116 156
301 2 2 0 1 165 172 117
302 2 2 0 1 121 134 119
303 2 2 0 1 122 119 134
304 2 2 0 1 120 156 140
305 2 2 0 1 134 121 143
306 2 2 0 1 154 122 134
307 2 2 0 1 123 135 185
308 2 2 0 1 169 123 185
309 2 2 0 1 131 125 124
310 2 2 0 1 126 124 127
311 2 2 0 1 126 131 124
312 2 2 0 1 126 127 175
313 2 2 0 1 139 131 126
314 2 2 0 1 126 173 139
315 2 2 0 1 173 126 174
316 2 2 0 1 174 126 175
317 2 2 0 1 127 194 175
318 2 2 0 1 128 131 139
319 2 2 0 1 128 170 132
320 2 2 0 1 170 128 139
321 2 2 0 1 129 167 210
322 2 2 0 1 129 210 187
323 2 2 0 1 130 141 192
324 2 2 0 1 130 235 167
325 2 2 0 1 130 192 193
326 2 2 0 1 130 193 235
327 2 2 0 1 178 168 132
328 2 2 0 1 170 178 132
329 2 2 0 1 155 133 140
330 2 2 0 1 144 133 155
331 2 2 0 1 143 188 134
332 2 2 0 1 154 134 180
333 2 2 0 1 180 134 188
334 2 2 0 1 185 135 183
335 2 2 0 1 136 137 138
336 2 2 0 1 136 288 137
337 2 2 0 1 294 136 138
338 2 2 0 1 286 288 136
339 2 2 0 1 286 136 294
340 2 2 0 1 138 137 337
341 2 2 0 1 288 302 137
342 2 2 0 1 137 302 337
343 2 2 0 1 294 138 272
344 2 2 0 1 272 138 403
345 2 2 0 1 138 337 389
346 2 2 0 1 389 401 138
347 2 2 0 1 403 138 401
348 2 2 0 1 170 139 173
349 2 2 0 1 155 140 171
350 2 2 0 1 155 142 144
351 2 2 0 1 143 169 209
352 2 2 0 1 143 209 188
353 2 2 0 1 145 146 147
354 2 2 0 1 145 224 146
355 2 2 0 1 213 145 147
356 2 2 0 1 213 212 145
357 2 2 0 1 212 224 145
358 2 2 0 1 150 147 146
359 2 2 0 1 146 273 150
360 2 2 0 1 146 224 247
361 2 2 0 1 146 247 273
362 2 2 0 1 149 147 150
363 2 2 0 1 149 242 147
364 2 2 0 1 242 213 147
365 2 2 0 1 148 149 150
366 2 2 0 1 149 148 238
367 2 2 0 1 150 273 148
368 2 2 0 1 238 148 276
369 2 2 0 1 148 273 376
370 2 2 0 1 276 148 297
371 2 2 0 1 148 376 297
372 2 2 0 1 238 242 149
373 2 2 0 1 151 152 153
374 2 2 0 1 151 236 152
375 2 2 0 1 151 153 247
376 2 2 0 1 225 151 247
377 2 2 0 1 153 152 198
378 2 2 0 1 152 278 198
379 2 2 0 1 152 236 278
380 2 2 0 1 318 153 198
381 2 2 0 1 273 247 153
382 2 2 0 1 273 153 334
383 2 2 0 1 153 318 334
384 2 2 0 1 165 154 166
385 2 2 0 1 195 155 171
386 2 2 0 1 184 155 195
387 2 2 0 1 157 158 159
388 2 2 0 1 157 312 158
389 2 2 0 1 159 256 157
390 2 2 0 1 256 259 157
391 2 2 0 1 157 259 312
392 2 2 0 1 200 159 158
393 2 2 0 1 200 158 201
394 2 2 0 1 158 203 201
395 2 2 0 1 158 336 203
396 2 2 0 1 158 312 336
397 2 2 0 1 163 164 159
398 2 2 0 1 271 163 159
399 2 2 0 1 159 164 256
400 2 2 0 1 271 159 200
401 2 2 0 1 160 161 162
402 2 2 0 1 160 277 161
403 2 2 0 1 164 160 162
404 2 2 0 1 266 160 164
405 2 2 0 1 265 160 266
406 2 2 0 1 265 271 160
407 2 2 0 1 271 277 160
408 2 2 0 1 162 161 253
409 2 2 0 1 277 253 161
410 2 2 0 1 162 262 164
411 2 2 0 1 227 162 244
412 2 2 0 1 262 162 227
413 2 2 0 1 253 244 162
414 2 2 0 1 266 164 163
415 2 2 0 1 266 163 265
416 2 2 0 1 271 265 163
417 2 2 0 1 256 164 257
418 2 2 0 1 262 257 164
419 2 2 0 1 167 235 193
420 2 2 0 1 167 193 270
421 2 2 0 1 210 167 270
422 2 2 0 1 168 178 386
423 2 2 0 1 168 386 186
424 2 2 0 1 169 185 191
425 2 2 0 1 214 169 191
426 2 2 0 1 209 169 214
427 2 2 0 1 178 170 173
428 2 2 0 1 173 174 178
429 2 2 0 1 174 175 176
430 2 2 0 1 174 176 177
431 2 2 0 1 174 177 218
432 2 2 0 1 178 174 218
433 2 2 0 1 175 241 176
434 2 2 0 1 175 194 240
435 2 2 0 1 175 240 241
436 2 2 0 1 177 176 251
437 2 2 0 1 222 176 223
438 2 2 0 1 251 176 222
439 2 2 0 1 176 241 223
440 2 2 0 1 218 177 251
441 2 2 0 1 178 218 272
442 2 2 0 1 178 272 417
443 2 2 0 1 386 178 422
444 2 2 0 1 178 417 422
445 2 2 0 1 189 179 190
446 2 2 0 1 180 188 227
447 2 2 0 1 181 182 183
448 2 2 0 1 181 232 182
449 2 2 0 1 181 183 187
450 2 2 0 1 181 187 230
451 2 2 0 1 181 230 232
452 2 2 0 1 183 182 215
453 2 2 0 1 215 182 234
454 2 2 0 1 182 232 233
455 2 2 0 1 182 233 234
456 2 2 0 1 185 183 215
457 2 2 0 1 216 184 195
458 2 2 0 1 191 185 215
459 2 2 0 1 386 325 186
460 2 2 0 1 187 210 230
461 2 2 0 1 209 214 188
462 2 2 0 1 188 214 228
463 2 2 0 1 227 188 228
464 2 2 0 1 196 190 226
465 2 2 0 1 214 191 229
466 2 2 0 1 229 191 215
467 2 2 0 1 270 193 381
468 2 2 0 1 194 213 217
469 2 2 0 1 194 217 240
470 2 2 0 1 216 195 211
471 2 2 0 1 211 195 225
472 2 2 0 1 197 198 199
473 2 2 0 1 197 254 198
474 2 2 0 1 199 231 197
475 2 2 0 1 249 197 250
476 2 2 0 1 249 254 197
477 2 2 0 1 198 278 199
478 2 2 0 1 255 198 254
479 2 2 0 1 198 255 318
480 2 2 0 1 278 231 199
481 2 2 0 1 200 201 382
482 2 2 0 1 284 271 200
483 2 2 0 1 300 284 200
484 2 2 0 1 323 300 200
485 2 2 0 1 382 323 200
486 2 2 0 1 202 201 203
487 2 2 0 1 382 201 202
488 2 2 0 1 203 409 202
489 2 2 0 1 382 202 383
490 2 2 0 1 383 202 397
491 2 2 0 1 202 409 397
492 2 2 0 1 203 336 393
493 2 2 0 1 409 203 393
494 2 2 0 1 204 205 206
495 2 2 0 1 412 205 204
496 2 2 0 1 204 206 207
497 2 2 0 1 204 207 208
498 2 2 0 1 208 413 204
499 2 2 0 1 412 204 413
500 2 2 0 1 205 397 206
501 2 2 0 1 383 205 384
502 2 2 0 1 383 397 205
503 2 2 0 1 416 384 205
504 2 2 0 1 416 205 412
505 2 2 0 1 206 410 207
506 2 2 0 1 397 410 206
507 2 2 0 1 208 207 410
508 2 2 0 1 208 314 313
509 2 2 0 1 313 395 208
510 2 2 0 1 322 314 208
511 2 2 0 1 398 322 208
512 2 2 0 1 395 394 208
513 2 2 0 1 208 394 421
514 2 2 0 1 410 398 208
515 2 2 0 1 413 208 411
516 2 2 0 1 208 421 411
517 2 2 0 1 230 210 243
518 2 2 0 1 210 270 243
519 2 2 0 1 212 211 224
520 2 2 0 1 211 225 224
521 2 2 0 1 242 217 213
522 2 2 0 1 228 214 245
523 2 2 0 1 214 229 245
524 2 2 0 1 229 215 246
525 2 2 0 1 215 234 246
526 2 2 0 1 237 240 217
527 2 2 0 1 242 237 217
528 2 2 0 1 251 279 218
529 2 2 0 1 279 272 218
530 2 2 0 1 219 220 221
531 2 2 0 1 219 279 220
532 2 2 0 1 221 286 219
533 2 2 0 1 272 279 219
534 2 2 0 1 294 272 219
535 2 2 0 1 219 286 294
536 2 2 0 1 221 220 289
537 2 2 0 1 279 280 220
538 2 2 0 1 220 280 338
539 2 2 0 1 289 220 317
540 2 2 0 1 220 326 317
541 2 2 0 1 220 338 326
542 2 2 0 1 281 221 282
543 2 2 0 1 286 221 281
544 2 2 0 1 221 289 282
545 2 2 0 1 222 223 335
546 2 2 0 1 319 251 222
547 2 2 0 1 319 222 335
548 2 2 0 1 223 241 275
549 2 2 0 1 223 275 320
550 2 2 0 1 223 320 335
551 2 2 0 1 247 224 225
552 2 2 0 1 236 226 248
553 2 2 0 1 262 227 228
554 2 2 0 1 228 245 263
555 2 2 0 1 262 228 257
556 2 2 0 1 257 228 263
557 2 2 0 1 229 246 245
558 2 2 0 1 230 252 232
559 2 2 0 1 252 230 243
560 2 2 0 1 236 248 231
561 2 2 0 1 236 231 278
562 2 2 0 1 233 232 252
563 2 2 0 1 234 233 268
564 2 2 0 1 233 252 310
565 2 2 0 1 233 285 268
566 2 2 0 1 233 310 285
567 2 2 0 1 234 268 246
568 2 2 0 1 237 238 239
569 2 2 0 1 237 242 238
570 2 2 0 1 240 237 239
571 2 2 0 1 239 238 275
572 2 2 0 1 275 238 276
573 2 2 0 1 239 283 240
574 2 2 0 1 283 239 275
575 2 2 0 1 240 283 241
576 2 2 0 1 241 283 275
577 2 2 0 1 252 243 311
578 2 2 0 1 243 270 394
579 2 2 0 1 316 311 243
580 2 2 0 1 243 315 316
581 2 2 0 1 394 315 243
582 2 2 0 1 249 250 244
583 2 2 0 1 254 249 244
584 2 2 0 1 244 253 254
585 2 2 0 1 245 246 263
586 2 2 0 1 263 246 264
587 2 2 0 1 264 246 267
588 2 2 0 1 246 269 267
589 2 2 0 1 268 269 246
590 2 2 0 1 279 251 280
591 2 2 0 1 251 319 280
592 2 2 0 1 310 252 311
593 2 2 0 1 254 253 323
594 2 2 0 1 277 284 253
595 2 2 0 1 253 284 300
596 2 2 0 1 323 253 300
597 2 2 0 1 254 323 255
598 2 2 0 1 377 318 255
599 2 2 0 1 377 255 323
600 2 2 0 1 256 257 258
601 2 2 0 1 256 258 259
602 2 2 0 1 257 264 258
603 2 2 0 1 257 263 264
604 2 2 0 1 259 258 260
605 2 2 0 1 260 258 261
606 2 2 0 1 264 261 258
607 2 2 0 1 312 259 260
608 2 2 0 1 261 314 260
609 2 2 0 1 322 312 260
610 2 2 0 1 260 314 322
611 2 2 0 1 261 264 267
612 2 2 0 1 261 267 301
613 2 2 0 1 261 301 314
614 2 2 0 1 267 269 352
615 2 2 0 1 301 267 345
616 2 2 0 1 267 352 345
617 2 2 0 1 269 268 274
618 2 2 0 1 268 285 274
619 2 2 0 1 274 324 269
620 2 2 0 1 324 346 269
621 2 2 0 1 269 346 352
622 2 2 0 1 270 381 394
623 2 2 0 1 284 277 271
624 2 2 0 1 403 417 272
625 2 2 0 1 273 334 343
626 2 2 0 1 376 273 343
627 2 2 0 1 324 274 285
628 2 2 0 1 275 276 320
629 2 2 0 1 299 276 297
630 2 2 0 1 320 276 299
631 2 2 0 1 319 339 280
632 2 2 0 1 338 280 339
633 2 2 0 1 281 282 287
634 2 2 0 1 286 281 288
635 2 2 0 1 281 287 288
636 2 2 0 1 287 282 295
637 2 2 0 1 289 290 282
638 2 2 0 1 282 290 296
639 2 2 0 1 295 282 296
640 2 2 0 1 324 285 310
641 2 2 0 1 288 287 302
642 2 2 0 1 287 295 303
643 2 2 0 1 302 287 303
644 2 2 0 1 290 289 317
645 2 2 0 1 296 290 328
646 2 2 0 1 290 317 329
647 2 2 0 1 328 290 329
648 2 2 0 1 291 292 293
649 2 2 0 1 291 359 292
650 2 2 0 1 341 291 293
651 2 2 0 1 329 291 328
652 2 2 0 1 341 328 291
653 2 2 0 1 359 291 329
654 2 2 0 1 293 292 333
655 2 2 0 1 333 292 407
656 2 2 0 1 359 406 292
657 2 2 0 1 396 375 292
658 2 2 0 1 407 292 375
659 2 2 0 1 396 292 406
660 2 2 0 1 332 293 333
661 2 2 0 1 332 341 293
662 2 2 0 1 295 296 309
663 2 2 0 1 303 295 304
664 2 2 0 1 304 295 305
665 2 2 0 1 305 295 309
666 2 2 0 1 309 296 321
667 2 2 0 1 296 328 321
668 2 2 0 1 297 298 299
669 2 2 0 1 297 372 298
670 2 2 0 1 372 297 374
671 2 2 0 1 297 376 374
672 2 2 0 1 372 299 298
673 2 2 0 1 335 320 299
674 2 2 0 1 299 372 335
675 2 2 0 1 313 314 301
676 2 2 0 1 301 345 313
677 2 2 0 1 337 302 303
678 2 2 0 1 303 304 337
679 2 2 0 1 305 307 304
680 2 2 0 1 351 304 307
681 2 2 0 1 337 304 351
682 2 2 0 1 307 305 308
683 2 2 0 1 308 305 331
684 2 2 0 1 309 330 305
685 2 2 0 1 305 330 331
686 2 2 0 1 306 307 308
687 2 2 0 1 307 306 360
688 2 2 0 1 364 306 308
689 2 2 0 1 390 360 306
690 2 2 0 1 306 364 367
691 2 2 0 1 306 367 390
692 2 2 0 1 351 307 360
693 2 2 0 1 308 331 363
694 2 2 0 1 364 308 363
695 2 2 0 1 330 309 321
696 2 2 0 1 310 311 316
697 2 2 0 1 349 310 316
698 2 2 0 1 347 324 310
699 2 2 0 1 349 347 310
700 2 2 0 1 312 322 336
701 2 2 0 1 313 345 395
702 2 2 0 1 349 316 315
703 2 2 0 1 349 315 394
704 2 2 0 1 317 326 327
705 2 2 0 1 317 327 329
706 2 2 0 1 334 318 342
707 2 2 0 1 318 377 342
708 2 2 0 1 335 378 319
709 2 2 0 1 339 319 340
710 2 2 0 1 319 378 340
711 2 2 0 1 321 328 341
712 2 2 0 1 321 331 330
713 2 2 0 1 331 321 332
714 2 2 0 1 321 341 332
715 2 2 0 1 322 393 336
716 2 2 0 1 322 398 393
717 2 2 0 1 387 377 323
718 2 2 0 1 382 387 323
719 2 2 0 1 346 324 347
720 2 2 0 1 325 386 423
721 2 2 0 1 325 427 405
722 2 2 0 1 325 423 427
723 2 2 0 1 326 362 327
724 2 2 0 1 326 338 340
725 2 2 0 1 362 326 340
726 2 2 0 1 356 329 327
727 2 2 0 1 327 362 356
728 2 2 0 1 356 358 329
729 2 2 0 1 329 358 359
730 2 2 0 1 331 332 370
731 2 2 0 1 363 331 370
732 2 2 0 1 332 333 371
733 2 2 0 1 370 332 371
734 2 2 0 1 371 333 391
735 2 2 0 1 391 333 392
736 2 2 0 1 407 392 333
737 2 2 0 1 334 342 343
738 2 2 0 1 335 372 396
739 2 2 0 1 378 335 396
740 2 2 0 1 337 351 360
741 2 2 0 1 389 337 360
742 2 2 0 1 338 339 340
743 2 2 0 1 340 361 362
744 2 2 0 1 340 378 361
745 2 2 0 1 343 342 344
746 2 2 0 1 344 342 385
747 2 2 0 1 342 377 385
748 2 2 0 1 344 376 343
749 2 2 0 1 375 376 344
750 2 2 0 1 375 344 407
751 2 2 0 1 344 385 407
752 2 2 0 1 345 352 353
753 2 2 0 1 345 353 395
754 2 2 0 1 346 347 348
755 2 2 0 1 348 388 346
756 2 2 0 1 352 346 353
757 2 2 0 1 346 388 353
758 2 2 0 1 349 348 347
759 2 2 0 1 348 349 350
760 2 2 0 1 388 348 350
761 2 2 0 1 350 349 394
762 2 2 0 1 350 394 388
763 2 2 0 1 353 388 394
764 2 2 0 1 395 353 394
765 2 2 0 1 354 355 356
766 2 2 0 1 355 354 406
767 2 2 0 1 356 362 354
768 2 2 0 1 362 361 354
769 2 2 0 1 361 406 354
770 2 2 0 1 356 355 357
771 2 2 0 1 357 355 359
772 2 2 0 1 359 355 406
773 2 2 0 1 356 357 358
774 2 2 0 1 358 357 359
775 2 2 0 1 360 379 380
776 2 2 0 1 360 390 379
777 2 2 0 1 419 360 380
778 2 2 0 1 360 401 389
779 2 2 0 1 360 419 401
780 2 2 0 1 378 396 361
781 2 2 0 1 361 396 406
782 2 2 0 1 364 363 365
783 2 2 0 1 365 363 404
784 2 2 0 1 363 370 404
785 2 2 0 1 364 365 366
786 2 2 0 1 364 366 367
787 2 2 0 1 366 365 399
788 2 2 0 1 399 365 400
789 2 2 0 1 400 365 404
790 2 2 0 1 367 366 368
791 2 2 0 1 399 368 366
792 2 2 0 1 368 369 367
793 2 2 0 1 390 367 369
794 2 2 0 1 379 369 368
795 2 2 0 1 380 379 368
796 2 2 0 1 368 414 380
797 2 2 0 1 399 411 368
798 2 2 0 1 415 368 411
799 2 2 0 1 414 368 415
800 2 2 0 1 379 390 369
801 2 2 0 1 370 371 404
802 2 2 0 1 371 391 384
803 2 2 0 1 371 384 416
804 2 2 0 1 404 371 416
805 2 2 0 1 373 372 374
806 2 2 0 1 396 372 373
807 2 2 0 1 373 374 375
808 2 2 0 1 396 373 375
809 2 2 0 1 374 376 375
810 2 2 0 1 377 387 385
811 2 2 0 1 419 380 414
812 2 2 0 1 381 425 394
813 2 2 0 1 382 383 408
814 2 2 0 1 387 382 408
815 2 2 0 1 408 383 384
816 2 2 0 1 391 408 384
817 2 2 0 1 392 385 387
818 2 2 0 1 385 392 407
819 2 2 0 1 386 422 423
820 2 2 0 1 392 387 391
821 2 2 0 1 391 387 408
822 2 2 0 1 393 398 410
823 2 2 0 1 409 393 410
824 2 2 0 1 428 421 394
825 2 2 0 1 425 428 394
826 2 2 0 1 409 410 397
827 2 2 0 1 399 400 411
828 2 2 0 1 404 412 400
829 2 2 0 1 411 400 413
830 2 2 0 1 400 412 413
831 2 2 0 1 401 402 403
832 2 2 0 1 401 419 402
833 2 2 0 1 417 403 402
834 2 2 0 1 417 402 430
835 2 2 0 1 418 402 419
836 2 2 0 1 429 402 418
837 2 2 0 1 430 402 429
838 2 2 0 1 416 412 404
839 2 2 0 1 405 427 431
840 2 2 0 1 415 411 420
841 2 2 0 1 420 411 424
842 2 2 0 1 421 424 411
843 2 2 0 1 414 415 420
844 2 2 0 1 414 418 419
845 2 2 0 1 418 414 420
846 2 2 0 1 433 422 417
847 2 2 0 1 417 430 432
848 2 2 0 1 417 432 433
849 2 2 0 1 420 426 418
850 2 2 0 1 426 424 418
851 2 2 0 1 429 418 424
852 2 2 0 1 426 420 424
853 2 2 0 1 428 424 421
854 2 2 0 1 423 422 427
855 2 2 0 1 422 435 427
856 2 2 0 1 422 433 434
857 2 2 0 1 422 434 435
858 2 2 0 1 432 424 428
859 2 2 0 1 432 429 424
860 2 2 0 1 428 425 431
861 2 2 0 1 435 431 427
862 2 2 0 1 428 431 434
863 2 2 0 1 432 428 433
864 2 2 0 1 434 433 428
865 2 2 0 1 432 430 429
866 2 2 0 1 434 431 435
867 4 2 0 1 223 241 176 448
868 4 2 0 1 397 202 383 451
869 4 2 0 1 178 170 132 448
870 4 2 0 1 359 406 355 466
871 4 2 0 1 170 178 173 448
872 4 2 0 1 152 151 153 452
873 4 2 0 1 402 432 417 430
874 4 2 0 1 437 94 457 470
875 4 2 0 1 164 161 200 451
876 4 2 0 1 280 338 339 251
877 4 2 0 1 319 340 178 339
878 4 2 0 1 238 239 275 473
879 4 2 0 1 171 71 140 460
880 4 2 0 1 321 331 307 330
881 4 2 0 1 178 132 168 448
882 4 2 0 1 443 459 456 468
883 4 2 0 1 162 161 164 451
884 4 2 0 1 151 70 225 467
885 4 2 0 1 344 407 385 452
886 4 2 0 1 437 443 462 468
887 4 2 0 1 152 198 278 463
888 4 2 0 1 333 384 392 480
889 4 2 0 1 263 451 228 474
890 4 2 0 1 276 297 148 473
891 4 2 0 1 250 197 249 456
892 4 2 0 1 79 100 58 114
893 4 2 0 1 84 83 184 471
894 4 2 0 1 148 297 376 452
895 4 2 0 1 171 71 460 467
896 4 2 0 1 201 164 451 474
897 4 2 0 1 53 184 83 471
898 4 2 0 1 227 451 285 469
899 4 2 0 1 352 267 345 269
900 4 2 0 1 76 182 183 475
901 4 2 0 1 148 376 273 452
902 4 2 0 1 167 437 457 459
903 4 2 0 1 297 298 452 473
904 4 2 0 1 386 325 423 482
905 4 2 0 1 268 234 285 233
906 4 2 0 1 181 187 183 475
907 4 2 0 1 344 342 343 452
908 4 2 0 1 227 262 285 451
909 4 2 0 1 75 172 156 116
910 4 2 0 1 362 302 355 326
911 4 2 0 1 159 164 160 161
912 4 2 0 1 161 159 164 200
913 4 2 0 1 164 200 201 451
914 4 2 0 1 414 420 415 424
915 4 2 0 1 355 302 137 326
916 4 2 0 1 385 452 407 463
917 4 2 0 1 342 344 385 452
918 4 2 0 1 262 228 285 451
919 4 2 0 1 327 302 355 362
920 4 2 0 1 75 116 460 470
921 4 2 0 1 443 437 459 468
922 4 2 0 1 33 34 42 454
923 4 2 0 1 297 452 148 473
924 4 2 0 1 181 456 187 475
925 4 2 0 1 344 375 407 452
926 4 2 0 1 9 3 2 8
927 4 2 0 1 75 116 455 460
928 4 2 0 1 279 338 251 218
929 4 2 0 1 443 458 437 462
930 4 2 0 1 155 84 184 471
931 4 2 0 1 76 456 182 475
932 4 2 0 1 253 451 162 469
933 4 2 0 1 387 384 408 450
934 4 2 0 1 167 457 94 470
935 4 2 0 1 148 452 273 473
936 4 2 0 1 385 392 387 463
937 4 2 0 1 21 27 49 441
938 4 2 0 1 171 195 71 467
939 4 2 0 1 140 133 155 461
940 4 2 0 1 437 478 462 481
941 4 2 0 1 92 100 79 80
942 4 2 0 1 53 52 54 132
943 4 2 0 1 178 422 447 453
944 4 2 0 1 228 268 285 451
945 4 2 0 1 201 158 164 474
946 4 2 0 1 155 171 140 461
947 4 2 0 1 285 234 227 469
948 4 2 0 1 215 228 229 246
949 4 2 0 1 49 20 21 441
950 4 2 0 1 51 102 50 441
951 4 2 0 1 228 274 268 451
952 4 2 0 1 192 141 235 458
953 4 2 0 1 167 437 94 457
954 4 2 0 1 227 162 451 469
955 4 2 0 1 268 274 285 451
956 4 2 0 1 182 232 181 456
957 4 2 0 1 19 40 21 441
958 4 2 0 1 144 142 155 461
959 4 2 0 1 151 225 247 439
960 4 2 0 1 35 43 29 477
961 4 2 0 1 263 228 257 474
962 4 2 0 1 75 460 455 470
963 4 2 0 1 188 134 180 143
964 4 2 0 1 167 458 437 459
965 4 2 0 1 250 456 249 469
966 4 2 0 1 357 355 337 359
967 4 2 0 1 228 451 262 474
968 4 2 0 1 155 142 84 461
969 4 2 0 1 27 39 23 454
970 4 2 0 1 278 198 199 462
971 4 2 0 1 118 100 80 79
972 4 2 0 1 262 451 164 474
973 4 2 0 1 184 216 195 471
974 4 2 0 1 73 75 189 475
975 4 2 0 1 324 285 274 451
976 4 2 0 1 382 200 323 451
977 4 2 0 1 383 408 384 450
978 4 2 0 1 97 87 90 470
979 4 2 0 1 162 164 262 451
980 4 2 0 1 244 253 162 469
981 4 2 0 1 273 452 247 473
982 4 2 0 1 191 169 215 185
983 4 2 0 1 235 458 167 459
984 4 2 0 1 333 391 384 371
985 4 2 0 1 443 437 458 459
986 4 2 0 1 320 276 275 473
987 4 2 0 1 98 116 75 470
988 4 2 0 1 178 319 339 218
989 4 2 0 1 75 455 457 470
990 4 2 0 1 76 182 456 469
991 4 2 0 1 178 386 422 453
992 4 2 0 1 152 452 198 463
993 4 2 0 1 152 463 278 478
994 4 2 0 1 332 293 341 307
995 4 2 0 1 160 164 162 161
996 4 2 0 1 338 326 340 447
997 4 2 0 1 73 165 75 475
998 4 2 0 1 151 225 439 467
999 4 2 0 1 202 382 383 451
1000 4 2 0 1 202 451 397 474
1001 4 2 0 1 373 375 452 453
1002 4 2 0 1 362 327 302 326
1003 4 2 0 1 75 116 156 455
1004 4 2 0 1 342 318 452 463
1005 4 2 0 1 232 456 182 469
1006 4 2 0 1 387 255 377 463
1007 4 2 0 1 165 172 75 117
1008 4 2 0 1 291 292 359 466
1009 4 2 0 1 189 75 455 457
1010 4 2 0 1 102 142 95 461
1011 4 2 0 1 232 230 181 456
1012 4 2 0 1 227 244 162 469
1013 4 2 0 1 247 439 225 473
1014 4 2 0 1 55 56 211 473
1015 4 2 0 1 264 263 257 474
1016 4 2 0 1 397 206 410 465
1017 4 2 0 1 422 417 447 453
1018 4 2 0 1 387 377 385 463
1019 4 2 0 1 79 132 118 168
1020 4 2 0 1 27 441 39 454
1021 4 2 0 1 227 162 262 451
1022 4 2 0 1 278 226 236 455
1023 4 2 0 1 412 416 404 476
1024 4 2 0 1 3 8 22 454
1025 4 2 0 1 257 228 262 474
1026 4 2 0 1 187 457 106 475
1027 4 2 0 1 28 30 31 445
1028 4 2 0 1 129 457 167 470
1029 4 2 0 1 230 187 181 456
1030 4 2 0 1 293 291 341 472
1031 4 2 0 1 273 376 343 452
1032 4 2 0 1 437 94 470 479
1033 4 2 0 1 258 259 260 474
1034 4 2 0 1 98 470 75 475
1035 4 2 0 1 10 3 22 454
1036 4 2 0 1 257 262 164 474
1037 4 2 0 1 228 215 234 246
1038 4 2 0 1 49 59 20 441
1039 4 2 0 1 249 456 443 469
1040 4 2 0 1 456 457 187 475
1041 4 2 0 1 220 338 288 326
1042 4 2 0 1 201 451 202 474
1043 4 2 0 1 152 439 151 452
1044 4 2 0 1 384 387 392 442
1045 4 2 0 1 235 167 458 479
1046 4 2 0 1 437 470 445 479
1047 4 2 0 1 70 195 225 467
1048 4 2 0 1 382 408 383 450
1049 4 2 0 1 384 371 416 466
1050 4 2 0 1 285 233 234 469
1051 4 2 0 1 283 275 240 194
1052 4 2 0 1 217 194 240 473
1053 4 2 0 1 198 462 278 463
1054 4 2 0 1 155 446 84 471
1055 4 2 0 1 437 458 167 479
1056 4 2 0 1 183 187 106 475
1057 4 2 0 1 76 456 77 469
1058 4 2 0 1 458 462 443 481
1059 4 2 0 1 135 123 185 475
1060 4 2 0 1 237 240 239 473
1061 4 2 0 1 423 481 436 482
1062 4 2 0 1 259 312 260 474
1063 4 2 0 1 199 198 197 462
1064 4 2 0 1 310 233 285 469
1065 4 2 0 1 254 255 323 450
1066 4 2 0 1 144 155 133 461
1067 4 2 0 1 292 375 396 480
1068 4 2 0 1 70 71 195 467
1069 4 2 0 1 171 460 140 461
1070 4 2 0 1 422 436 423 481
1071 4 2 0 1 443 425 459 481
1072 4 2 0 1 83 84 52 449
1073 4 2 0 1 192 235 193 458
1074 4 2 0 1 374 376 297 452
1075 4 2 0 1 19 46 40 441
1076 4 2 0 1 283 240 175 194
1077 4 2 0 1 253 244 254 469
1078 4 2 0 1 175 241 240 283
1079 4 2 0 1 382 450 383 451
1080 4 2 0 1 338 137 288 326
1081 4 2 0 1 309 296 295 321
1082 4 2 0 1 318 198 452 463
1083 4 2 0 1 437 462 458 481
1084 4 2 0 1 228 234 285 268
1085 4 2 0 1 75 457 189 475
1086 4 2 0 1 51 20 59 441
1087 4 2 0 1 22 11 12 10
1088 4 2 0 1 200 382 201 451
1089 4 2 0 1 135 183 106 475
1090 4 2 0 1 407 452 375 480
1091 4 2 0 1 50 95 85 477
1092 4 2 0 1 30 63 61 445
1093 4 2 0 1 212 211 56 473
1094 4 2 0 1 115 98 75 475
1095 4 2 0 1 142 144 95 461
1096 4 2 0 1 319 178 222 218
1097 4 2 0 1 210 457 456 459
1098 4 2 0 1 397 383 444 451
1099 4 2 0 1 273 153 247 452
1100 4 2 0 1 288 302 287 326
1101 4 2 0 1 450 451 253 469
1102 4 2 0 1 207 410 206 465
1103 4 2 0 1 77 456 250 469
1104 4 2 0 1 78 179 189 475
1105 4 2 0 1 233 232 182 469
1106 4 2 0 1 187 456 210 457
1107 4 2 0 1 215 182 76 469
1108 4 2 0 1 43 63 30 445
1109 4 2 0 1 333 391 392 384
1110 4 2 0 1 49 27 47 441
1111 4 2 0 1 21 40 27 441
1112 4 2 0 1 172 75 117 116
1113 4 2 0 1 102 95 50 461
1114 4 2 0 1 224 247 225 473
1115 4 2 0 1 387 450 255 463
1116 4 2 0 1 129 94 110 470
1117 4 2 0 1 151 152 467 478
1118 4 2 0 1 240 194 275 473
1119 4 2 0 1 96 90 445 470
1120 4 2 0 1 302 288 137 326
1121 4 2 0 1 446 438 460 461
1122 4 2 0 1 133 105 108 461
1123 4 2 0 1 382 202 201 451
1124 4 2 0 1 37 438 24 454
1125 4 2 0 1 427 435 422 481
1126 4 2 0 1 407 463 452 480
1127 4 2 0 1 455 460 437 470
1128 4 2 0 1 387 442 384 450
1129 4 2 0 1 96 445 116 470
1130 4 2 0 1 202 397 409 474
1131 4 2 0 1 68 61 87 445
1132 4 2 0 1 22 25 10 454
1133 4 2 0 1 287 302 327 326
1134 4 2 0 1 156 116 120 460
1135 4 2 0 1 342 452 385 463
1136 4 2 0 1 258 260 261 474
1137 4 2 0 1 292 396 406 480
1138 4 2 0 1 35 62 44 477
1139 4 2 0 1 10 22 3 12
1140 4 2 0 1 185 123 134 475
1141 4 2 0 1 237 217 240 473
1142 4 2 0 1 156 455 116 460
1143 4 2 0 1 274 465 451 474
1144 4 2 0 1 443 463 442 481
1145 4 2 0 1 443 450 442 463
1146 4 2 0 1 392 407 333 480
1147 4 2 0 1 106 457 470 475
1148 4 2 0 1 15 25 47 454
1149 4 2 0 1 193 458 235 459
1150 4 2 0 1 425 394 443 459
1151 4 2 0 1 445 470 94 479
1152 4 2 0 1 62 50 85 441
1153 4 2 0 1 32 22 24 438
1154 4 2 0 1 155 84 449 461
1155 4 2 0 1 215 244 227 469
1156 4 2 0 1 259 258 256 474
1157 4 2 0 1 32 24 37 438
1158 4 2 0 1 35 29 454 477
1159 4 2 0 1 31 30 61 445
1160 4 2 0 1 287 220 288 326
1161 4 2 0 1 202 203 201 474
1162 4 2 0 1 155 84 446 449
1163 4 2 0 1 215 76 244 469
1164 4 2 0 1 197 456 78 468
1165 4 2 0 1 233 182 234 469
1166 4 2 0 1 22 24 438 454
1167 4 2 0 1 120 93 105 460
1168 4 2 0 1 235 130 167 479
1169 4 2 0 1 303 358 329 356
1170 4 2 0 1 94 437 167 479
1171 4 2 0 1 152 452 463 478
1172 4 2 0 1 202 409 203 474
1173 4 2 0 1 87 445 90 470
1174 4 2 0 1 155 446 171 461
1175 4 2 0 1 230 456 232 459
1176 4 2 0 1 190 189 73 455
1177 4 2 0 1 404 416 371 472
1178 4 2 0 1 275 283 241 448
1179 4 2 0 1 341 307 293 472
1180 4 2 0 1 106 470 101 475
1181 4 2 0 1 171 460 446 467
1182 4 2 0 1 384 442 392 480
1183 4 2 0 1 15 10 25 454
1184 4 2 0 1 462 463 443 481
1185 4 2 0 1 384 391 392 387
1186 4 2 0 1 404 371 370 472
1187 4 2 0 1 27 49 47 17
1188 4 2 0 1 151 439 152 478
1189 4 2 0 1 257 164 256 474
1190 4 2 0 1 195 225 467 471
1191 4 2 0 1 396 453 373 464
1192 4 2 0 1 207 206 444 465
1193 4 2 0 1 376 344 343 452
1194 4 2 0 1 371 466 333 472
1195 4 2 0 1 75 115 116 98
1196 4 2 0 1 215 227 234 469
1197 4 2 0 1 446 437 479 482
1198 4 2 0 1 382 323 450 451
1199 4 2 0 1 278 468 467 478
1200 4 2 0 1 397 451 465 474
1201 4 2 0 1 73 189 179 475
1202 4 2 0 1 278 226 455 468
1203 4 2 0 1 203 158 201 474
1204 4 2 0 1 311 443 316 459
1205 4 2 0 1 76 227 215 244
1206 4 2 0 1 437 457 455 470
1207 4 2 0 1 206 397 444 465
1208 4 2 0 1 298 464 452 473
1209 4 2 0 1 192 113 141 458
1210 4 2 0 1 63 43 90 445
1211 4 2 0 1 293 307 332 472
1212 4 2 0 1 278 463 462 478
1213 4 2 0 1 247 452 439 473
1214 4 2 0 1 78 457 456 475
1215 4 2 0 1 96 90 43 445
1216 4 2 0 1 258 264 257 474
1217 4 2 0 1 234 182 215 469
1218 4 2 0 1 416 466 371 472
1219 4 2 0 1 397 465 409 474
1220 4 2 0 1 373 453 452 464
1221 4 2 0 1 79 52 60 449
1222 4 2 0 1 230 232 252 459
1223 4 2 0 1 165 115 75 475
1224 4 2 0 1 87 67 68 445
1225 4 2 0 1 278 462 468 478
1226 4 2 0 1 255 198 318 463
1227 4 2 0 1 258 257 256 474
1228 4 2 0 1 445 460 116 470
1229 4 2 0 1 129 106 187 457
1230 4 2 0 1 377 342 385 463
1231 4 2 0 1 380 368 369 476
1232 4 2 0 1 91 110 94 470
1233 4 2 0 1 135 185 183 475
1234 4 2 0 1 397 410 409 465
1235 4 2 0 1 264 258 261 474
1236 4 2 0 1 156 71 72 467
1237 4 2 0 1 332 341 321 307
1238 4 2 0 1 232 456 252 459
1239 4 2 0 1 76 227 180 215
1240 4 2 0 1 96 116 445 460
1241 4 2 0 1 60 52 84 449
1242 4 2 0 1 392 442 387 463
1243 4 2 0 1 409 465 410 474
1244 4 2 0 1 167 457 210 459
1245 4 2 0 1 421 424 428 440
1246 4 2 0 1 342 377 318 463
1247 4 2 0 1 443 459 458 481
1248 4 2 0 1 337 355 389 360
1249 4 2 0 1 141 113 112 458
1250 4 2 0 1 18 21 40 27
1251 4 2 0 1 78 189 190 468
1252 4 2 0 1 267 465 274 474
1253 4 2 0 1 458 479 437 482
1254 4 2 0 1 91 94 445 470
1255 4 2 0 1 278 462 199 468
1256 4 2 0 1 242 145 213 473
1257 4 2 0 1 253 254 450 469
1258 4 2 0 1 10 3 4 12
1259 4 2 0 1 106 457 129 470
1260 4 2 0 1 372 396 373 464
1261 4 2 0 1 207 424 413 421
1262 4 2 0 1 210 187 230 456
1263 4 2 0 1 78 189 457 475
1264 4 2 0 1 167 129 210 457
1265 4 2 0 1 103 135 106 475
1266 4 2 0 1 278 455 236 467
1267 4 2 0 1 445 460 437 479
1268 4 2 0 1 22 11 10 25
1269 4 2 0 1 428 443 315 450
1270 4 2 0 1 50 62 46 441
1271 4 2 0 1 434 442 436 481
1272 4 2 0 1 189 457 455 468
1273 4 2 0 1 226 72 236 455
1274 4 2 0 1 189 455 190 468
1275 4 2 0 1 220 288 281 287
1276 4 2 0 1 267 269 274 465
1277 4 2 0 1 254 255 450 463
1278 4 2 0 1 50 85 441 477
1279 4 2 0 1 51 102 441 449
1280 4 2 0 1 412 205 416 476
1281 4 2 0 1 437 446 467 478
1282 4 2 0 1 268 228 246 274
1283 4 2 0 1 397 451 444 465
1284 4 2 0 1 404 380 370 369
1285 4 2 0 1 151 467 439 478
1286 4 2 0 1 436 463 462 481
1287 4 2 0 1 101 106 129 470
1288 4 2 0 1 436 442 463 481
1289 4 2 0 1 198 254 197 463
1290 4 2 0 1 85 62 441 477
1291 4 2 0 1 197 77 248 78
1292 4 2 0 1 404 370 380 472
1293 4 2 0 1 27 40 39 441
1294 4 2 0 1 254 323 253 450
1295 4 2 0 1 144 133 95 461
1296 4 2 0 1 37 24 7 454
1297 4 2 0 1 156 140 71 460
1298 4 2 0 1 43 35 44 477
1299 4 2 0 1 292 333 407 480
1300 4 2 0 1 417 453 433 480
1301 4 2 0 1 241 175 176 448
1302 4 2 0 1 142 102 84 449
1303 4 2 0 1 139 126 53 448
1304 4 2 0 1 252 456 232 469
1305 4 2 0 1 47 15 6 25
1306 4 2 0 1 84 102 60 449
1307 4 2 0 1 437 478 481 482
1308 4 2 0 1 370 380 390 363
1309 4 2 0 1 44 86 43 477
1310 4 2 0 1 85 89 62 477
1311 4 2 0 1 78 76 179 475
1312 4 2 0 1 314 313 301 474
1313 4 2 0 1 186 446 438 479
1314 4 2 0 1 255 318 377 463
1315 4 2 0 1 280 339 319 251
1316 4 2 0 1 29 36 35 454
1317 4 2 0 1 187 210 129 457
1318 4 2 0 1 360 341 291 472
1319 4 2 0 1 458 459 425 481
1320 4 2 0 1 37 28 445 454
1321 4 2 0 1 192 193 113 458
1322 4 2 0 1 204 424 413 207
1323 4 2 0 1 327 303 302 287
1324 4 2 0 1 248 197 78 468
1325 4 2 0 1 129 167 94 470
1326 4 2 0 1 73 166 165 475
1327 4 2 0 1 445 437 460 470
1328 4 2 0 1 98 99 470 475
1329 4 2 0 1 255 387 323 450
1330 4 2 0 1 437 446 460 467
1331 4 2 0 1 409 393 203 474
1332 4 2 0 1 387 442 450 463
1333 4 2 0 1 106 101 103 475
1334 4 2 0 1 67 445 87 470
1335 4 2 0 1 275 239 240 473
1336 4 2 0 1 75 470 457 475
1337 4 2 0 1 452 463 436 480
1338 4 2 0 1 133 108 95 461
1339 4 2 0 1 398 410 465 474
1340 4 2 0 1 193 425 458 459
1341 4 2 0 1 89 44 62 477
1342 4 2 0 1 168 53 83 471
1343 4 2 0 1 345 301 313 269
1344 4 2 0 1 383 384 444 450
1345 4 2 0 1 446 460 171 461
1346 4 2 0 1 462 478 436 481
1347 4 2 0 1 228 215 229 188
1348 4 2 0 1 278 455 467 468
1349 4 2 0 1 427 422 423 481
1350 4 2 0 1 238 275 276 473
1351 4 2 0 1 278 199 231 468
1352 4 2 0 1 439 452 436 453
1353 4 2 0 1 427 481 423 482
1354 4 2 0 1 96 445 43 477
1355 4 2 0 1 46 51 50 441
1356 4 2 0 1 417 422 433 453
1357 4 2 0 1 186 438 104 479
1358 4 2 0 1 78 457 189 468
1359 4 2 0 1 321 341 304 307
1360 4 2 0 1 62 454 441 477
1361 4 2 0 1 203 393 336 474
1362 4 2 0 1 16 41 49 26
1363 4 2 0 1 186 438 446 461
1364 4 2 0 1 383 450 444 451
1365 4 2 0 1 109 134 123 475
1366 4 2 0 1 7 28 45 37
1367 4 2 0 1 17 49 47 26
1368 4 2 0 1 156 72 455 467
1369 4 2 0 1 437 481 458 482
1370 4 2 0 1 261 267 264 474
1371 4 2 0 1 94 167 130 479
1372 4 2 0 1 166 179 76 475
1373 4 2 0 1 437 446 478 482
1374 4 2 0 1 197 199 462 468
1375 4 2 0 1 194 448 275 473
1376 4 2 0 1 375 344 376 452
1377 4 2 0 1 439 467 225 471
1378 4 2 0 1 249 254 244 469
1379 4 2 0 1 84 446 449 471
1380 4 2 0 1 112 113 405 458
1381 4 2 0 1 26 47 17 13
1382 4 2 0 1 320 335 299 464
1383 4 2 0 1 184 53 55 448
1384 4 2 0 1 7 28 37 454
1385 4 2 0 1 278 231 226 468
1386 4 2 0 1 261 301 267 474
1387 4 2 0 1 320 275 464 473
1388 4 2 0 1 358 357 337 359
1389 4 2 0 1 236 151 152 467
1390 4 2 0 1 156 460 71 467
1391 4 2 0 1 66 103 101 475
1392 4 2 0 1 105 93 86 477
1393 4 2 0 1 213 242 238 237
1394 4 2 0 1 156 120 140 460
1395 4 2 0 1 48 104 186 438
1396 4 2 0 1 47 48 441 454
1397 4 2 0 1 439 452 152 478
1398 4 2 0 1 452 453 439 464
1399 4 2 0 1 225 439 471 473
1400 4 2 0 1 238 237 239 473
1401 4 2 0 1 166 76 154 475
1402 4 2 0 1 50 441 102 449
1403 4 2 0 1 411 413 424 421
1404 4 2 0 1 301 345 267 269
1405 4 2 0 1 142 449 84 461
1406 4 2 0 1 140 120 105 460
1407 4 2 0 1 193 270 425 459
1408 4 2 0 1 299 335 372 464
1409 4 2 0 1 338 288 219 220
1410 4 2 0 1 341 291 328 295
1411 4 2 0 1 384 466 442 480
1412 4 2 0 1 198 255 254 463
1413 4 2 0 1 94 37 445 479
1414 4 2 0 1 74 196 190 455
1415 4 2 0 1 380 370 390 472
1416 4 2 0 1 421 411 413 208
1417 4 2 0 1 250 249 244 469
1418 4 2 0 1 219 137 288 338
1419 4 2 0 1 213 237 238 473
1420 4 2 0 1 425 113 193 458
1421 4 2 0 1 236 70 151 467
1422 4 2 0 1 105 460 93 477
1423 4 2 0 1 72 70 236 467
1424 4 2 0 1 370 308 306 472
1425 4 2 0 1 392 442 407 480
1426 4 2 0 1 422 436 434 453
1427 4 2 0 1 434 435 431 481
1428 4 2 0 1 186 449 438 461
1429 4 2 0 1 72 226 196 455
1430 4 2 0 1 73 189 75 455
1431 4 2 0 1 279 338 280 251
1432 4 2 0 1 438 460 445 479
1433 4 2 0 1 242 147 213 145
1434 4 2 0 1 152 278 236 467
1435 4 2 0 1 226 78 190 468
1436 4 2 0 1 28 36 29 454
1437 4 2 0 1 306 364 308 363
1438 4 2 0 1 428 443 442 481
1439 4 2 0 1 211 224 225 473
1440 4 2 0 1 27 23 15 454
1441 4 2 0 1 331 308 370 472
1442 4 2 0 1 251 339 319 218
1443 4 2 0 1 206 205 204 440
1444 4 2 0 1 315 428 394 443
1445 4 2 0 1 83 52 168 449
1446 4 2 0 1 425 443 428 481
1447 4 2 0 1 243 311 316 459
1448 4 2 0 1 47 79 49 441
1449 4 2 0 1 452 453 375 480
1450 4 2 0 1 72 71 70 467
1451 4 2 0 1 198 197 462 463
1452 4 2 0 1 37 445 438 454
1453 4 2 0 1 321 296 295 328
1454 4 2 0 1 155 449 446 461
1455 4 2 0 1 48 438 186 449
1456 4 2 0 1 66 101 470 475
1457 4 2 0 1 9 3 12 1
1458 4 2 0 1 108 461 105 477
1459 4 2 0 1 437 468 462 478
1460 4 2 0 1 252 232 233 469
1461 4 2 0 1 210 456 230 459
1462 4 2 0 1 341 360 307 472
1463 4 2 0 1 186 446 449 461
1464 4 2 0 1 186 446 479 482
1465 4 2 0 1 283 175 241 448
1466 4 2 0 1 74 73 75 455
1467 4 2 0 1 132 168 52 118
1468 4 2 0 1 213 217 237 473
1469 4 2 0 1 215 229 188 191
1470 4 2 0 1 360 389 401 466
1471 4 2 0 1 442 443 428 450
1472 4 2 0 1 370 371 332 472
1473 4 2 0 1 433 453 434 480
1474 4 2 0 1 437 467 468 478
1475 4 2 0 1 226 190 455 468
1476 4 2 0 1 145 224 212 473
1477 4 2 0 1 238 242 213 473
1478 4 2 0 1 376 374 375 452
1479 4 2 0 1 458 481 427 482
1480 4 2 0 1 72 236 455 467
1481 4 2 0 1 332 331 370 472
1482 4 2 0 1 431 427 458 481
1483 4 2 0 1 436 478 439 482
1484 4 2 0 1 452 436 463 478
1485 4 2 0 1 95 108 85 477
1486 4 2 0 1 260 314 261 474
1487 4 2 0 1 211 212 224 473
1488 4 2 0 1 206 204 207 440
1489 4 2 0 1 328 291 304 295
1490 4 2 0 1 404 365 400 476
1491 4 2 0 1 350 421 207 465
1492 4 2 0 1 111 112 141 113
1493 4 2 0 1 226 190 196 455
1494 4 2 0 1 416 205 384 440
1495 4 2 0 1 49 21 18 27
1496 4 2 0 1 275 194 283 448
1497 4 2 0 1 74 190 73 455
1498 4 2 0 1 301 313 269 465
1499 4 2 0 1 306 390 370 472
1500 4 2 0 1 104 438 32 479
1501 4 2 0 1 313 465 301 474
1502 4 2 0 1 436 453 452 480
1503 4 2 0 1 101 129 110 470
1504 4 2 0 1 49 79 59 441
1505 4 2 0 1 113 425 431 458
1506 4 2 0 1 456 457 78 468
1507 4 2 0 1 407 442 463 480
1508 4 2 0 1 207 444 350 465
1509 4 2 0 1 210 270 167 459
1510 4 2 0 1 226 248 78 468
1511 4 2 0 1 402 429 432 430
1512 4 2 0 1 156 455 460 467
1513 4 2 0 1 417 433 466 480
1514 4 2 0 1 283 194 175 448
1515 4 2 0 1 32 104 22 438
1516 4 2 0 1 104 32 9 69
1517 4 2 0 1 23 36 28 454
1518 4 2 0 1 423 436 422 453
1519 4 2 0 1 102 449 142 461
1520 4 2 0 1 448 464 275 473
1521 4 2 0 1 75 115 117 116
1522 4 2 0 1 345 269 313 465
1523 4 2 0 1 31 61 45 445
1524 4 2 0 1 57 55 53 448
1525 4 2 0 1 67 65 91 470
1526 4 2 0 1 98 99 97 470
1527 4 2 0 1 185 180 215 183
1528 4 2 0 1 152 278 467 478
1529 4 2 0 1 193 111 113 381
1530 4 2 0 1 56 55 57 448
1531 4 2 0 1 184 195 155 471
1532 4 2 0 1 66 470 99 475
1533 4 2 0 1 204 205 412 476
1534 4 2 0 1 431 435 427 481
1535 4 2 0 1 442 444 384 450
1536 4 2 0 1 384 416 440 466
1537 4 2 0 1 184 53 448 471
1538 4 2 0 1 331 332 307 472
1539 4 2 0 1 391 384 408 387
1540 4 2 0 1 115 165 75 117
1541 4 2 0 1 291 341 304 295
1542 4 2 0 1 301 269 267 465
1543 4 2 0 1 73 179 166 475
1544 4 2 0 1 439 478 446 482
1545 4 2 0 1 431 425 428 481
1546 4 2 0 1 147 149 150 242
1547 4 2 0 1 206 397 205 444
1548 4 2 0 1 55 471 448 473
1549 4 2 0 1 184 55 216 471
1550 4 2 0 1 321 331 332 307
1551 4 2 0 1 428 425 394 443
1552 4 2 0 1 425 270 394 459
1553 4 2 0 1 8 9 22 24
1554 4 2 0 1 431 428 434 481
1555 4 2 0 1 160 271 159 161
1556 4 2 0 1 374 373 375 452
1557 4 2 0 1 7 23 28 454
1558 4 2 0 1 432 429 418 424
1559 4 2 0 1 462 463 436 478
1560 4 2 0 1 455 457 437 468
1561 4 2 0 1 413 207 421 208
1562 4 2 0 1 213 145 212 473
1563 4 2 0 1 401 419 360 466
1564 4 2 0 1 438 449 441 461
1565 4 2 0 1 389 355 272 447
1566 4 2 0 1 444 451 350 465
1567 4 2 0 1 175 194 127 448
1568 4 2 0 1 102 50 449 461
1569 4 2 0 1 61 68 45 445
1570 4 2 0 1 10 23 7 454
1571 4 2 0 1 336 393 322 474
1572 4 2 0 1 47 25 48 454
1573 4 2 0 1 386 446 439 471
1574 4 2 0 1 397 383 205 444
1575 4 2 0 1 130 69 112 141
1576 4 2 0 1 51 59 79 441
1577 4 2 0 1 301 465 267 474
1578 4 2 0 1 56 57 127 448
1579 4 2 0 1 442 436 463 480
1580 4 2 0 1 337 304 303 358
1581 4 2 0 1 95 461 108 477
1582 4 2 0 1 10 15 23 454
1583 4 2 0 1 304 303 328 295
1584 4 2 0 1 210 230 243 459
1585 4 2 0 1 113 431 405 458
1586 4 2 0 1 48 25 22 454
1587 4 2 0 1 271 159 161 200
1588 4 2 0 1 231 248 226 468
1589 4 2 0 1 440 442 384 466
1590 4 2 0 1 169 180 215 185
1591 4 2 0 1 48 22 104 438
1592 4 2 0 1 441 449 50 461
1593 4 2 0 1 439 467 446 478
1594 4 2 0 1 292 407 375 480
1595 4 2 0 1 236 231 226 278
1596 4 2 0 1 401 389 417 466
1597 4 2 0 1 416 466 472 476
1598 4 2 0 1 53 139 170 124
1599 4 2 0 1 233 310 252 469
1600 4 2 0 1 165 172 73 75
1601 4 2 0 1 401 403 402 417
1602 4 2 0 1 441 454 438 477
1603 4 2 0 1 325 479 458 482
1604 4 2 0 1 452 464 439 473
1605 4 2 0 1 168 448 53 471
1606 4 2 0 1 67 45 68 445
1607 4 2 0 1 112 405 325 458
1608 4 2 0 1 56 127 194 448
1609 4 2 0 1 67 91 445 470
1610 4 2 0 1 394 270 243 459
1611 4 2 0 1 431 458 425 481
1612 4 2 0 1 274 267 246 269
1613 4 2 0 1 438 454 445 477
1614 4 2 0 1 65 66 101 470
1615 4 2 0 1 438 461 441 477
1616 4 2 0 1 141 69 112 111
1617 4 2 0 1 208 388 395 465
1618 4 2 0 1 26 49 47 79
1619 4 2 0 1 425 381 193 113
1620 4 2 0 1 107 104 32 479
1621 4 2 0 1 436 452 439 478
1622 4 2 0 1 51 441 79 449
1623 4 2 0 1 243 270 210 459
1624 4 2 0 1 442 428 444 450
1625 4 2 0 1 447 453 417 480
1626 4 2 0 1 223 335 178 222
1627 4 2 0 1 386 439 436 453
1628 4 2 0 1 431 427 405 458
1629 4 2 0 1 325 186 104 479
1630 4 2 0 1 175 127 126 448
1631 4 2 0 1 355 337 302 357
1632 4 2 0 1 242 213 217 237
1633 4 2 0 1 433 422 434 453
1634 4 2 0 1 112 458 325 479
1635 4 2 0 1 434 428 442 481
1636 4 2 0 1 437 460 455 467
1637 4 2 0 1 275 241 223 448
1638 4 2 0 1 242 149 150 238
1639 4 2 0 1 423 386 436 453
1640 4 2 0 1 219 272 136 137
1641 4 2 0 1 369 365 404 476
1642 4 2 0 1 17 16 49 26
1643 4 2 0 1 48 441 438 449
1644 4 2 0 1 417 433 432 466
1645 4 2 0 1 132 53 168 448
1646 4 2 0 1 421 207 424 440
1647 4 2 0 1 322 314 260 474
1648 4 2 0 1 437 467 455 468
1649 4 2 0 1 436 481 478 482
1650 4 2 0 1 188 180 227 215
1651 4 2 0 1 362 361 340 447
1652 4 2 0 1 367 365 364 369
1653 4 2 0 1 27 40 18 39
1654 4 2 0 1 49 79 92 59
1655 4 2 0 1 314 322 393 474
1656 4 2 0 1 325 427 423 482
1657 4 2 0 1 169 143 180 185
1658 4 2 0 1 184 448 55 471
1659 4 2 0 1 433 434 442 480
1660 4 2 0 1 234 228 246 268
1661 4 2 0 1 448 471 464 473
1662 4 2 0 1 333 293 332 472
1663 4 2 0 1 110 65 101 470
1664 4 2 0 1 384 442 440 444
1665 4 2 0 1 89 86 44 477
1666 4 2 0 1 396 361 406 447
1667 4 2 0 1 446 467 439 471
1668 4 2 0 1 105 461 460 477
1669 4 2 0 1 400 365 399 476
1670 4 2 0 1 207 421 350 444
1671 4 2 0 1 130 107 94 479
1672 4 2 0 1 416 472 404 476
1673 4 2 0 1 301 261 314 474
1674 4 2 0 1 350 451 347 465
1675 4 2 0 1 159 160 164 163
1676 4 2 0 1 427 325 405 458
1677 4 2 0 1 22 438 48 454
1678 4 2 0 1 281 286 288 220
1679 4 2 0 1 124 170 54 125
1680 4 2 0 1 325 458 427 482
1681 4 2 0 1 186 168 446 482
1682 4 2 0 1 367 366 365 369
1683 4 2 0 1 347 346 348 465
1684 4 2 0 1 48 438 441 454
1685 4 2 0 1 421 388 350 428
1686 4 2 0 1 380 419 466 472
1687 4 2 0 1 380 379 360 472
1688 4 2 0 1 325 186 479 482
1689 4 2 0 1 421 207 440 444
1690 4 2 0 1 464 471 439 473
1691 4 2 0 1 404 400 412 476
1692 4 2 0 1 401 389 272 417
1693 4 2 0 1 380 404 472 476
1694 4 2 0 1 52 54 132 118
1695 4 2 0 1 439 453 386 464
1696 4 2 0 1 69 104 107 479
1697 4 2 0 1 295 328 341 321
1698 4 2 0 1 380 472 466 476
1699 4 2 0 1 436 439 386 482
1700 4 2 0 1 295 341 304 321
1701 4 2 0 1 369 366 365 399
1702 4 2 0 1 404 380 369 476
1703 4 2 0 1 170 139 53 448
1704 4 2 0 1 271 160 277 161
1705 4 2 0 1 445 460 438 477
1706 4 2 0 1 439 446 386 482
1707 4 2 0 1 271 265 266 163
1708 4 2 0 1 333 332 371 472
1709 4 2 0 1 403 401 272 417
1710 4 2 0 1 433 442 466 480
1711 4 2 0 1 347 350 349 451
1712 4 2 0 1 272 294 219 136
1713 4 2 0 1 299 372 298 464
1714 4 2 0 1 418 420 424 426
1715 4 2 0 1 386 168 446 471
1716 4 2 0 1 54 53 170 124
1717 4 2 0 1 207 206 440 444
1718 4 2 0 1 425 381 270 193
1719 4 2 0 1 350 388 394 428
1720 4 2 0 1 424 207 204 440
1721 4 2 0 1 192 111 141 113
1722 4 2 0 1 112 325 104 479
1723 4 2 0 1 387 377 255 323
1724 4 2 0 1 460 461 438 477
1725 4 2 0 1 414 368 424 415
1726 4 2 0 1 350 347 348 465
1727 4 2 0 1 104 107 32 69
1728 4 2 0 1 143 134 180 185
1729 4 2 0 1 205 440 206 444
1730 4 2 0 1 168 449 446 471
1731 4 2 0 1 414 420 424 418
1732 4 2 0 1 378 335 178 464
1733 4 2 0 1 401 417 432 466
1734 4 2 0 1 424 414 418 476
1735 4 2 0 1 178 448 168 471
1736 4 2 0 1 79 26 49 92
1737 4 2 0 1 45 67 91 445
1738 4 2 0 1 185 143 134 123
1739 4 2 0 1 41 16 38 26
1740 4 2 0 1 386 446 168 482
1741 4 2 0 1 419 401 432 466
1742 4 2 0 1 394 425 381 270
1743 4 2 0 1 238 149 150 148
1744 4 2 0 1 401 402 432 417
1745 4 2 0 1 388 421 394 428
1746 4 2 0 1 416 440 466 476
1747 4 2 0 1 419 432 418 414
1748 4 2 0 1 286 219 288 220
1749 4 2 0 1 360 466 419 472
1750 4 2 0 1 286 281 221 220
1751 4 2 0 1 346 269 352 465
1752 4 2 0 1 389 272 417 447
1753 4 2 0 1 110 91 65 470
1754 4 2 0 1 380 360 419 472
1755 4 2 0 1 88 64 92 59
1756 4 2 0 1 419 380 466 476
1757 4 2 0 1 186 446 168 449
1758 4 2 0 1 4 12 1 5
1759 4 2 0 1 204 440 205 476
1760 4 2 0 1 208 410 207 465
1761 4 2 0 1 423 422 386 453
1762 4 2 0 1 424 432 440 476
1763 4 2 0 1 331 330 305 307
1764 4 2 0 1 69 112 104 479
1765 4 2 0 1 386 423 436 482
1766 4 2 0 1 424 418 432 476
1767 4 2 0 1 415 368 424 411
1768 4 2 0 1 421 428 350 444
1769 4 2 0 1 12 3 4 1
1770 4 2 0 1 418 414 432 476
1771 4 2 0 1 205 440 416 476
1772 4 2 0 1 266 160 271 163
1773 4 2 0 1 54 53 132 170
1774 4 2 0 1 132 170 53 448
1775 4 2 0 1 319 222 251 218
1776 4 2 0 1 369 367 366 368
1777 4 2 0 1 350 388 421 465
1778 4 2 0 1 269 345 352 465
1779 4 2 0 1 266 160 265 271
1780 4 2 0 1 428 440 442 444
1781 4 2 0 1 178 275 223 448
1782 4 2 0 1 369 399 365 476
1783 4 2 0 1 419 414 380 476
1784 4 2 0 1 432 466 440 476
1785 4 2 0 1 137 138 272 136
1786 4 2 0 1 245 228 246 229
1787 4 2 0 1 178 386 453 464
1788 4 2 0 1 229 228 188 214
1789 4 2 0 1 424 368 414 476
1790 4 2 0 1 246 268 274 269
1791 4 2 0 1 4 12 5 11
1792 4 2 0 1 186 386 168 482
1793 4 2 0 1 126 173 175 448
1794 4 2 0 1 421 440 428 444
1795 4 2 0 1 17 38 16 26
1796 4 2 0 1 160 266 164 163
1797 4 2 0 1 307 305 331 308
1798 4 2 0 1 434 428 433 442
1799 4 2 0 1 5 6 4 11
1800 4 2 0 1 432 414 419 476
1801 4 2 0 1 208 421 388 465
1802 4 2 0 1 25 11 6 14
1803 4 2 0 1 178 464 448 471
1804 4 2 0 1 188 229 214 191
1805 4 2 0 1 368 399 369 476
1806 4 2 0 1 432 419 466 476
1807 4 2 0 1 204 424 440 476
1808 4 2 0 1 309 295 304 321
1809 4 2 0 1 380 414 368 476
1810 4 2 0 1 208 207 421 465
1811 4 2 0 1 168 386 178 471
1812 4 2 0 1 379 390 360 472
1813 4 2 0 1 275 448 178 464
1814 4 2 0 1 353 346 352 465
1815 4 2 0 1 221 219 286 220
1816 4 2 0 1 419 401 402 432
1817 4 2 0 1 415 424 420 411
1818 4 2 0 1 17 38 26 13
1819 4 2 0 1 275 240 239 283
1820 4 2 0 1 390 379 380 472
1821 4 2 0 1 380 379 390 369
1822 4 2 0 1 388 353 395 465
1823 4 2 0 1 399 369 366 368
1824 4 2 0 1 345 353 352 465
1825 4 2 0 1 308 331 370 363
1826 4 2 0 1 190 78 179 189
1827 4 2 0 1 136 138 272 294
1828 4 2 0 1 204 208 207 413
1829 4 2 0 1 410 208 398 465
1830 4 2 0 1 366 365 364 367
1831 4 2 0 1 159 271 160 163
1832 4 2 0 1 350 347 349 348
1833 4 2 0 1 185 169 143 123
1834 4 2 0 1 229 245 228 214
1835 4 2 0 1 100 81 118 80
1836 4 2 0 1 345 313 395 465
1837 4 2 0 1 54 132 118 82
1838 4 2 0 1 313 208 395 465
1839 4 2 0 1 80 82 132 128
1840 4 2 0 1 132 54 125 82
1841 4 2 0 1 170 139 128 131
1842 4 2 0 1 136 219 286 294
1843 4 2 0 1 109 134 143 123
1844 4 2 0 1 228 246 263 245
1845 4 2 0 1 170 132 54 125
1846 4 2 0 1 209 188 214 191
1847 4 2 0 1 395 353 345 465
1848 4 2 0 1 131 132 125 82
1849 4 2 0 1 126 174 175 173
1850 4 2 0 1 131 128 132 82
1851 4 2 0 1 93 115 96 116
1852 4 2 0 1 251 338 339 218
1853 4 2 0 1 394 208 421 388
1854 4 2 0 1 143 121 134 109
1855 4 2 0 1 394 208 388 395
1856 4 2 0 1 388 394 395 353
1857 4 2 0 1 209 214 169 191
1858 4 2 0 1 109 143 169 123
1859 4 2 0 1 130 193 192 235
1860 4 2 0 1 111 193 113 192
1861 4 2 0 1 130 141 235 192
1862 4 2 0 1 236 248 226 231
1863 4 2 0 1 231 197 77 248
1864 4 2 0 1 338 279 272 218
1865 4 2 0 1 339 338 272 218
1866 4 2 0 1 272 178 339 218
1867 4 2 0 1 79 132 80 118
1868 4 2 0 1 115 96 116 98
1869 4 2 0 1 131 126 124 139
1870 4 2 0 1 118 100 79 114
1871 4 2 0 1 379 368 369 380
1872 4 2 0 1 3 9 2 1
1873 4 2 0 1 428 424 432 440
1874 4 2 0 1 178 417 272 447
1875 4 2 0 1 272 339 178 447
1876 4 2 0 1 178 339 340 447
1877 4 2 0 1 178 422 417 447
1878 4 2 0 1 338 340 339 447
1879 4 2 0 1 338 339 272 447
1880 4 2 0 1 386 186 325 482
1881 4 2 0 1 452 342 334 318
1882 4 2 0 1 452 334 342 343
1883 4 2 0 1 319 378 178 340
1884 4 2 0 1 114 79 60 58
1885 4 2 0 1 114 60 79 52
1886 4 2 0 1 215 228 227 188
1887 4 2 0 1 215 227 228 234
1888 4 2 0 1 406 292 466 359
1889 4 2 0 1 406 466 292 480
1890 4 2 0 1 34 39 454 23
1891 4 2 0 1 454 39 34 42
1892 4 2 0 1 273 334 452 343
1893 4 2 0 1 273 452 334 153
1894 4 2 0 1 401 138 272 389
1895 4 2 0 1 272 138 401 403
1896 4 2 0 1 360 355 466 359
1897 4 2 0 1 360 466 355 389
1898 4 2 0 1 273 473 150 148
1899 4 2 0 1 454 3 7 10
1900 4 2 0 1 454 7 3 8
1901 4 2 0 1 124 131 170 125
1902 4 2 0 1 170 131 124 139
1903 4 2 0 1 470 96 98 116
1904 4 2 0 1 450 443 310 469
1905 4 2 0 1 311 443 310 316
1906 4 2 0 1 459 468 457 456
1907 4 2 0 1 457 468 459 437
1908 4 2 0 1 188 215 169 180
1909 4 2 0 1 169 143 188 180
1910 4 2 0 1 188 143 169 209
1911 4 2 0 1 94 45 445 37
1912 4 2 0 1 94 445 45 91
1913 4 2 0 1 475 182 181 456
1914 4 2 0 1 475 181 182 183
1915 4 2 0 1 93 105 89 85
1916 4 2 0 1 93 89 105 86
1917 4 2 0 1 477 89 108 85
1918 4 2 0 1 89 105 108 85
1919 4 2 0 1 333 384 466 371
1920 4 2 0 1 333 466 384 480
1921 4 2 0 1 48 168 449 186
1922 4 2 0 1 48 449 168 79
1923 4 2 0 1 359 337 360 355
1924 4 2 0 1 75 74 156 172
1925 4 2 0 1 75 156 74 455
1926 4 2 0 1 445 28 477 454
1927 4 2 0 1 29 477 28 454
1928 4 2 0 1 451 161 253 162
1929 4 2 0 1 247 151 452 153
1930 4 2 0 1 452 151 247 439
1931 4 2 0 1 312 322 474 336
1932 4 2 0 1 312 474 322 260
1933 4 2 0 1 369 390 364 367
1934 4 2 0 1 306 364 390 367
1935 4 2 0 1 306 390 364 363
1936 4 2 0 1 118 79 52 114
1937 4 2 0 1 375 396 453 373
1938 4 2 0 1 375 453 396 480
1939 4 2 0 1 126 53 124 139
1940 4 2 0 1 82 80 118 81
1941 4 2 0 1 82 118 80 132
1942 4 2 0 1 394 349 428 315
1943 4 2 0 1 394 428 349 350
1944 4 2 0 1 450 428 349 315
1945 4 2 0 1 441 19 20 21
1946 4 2 0 1 174 177 178 218
1947 4 2 0 1 329 291 304 328
1948 4 2 0 1 304 303 329 328
1949 4 2 0 1 329 303 304 358
1950 4 2 0 1 35 62 454 33
1951 4 2 0 1 35 454 62 477
1952 4 2 0 1 300 451 161 253
1953 4 2 0 1 161 451 300 200
1954 4 2 0 1 450 463 469 254
1955 4 2 0 1 450 469 463 443
1956 4 2 0 1 479 460 446 438
1957 4 2 0 1 479 446 460 437
1958 4 2 0 1 468 443 197 456
1959 4 2 0 1 468 197 443 462
1960 4 2 0 1 249 197 443 456
1961 4 2 0 1 156 117 172 74
1962 4 2 0 1 156 172 117 116
1963 4 2 0 1 254 462 197 463
1964 4 2 0 1 443 462 254 463
1965 4 2 0 1 469 254 443 249
1966 4 2 0 1 469 443 254 463
1967 4 2 0 1 477 50 461 441
1968 4 2 0 1 477 461 50 95
1969 4 2 0 1 461 140 105 460
1970 4 2 0 1 461 105 140 133
1971 4 2 0 1 174 176 178 177
1972 4 2 0 1 121 97 98 99
1973 4 2 0 1 98 97 121 119
1974 4 2 0 1 98 475 121 99
1975 4 2 0 1 121 475 98 119
1976 4 2 0 1 447 396 480 406
1977 4 2 0 1 447 480 396 453
1978 4 2 0 1 18 17 49 27
1979 4 2 0 1 49 17 18 16
1980 4 2 0 1 326 447 362 340
1981 4 2 0 1 362 447 326 355
1982 4 2 0 1 93 460 116 96
1983 4 2 0 1 116 460 93 120
1984 4 2 0 1 454 62 42 33
1985 4 2 0 1 359 304 337 358
1986 4 2 0 1 167 193 459 270
1987 4 2 0 1 167 459 193 235
1988 4 2 0 1 96 86 477 43
1989 4 2 0 1 477 86 96 93
1990 4 2 0 1 355 356 362 354
1991 4 2 0 1 355 362 356 327
1992 4 2 0 1 3 22 9 12
1993 4 2 0 1 3 9 22 8
1994 4 2 0 1 17 15 47 27
1995 4 2 0 1 466 480 447 417
1996 4 2 0 1 447 480 466 406
1997 4 2 0 1 466 355 447 406
1998 4 2 0 1 338 137 447 272
1999 4 2 0 1 338 447 137 326
2000 4 2 0 1 355 447 137 272
2001 4 2 0 1 355 137 447 326
2002 4 2 0 1 451 323 300 200
2003 4 2 0 1 52 168 79 118
2004 4 2 0 1 79 168 52 449
2005 4 2 0 1 275 320 178 223
2006 4 2 0 1 275 178 320 464
2007 4 2 0 1 335 178 320 223
2008 4 2 0 1 335 320 178 464
2009 4 2 0 1 272 219 338 137
2010 4 2 0 1 272 338 219 279
2011 4 2 0 1 326 287 317 327
2012 4 2 0 1 326 317 287 220
2013 4 2 0 1 454 36 34 23
2014 4 2 0 1 8 454 24 22
2015 4 2 0 1 24 454 8 7
2016 4 2 0 1 393 474 313 314
2017 4 2 0 1 9 32 22 24
2018 4 2 0 1 9 22 32 104
2019 4 2 0 1 443 315 459 394
2020 4 2 0 1 443 459 315 316
2021 4 2 0 1 243 459 315 394
2022 4 2 0 1 243 315 459 316
2023 4 2 0 1 96 97 470 98
2024 4 2 0 1 96 470 97 90
2025 4 2 0 1 180 183 475 76
2026 4 2 0 1 475 183 180 185
2027 4 2 0 1 180 134 475 185
2028 4 2 0 1 10 4 11 12
2029 4 2 0 1 480 436 434 442
2030 4 2 0 1 480 434 436 453
2031 4 2 0 1 407 463 392 385
2032 4 2 0 1 392 463 407 442
2033 4 2 0 1 459 252 443 456
2034 4 2 0 1 459 443 252 311
2035 4 2 0 1 469 443 252 456
2036 4 2 0 1 454 27 47 15
2037 4 2 0 1 454 47 27 441
2038 4 2 0 1 479 37 438 32
2039 4 2 0 1 479 438 37 445
2040 4 2 0 1 205 384 444 383
2041 4 2 0 1 444 384 205 440
2042 4 2 0 1 402 418 432 429
2043 4 2 0 1 432 418 402 419
2044 4 2 0 1 78 76 456 77
2045 4 2 0 1 78 456 76 475
2046 4 2 0 1 215 76 183 180
2047 4 2 0 1 215 183 76 182
2048 4 2 0 1 46 39 62 42
2049 4 2 0 1 227 228 285 262
2050 4 2 0 1 227 285 228 234
2051 4 2 0 1 158 200 164 159
2052 4 2 0 1 158 164 200 201
2053 4 2 0 1 306 363 370 390
2054 4 2 0 1 370 363 306 308
2055 4 2 0 1 146 224 473 247
2056 4 2 0 1 146 473 224 145
2057 4 2 0 1 112 458 235 141
2058 4 2 0 1 235 458 112 479
2059 4 2 0 1 235 130 112 141
2060 4 2 0 1 112 130 235 479
2061 4 2 0 1 290 303 328 329
2062 4 2 0 1 74 72 455 156
2063 4 2 0 1 74 455 72 196
2064 4 2 0 1 194 213 473 217
2065 4 2 0 1 77 197 456 78
2066 4 2 0 1 77 456 197 250
2067 4 2 0 1 360 306 472 390
2068 4 2 0 1 360 472 306 307
2069 4 2 0 1 6 25 13 47
2070 4 2 0 1 6 13 25 14
2071 4 2 0 1 26 13 25 47
2072 4 2 0 1 26 25 13 14
2073 4 2 0 1 69 130 479 107
2074 4 2 0 1 69 479 130 112
2075 4 2 0 1 460 96 477 445
2076 4 2 0 1 460 477 96 93
2077 4 2 0 1 361 406 355 354
2078 4 2 0 1 355 406 361 447
2079 4 2 0 1 355 362 361 354
2080 4 2 0 1 361 362 355 447
2081 4 2 0 1 447 389 466 417
2082 4 2 0 1 447 466 389 355
2083 4 2 0 1 146 273 473 150
2084 4 2 0 1 146 473 273 247
2085 4 2 0 1 472 308 307 331
2086 4 2 0 1 472 307 308 306
2087 4 2 0 1 56 448 473 55
2088 4 2 0 1 473 448 56 194
2089 4 2 0 1 35 34 454 36
2090 4 2 0 1 454 34 35 33
2091 4 2 0 1 329 317 356 327
2092 4 2 0 1 449 83 471 168
2093 4 2 0 1 449 471 83 84
2094 4 2 0 1 355 356 302 327
2095 4 2 0 1 355 302 356 357
2096 4 2 0 1 303 302 356 327
2097 4 2 0 1 242 150 473 238
2098 4 2 0 1 180 154 475 134
2099 4 2 0 1 475 154 180 76
2100 4 2 0 1 60 79 59 58
2101 4 2 0 1 337 137 355 302
2102 4 2 0 1 464 453 447 396
2103 4 2 0 1 447 453 464 178
2104 4 2 0 1 299 464 473 320
2105 4 2 0 1 473 464 299 298
2106 4 2 0 1 473 276 299 320
2107 4 2 0 1 87 63 445 61
2108 4 2 0 1 445 63 87 90
2109 4 2 0 1 158 336 474 203
2110 4 2 0 1 158 474 336 312
2111 4 2 0 1 238 148 473 276
2112 4 2 0 1 473 148 238 150
2113 4 2 0 1 79 48 441 47
2114 4 2 0 1 79 441 48 449
2115 4 2 0 1 393 410 474 409
2116 4 2 0 1 393 474 410 398
2117 4 2 0 1 293 333 466 472
2118 4 2 0 1 197 231 468 248
2119 4 2 0 1 197 468 231 199
2120 4 2 0 1 28 45 445 31
2121 4 2 0 1 445 45 28 37
2122 4 2 0 1 307 351 341 304
2123 4 2 0 1 307 341 351 360
2124 4 2 0 1 291 341 351 304
2125 4 2 0 1 291 351 341 360
2126 4 2 0 1 448 139 173 170
2127 4 2 0 1 448 173 139 126
2128 4 2 0 1 121 475 134 109
2129 4 2 0 1 471 464 386 178
2130 4 2 0 1 471 386 464 439
2131 4 2 0 1 277 253 300 161
2132 4 2 0 1 300 253 277 284
2133 4 2 0 1 277 300 200 161
2134 4 2 0 1 200 300 277 284
2135 4 2 0 1 277 200 271 161
2136 4 2 0 1 271 200 277 284
2137 4 2 0 1 122 98 475 119
2138 4 2 0 1 475 98 122 115
2139 4 2 0 1 288 136 219 286
2140 4 2 0 1 219 136 288 137
2141 4 2 0 1 335 319 178 222
2142 4 2 0 1 178 319 335 378
2143 4 2 0 1 52 53 168 132
2144 4 2 0 1 52 168 53 83
2145 4 2 0 1 174 175 448 176
2146 4 2 0 1 448 175 174 173
2147 4 2 0 1 448 178 174 176
2148 4 2 0 1 174 178 448 173
2149 4 2 0 1 220 338 279 219
2150 4 2 0 1 279 338 220 280
2151 4 2 0 1 123 103 475 135
2152 4 2 0 1 123 475 103 109
2153 4 2 0 1 178 177 222 218
2154 4 2 0 1 178 222 177 176
2155 4 2 0 1 251 222 177 218
2156 4 2 0 1 251 177 222 176
2157 4 2 0 1 465 388 348 350
2158 4 2 0 1 154 115 475 122
2159 4 2 0 1 132 131 170 128
2160 4 2 0 1 170 131 132 125
2161 4 2 0 1 355 337 272 137
2162 4 2 0 1 355 272 337 389
2163 4 2 0 1 138 272 337 137
2164 4 2 0 1 138 337 272 389
2165 4 2 0 1 25 15 11 10
2166 4 2 0 1 25 11 15 6
2167 4 2 0 1 4 11 15 10
2168 4 2 0 1 4 15 11 6
2169 4 2 0 1 476 399 424 368
2170 4 2 0 1 411 424 399 368
2171 4 2 0 1 359 329 304 358
2172 4 2 0 1 359 304 329 291
2173 4 2 0 1 382 387 450 323
2174 4 2 0 1 382 450 387 408
2175 4 2 0 1 450 451 310 349
2176 4 2 0 1 347 310 451 349
2177 4 2 0 1 244 77 469 76
2178 4 2 0 1 244 469 77 250
2179 4 2 0 1 309 305 304 295
2180 4 2 0 1 474 256 158 164
2181 4 2 0 1 159 158 256 164
2182 4 2 0 1 159 256 158 157
2183 4 2 0 1 269 465 324 274
2184 4 2 0 1 451 465 324 347
2185 4 2 0 1 451 324 465 274
2186 4 2 0 1 443 316 450 310
2187 4 2 0 1 443 450 316 315
2188 4 2 0 1 349 450 316 310
2189 4 2 0 1 349 316 450 315
2190 4 2 0 1 243 252 459 230
2191 4 2 0 1 243 459 252 311
2192 4 2 0 1 107 37 479 32
2193 4 2 0 1 479 37 107 94
2194 4 2 0 1 475 99 109 121
2195 4 2 0 1 109 66 475 103
2196 4 2 0 1 475 66 109 99
2197 4 2 0 1 99 67 65 66
2198 4 2 0 1 374 452 372 373
2199 4 2 0 1 464 452 372 298
2200 4 2 0 1 464 372 452 373
2201 4 2 0 1 396 335 464 372
2202 4 2 0 1 396 464 335 378
2203 4 2 0 1 449 102 79 51
2204 4 2 0 1 449 79 102 60
2205 4 2 0 1 59 79 102 51
2206 4 2 0 1 59 102 79 60
2207 4 2 0 1 299 297 473 298
2208 4 2 0 1 299 473 297 276
2209 4 2 0 1 221 220 282 289
2210 4 2 0 1 220 282 317 287
2211 4 2 0 1 220 317 282 289
2212 4 2 0 1 317 282 290 287
2213 4 2 0 1 317 290 282 289
2214 4 2 0 1 20 64 49 41
2215 4 2 0 1 26 49 64 41
2216 4 2 0 1 26 64 49 92
2217 4 2 0 1 100 92 58 88
2218 4 2 0 1 100 58 92 79
2219 4 2 0 1 59 58 92 88
2220 4 2 0 1 59 92 58 79
2221 4 2 0 1 154 165 475 115
2222 4 2 0 1 154 475 165 166
2223 4 2 0 1 195 155 446 171
2224 4 2 0 1 446 155 195 471
2225 4 2 0 1 446 467 195 171
2226 4 2 0 1 195 467 446 471
2227 4 2 0 1 476 400 424 399
2228 4 2 0 1 411 424 400 399
2229 4 2 0 1 411 400 424 413
2230 4 2 0 1 481 422 434 435
2231 4 2 0 1 481 434 422 436
2232 4 2 0 1 43 29 445 30
2233 4 2 0 1 43 445 29 477
2234 4 2 0 1 28 445 29 30
2235 4 2 0 1 28 29 445 477
2236 4 2 0 1 213 56 473 212
2237 4 2 0 1 213 473 56 194
2238 4 2 0 1 291 360 466 359
2239 4 2 0 1 466 360 291 472
2240 4 2 0 1 20 46 441 51
2241 4 2 0 1 441 46 20 19
2242 4 2 0 1 176 223 178 222
2243 4 2 0 1 176 178 223 448
2244 4 2 0 1 452 297 372 298
2245 4 2 0 1 452 372 297 374
2246 4 2 0 1 451 324 310 347
2247 4 2 0 1 451 310 324 285
2248 4 2 0 1 13 15 47 17
2249 4 2 0 1 13 47 15 6
2250 4 2 0 1 292 333 466 293
2251 4 2 0 1 292 466 333 480
2252 4 2 0 1 124 53 448 57
2253 4 2 0 1 448 53 124 126
2254 4 2 0 1 448 127 124 57
2255 4 2 0 1 124 127 448 126
2256 4 2 0 1 220 281 282 287
2257 4 2 0 1 220 282 281 221
2258 4 2 0 1 145 147 473 242
2259 4 2 0 1 145 473 147 146
2260 4 2 0 1 150 473 147 242
2261 4 2 0 1 150 147 473 146
2262 4 2 0 1 361 340 178 378
2263 4 2 0 1 361 178 340 447
2264 4 2 0 1 464 396 178 378
2265 4 2 0 1 464 178 396 447
2266 4 2 0 1 396 361 178 378
2267 4 2 0 1 396 178 361 447
2268 4 2 0 1 346 388 465 353
2269 4 2 0 1 346 465 388 348
2270 4 2 0 1 321 330 304 309
2271 4 2 0 1 321 304 330 307
2272 4 2 0 1 305 304 330 309
2273 4 2 0 1 305 330 304 307
2274 4 2 0 1 466 432 442 433
2275 4 2 0 1 466 442 432 440
2276 4 2 0 1 428 442 432 433
2277 4 2 0 1 428 432 442 440
2278 4 2 0 1 452 153 318 334
2279 4 2 0 1 198 452 153 318
2280 4 2 0 1 198 153 452 152
2281 4 2 0 1 55 216 473 211
2282 4 2 0 1 473 216 55 471
2283 4 2 0 1 195 225 473 211
2284 4 2 0 1 473 225 195 471
2285 4 2 0 1 216 195 473 211
2286 4 2 0 1 473 195 216 471
2287 4 2 0 1 169 188 191 215
2288 4 2 0 1 191 188 169 209
2289 4 2 0 1 89 105 477 108
2290 4 2 0 1 477 105 89 86
2291 4 2 0 1 304 337 291 359
2292 4 2 0 1 304 291 337 351
2293 4 2 0 1 360 291 337 359
2294 4 2 0 1 360 337 291 351
2295 4 2 0 1 390 364 380 369
2296 4 2 0 1 390 380 364 363
2297 4 2 0 1 380 364 370 369
2298 4 2 0 1 380 370 364 363
2299 4 2 0 1 370 364 365 369
2300 4 2 0 1 370 365 364 363
2301 4 2 0 1 404 370 365 369
2302 4 2 0 1 404 365 370 363
2303 4 2 0 1 428 349 444 450
2304 4 2 0 1 428 444 349 350
2305 4 2 0 1 451 444 349 450
2306 4 2 0 1 451 349 444 350
2307 4 2 0 1 323 253 451 300
2308 4 2 0 1 451 253 323 450
2309 4 2 0 1 197 443 254 249
2310 4 2 0 1 197 254 443 462
2311 4 2 0 1 252 310 443 469
2312 4 2 0 1 252 443 310 311
2313 4 2 0 1 393 322 208 398
2314 4 2 0 1 208 393 474 313
2315 4 2 0 1 474 393 208 398
2316 4 2 0 1 208 474 465 313
2317 4 2 0 1 465 474 208 398
2318 4 2 0 1 314 208 393 322
2319 4 2 0 1 314 393 208 313
2320 4 2 0 1 39 62 454 441
2321 4 2 0 1 39 454 62 42
2322 4 2 0 1 46 39 441 62
2323 4 2 0 1 441 39 46 40
2324 4 2 0 1 99 65 470 66
2325 4 2 0 1 303 287 317 290
2326 4 2 0 1 303 329 317 356
2327 4 2 0 1 317 329 303 290
2328 4 2 0 1 303 327 317 287
2329 4 2 0 1 317 327 303 356
2330 4 2 0 1 337 302 358 303
2331 4 2 0 1 337 358 302 357
2332 4 2 0 1 356 358 302 303
2333 4 2 0 1 356 302 358 357
2334 4 2 0 1 295 328 290 303
2335 4 2 0 1 290 328 295 296
2336 4 2 0 1 295 282 290 296
2337 4 2 0 1 295 287 290 282
2338 4 2 0 1 290 287 295 303
2339 4 2 0 1 291 466 293 292
2340 4 2 0 1 293 466 291 472
2341 4 2 0 1 475 134 119 121
2342 4 2 0 1 122 475 134 119
2343 4 2 0 1 122 134 475 154
2344 4 2 0 1 49 59 64 20
2345 4 2 0 1 64 59 49 92
2346 4 2 0 1 451 310 469 450
2347 4 2 0 1 451 469 310 285
2348 4 2 0 1 256 158 259 474
2349 4 2 0 1 256 259 158 157
2350 4 2 0 1 312 259 158 474
2351 4 2 0 1 312 158 259 157
2352 4 2 0 1 474 246 264 263
2353 4 2 0 1 246 451 474 274
2354 4 2 0 1 474 451 246 263
2355 4 2 0 1 246 228 451 274
2356 4 2 0 1 451 228 246 263
2357 4 2 0 1 267 246 474 274
2358 4 2 0 1 267 474 246 264
2359 4 2 0 1 465 324 346 269
2360 4 2 0 1 465 346 324 347
2361 4 2 0 1 87 99 470 97
2362 4 2 0 1 99 67 470 65
2363 4 2 0 1 99 470 67 87
2364 4 2 0 1 400 424 412 476
2365 4 2 0 1 400 412 424 413
2366 4 2 0 1 204 412 424 476
2367 4 2 0 1 204 424 412 413
$EndElements
