$MeshFormat
2.2 0 8
$EndMeshFormat
$Nodes
167
1 0 0.1034480035305023 9.607318878173828
2 0 0.1034480035305023 10.10000133514404
3 0.08958899974822998 -0.05172400176525116 10.10000133514404
4 0.08958899974822998 -0.05172400176525116 9.607318878173828
5 -0.08958899974822998 -0.05172400176525116 10.10000133514404
6 -0.08958899974822998 -0.05172400176525116 9.607317924499512
7 0 0.1034480035305023 -10.10000133514404
8 0.08958899974822998 -0.05172400176525116 -10.10000038146973
9 -0.08958899974822998 -0.05172400176525116 -10.10000133514404
10 -0.08958899974822998 -0.05172400176525116 -9.607318878173828
11 0 0.1034480035305023 -9.607317924499512
12 -0.08958899974822998 -0.05172400176525116 -9.114635467529297
13 0 0.1034480035305023 -9.114635467529297
14 -0.08958899974822998 -0.05172400176525116 -8.621952056884766
15 0 0.1034480035305023 -8.621951103210449
16 -0.08958899974822998 -0.05172400176525116 -8.129269599914551
17 0 0.1034480035305023 -8.129267692565918
18 -0.08958899974822998 -0.05172400176525116 -7.636587142944336
19 0 0.1034480035305023 -7.636585235595703
20 -0.08958899974822998 -0.05172400176525116 -7.143904209136963
21 0 0.1034480035305023 -7.143901824951172
22 -0.08958899974822998 -0.05172400176525116 -6.651220798492432
23 0 0.1034480035305023 -6.651218891143799
24 -0.08958899974822998 -0.05172400176525116 -6.158537864685059
25 0 0.1034480035305023 -6.158535957336426
26 -0.08958899974822998 -0.05172400176525116 -5.665854930877686
27 0 0.1034480035305023 -5.665853023529053
28 -0.08958899974822998 -0.05172400176525116 -5.173171997070312
29 0 0.1034480035305023 -5.17317008972168
30 -0.08958899974822998 -0.05172400176525116 -4.680489063262939
31 0 0.1034480035305023 -4.680487155914307
32 -0.08958899974822998 -0.05172400176525116 -4.187806129455566
33 0 0.1034480035305023 -4.187804222106934
34 -0.08958899974822998 -0.05172400176525116 -3.695122957229614
35 0 0.1034480035305023 -3.695121049880981
36 -0.08958899974822998 -0.05172400176525116 -3.202440023422241
37 0 0.1034480035305023 -3.202438116073608
38 -0.08958899974822998 -0.05172400176525116 -2.709757089614868
39 0 0.1034480035305023 -2.709754943847656
40 -0.08958899974822998 -0.05172400176525116 -2.217073917388916
41 0 0.1034480035305023 -2.217072010040283
42 -0.08958899974822998 -0.05172400176525116 -1.724390983581543
43 0 0.1034480035305023 -1.724390029907227
44 -0.08958899974822998 -0.05172400176525116 -1.23170804977417
45 0 0.1034480035305023 -1.231706976890564
46 -0.08958899974822998 -0.05172400176525116 -0.7390249967575073
47 0 0.1034480035305023 -0.7390239834785461
48 -0.08958899974822998 -0.05172400176525116 -0.2463420033454895
49 0 0.1034480035305023 -0.2463410049676895
50 -0.08958899974822998 -0.05172400176525116 0.2463410049676895
51 0 0.1034480035305023 0.2463420033454895
52 -0.08958899974822998 -0.05172400176525116 0.7390239834785461
53 0 0.1034480035305023 0.7390249967575073
54 -0.08958899974822998 -0.05172400176525116 1.231706976890564
55 0 0.1034480035305023 1.23170804977417
56 -0.08958899974822998 -0.05172400176525116 1.724390029907227
57 0 0.1034480035305023 1.724390983581543
58 -0.08958899974822998 -0.05172400176525116 2.217072010040283
59 0 0.1034480035305023 2.217073917388916
60 -0.08958899974822998 -0.05172400176525116 2.709754943847656
61 0 0.1034480035305023 2.709757089614868
62 -0.08958899974822998 -0.05172400176525116 3.202438116073608
63 0 0.1034480035305023 3.202440023422241
64 -0.08958899974822998 -0.05172400176525116 3.695121049880981
65 0 0.1034480035305023 3.695122957229614
66 -0.08958899974822998 -0.05172400176525116 4.187804222106934
67 0 0.1034480035305023 4.187806129455566
68 -0.08958899974822998 -0.05172400176525116 4.680487155914307
69 0 0.1034480035305023 4.680489063262939
70 -0.08958899974822998 -0.05172400176525116 5.17317008972168
71 0 0.1034480035305023 5.173171997070312
72 -0.08958899974822998 -0.05172400176525116 5.665853023529053
73 0 0.1034480035305023 5.665854930877686
74 -0.08958899974822998 -0.05172400176525116 6.158535957336426
75 0 0.1034480035305023 6.158537864685059
76 -0.08958899974822998 -0.05172400176525116 6.651218891143799
77 0 0.1034480035305023 6.651220798492432
78 -0.08958899974822998 -0.05172400176525116 7.143901824951172
79 0 0.1034480035305023 7.143904209136963
80 -0.08958899974822998 -0.05172400176525116 7.636585235595703
81 0 0.1034480035305023 7.636587142944336
82 -0.08958899974822998 -0.05172400176525116 8.129267692565918
83 0 0.1034480035305023 8.129269599914551
84 -0.08958899974822998 -0.05172400176525116 8.621951103210449
85 0 0.1034480035305023 8.621952056884766
86 -0.08958899974822998 -0.05172400176525116 9.114635467529297
87 0 0.1034480035305023 9.114635467529297
88 0.08958899974822998 -0.05172400176525116 -9.607316970825195
89 0.08958899974822998 -0.05172400176525116 -9.114635467529297
90 0.08958899974822998 -0.05172400176525116 -8.621952056884766
91 0.08958899974822998 -0.05172400176525116 -8.129268646240234
92 0.08958899974822998 -0.05172400176525116 -7.63658618927002
93 0.08958899974822998 -0.05172400176525116 -7.143902778625488
94 0.08958899974822998 -0.05172400176525116 -6.651219844818115
95 0.08958899974822998 -0.05172400176525116 -6.158536911010742
96 0.08958899974822998 -0.05172400176525116 -5.665853977203369
97 0.08958899974822998 -0.05172400176525116 -5.173171043395996
98 0.08958899974822998 -0.05172400176525116 -4.680488109588623
99 0.08958899974822998 -0.05172400176525116 -4.18780517578125
100 0.08958899974822998 -0.05172400176525116 -3.695122003555298
101 0.08958899974822998 -0.05172400176525116 -3.202439069747925
102 0.08958899974822998 -0.05172400176525116 -2.709755897521973
103 0.08958899974822998 -0.05172400176525116 -2.2170729637146
104 0.08958899974822998 -0.05172400176525116 -1.724390029907227
105 0.08958899974822998 -0.05172400176525116 -1.231706976890564
106 0.08958899974822998 -0.05172400176525116 -0.7390239834785461
107 0.08958899974822998 -0.05172400176525116 -0.2463410049676895
108 0.08958899974822998 -0.05172400176525116 0.2463420033454895
109 0.08958899974822998 -0.05172400176525116 0.7390249967575073
110 0.08958899974822998 -0.05172400176525116 1.23170804977417
111 0.08958899974822998 -0.05172400176525116 1.724390983581543
112 0.08958899974822998 -0.05172400176525116 2.2170729637146
113 0.08958899974822998 -0.05172400176525116 2.709755897521973
114 0.08958899974822998 -0.05172400176525116 3.202439069747925
115 0.08958899974822998 -0.05172400176525116 3.695122003555298
116 0.08958899974822998 -0.05172400176525116 4.18780517578125
117 0.08958899974822998 -0.05172400176525116 4.680488109588623
118 0.08958899974822998 -0.05172400176525116 5.173171043395996
119 0.08958899974822998 -0.05172400176525116 5.665853977203369
120 0.08958899974822998 -0.05172400176525116 6.158536911010742
121 0.08958899974822998 -0.05172400176525116 6.651219844818115
122 0.08958899974822998 -0.05172400176525116 7.143902778625488
123 0.08958899974822998 -0.05172400176525116 7.63658618927002
124 0.08958899974822998 -0.05172400176525116 8.129268646240234
125 0.08958899974822998 -0.05172400176525116 8.621952056884766
126 0.08958899974822998 -0.05172400176525116 9.114635467529297
127 1.445126514713232e-08 8.343404503990204e-09 -8.375610192616676
128 -9.893614664713335e-19 -1.668682516113474e-08 -1.970731655756735
129 1.978721356989338e-18 4.946803392473345e-19 1.663963000034814e-07
130 9.893603493402312e-19 -8.283369480046057e-23 3.941463589668274
131 -1.806408579921846e-09 -1.042925816417748e-09 1.478049178918189
132 5.359035225592919e-19 -1.031776502434534e-18 -3.941463589668273
133 0 0 4.92682957649231
134 -1.445127447343433e-08 -8.343409887823343e-09 9.853659947713165
135 -2.890256759504462e-08 4.946808928260557e-19 -9.360976696014559
136 1.445126514960573e-08 8.343404504484886e-09 -9.853659470875957
137 -1.445124650050057e-08 -8.343393737268295e-09 8.868293603261263
138 -9.032042164607253e-10 -5.214628642851512e-10 -0.9853658278783231
139 -7.225632575050203e-09 -4.171702254428747e-09 -6.89756139119475
140 4.946804140551973e-19 0 -4.926829576492309
141 -3.612816871284385e-09 -2.085851461592728e-09 -2.463414470354758
142 0 1.668683592580759e-08 1.970731814702454
143 4.946802544651171e-19 -1.668680900847509e-08 8.375610192616676
144 1.445126514812168e-08 8.343404505106833e-09 9.360977013905893
145 0 0 7.882927417755128
146 -9.893608281103947e-19 0 5.912195444107057
147 9.032041825110025e-10 5.214628452350658e-10 0.9853661755720846
148 4.946804140551973e-19 0 -4.434146642684937
149 9.893608281103947e-19 0 5.419512510299683
150 -4.9468009487514e-19 -8.343401812799252e-09 7.390244563420525
151 9.687491441914281e-19 2.061168391896656e-20 3.448780536651612
152 9.893605089302343e-19 -4.171702254221164e-09 2.956097523371338
153 0 4.171702926153242e-09 2.463414470354758
154 -4.946804140551974e-19 0 -3.448780536651611
155 7.225630241003556e-09 4.171700904915584e-09 -7.390244563420523
156 1.806408436384213e-09 1.042925729559663e-09 -1.478048841158535
157 -2.258010669081638e-10 -1.303657228440603e-10 -0.4926828294992464
158 3.612816287030421e-09 2.085851126094522e-09 -2.956097523371337
159 4.946804140551974e-19 0 -5.419512510299682
160 0 1.668678747502054e-08 -8.868293603261264
161 -9.893608281103947e-19 0 -6.404878377914428
162 -4.946804140551974e-19 6.060944381553751e-21 6.40487837791443
163 2.258010646317182e-10 1.303657240031615e-10 0.4926831647753733
164 0 2.096594723632379e-18 -5.912195444107055
165 0 8.343404504484886e-09 6.897561391194751
166 -9.893617856521115e-19 0 -7.882927417755126
167 -9.893608281103947e-19 0 4.434146642684937
$EndNodes
$Elements
576
1 2 2 0 1 1 2 3
2 2 2 0 1 6 2 1
3 2 2 0 1 1 3 4
4 2 2 0 1 87 1 4
5 2 2 0 1 86 6 1
6 2 2 0 1 86 1 87
7 2 2 0 1 3 2 5
8 2 2 0 1 6 5 2
9 2 2 0 1 4 3 5
10 2 2 0 1 4 5 6
11 2 2 0 1 126 4 6
12 2 2 0 1 87 4 126
13 2 2 0 1 126 6 86
14 2 2 0 1 7 8 9
15 2 2 0 1 7 88 8
16 2 2 0 1 9 11 7
17 2 2 0 1 7 11 88
18 2 2 0 1 8 10 9
19 2 2 0 1 8 88 10
20 2 2 0 1 9 10 11
21 2 2 0 1 10 13 11
22 2 2 0 1 10 12 13
23 2 2 0 1 88 12 10
24 2 2 0 1 11 13 89
25 2 2 0 1 11 89 88
26 2 2 0 1 12 15 13
27 2 2 0 1 12 14 15
28 2 2 0 1 89 14 12
29 2 2 0 1 88 89 12
30 2 2 0 1 13 15 90
31 2 2 0 1 13 90 89
32 2 2 0 1 14 17 15
33 2 2 0 1 14 16 17
34 2 2 0 1 90 16 14
35 2 2 0 1 89 90 14
36 2 2 0 1 15 17 91
37 2 2 0 1 15 91 90
38 2 2 0 1 16 19 17
39 2 2 0 1 16 18 19
40 2 2 0 1 91 18 16
41 2 2 0 1 90 91 16
42 2 2 0 1 17 19 92
43 2 2 0 1 17 92 91
44 2 2 0 1 18 21 19
45 2 2 0 1 18 20 21
46 2 2 0 1 92 20 18
47 2 2 0 1 91 92 18
48 2 2 0 1 19 21 93
49 2 2 0 1 19 93 92
50 2 2 0 1 20 23 21
51 2 2 0 1 20 22 23
52 2 2 0 1 93 22 20
53 2 2 0 1 92 93 20
54 2 2 0 1 21 23 94
55 2 2 0 1 21 94 93
56 2 2 0 1 22 25 23
57 2 2 0 1 22 24 25
58 2 2 0 1 94 24 22
59 2 2 0 1 93 94 22
60 2 2 0 1 23 25 95
61 2 2 0 1 23 95 94
62 2 2 0 1 24 27 25
63 2 2 0 1 24 26 27
64 2 2 0 1 95 26 24
65 2 2 0 1 94 95 24
66 2 2 0 1 25 27 96
67 2 2 0 1 25 96 95
68 2 2 0 1 26 29 27
69 2 2 0 1 26 28 29
70 2 2 0 1 96 28 26
71 2 2 0 1 95 96 26
72 2 2 0 1 27 29 97
73 2 2 0 1 27 97 96
74 2 2 0 1 28 31 29
75 2 2 0 1 28 30 31
76 2 2 0 1 97 30 28
77 2 2 0 1 96 97 28
78 2 2 0 1 29 31 98
79 2 2 0 1 29 98 97
80 2 2 0 1 30 33 31
81 2 2 0 1 30 32 33
82 2 2 0 1 98 32 30
83 2 2 0 1 97 98 30
84 2 2 0 1 31 33 99
85 2 2 0 1 31 99 98
86 2 2 0 1 32 35 33
87 2 2 0 1 32 34 35
88 2 2 0 1 99 34 32
89 2 2 0 1 98 99 32
90 2 2 0 1 33 35 100
91 2 2 0 1 33 100 99
92 2 2 0 1 34 37 35
93 2 2 0 1 34 36 37
94 2 2 0 1 100 36 34
95 2 2 0 1 99 100 34
96 2 2 0 1 35 37 101
97 2 2 0 1 35 101 100
98 2 2 0 1 36 39 37
99 2 2 0 1 36 38 39
100 2 2 0 1 101 38 36
101 2 2 0 1 100 101 36
102 2 2 0 1 37 39 102
103 2 2 0 1 37 102 101
104 2 2 0 1 38 41 39
105 2 2 0 1 38 40 41
106 2 2 0 1 102 40 38
107 2 2 0 1 101 102 38
108 2 2 0 1 39 41 103
109 2 2 0 1 39 103 102
110 2 2 0 1 40 43 41
111 2 2 0 1 40 42 43
112 2 2 0 1 103 42 40
113 2 2 0 1 102 103 40
114 2 2 0 1 41 43 104
115 2 2 0 1 41 104 103
116 2 2 0 1 42 45 43
117 2 2 0 1 42 44 45
118 2 2 0 1 104 44 42
119 2 2 0 1 103 104 42
120 2 2 0 1 43 45 105
121 2 2 0 1 43 105 104
122 2 2 0 1 44 47 45
123 2 2 0 1 44 46 47
124 2 2 0 1 105 46 44
125 2 2 0 1 104 105 44
126 2 2 0 1 45 47 106
127 2 2 0 1 45 106 105
128 2 2 0 1 46 49 47
129 2 2 0 1 46 48 49
130 2 2 0 1 106 48 46
131 2 2 0 1 105 106 46
132 2 2 0 1 47 49 107
133 2 2 0 1 47 107 106
134 2 2 0 1 48 51 49
135 2 2 0 1 48 50 51
136 2 2 0 1 107 50 48
137 2 2 0 1 106 107 48
138 2 2 0 1 49 51 108
139 2 2 0 1 49 108 107
140 2 2 0 1 50 53 51
141 2 2 0 1 50 52 53
142 2 2 0 1 108 52 50
143 2 2 0 1 107 108 50
144 2 2 0 1 51 53 109
145 2 2 0 1 51 109 108
146 2 2 0 1 52 55 53
147 2 2 0 1 52 54 55
148 2 2 0 1 109 54 52
149 2 2 0 1 108 109 52
150 2 2 0 1 53 55 110
151 2 2 0 1 53 110 109
152 2 2 0 1 54 57 55
153 2 2 0 1 54 56 57
154 2 2 0 1 110 56 54
155 2 2 0 1 109 110 54
156 2 2 0 1 55 57 111
157 2 2 0 1 55 111 110
158 2 2 0 1 56 59 57
159 2 2 0 1 56 58 59
160 2 2 0 1 111 58 56
161 2 2 0 1 110 111 56
162 2 2 0 1 57 59 112
163 2 2 0 1 57 112 111
164 2 2 0 1 58 61 59
165 2 2 0 1 58 60 61
166 2 2 0 1 112 60 58
167 2 2 0 1 111 112 58
168 2 2 0 1 59 61 113
169 2 2 0 1 59 113 112
170 2 2 0 1 60 63 61
171 2 2 0 1 60 62 63
172 2 2 0 1 113 62 60
173 2 2 0 1 112 113 60
174 2 2 0 1 61 63 114
175 2 2 0 1 61 114 113
176 2 2 0 1 62 65 63
177 2 2 0 1 62 64 65
178 2 2 0 1 114 64 62
179 2 2 0 1 113 114 62
180 2 2 0 1 63 65 115
181 2 2 0 1 63 115 114
182 2 2 0 1 64 67 65
183 2 2 0 1 64 66 67
184 2 2 0 1 115 66 64
185 2 2 0 1 114 115 64
186 2 2 0 1 65 67 116
187 2 2 0 1 65 116 115
188 2 2 0 1 66 69 67
189 2 2 0 1 66 68 69
190 2 2 0 1 116 68 66
191 2 2 0 1 115 116 66
192 2 2 0 1 67 69 117
193 2 2 0 1 67 117 116
194 2 2 0 1 68 71 69
195 2 2 0 1 68 70 71
196 2 2 0 1 117 70 68
197 2 2 0 1 116 117 68
198 2 2 0 1 69 71 118
199 2 2 0 1 69 118 117
200 2 2 0 1 70 73 71
201 2 2 0 1 70 72 73
202 2 2 0 1 118 72 70
203 2 2 0 1 117 118 70
204 2 2 0 1 71 73 119
205 2 2 0 1 71 119 118
206 2 2 0 1 72 75 73
207 2 2 0 1 72 74 75
208 2 2 0 1 119 74 72
209 2 2 0 1 118 119 72
210 2 2 0 1 73 75 120
211 2 2 0 1 73 120 119
212 2 2 0 1 74 77 75
213 2 2 0 1 74 76 77
214 2 2 0 1 120 76 74
215 2 2 0 1 119 120 74
216 2 2 0 1 75 77 121
217 2 2 0 1 75 121 120
218 2 2 0 1 76 79 77
219 2 2 0 1 76 78 79
220 2 2 0 1 121 78 76
221 2 2 0 1 120 121 76
222 2 2 0 1 77 79 122
223 2 2 0 1 77 122 121
224 2 2 0 1 78 81 79
225 2 2 0 1 78 80 81
226 2 2 0 1 122 80 78
227 2 2 0 1 121 122 78
228 2 2 0 1 79 81 123
229 2 2 0 1 79 123 122
230 2 2 0 1 80 83 81
231 2 2 0 1 80 82 83
232 2 2 0 1 123 82 80
233 2 2 0 1 122 123 80
234 2 2 0 1 81 83 124
235 2 2 0 1 81 124 123
236 2 2 0 1 82 85 83
237 2 2 0 1 82 84 85
238 2 2 0 1 124 84 82
239 2 2 0 1 123 124 82
240 2 2 0 1 83 85 125
241 2 2 0 1 83 125 124
242 2 2 0 1 84 87 85
243 2 2 0 1 84 86 87
244 2 2 0 1 125 86 84
245 2 2 0 1 124 125 84
246 2 2 0 1 85 87 126
247 2 2 0 1 85 126 125
248 2 2 0 1 125 126 86
249 4 2 0 1 111 56 57 131
250 4 2 0 1 118 70 71 133
251 4 2 0 1 91 16 17 127
252 4 2 0 1 108 50 51 129
253 4 2 0 1 33 32 99 132
254 4 2 0 1 41 40 103 128
255 4 2 0 1 116 66 67 130
256 4 2 0 1 126 86 87 137
257 4 2 0 1 40 41 103 141
258 4 2 0 1 53 52 109 147
259 4 2 0 1 10 11 88 136
260 4 2 0 1 58 112 59 153
261 4 2 0 1 14 15 90 160
262 4 2 0 1 19 18 92 155
263 4 2 0 1 106 46 47 138
264 4 2 0 1 48 49 107 157
265 4 2 0 1 52 53 109 163
266 4 2 0 1 44 45 105 156
267 4 2 0 1 114 62 63 152
268 4 2 0 1 31 30 98 148
269 4 2 0 1 29 28 97 140
270 4 2 0 1 73 72 119 146
271 4 2 0 1 62 114 63 151
272 4 2 0 1 94 22 23 139
273 4 2 0 1 86 126 87 144
274 4 2 0 1 4 1 6 134
275 4 2 0 1 72 73 119 149
276 4 2 0 1 26 27 96 164
277 4 2 0 1 68 69 117 167
278 4 2 0 1 25 95 24 161
279 4 2 0 1 28 29 97 159
280 4 2 0 1 125 84 85 143
281 4 2 0 1 38 39 102 158
282 4 2 0 1 101 36 37 154
283 4 2 0 1 121 76 77 162
284 4 2 0 1 56 111 57 142
285 4 2 0 1 82 83 124 145
286 4 2 0 1 18 19 92 166
287 4 2 0 1 12 13 89 135
288 4 2 0 1 78 79 122 165
289 4 2 0 1 79 78 122 150
290 4 2 0 1 3 5 2 134
291 4 2 0 1 9 8 7 136
292 4 2 0 1 1 4 6 144
293 4 2 0 1 83 82 124 143
294 4 2 0 1 13 12 89 160
295 4 2 0 1 43 42 104 156
296 4 2 0 1 54 55 110 147
297 4 2 0 1 84 125 85 137
298 4 2 0 1 45 44 105 138
299 4 2 0 1 50 108 51 163
300 4 2 0 1 46 106 47 157
301 4 2 0 1 20 21 93 155
302 4 2 0 1 60 113 61 152
303 4 2 0 1 39 38 102 141
304 4 2 0 1 120 74 75 146
305 4 2 0 1 30 31 98 140
306 4 2 0 1 112 58 59 142
307 4 2 0 1 21 20 93 139
308 4 2 0 1 113 60 61 153
309 4 2 0 1 80 81 123 150
310 4 2 0 1 11 10 88 135
311 4 2 0 1 115 64 65 151
312 4 2 0 1 32 33 99 148
313 4 2 0 1 76 121 77 165
314 4 2 0 1 36 101 37 158
315 4 2 0 1 27 26 96 159
316 4 2 0 1 74 120 75 162
317 4 2 0 1 95 25 24 164
318 4 2 0 1 70 118 71 149
319 4 2 0 1 34 100 35 154
320 4 2 0 1 66 116 67 167
321 4 2 0 1 16 91 17 166
322 4 2 0 1 22 94 23 161
323 4 2 0 1 81 80 123 145
324 4 2 0 1 64 115 65 130
325 4 2 0 1 42 43 104 128
326 4 2 0 1 49 48 107 129
327 4 2 0 1 100 34 35 132
328 4 2 0 1 15 14 90 127
329 4 2 0 1 55 54 110 131
330 4 2 0 1 69 68 117 133
331 4 2 0 1 5 4 6 134
332 4 2 0 1 126 87 85 137
333 4 2 0 1 25 23 95 161
334 4 2 0 1 125 126 85 137
335 4 2 0 1 11 13 10 135
336 4 2 0 1 10 13 12 135
337 4 2 0 1 7 88 11 136
338 4 2 0 1 7 11 9 136
339 4 2 0 1 66 69 68 167
340 4 2 0 1 125 86 126 137
341 4 2 0 1 44 46 105 138
342 4 2 0 1 20 22 93 139
343 4 2 0 1 4 1 87 144
344 4 2 0 1 105 46 106 138
345 4 2 0 1 43 45 42 156
346 4 2 0 1 114 61 113 152
347 4 2 0 1 74 76 120 162
348 4 2 0 1 14 89 12 160
349 4 2 0 1 115 114 64 151
350 4 2 0 1 84 86 125 137
351 4 2 0 1 71 73 70 149
352 4 2 0 1 103 39 102 141
353 4 2 0 1 124 125 83 143
354 4 2 0 1 40 102 38 141
355 4 2 0 1 103 102 40 141
356 4 2 0 1 60 113 112 153
357 4 2 0 1 19 21 18 155
358 4 2 0 1 93 92 20 155
359 4 2 0 1 18 91 16 166
360 4 2 0 1 119 73 71 149
361 4 2 0 1 26 95 24 164
362 4 2 0 1 4 126 6 144
363 4 2 0 1 122 121 78 165
364 4 2 0 1 27 97 29 159
365 4 2 0 1 109 108 52 163
366 4 2 0 1 106 107 47 157
367 4 2 0 1 74 77 76 162
368 4 2 0 1 115 66 116 130
369 4 2 0 1 102 37 101 158
370 4 2 0 1 41 39 103 141
371 4 2 0 1 122 77 121 165
372 4 2 0 1 42 45 44 156
373 4 2 0 1 34 37 36 154
374 4 2 0 1 125 124 84 143
375 4 2 0 1 115 65 63 151
376 4 2 0 1 114 115 63 151
377 4 2 0 1 56 58 111 142
378 4 2 0 1 82 85 84 143
379 4 2 0 1 101 35 100 154
380 4 2 0 1 22 25 24 161
381 4 2 0 1 55 53 110 147
382 4 2 0 1 12 15 14 160
383 4 2 0 1 84 124 82 143
384 4 2 0 1 53 55 52 147
385 4 2 0 1 24 94 22 161
386 4 2 0 1 84 87 86 137
387 4 2 0 1 70 73 72 149
388 4 2 0 1 52 55 54 147
389 4 2 0 1 63 65 62 151
390 4 2 0 1 86 6 126 144
391 4 2 0 1 81 83 80 145
392 4 2 0 1 87 1 86 144
393 4 2 0 1 49 108 51 129
394 4 2 0 1 74 119 72 146
395 4 2 0 1 106 48 107 157
396 4 2 0 1 52 54 109 147
397 4 2 0 1 46 48 106 157
398 4 2 0 1 120 119 74 146
399 4 2 0 1 99 31 98 148
400 4 2 0 1 46 49 48 157
401 4 2 0 1 82 124 123 145
402 4 2 0 1 31 33 30 148
403 4 2 0 1 114 113 62 152
404 4 2 0 1 13 90 15 160
405 4 2 0 1 99 34 100 132
406 4 2 0 1 113 59 112 153
407 4 2 0 1 20 23 22 139
408 4 2 0 1 19 93 21 155
409 4 2 0 1 59 61 58 153
410 4 2 0 1 57 59 56 142
411 4 2 0 1 32 98 30 148
412 4 2 0 1 111 58 112 142
413 4 2 0 1 98 97 30 140
414 4 2 0 1 3 4 5 134
415 4 2 0 1 30 33 32 148
416 4 2 0 1 119 118 72 149
417 4 2 0 1 80 82 123 145
418 4 2 0 1 123 122 80 150
419 4 2 0 1 93 22 94 139
420 4 2 0 1 99 98 32 148
421 4 2 0 1 13 15 12 160
422 4 2 0 1 110 56 111 131
423 4 2 0 1 120 75 73 146
424 4 2 0 1 34 36 100 154
425 4 2 0 1 58 61 60 153
426 4 2 0 1 105 106 45 138
427 4 2 0 1 62 64 114 151
428 4 2 0 1 108 109 51 163
429 4 2 0 1 120 73 119 146
430 4 2 0 1 76 79 78 165
431 4 2 0 1 123 81 79 150
432 4 2 0 1 110 109 54 147
433 4 2 0 1 114 63 61 152
434 4 2 0 1 38 101 36 158
435 4 2 0 1 78 121 76 165
436 4 2 0 1 57 112 59 142
437 4 2 0 1 29 97 98 140
438 4 2 0 1 45 106 47 138
439 4 2 0 1 28 96 26 159
440 4 2 0 1 36 39 38 158
441 4 2 0 1 92 17 91 166
442 4 2 0 1 124 81 123 145
443 4 2 0 1 45 47 44 138
444 4 2 0 1 86 1 6 144
445 4 2 0 1 83 81 124 145
446 4 2 0 1 73 75 72 146
447 4 2 0 1 26 29 28 159
448 4 2 0 1 93 94 21 139
449 4 2 0 1 37 39 36 158
450 4 2 0 1 31 99 33 148
451 4 2 0 1 62 113 60 152
452 4 2 0 1 125 85 83 143
453 4 2 0 1 110 53 109 147
454 4 2 0 1 29 98 31 140
455 4 2 0 1 72 118 70 149
456 4 2 0 1 60 63 62 152
457 4 2 0 1 58 60 112 153
458 4 2 0 1 16 19 18 166
459 4 2 0 1 61 63 60 152
460 4 2 0 1 35 101 37 154
461 4 2 0 1 101 100 36 154
462 4 2 0 1 83 85 82 143
463 4 2 0 1 27 25 96 164
464 4 2 0 1 49 47 107 157
465 4 2 0 1 50 108 107 129
466 4 2 0 1 68 71 70 133
467 4 2 0 1 25 27 24 164
468 4 2 0 1 66 68 116 167
469 4 2 0 1 104 44 105 156
470 4 2 0 1 24 27 26 164
471 4 2 0 1 113 61 59 153
472 4 2 0 1 35 37 34 154
473 4 2 0 1 118 71 69 133
474 4 2 0 1 92 91 18 166
475 4 2 0 1 21 23 20 139
476 4 2 0 1 47 49 46 157
477 4 2 0 1 102 101 38 158
478 4 2 0 1 37 102 39 158
479 4 2 0 1 20 92 18 155
480 4 2 0 1 56 59 58 142
481 4 2 0 1 4 87 126 144
482 4 2 0 1 97 96 28 159
483 4 2 0 1 50 53 52 163
484 4 2 0 1 39 41 38 141
485 4 2 0 1 42 44 104 156
486 4 2 0 1 93 19 92 155
487 4 2 0 1 85 87 84 137
488 4 2 0 1 78 81 80 150
489 4 2 0 1 30 97 28 140
490 4 2 0 1 10 88 8 136
491 4 2 0 1 118 119 71 149
492 4 2 0 1 116 68 117 167
493 4 2 0 1 43 105 45 156
494 4 2 0 1 75 77 74 162
495 4 2 0 1 38 41 40 141
496 4 2 0 1 79 81 78 150
497 4 2 0 1 23 25 22 161
498 4 2 0 1 103 42 104 128
499 4 2 0 1 121 77 75 162
500 4 2 0 1 90 13 89 160
501 4 2 0 1 78 80 122 150
502 4 2 0 1 95 23 94 161
503 4 2 0 1 52 108 50 163
504 4 2 0 1 104 105 43 156
505 4 2 0 1 29 31 28 140
506 4 2 0 1 28 31 30 140
507 4 2 0 1 117 67 116 167
508 4 2 0 1 40 43 42 128
509 4 2 0 1 95 94 24 161
510 4 2 0 1 8 88 7 136
511 4 2 0 1 9 11 10 136
512 4 2 0 1 10 8 9 136
513 4 2 0 1 11 89 13 135
514 4 2 0 1 88 89 11 135
515 4 2 0 1 88 12 89 135
516 4 2 0 1 4 3 1 134
517 4 2 0 1 1 3 2 134
518 4 2 0 1 1 2 6 134
519 4 2 0 1 6 2 5 134
520 4 2 0 1 123 79 122 150
521 4 2 0 1 23 21 94 139
522 4 2 0 1 76 121 120 162
523 4 2 0 1 121 75 120 162
524 4 2 0 1 51 53 50 163
525 4 2 0 1 109 53 51 163
526 4 2 0 1 18 21 20 155
527 4 2 0 1 80 83 82 145
528 4 2 0 1 96 95 26 164
529 4 2 0 1 96 25 95 164
530 4 2 0 1 77 79 76 165
531 4 2 0 1 79 77 122 165
532 4 2 0 1 12 88 10 135
533 4 2 0 1 72 75 74 146
534 4 2 0 1 17 19 16 166
535 4 2 0 1 19 17 92 166
536 4 2 0 1 44 47 46 138
537 4 2 0 1 67 69 66 167
538 4 2 0 1 67 117 69 167
539 4 2 0 1 62 65 64 151
540 4 2 0 1 27 29 26 159
541 4 2 0 1 97 27 96 159
542 4 2 0 1 90 89 14 160
543 4 2 0 1 112 57 111 142
544 4 2 0 1 15 91 17 127
545 4 2 0 1 16 91 90 127
546 4 2 0 1 14 16 90 127
547 4 2 0 1 14 17 16 127
548 4 2 0 1 15 91 127 90
549 4 2 0 1 17 14 15 127
550 4 2 0 1 43 40 41 128
551 4 2 0 1 41 104 43 128
552 4 2 0 1 103 42 128 40
553 4 2 0 1 104 41 103 128
554 4 2 0 1 48 50 107 129
555 4 2 0 1 48 51 50 129
556 4 2 0 1 49 108 129 107
557 4 2 0 1 51 48 49 129
558 4 2 0 1 64 67 66 130
559 4 2 0 1 116 67 65 130
560 4 2 0 1 67 64 65 130
561 4 2 0 1 115 116 65 130
562 4 2 0 1 115 66 130 64
563 4 2 0 1 54 57 56 131
564 4 2 0 1 55 111 57 131
565 4 2 0 1 57 54 55 131
566 4 2 0 1 111 55 110 131
567 4 2 0 1 110 56 131 54
568 4 2 0 1 32 35 34 132
569 4 2 0 1 35 33 100 132
570 4 2 0 1 35 32 33 132
571 4 2 0 1 100 33 99 132
572 4 2 0 1 99 34 132 32
573 4 2 0 1 117 118 69 133
574 4 2 0 1 117 70 118 133
575 4 2 0 1 68 71 133 69
576 4 2 0 1 68 70 117 133
$EndElements
