# Blender v2.92.0 OBJ File: 'rope_scene.blend'
# www.blender.org
mtllib rope_holder.mtl
o Cylinder
v 0.000000 0.103448 -10.100001
v 0.000000 0.103448 10.100001
v 0.089589 -0.051724 -10.100000
v 0.089589 -0.051724 10.100001
v -0.089589 -0.051724 -10.100001
v -0.089589 -0.051724 10.100001
v 0.000000 0.103448 -9.607318
v 0.000000 0.103448 -9.114635
v 0.000000 0.103448 -8.621951
v 0.000000 0.103448 -8.129268
v 0.000000 0.103448 -7.636585
v 0.000000 0.103448 -7.143902
v 0.000000 0.103448 -6.651219
v 0.000000 0.103448 -6.158536
v 0.000000 0.103448 -5.665853
v 0.000000 0.103448 -5.173170
v 0.000000 0.103448 -4.680487
v 0.000000 0.103448 -4.187804
v 0.000000 0.103448 -3.695121
v 0.000000 0.103448 -3.202438
v 0.000000 0.103448 -2.709755
v 0.000000 0.103448 -2.217072
v 0.000000 0.103448 -1.724390
v 0.000000 0.103448 -1.231707
v 0.000000 0.103448 -0.739024
v 0.000000 0.103448 -0.246341
v 0.000000 0.103448 0.246342
v 0.000000 0.103448 0.739025
v 0.000000 0.103448 1.231708
v 0.000000 0.103448 1.724391
v 0.000000 0.103448 2.217074
v 0.000000 0.103448 2.709757
v 0.000000 0.103448 3.202440
v 0.000000 0.103448 3.695123
v 0.000000 0.103448 4.187806
v 0.000000 0.103448 4.680489
v 0.000000 0.103448 5.173172
v 0.000000 0.103448 5.665855
v 0.000000 0.103448 6.158538
v 0.000000 0.103448 6.651221
v 0.000000 0.103448 7.143904
v 0.000000 0.103448 7.636587
v 0.000000 0.103448 8.129270
v 0.000000 0.103448 8.621952
v 0.000000 0.103448 9.114635
v 0.000000 0.103448 9.607319
v 0.089589 -0.051724 9.607319
v 0.089589 -0.051724 9.114635
v 0.089589 -0.051724 8.621952
v 0.089589 -0.051724 8.129269
v 0.089589 -0.051724 7.636586
v 0.089589 -0.051724 7.143903
v 0.089589 -0.051724 6.651220
v 0.089589 -0.051724 6.158537
v 0.089589 -0.051724 5.665854
v 0.089589 -0.051724 5.173171
v 0.089589 -0.051724 4.680488
v 0.089589 -0.051724 4.187805
v 0.089589 -0.051724 3.695122
v 0.089589 -0.051724 3.202439
v 0.089589 -0.051724 2.709756
v 0.089589 -0.051724 2.217073
v 0.089589 -0.051724 1.724391
v 0.089589 -0.051724 1.231708
v 0.089589 -0.051724 0.739025
v 0.089589 -0.051724 0.246342
v 0.089589 -0.051724 -0.246341
v 0.089589 -0.051724 -0.739024
v 0.089589 -0.051724 -1.231707
v 0.089589 -0.051724 -1.724390
v 0.089589 -0.051724 -2.217073
v 0.089589 -0.051724 -2.709756
v 0.089589 -0.051724 -3.202439
v 0.089589 -0.051724 -3.695122
v 0.089589 -0.051724 -4.187805
v 0.089589 -0.051724 -4.680488
v 0.089589 -0.051724 -5.173171
v 0.089589 -0.051724 -5.665854
v 0.089589 -0.051724 -6.158537
v 0.089589 -0.051724 -6.651220
v 0.089589 -0.051724 -7.143903
v 0.089589 -0.051724 -7.636586
v 0.089589 -0.051724 -8.129269
v 0.089589 -0.051724 -8.621952
v 0.089589 -0.051724 -9.114635
v 0.089589 -0.051724 -9.607317
v -0.089589 -0.051724 9.607318
v -0.089589 -0.051724 9.114635
v -0.089589 -0.051724 8.621951
v -0.089589 -0.051724 8.129268
v -0.089589 -0.051724 7.636585
v -0.089589 -0.051724 7.143902
v -0.089589 -0.051724 6.651219
v -0.089589 -0.051724 6.158536
v -0.089589 -0.051724 5.665853
v -0.089589 -0.051724 5.173170
v -0.089589 -0.051724 4.680487
v -0.089589 -0.051724 4.187804
v -0.089589 -0.051724 3.695121
v -0.089589 -0.051724 3.202438
v -0.089589 -0.051724 2.709755
v -0.089589 -0.051724 2.217072
v -0.089589 -0.051724 1.724390
v -0.089589 -0.051724 1.231707
v -0.089589 -0.051724 0.739024
v -0.089589 -0.051724 0.246341
v -0.089589 -0.051724 -0.246342
v -0.089589 -0.051724 -0.739025
v -0.089589 -0.051724 -1.231708
v -0.089589 -0.051724 -1.724391
v -0.089589 -0.051724 -2.217074
v -0.089589 -0.051724 -2.709757
v -0.089589 -0.051724 -3.202440
v -0.089589 -0.051724 -3.695123
v -0.089589 -0.051724 -4.187806
v -0.089589 -0.051724 -4.680489
v -0.089589 -0.051724 -5.173172
v -0.089589 -0.051724 -5.665855
v -0.089589 -0.051724 -6.158538
v -0.089589 -0.051724 -6.651221
v -0.089589 -0.051724 -7.143904
v -0.089589 -0.051724 -7.636587
v -0.089589 -0.051724 -8.129270
v -0.089589 -0.051724 -8.621952
v -0.089589 -0.051724 -9.114635
v -0.089589 -0.051724 -9.607319
vt 1.000000 0.987805
vt 1.000000 1.000000
vt 0.666667 1.000000
vt 0.666667 0.987805
vt 0.333333 1.000000
vt 0.333333 0.987805
vt 0.457846 0.130000
vt 0.250000 0.490000
vt 0.042154 0.130000
vt -0.000000 1.000000
vt -0.000000 0.987805
vt 0.750000 0.490000
vt 0.957846 0.130000
vt 0.542154 0.130000
vt 0.333333 0.500000
vt 0.333333 0.512195
vt -0.000000 0.512195
vt -0.000000 0.500000
vt 0.333333 0.524390
vt -0.000000 0.524390
vt 0.333333 0.536585
vt -0.000000 0.536585
vt 0.333333 0.548780
vt -0.000000 0.548780
vt 0.333333 0.560976
vt -0.000000 0.560976
vt 0.333333 0.573171
vt -0.000000 0.573171
vt 0.333333 0.585366
vt -0.000000 0.585366
vt 0.333333 0.597561
vt -0.000000 0.597561
vt 0.333333 0.609756
vt -0.000000 0.609756
vt 0.333333 0.621951
vt -0.000000 0.621951
vt 0.333333 0.634146
vt -0.000000 0.634146
vt 0.333333 0.646341
vt -0.000000 0.646341
vt 0.333333 0.658537
vt -0.000000 0.658536
vt 0.333333 0.670732
vt -0.000000 0.670732
vt 0.333333 0.682927
vt -0.000000 0.682927
vt 0.333333 0.695122
vt -0.000000 0.695122
vt 0.333333 0.707317
vt -0.000000 0.707317
vt 0.333333 0.719512
vt -0.000000 0.719512
vt 0.333333 0.731707
vt -0.000000 0.731707
vt 0.333333 0.743902
vt -0.000000 0.743902
vt 0.333333 0.756098
vt -0.000000 0.756097
vt 0.333333 0.768293
vt -0.000000 0.768292
vt 0.333333 0.780488
vt -0.000000 0.780488
vt 0.333333 0.792683
vt -0.000000 0.792683
vt 0.333333 0.804878
vt -0.000000 0.804878
vt 0.333333 0.817073
vt -0.000000 0.817073
vt 0.333333 0.829268
vt -0.000000 0.829268
vt 0.333333 0.841464
vt -0.000000 0.841463
vt 0.333333 0.853659
vt -0.000000 0.853658
vt 0.333333 0.865854
vt -0.000000 0.865853
vt 0.333333 0.878049
vt -0.000000 0.878049
vt 0.333333 0.890244
vt -0.000000 0.890244
vt 0.333333 0.902439
vt -0.000000 0.902439
vt 0.333333 0.914634
vt -0.000000 0.914634
vt 0.333333 0.926829
vt -0.000000 0.926829
vt 0.333333 0.939025
vt -0.000000 0.939024
vt 0.333333 0.951220
vt -0.000000 0.951219
vt 0.333333 0.963415
vt -0.000000 0.963415
vt 0.333333 0.975610
vt -0.000000 0.975610
vt 0.666667 0.500000
vt 0.666667 0.512195
vt 0.666667 0.524390
vt 0.666667 0.536585
vt 0.666667 0.548780
vt 0.666667 0.560976
vt 0.666667 0.573171
vt 0.666667 0.585366
vt 0.666667 0.597561
vt 0.666667 0.609756
vt 0.666667 0.621951
vt 0.666667 0.634146
vt 0.666667 0.646341
vt 0.666667 0.658537
vt 0.666667 0.670732
vt 0.666667 0.682927
vt 0.666667 0.695122
vt 0.666667 0.707317
vt 0.666667 0.719512
vt 0.666667 0.731707
vt 0.666667 0.743902
vt 0.666667 0.756098
vt 0.666667 0.768293
vt 0.666667 0.780488
vt 0.666667 0.792683
vt 0.666667 0.804878
vt 0.666667 0.817073
vt 0.666667 0.829268
vt 0.666667 0.841464
vt 0.666667 0.853659
vt 0.666667 0.865854
vt 0.666667 0.878049
vt 0.666667 0.890244
vt 0.666667 0.902439
vt 0.666667 0.914634
vt 0.666667 0.926829
vt 0.666667 0.939024
vt 0.666667 0.951219
vt 0.666667 0.963415
vt 0.666667 0.975610
vt 1.000000 0.500000
vt 1.000000 0.512195
vt 1.000000 0.524390
vt 1.000000 0.536585
vt 1.000000 0.548780
vt 1.000000 0.560976
vt 1.000000 0.573171
vt 1.000000 0.585366
vt 1.000000 0.597561
vt 1.000000 0.609756
vt 1.000000 0.621951
vt 1.000000 0.634146
vt 1.000000 0.646341
vt 1.000000 0.658536
vt 1.000000 0.670732
vt 1.000000 0.682927
vt 1.000000 0.695122
vt 1.000000 0.707317
vt 1.000000 0.719512
vt 1.000000 0.731707
vt 1.000000 0.743902
vt 1.000000 0.756097
vt 1.000000 0.768292
vt 1.000000 0.780488
vt 1.000000 0.792683
vt 1.000000 0.804878
vt 1.000000 0.817073
vt 1.000000 0.829268
vt 1.000000 0.841463
vt 1.000000 0.853658
vt 1.000000 0.865853
vt 1.000000 0.878049
vt 1.000000 0.890244
vt 1.000000 0.902439
vt 1.000000 0.914634
vt 1.000000 0.926829
vt 1.000000 0.939024
vt 1.000000 0.951219
vt 1.000000 0.963415
vt 1.000000 0.975610
vn 0.8660 0.5000 0.0000
vn 0.0000 -1.0000 0.0000
vn 0.0000 0.0000 1.0000
vn -0.8660 0.5000 0.0000
vn 0.0000 -0.0000 -1.0000
usemtl None
s off
f 46/1/1 2/2/1 4/3/1 47/4/1
f 47/4/2 4/3/2 6/5/2 87/6/2
f 4/7/3 2/8/3 6/9/3
f 87/6/4 6/5/4 2/10/4 46/11/4
f 1/12/5 3/13/5 5/14/5
f 5/15/4 126/16/4 7/17/4 1/18/4
f 126/16/4 125/19/4 8/20/4 7/17/4
f 125/19/4 124/21/4 9/22/4 8/20/4
f 124/21/4 123/23/4 10/24/4 9/22/4
f 123/23/4 122/25/4 11/26/4 10/24/4
f 122/25/4 121/27/4 12/28/4 11/26/4
f 121/27/4 120/29/4 13/30/4 12/28/4
f 120/29/4 119/31/4 14/32/4 13/30/4
f 119/31/4 118/33/4 15/34/4 14/32/4
f 118/33/4 117/35/4 16/36/4 15/34/4
f 117/35/4 116/37/4 17/38/4 16/36/4
f 116/37/4 115/39/4 18/40/4 17/38/4
f 115/39/4 114/41/4 19/42/4 18/40/4
f 114/41/4 113/43/4 20/44/4 19/42/4
f 113/43/4 112/45/4 21/46/4 20/44/4
f 112/45/4 111/47/4 22/48/4 21/46/4
f 111/47/4 110/49/4 23/50/4 22/48/4
f 110/49/4 109/51/4 24/52/4 23/50/4
f 109/51/4 108/53/4 25/54/4 24/52/4
f 108/53/4 107/55/4 26/56/4 25/54/4
f 107/55/4 106/57/4 27/58/4 26/56/4
f 106/57/4 105/59/4 28/60/4 27/58/4
f 105/59/4 104/61/4 29/62/4 28/60/4
f 104/61/4 103/63/4 30/64/4 29/62/4
f 103/63/4 102/65/4 31/66/4 30/64/4
f 102/65/4 101/67/4 32/68/4 31/66/4
f 101/67/4 100/69/4 33/70/4 32/68/4
f 100/69/4 99/71/4 34/72/4 33/70/4
f 99/71/4 98/73/4 35/74/4 34/72/4
f 98/73/4 97/75/4 36/76/4 35/74/4
f 97/75/4 96/77/4 37/78/4 36/76/4
f 96/77/4 95/79/4 38/80/4 37/78/4
f 95/79/4 94/81/4 39/82/4 38/80/4
f 94/81/4 93/83/4 40/84/4 39/82/4
f 93/83/4 92/85/4 41/86/4 40/84/4
f 92/85/4 91/87/4 42/88/4 41/86/4
f 91/87/4 90/89/4 43/90/4 42/88/4
f 90/89/4 89/91/4 44/92/4 43/90/4
f 89/91/4 88/93/4 45/94/4 44/92/4
f 88/93/4 87/6/4 46/11/4 45/94/4
f 3/95/2 86/96/2 126/16/2 5/15/2
f 86/96/2 85/97/2 125/19/2 126/16/2
f 85/97/2 84/98/2 124/21/2 125/19/2
f 84/98/2 83/99/2 123/23/2 124/21/2
f 83/99/2 82/100/2 122/25/2 123/23/2
f 82/100/2 81/101/2 121/27/2 122/25/2
f 81/101/2 80/102/2 120/29/2 121/27/2
f 80/102/2 79/103/2 119/31/2 120/29/2
f 79/103/2 78/104/2 118/33/2 119/31/2
f 78/104/2 77/105/2 117/35/2 118/33/2
f 77/105/2 76/106/2 116/37/2 117/35/2
f 76/106/2 75/107/2 115/39/2 116/37/2
f 75/107/2 74/108/2 114/41/2 115/39/2
f 74/108/2 73/109/2 113/43/2 114/41/2
f 73/109/2 72/110/2 112/45/2 113/43/2
f 72/110/2 71/111/2 111/47/2 112/45/2
f 71/111/2 70/112/2 110/49/2 111/47/2
f 70/112/2 69/113/2 109/51/2 110/49/2
f 69/113/2 68/114/2 108/53/2 109/51/2
f 68/114/2 67/115/2 107/55/2 108/53/2
f 67/115/2 66/116/2 106/57/2 107/55/2
f 66/116/2 65/117/2 105/59/2 106/57/2
f 65/117/2 64/118/2 104/61/2 105/59/2
f 64/118/2 63/119/2 103/63/2 104/61/2
f 63/119/2 62/120/2 102/65/2 103/63/2
f 62/120/2 61/121/2 101/67/2 102/65/2
f 61/121/2 60/122/2 100/69/2 101/67/2
f 60/122/2 59/123/2 99/71/2 100/69/2
f 59/123/2 58/124/2 98/73/2 99/71/2
f 58/124/2 57/125/2 97/75/2 98/73/2
f 57/125/2 56/126/2 96/77/2 97/75/2
f 56/126/2 55/127/2 95/79/2 96/77/2
f 55/127/2 54/128/2 94/81/2 95/79/2
f 54/128/2 53/129/2 93/83/2 94/81/2
f 53/129/2 52/130/2 92/85/2 93/83/2
f 52/130/2 51/131/2 91/87/2 92/85/2
f 51/131/2 50/132/2 90/89/2 91/87/2
f 50/132/2 49/133/2 89/91/2 90/89/2
f 49/133/2 48/134/2 88/93/2 89/91/2
f 48/134/2 47/4/2 87/6/2 88/93/2
f 1/135/1 7/136/1 86/96/1 3/95/1
f 7/136/1 8/137/1 85/97/1 86/96/1
f 8/137/1 9/138/1 84/98/1 85/97/1
f 9/138/1 10/139/1 83/99/1 84/98/1
f 10/139/1 11/140/1 82/100/1 83/99/1
f 11/140/1 12/141/1 81/101/1 82/100/1
f 12/141/1 13/142/1 80/102/1 81/101/1
f 13/142/1 14/143/1 79/103/1 80/102/1
f 14/143/1 15/144/1 78/104/1 79/103/1
f 15/144/1 16/145/1 77/105/1 78/104/1
f 16/145/1 17/146/1 76/106/1 77/105/1
f 17/146/1 18/147/1 75/107/1 76/106/1
f 18/147/1 19/148/1 74/108/1 75/107/1
f 19/148/1 20/149/1 73/109/1 74/108/1
f 20/149/1 21/150/1 72/110/1 73/109/1
f 21/150/1 22/151/1 71/111/1 72/110/1
f 22/151/1 23/152/1 70/112/1 71/111/1
f 23/152/1 24/153/1 69/113/1 70/112/1
f 24/153/1 25/154/1 68/114/1 69/113/1
f 25/154/1 26/155/1 67/115/1 68/114/1
f 26/155/1 27/156/1 66/116/1 67/115/1
f 27/156/1 28/157/1 65/117/1 66/116/1
f 28/157/1 29/158/1 64/118/1 65/117/1
f 29/158/1 30/159/1 63/119/1 64/118/1
f 30/159/1 31/160/1 62/120/1 63/119/1
f 31/160/1 32/161/1 61/121/1 62/120/1
f 32/161/1 33/162/1 60/122/1 61/121/1
f 33/162/1 34/163/1 59/123/1 60/122/1
f 34/163/1 35/164/1 58/124/1 59/123/1
f 35/164/1 36/165/1 57/125/1 58/124/1
f 36/165/1 37/166/1 56/126/1 57/125/1
f 37/166/1 38/167/1 55/127/1 56/126/1
f 38/167/1 39/168/1 54/128/1 55/127/1
f 39/168/1 40/169/1 53/129/1 54/128/1
f 40/169/1 41/170/1 52/130/1 53/129/1
f 41/170/1 42/171/1 51/131/1 52/130/1
f 42/171/1 43/172/1 50/132/1 51/131/1
f 43/172/1 44/173/1 49/133/1 50/132/1
f 44/173/1 45/174/1 48/134/1 49/133/1
f 45/174/1 46/1/1 47/4/1 48/134/1
